<svg xmlns="http://www.w3.org/2000/svg" viewBox="0 0 375 239.88"><title>poca-letter</title><g id="Top"><path d="M78.85,144.44c-1.58,3.34-2.7,4.34-3.9,4.34-2,0-3.48-3.2-3.48-7.2a18.17,18.17,0,0,1,.38-3.64c.08-.4.48-2.28.56-2.72l2.14,1c.2.1.54.26.54.44s-.14.22-.4.42a11.87,11.87,0,0,0-1,5c0,2.7.84,4,1.48,4s1.54-1.86,2-3Zm6,1.16a14.66,14.66,0,0,0-2.62-8.3l2.14-.9a18.62,18.62,0,0,1,2.94,8.88Z" style="fill:#fafdff"/><path d="M96.41,146.26c4.4-.38,7.76-1.84,7.76-5.12a3.07,3.07,0,0,0-3.26-3.12c-1.3,0-2.08.3-6.52,2-1.74.66-2.4.86-3.32,1.14l-1.1-2.3a27.61,27.61,0,0,0,4.46-1.16c4.6-1.58,5.14-1.78,6.74-1.78a5,5,0,0,1,5.22,5.24,6.27,6.27,0,0,1-2.74,5.2c-1.58,1.06-2.86,1.48-6,2.24Z" style="fill:#fafdff"/><path d="M125.11,136.24a10.66,10.66,0,0,0-4.44,1.82c-1.1.78-3.74,2.9-3.74,5.78,0,3.42,3.28,3.78,5.38,3.84l-.74,2.36a10.94,10.94,0,0,1-3.9-1.12,5.37,5.37,0,0,1-3-4.64c0-3.58,2.6-5.76,4.24-7.14-.64.06-3.42.5-4,.58-1.42.22-2.64.38-4.16.6l-.4-2.22A79,79,0,0,0,125,134Zm-1.06,6.1a11.82,11.82,0,0,0-2.12-1.72l.78-1a12.45,12.45,0,0,1,2.24,1.7Zm1.56-2a10.35,10.35,0,0,0-2.06-1.7l.8-.9a11,11,0,0,1,2.1,1.64Z" style="fill:#fafdff"/><path d="M139.23,143.94c-.38,0-1,.08-1.78.08a13.07,13.07,0,0,1-2-.14,10.48,10.48,0,0,0-.24,1.86c0,1.74,1.2,2.48,2.72,2.48a3.51,3.51,0,0,0,3.82-3.34,5.14,5.14,0,0,0-1.12-3l1.86-1.06a8.61,8.61,0,0,1,1.34,4.32c0,2.72-2,5.08-6,5.08-3.64,0-4.86-2.36-4.86-4.14a11,11,0,0,1,.4-2.6,16.53,16.53,0,0,1-2.7-.78l.4-2.26a10.75,10.75,0,0,0,2.84,1.08c.26-.92.68-2.2.88-2.8-1.16-.22-1.94-.42-3.16-.76l.32-2.28a10.94,10.94,0,0,0,3.5,1.14,35.74,35.74,0,0,0,1.28-4l2.12,1c.18.08.52.26.52.42s-.16.16-.42.28a19,19,0,0,0-1.32,2.64c.22,0,.76.06,1.18.06a12.89,12.89,0,0,0,1.66-.14l-.56,2.16a29.24,29.24,0,0,1-3-.18c-.46,1.24-.7,2-.94,2.82.36,0,.92.06,1.72.06a9.88,9.88,0,0,0,2.18-.22Z" style="fill:#fafdff"/><path d="M148.67,141.1c1.3-.16,1.78-.26,3.6-.6a21.42,21.42,0,0,0,4.7-4.74,37.45,37.45,0,0,1-4.3.6l-.64-2.08a21,21,0,0,0,7.56-1l1.2,1.92a5,5,0,0,0-1.62,1.26,42.33,42.33,0,0,1-3.74,3.34c1.38-.24,5.06-1.12,7.4-1.84L163,140a7.64,7.64,0,0,0-3.52,1.22c-.9.58-3.42,2.3-3.42,4.36s2.6,2.1,4.62,2.16l-.34,2.22a11.79,11.79,0,0,1-4-.8,3.58,3.58,0,0,1-2.44-3.2c0-2.14,1.52-3.52,2.8-4.68-4.16,1-6.36,1.66-7.48,2Z" style="fill:#fafdff"/><path d="M168.47,149.64a22.23,22.23,0,0,1-1.08-6.76,32,32,0,0,1,.64-5.64c.08-.42.58-3,.6-3.2l1.74.68c.56.22.58.32.58.42s-.14.2-.34.36a18.37,18.37,0,0,0-1.3,7.16,19.5,19.5,0,0,0,.18,2.78c.1-.22.68-1.28.8-1.54l1.32.8a19,19,0,0,0-1.52,4.58Zm13.52-1.3a9.79,9.79,0,0,0-2.26-1.48c0,1.1-.08,2.68-3.26,2.68-2.94,0-3.74-1.52-3.74-2.66s.92-2.74,3.86-2.74a8.19,8.19,0,0,1,.86,0c-.08-1.14-.14-2.38-.24-4.56a29,29,0,0,1-3.82.22l0-2.08c.36,0,1.22.06,2,.06a16.83,16.83,0,0,0,1.82-.08c0-1.52-.12-2.58-.24-3.78l1.9.08c.24,0,.76,0,.76.3,0,.1,0,.1-.18.3a.61.61,0,0,0-.14.44c0,.36,0,2.32,0,2.36a10.83,10.83,0,0,0,2.38-.76l.14,2a23.06,23.06,0,0,1-2.56.6,35.67,35.67,0,0,0,.26,5.32,17.29,17.29,0,0,1,3.5,1.68Zm-5.72-2.44c-1,0-1.6.38-1.6.92,0,.8,1.18.86,1.48.86,1.44,0,1.44-.9,1.44-1.56A4.06,4.06,0,0,0,176.27,145.9Zm6-9.84a13,13,0,0,0-1.66-1.66l.86-.84a8.72,8.72,0,0,1,1.66,1.6Zm1.4-1.58a12.3,12.3,0,0,0-1.6-1.62l.74-.86a8.44,8.44,0,0,1,1.78,1.6Z" style="fill:#fafdff"/><path d="M188.21,149.36a13.61,13.61,0,0,1-1.46-6.56c0-2.22.26-3.46,1.38-9l2,.8c.4.16.52.22.52.38s0,.1,0,.12a1.88,1.88,0,0,1-.3.12c-.4.16-1.54,4.62-1.54,7.7a12.65,12.65,0,0,0,.16,2,12.49,12.49,0,0,0,.78-1.32l1.32,1a10.15,10.15,0,0,0-1.3,4.22Zm13.26-1.12a24.89,24.89,0,0,1-4,.26c-4.2,0-5.12-.88-4.92-4.68l2-.18a4.15,4.15,0,0,0-.14,1.1c0,1,.66,1.62,2.38,1.62a21.08,21.08,0,0,0,4.7-.6Zm-.58-11a26.48,26.48,0,0,1-5.06.54,9.69,9.69,0,0,1-2.58-.26l0-2.1a10.92,10.92,0,0,0,3.06.4,15.79,15.79,0,0,0,4.64-.68Z" style="fill:#fafdff"/><path d="M205.37,146.18a8.5,8.5,0,0,1,3.94,2.82l-1.52,1.52a9.6,9.6,0,0,0-3.2-3.2Z" style="fill:#fafdff"/><path d="M76.9,167.55a32,32,0,0,1-5.16,2.94L70,168.61a27.79,27.79,0,0,0,11.88-8.72l1.5,1.3c.56.5.64.54.64.72s-.06.18-.62.18c-.18,0-.26.1-1,.88a31.76,31.76,0,0,1-3.2,2.88v10.58H76.9Z" style="fill:#fafdff"/><path d="M89.28,172.31a20.39,20.39,0,0,0,7.4-6.16H90v-2.1H97.8l-.1-3.92,1.84.06c.68,0,.76,0,.76.24s-.06.22-.22.32-.2.22-.2.36l.08,2.94h4.26v2.1H100l.2,7.54c.06,2.24-1.22,2.76-4.34,2.72l-.94-2.3a15.29,15.29,0,0,0,1.54.1c1.38,0,1.54-.3,1.52-1.16L97.9,168a25.31,25.31,0,0,1-7.08,6.22Z" style="fill:#fafdff"/><path d="M113.26,165.79a19,19,0,0,0-3.52-3.44l1.54-1.78a27.48,27.48,0,0,1,3.66,3.32Zm11.54.8c-4.38,5-7,6.18-12,8.4-1,.44-1.08.5-1.2.76s-.14.34-.3.34-.2-.08-.46-.64l-1-2.14c8.22-2.16,11.5-6.06,13.8-8.78Z" style="fill:#fafdff"/><path d="M134.7,159.83l2,.12c.72,0,.8.06.8.26s0,.14-.18.28-.18.2-.18.34v2.32h3.44a2,2,0,0,0,1.12-.46l1.6,1.74a2,2,0,0,0-.66,1.38c-.58,3.84-1.64,7.74-7.3,11l-1.9-1.72c6.46-3.1,6.82-8.38,6.92-10h-9.2v4.38H128.9v-6.34h5.8Z" style="fill:#fafdff"/><path d="M156.86,174.51c0,1.92-.86,2.24-3.42,2.28l-.92-2.06c.52,0,1,.1,1.5.1.88,0,1-.26.94-.82l-.1-4a21.13,21.13,0,0,1-5.66,5l-1.28-1.54a16.38,16.38,0,0,0,6-5h-5.54v-1.76h6.44l-.08-3.18,1.56.06c.48,0,.66,0,.66.22s0,.14-.26.34a.24.24,0,0,0-.08.22l.06,2.34h3.5v1.76H156.7Z" style="fill:#fafdff"/><path d="M179.72,167.13v2.22H165.36v-2.22Z" style="fill:#fafdff"/><path d="M185,175.05a14.77,14.77,0,0,0,6.74-4.44,19.13,19.13,0,0,0-3.68-2.28l1.26-1.48A23.36,23.36,0,0,1,193,169a16.85,16.85,0,0,0,1.86-4h-5.42a15.2,15.2,0,0,1-3.78,4.12l-1.86-1.26a15.4,15.4,0,0,0,5.86-8l1.92.76c.54.22.54.3.54.4s-.14.2-.28.22-.28.1-.56.64-.42.82-.64,1.24h4.52a2,2,0,0,0,1.18-.56l1.72,1.54a2.84,2.84,0,0,0-1.08,1.5,23,23,0,0,1-2.32,4.66,15.14,15.14,0,0,1,1.7,1.46l-1.52,1.84a13.42,13.42,0,0,0-1.46-1.56,16,16,0,0,1-6.76,4.84Z" style="fill:#fafdff"/><path d="M216.52,167.13v2.22H202.16v-2.22Z" style="fill:#fafdff"/></g></svg>