<svg xmlns="http://www.w3.org/2000/svg" viewBox="0 0 375 1200.42"><title>poca</title><g id="Concept"><path d="M374.75,160.86v-105c-74.5,71.51-252.5-111-374.5-38.49V160.86C69.25,236.86,307.25,205.86,374.75,160.86Z" style="fill:#fafdff"/><path d="M45.16,54.54H42.72V44.3H39V42.6c2.82,0,3.38-.8,4.1-2.66h2.08Z" style="fill:#32c8ff"/><path d="M53.18,51.84v2.7h-2.7v-2.7Z" style="fill:#32c8ff"/><path d="M65.4,51c-.34.2-2,1.16-2,1.2s-.34.58-.44.58-.16-.14-.26-.46l-.58-2A13.47,13.47,0,0,0,65.4,49V46.82l-1.54.78a18.72,18.72,0,0,0-1.54-3.08l1.56-.76a18,18,0,0,1,1.52,2.48v-4.9l1.74.12c.34,0,.6,0,.6.18s0,.1-.3.26-.22.18-.22.34V55.7H65.4Zm12.33-4H68.32V45.66h7.53V44.9H69.26V43.7h6.59v-.76H68.32V41.56h8.93v-.74H64.74v2.4h-2v-4h7V38l2.35.12c.18,0,.44,0,.44.2s0,.08-.26.3-.14.16-.14.62h7.2v3.8H77.73Zm.92,8.66a15.86,15.86,0,0,1-5.8-1.42,17.2,17.2,0,0,1-4.29,1.52l-1.12-1.54a20.76,20.76,0,0,0,3.73-.92c-.8-.56-1.14-.86-1.49-1.14l1.07-.94h-.67V49.88H77l.48.6a13.26,13.26,0,0,1-2.92,2.74,17.08,17.08,0,0,0,5.14.7Zm.72-4.78H77.65v-1.8H69.71v1.8H68V47.8H79.37Zm-8,.34a6,6,0,0,0,1.54,1.24,7.16,7.16,0,0,0,1.6-1.24Z" style="fill:#32c8ff"/><path d="M88.4,52.4c1.72.74,2.89,1,6.51,1a29.69,29.69,0,0,0,4.88-.32l-.92,2.38H95.05c-6.83,0-8.25-1.82-9.83-3.82A33,33,0,0,1,84,55.52l-2-.86a19.83,19.83,0,0,0,2-7.58l2,.22c.18,0,.36.14.36.28s0,.18-.38.4c-.16.1-.2.36-.24.8s-.12.76-.18,1.08a8.72,8.72,0,0,0,.88,1.1V46.1H82.74V44.2h3.6V42.5h-3V40.66h3V38.54l2.26.16c.28,0,.36.16.36.24s0,.16-.4.38a.31.31,0,0,0-.16.32v1h2.71V42.5H88.4v1.7h2.87v1.9H88.4V48h2.71V49.8H88.4Zm10.85-3.46c-.26,2.82-1,3-2.42,3H93.47A1.3,1.3,0,0,1,92,50.44v-5.9h4.73V41.6H91.62V39.66h7.19v7.28H96.69v-.56H93.81v3c0,.66.14.78.82.78h1.9c.62,0,.72-.18.94-1.9Z" style="fill:#32c8ff"/><path d="M115.93,41.32a34.15,34.15,0,0,1-3.5,1.36c.18.44.3.74.7,1.62A14.5,14.5,0,0,0,117,42.38l.5,2.12A23,23,0,0,1,114,46a15.19,15.19,0,0,0,2.8,3.94l-1.46,1.66a8.63,8.63,0,0,0-4.93-1.66c-1.26,0-2.66.64-2.66,1.82,0,1.36,1.72,1.66,3.35,1.66a19,19,0,0,0,3.9-.5V55.1a19,19,0,0,1-3.3.28c-3.71,0-6-.9-6-3.52s2.08-3.6,4.55-3.6a11,11,0,0,1,3.18.52A12.8,12.8,0,0,1,112,46.6a26.13,26.13,0,0,1-6.69.9l-.72-2a16,16,0,0,0,1.72.12,22.37,22.37,0,0,0,4.87-.74c-.25-.56-.34-.78-.71-1.7a20.09,20.09,0,0,1-5,.56l-.64-2a12.48,12.48,0,0,0,1.6.1,19,19,0,0,0,3.39-.36c-.31-.82-.87-2.32-1.17-2.88h2.18c.66,0,.74,0,.74.22s-.23.42-.23.5a13.71,13.71,0,0,0,.48,1.68,11.83,11.83,0,0,0,3.58-1.74Z" style="fill:#32c8ff"/><path d="M131.62,53c1.27-.36,5.27-1.46,5.27-6s-3.8-5.08-5-5.26a33.25,33.25,0,0,1-2.49,9.5c-.2.46-1.16,2.64-2.34,2.64S123,52.06,123,48.06a8.36,8.36,0,0,1,8.62-8.28c4.63,0,7.55,3,7.55,7.18,0,5.6-4.5,7.28-6,7.84Zm-6.68-4.9c0,1.78,1,3.08,1.72,3.08.44,0,.8-.82,1.06-1.42a24.65,24.65,0,0,0,1.92-7.82A6.37,6.37,0,0,0,124.94,48.06Z" style="fill:#32c8ff"/><path d="M62.46,77.7a14.23,14.23,0,0,0,5-8.4H63.22V67.24h5.53l.89.6a15.41,15.41,0,0,1-5.18,11ZM79.17,66.32c.3.12.44.22.44.38s-.22.24-.52.26-.38.24-1.24,1.18a40.4,40.4,0,0,1-3.46,3.48,16.75,16.75,0,0,0,5.64,5l-1.78,1.74a19.68,19.68,0,0,1-5.78-6.54V78.6c0,1.68-1.3,1.86-3.37,1.94l-.92-2.24c1.53,0,1.7,0,1.93-.14s.19-.78.19-1V63.36l1.91.18c.7.06.78.06.78.24a.34.34,0,0,1-.12.2c-.32.28-.4.34-.4.52v2a10.29,10.29,0,0,0,.94,3.38,19.87,19.87,0,0,0,3.74-4.44Z" style="fill:#32c8ff"/><path d="M90.27,65.48V63.42h4.34c1.24,3.58,2.3,5.12,6.06,6.64l-1.48,2.1A16.11,16.11,0,0,1,96.13,70c0,1.94,0,6.84-.48,8.4-.44,1.38-1.72,1.8-4,1.86l-.92-2.46c.54.06,1.22.08,1.64.08,1.12,0,1.36-.22,1.46-1.38.08-.84.14-2.58.14-5H91.17a10.12,10.12,0,0,1-6.07,8.88l-1.64-1.8c4.72-1.68,5.29-5.08,5.42-7.08H86.24V70a13.5,13.5,0,0,1-2.5,2.24l-1.62-1.52a14.29,14.29,0,0,0,5.24-6.46l2,1c.15.08.34.2.34.38s-.06.24-.46.3c-.16,0-.18.1-.34.38a16.81,16.81,0,0,1-2.32,3.28h9.21a11.54,11.54,0,0,1-2.72-4.18Z" style="fill:#32c8ff"/><path d="M110,71.92a5.46,5.46,0,0,1-.91,1l-.94-1a8.37,8.37,0,0,0,1-1.28l.82.82V68.76h3.7v-1.2h-4.16a24.69,24.69,0,0,1-2.17,3.78A10.48,10.48,0,0,0,109.75,74l-1.23,1.08a8.38,8.38,0,0,1-1.34-1.54V80.7h-1.94V74.1c-.74.78-1.16,1.16-1.56,1.54l-1.62-1.3A15.27,15.27,0,0,0,107,68.46h-4.12V66.62h2.42V63.26l1.9.12c.24,0,.48,0,.48.18s-.26.3-.26.32a.62.62,0,0,0-.18.54v2.2h1.36l.62.56v-1.4h4.51V63.26l1.64,0c.2,0,.52,0,.52.22s-.32.32-.36.38a.6.6,0,0,0-.08.38v1.5h1.9a6.59,6.59,0,0,0-1.3-1.6l1.28-.86a7.73,7.73,0,0,1,1.42,1.8l-.92.66H120v1.78h-4.5v1.2h3.88V78.94c0,.64-.16,1.76-1.42,1.76h-1.28l-.84-1.84H117c.44,0,.54-.38.54-.7v-2h-2.1v4.16h-1.72V76.2h-2v4.44H110Zm3.7-1.62h-2v1.46h2Zm0,2.94h-2v1.48h2Zm3.82-2.94h-2.1v1.46h2.1Zm0,2.94h-2.1v1.48h2.1Z" style="fill:#32c8ff"/><path d="M124.74,74.14c.52.14.58.16.58.32s0,.12-.22.18-.06.06-.1.4a26.7,26.7,0,0,1-.8,4l-1.78-.6a18.79,18.79,0,0,0,1-4.7Zm-1-8.26c.08.06.44.3.52.34A10.93,10.93,0,0,0,126,63l1.26.72c.5.28.56.32.56.44s-.06.14-.32.18c-.1,0-.18.14-.22.2-.6.9-1.46,2.22-1.8,2.68a9,9,0,0,1,.8.74,23.3,23.3,0,0,0,1.8-3l1.57.84c.28.16.48.26.48.42s-.4.22-.44.26-3,3.7-3.57,4.36l2-.12a10,10,0,0,0-.56-1.14L129,69a28.81,28.81,0,0,1,1.49,3.3l-1.54.64a2.58,2.58,0,0,0-.24-.72l-1.15.16v8.26h-1.94v-8a13.69,13.69,0,0,0-2.22.28c0,.06-.22.3-.26.3-.2,0-.28-.44-.32-.66l-.32-1.74a11.13,11.13,0,0,0,1.6.06c.18-.22.94-1.18,1.1-1.4a14.1,14.1,0,0,0-2.46-2.3Zm5.91,7.82a19.15,19.15,0,0,0,1,4.06l-1.75.46a25.7,25.7,0,0,1-.9-4.14Zm8.44-3.94v1.76H132V69.78a3.36,3.36,0,0,1-.85.72l-1.67-1.18a12.32,12.32,0,0,0,4.68-6.24l1.74.44c.44.12.62.18.62.34s-.08.2-.34.32c.3.64,1,2.26,4.58,4.86l-1.46,1.52A18.48,18.48,0,0,1,135,66a22.09,22.09,0,0,1-3,3.72Zm-.7,10.64v-.78h-4.08v.84h-2v-7.4h8.16V80.4Zm0-5.72h-4.08V78h4.08Z" style="fill:#32c8ff"/><path d="M145.44,79.64A13.61,13.61,0,0,1,144,73.08c0-2.22.26-3.46,1.38-9l2,.8c.4.16.52.22.52.38s0,.1,0,.12a1.88,1.88,0,0,1-.3.12c-.4.16-1.54,4.62-1.54,7.7a12.65,12.65,0,0,0,.16,2,12.49,12.49,0,0,0,.78-1.32l1.33,1a10,10,0,0,0-1.31,4.22Zm13.27-1.12a24.89,24.89,0,0,1-4,.26c-4.21,0-5.13-.88-4.92-4.68l2-.18a4.15,4.15,0,0,0-.14,1.1c0,1,.66,1.62,2.38,1.62a21.08,21.08,0,0,0,4.7-.6Zm-.58-11a26.48,26.48,0,0,1-5.06.54,9.69,9.69,0,0,1-2.58-.26l0-2.1a11.05,11.05,0,0,0,3.07.4,15.79,15.79,0,0,0,4.64-.68Z" style="fill:#32c8ff"/><path d="M374.25,567.86v-130c-198-34-262,84-374-12v135C25.25,644.86,309.25,622.86,374.25,567.86Z" style="fill:#fafdff"/><path d="M374.25,1036.86v-209c-97,35-297,57-374-18v391C125.25,1182.86,310.25,1120.86,374.25,1036.86Z" style="fill:#fafdff"/><path d="M41.29,888.36c.06.8.2,2.82,2.54,2.82a2.31,2.31,0,0,0,2.46-2.5c0-2.26-2.1-2.48-2.94-2.48h-.82v-1.74h.82a2.34,2.34,0,0,0,2.6-2.28,1.85,1.85,0,0,0-2-2,2.27,2.27,0,0,0-2.36,2.5H39.15a4.43,4.43,0,0,1,4.78-4.56c2.94,0,4.44,2,4.44,3.84a3.09,3.09,0,0,1-1.94,3,3.87,3.87,0,0,1,2.32,3.7c0,2.6-1.9,4.56-5,4.56-2.92,0-4.76-1.8-4.92-4.9Z" style="fill:#32c8ff"/><path d="M53.29,890.3V893h-2.7V890.3Z" style="fill:#32c8ff"/><path d="M77.21,892.72a24.85,24.85,0,0,0-5-5.32,18.59,18.59,0,0,1-7,5.35l-1.7-1.69a17.74,17.74,0,0,0,10-10H65.73V878.9h8.12a2.49,2.49,0,0,0,1.72-.6l1.56,1.92c-.92.4-1,.62-1.28,1.18a24.79,24.79,0,0,1-2.3,4.18,24.28,24.28,0,0,1,5.36,5.32Z" style="fill:#32c8ff"/><path d="M82.75,889.68a16.09,16.09,0,0,0,4.16-4.54l1.54,1c.44.3.48.32.48.46s-.2.22-.38.24-.16,0-.28.2a23.63,23.63,0,0,1-3.56,4.05ZM87.47,891a11.9,11.9,0,0,0,1.76.14c.88,0,.88-.05.88-1.14v-6.64h-6v-2h6v-3.88l2,.34c.42.06.6.18.6.34s0,.1-.26.28a.31.31,0,0,0-.16.32v2.6h5.88v2H92.33v7.42c0,2.52-.7,2.55-4,2.59Zm9.68-.22a17.53,17.53,0,0,0-3.28-4.5l1.7-1.28a16.33,16.33,0,0,1,3.5,4.4Zm-1.42-12.46a2,2,0,1,1,1.94,2A2,2,0,0,1,95.73,878.28Zm3,0a1.05,1.05,0,1,0-2.1,0,1.05,1.05,0,1,0,2.1,0Z" style="fill:#32c8ff"/><path d="M118.37,884.3v2.22H104V884.3Z" style="fill:#32c8ff"/><path d="M125.55,884.32a18.32,18.32,0,0,0-1.94-3.9l2-.82a16.25,16.25,0,0,1,2,3.92Zm.92,7.23c7.16-2.93,8.66-8.11,9.6-12.81l2.1.68c.2.06.62.2.62.4s-.18.24-.28.26-.18.08-.24.28c-1.78,6.18-4,10-9.92,12.93Zm3.66-8.31a14.11,14.11,0,0,0-1.68-4l2-.8a17.53,17.53,0,0,1,1.82,4.08Z" style="fill:#32c8ff"/><path d="M158.41,880A10.66,10.66,0,0,0,154,881.8c-1.1.78-3.74,2.9-3.74,5.78,0,3.43,3.28,3.78,5.38,3.84l-.74,2.37a10.94,10.94,0,0,1-3.9-1.12,5.38,5.38,0,0,1-3-4.65c0-3.58,2.6-5.76,4.24-7.14-.64.06-3.42.5-4,.58-1.42.22-2.64.38-4.16.6l-.4-2.22a79,79,0,0,0,14.68-2.12Zm-1.06,6.1a11.82,11.82,0,0,0-2.12-1.72l.78-1a12.45,12.45,0,0,1,2.24,1.7Zm1.56-2a10.35,10.35,0,0,0-2.06-1.7l.8-.9a11,11,0,0,1,2.1,1.64Z" style="fill:#32c8ff"/><path d="M63.31,906.24a13.16,13.16,0,0,1,3.62,2.2l-1.3,1.74A18.33,18.33,0,0,0,62,908ZM67.93,913c-.5,1.24-1.06,2.46-1.66,3.66-.72,1.49-.8,1.65-.8,1.85s0,.26,0,.38a.15.15,0,0,1-.16.14,1.3,1.3,0,0,1-.58-.29L63,917.56a28.67,28.67,0,0,0,3.16-5.82ZM64.59,901.4a14,14,0,0,1,3.22,2.34l-1.24,1.74a25.55,25.55,0,0,0-3.32-2.18Zm3.12,7.42h5.1v-4.5H68.23v-2H79.37v2H75v4.5h5.08v2H75v8.35H72.81v-8.35h-5.1Z" style="fill:#32c8ff"/><path d="M98.57,910l-4.06,1.58c.08,1.32.18,2.72.2,4H92.45c.1-2.6.1-2.66.1-3.16-.72.36-2.8,1.38-2.8,3S91.41,917,92.59,917a24.06,24.06,0,0,0,5.16-.71v2.16a25,25,0,0,1-4.52.42c-2.28,0-5.56-.25-5.56-3.06s2.94-4.3,4.78-5.24a1.6,1.6,0,0,0-1.58-1.42c-1.84,0-3.48,2.32-4.4,3.76l-1.84-1.2a20.53,20.53,0,0,0,4-5.38c-.26,0-1.88.12-2.82.08l-.28-2.08a22.62,22.62,0,0,0,2.6.12l1.38,0a18.71,18.71,0,0,0,.82-2.66l1.94.34c.72.12.72.2.72.3s0,.14-.44.42a12.27,12.27,0,0,0-.68,1.36,17.19,17.19,0,0,0,4.12-1l-.24,2.14a43,43,0,0,1-4.82.76,11.72,11.72,0,0,1-1,1.74,4.56,4.56,0,0,1,1.74-.34,2.52,2.52,0,0,1,2.7,2.24,18.15,18.15,0,0,0,3.5-1.86Z" style="fill:#32c8ff"/><path d="M103.53,916.72a19.39,19.39,0,0,0,4.28-8,22.5,22.5,0,0,0-3.2.86l-.64-2.4c1.48-.12,2.82-.32,4.34-.56a22.26,22.26,0,0,0,.4-4.32l2,.44c.6.12.72.16.72.3a.17.17,0,0,1,0,.14,2,2,0,0,0-.38.34c-.06.24-.44,2.08-.58,2.76a11,11,0,0,1,1.8-.18c1.8,0,2.8.86,2.8,3.32a17.11,17.11,0,0,1-1.08,5.92,3.38,3.38,0,0,1-3.44,2.53,4.13,4.13,0,0,1-1.8-.39v-2.16a6.47,6.47,0,0,0,1.84.42c.56,0,1-.2,1.52-1.54a12,12,0,0,0,.9-4.56c0-1.38-.52-1.56-1.1-1.56a12.17,12.17,0,0,0-1.92.22,24.38,24.38,0,0,1-4.38,9.46Zm12.6-6.24c1-.14,1.34-.2,1.34-.7,0-.28-.18-1.46-2.36-4.28l1.56-1.12c3,3.52,3.14,5.8,3.14,6.2,0,1.22-1.06,1.6-2.78,2Z" style="fill:#32c8ff"/><path d="M131.19,913.18c-1.58,3.34-2.7,4.34-3.9,4.34-2,0-3.48-3.2-3.48-7.2a18.17,18.17,0,0,1,.38-3.64c.08-.4.48-2.28.56-2.72l2.14,1c.2.1.54.26.54.44s-.14.22-.4.42a11.87,11.87,0,0,0-1,5c0,2.7.84,4,1.48,4s1.54-1.86,2-3Zm6,1.16a14.66,14.66,0,0,0-2.62-8.3l2.14-.9a18.62,18.62,0,0,1,2.94,8.88Z" style="fill:#32c8ff"/><path d="M151.19,902.38c.16,0,.62.18.62.32a.29.29,0,0,1-.06.2c-.06.06-.34.22-.38.28s-.52,2-.6,2.32a9.87,9.87,0,0,0,3.22-1.2l.08,2.22a16.93,16.93,0,0,1-3.9,1.12,62.18,62.18,0,0,1-4.1,10.7l-2.28-.86a34.08,34.08,0,0,0,4.12-9.54c-1.14.1-1.78.14-3.06.16l-.1-2.26a10.8,10.8,0,0,0,1.94.16,16,16,0,0,0,1.74-.1,16.39,16.39,0,0,0,.64-4Zm7.66,15.67a18.76,18.76,0,0,1-3.24.21c-3.72,0-5.3-.59-5.3-2.76a8.12,8.12,0,0,1,.22-1.84l2.06.5a1.67,1.67,0,0,0-.18.74c0,.76.42,1.24,2.64,1.24a12,12,0,0,0,3.7-.48Zm-.2-7.53a17.5,17.5,0,0,0-3.24-.4,13.07,13.07,0,0,0-2.74.3v-2.18c.52,0,2.84-.1,3.3-.1a10,10,0,0,1,2.68.22Z" style="fill:#32c8ff"/><path d="M177.31,918.26c-2.06.15-4.14.29-6.2.29-1.58,0-5.86,0-5.86-4.07,0-2,1.08-3.4,4.14-5.2a2.14,2.14,0,0,1-.94-1.26,52.76,52.76,0,0,1-.72-5.74l2.58-.34c0,1-.06,2-.06,3.18,0,2.24.22,2.74,1.14,3.12.76-.34,4.56-2,5.4-2.34l.64,2.4c-4.16,1.22-10.08,3.14-10.08,6.18,0,1.9,2.2,2,3.82,2a31.37,31.37,0,0,0,6.14-.77Z" style="fill:#32c8ff"/><path d="M196.27,904.78a34.15,34.15,0,0,1-3.5,1.36c.18.44.3.74.7,1.62a14.5,14.5,0,0,0,3.86-1.92l.5,2.12a23,23,0,0,1-3.52,1.5,15.19,15.19,0,0,0,2.8,3.94l-1.46,1.66a8.63,8.63,0,0,0-4.92-1.66c-1.26,0-2.66.64-2.66,1.82,0,1.37,1.72,1.66,3.34,1.66a18.29,18.29,0,0,0,3.9-.5v2.19a20.27,20.27,0,0,1-3.3.27c-3.7,0-6-.89-6-3.52s2.08-3.6,4.54-3.6a10.9,10.9,0,0,1,3.18.52,12.8,12.8,0,0,1-1.36-2.18,26,26,0,0,1-6.68.9l-.72-2a16,16,0,0,0,1.72.12,22.25,22.25,0,0,0,4.86-.74c-.24-.56-.34-.78-.7-1.7a20.09,20.09,0,0,1-5,.56l-.64-2a12.48,12.48,0,0,0,1.6.1,18.72,18.72,0,0,0,3.38-.36c-.3-.82-.86-2.32-1.16-2.88h2.18c.66,0,.74,0,.74.22s-.24.42-.24.5a13.71,13.71,0,0,0,.48,1.68,11.83,11.83,0,0,0,3.58-1.74Z" style="fill:#32c8ff"/><path d="M205.55,918.1a13.61,13.61,0,0,1-1.46-6.56c0-2.22.26-3.46,1.38-9l2,.8c.4.16.52.22.52.38s0,.1,0,.12a1.88,1.88,0,0,1-.3.12c-.4.16-1.54,4.62-1.54,7.7a12.65,12.65,0,0,0,.16,2,12.49,12.49,0,0,0,.78-1.32l1.32,1a10.15,10.15,0,0,0-1.3,4.22ZM218.81,917a24.83,24.83,0,0,1-4,.27c-4.2,0-5.12-.89-4.92-4.69l2-.18a4.15,4.15,0,0,0-.14,1.1c0,1,.66,1.62,2.38,1.62a21.08,21.08,0,0,0,4.7-.6Zm-.58-11a26.48,26.48,0,0,1-5.06.54,9.69,9.69,0,0,1-2.58-.26l0-2.1a10.92,10.92,0,0,0,3.06.4,15.79,15.79,0,0,0,4.64-.68Z" style="fill:#32c8ff"/><path d="M234,477.05v2.08H224c.4-3,1.36-4.74,4.72-6.94,2.18-1.44,2.74-2.32,2.74-3.47a2.11,2.11,0,0,0-2.18-2.34c-2.14,0-2.34,1.8-2.38,3.11h-2.44c0-1.32.22-5.23,4.84-5.23a4.28,4.28,0,0,1,4.64,4.41c0,2.4-1.68,3.74-3.84,5.18s-2.68,2.16-3.1,3.2Z" style="fill:#32c8ff"/><path d="M238.7,476.43v2.7H236v-2.7Z" style="fill:#32c8ff"/><path d="M252.4,475.53c0,1.78.48,2.54,5,2.54,2.4,0,4.42-.12,6.34-.26l2-.14-.7,2.12c-10,0-10.14,0-11.54-.44A3.15,3.15,0,0,1,251.5,478a23.48,23.48,0,0,1-1.82,1.76c-.06,0-.1.22-.18.5,0,.1,0,.22-.16.22s-.28-.3-.34-.42l-1.1-1.88a10.26,10.26,0,0,0,2.5-1.46v-4.54h-2.18V470.3h4.18Zm-2.64-12.23a13.71,13.71,0,0,1,3.16,2.5l-1.34,1.46a16.18,16.18,0,0,0-3.14-2.54Zm6.44,1.82c1.18.42,1.66.64,2.82,1.16A7.93,7.93,0,0,0,260.2,465h-6.36v-1.56h8.94l.82.7a25.17,25.17,0,0,1-2.9,2.94c.4.2.56.28.76.4l-.28.24h2.9v7.77c0,.78-.06,1.7-2.68,1.76l-.86-1.82c1.5,0,1.68,0,1.68-.5v-.7H260V477h-1.8v-2.74H256v3h-1.88v-9.49h4.16a25.41,25.41,0,0,0-3.06-1.24Zm2,4.05H256v1.24h2.16Zm0,2.5H256V473h2.16Zm4.06-2.5H260v1.24h2.26Zm0,2.5H260V473h2.26Z" style="fill:#32c8ff"/><path d="M277.76,469.22v-2h1.94v-4.44l1.68.1c.44,0,.7,0,.7.24s-.14.24-.22.3-.3.22-.3.5v3.3h3.54c-.06,4.2-.12,9.07-.72,11.15-.5,1.78-1.34,1.84-3.14,2l-1-2a7,7,0,0,0,.9.06c1.44,0,1.62-1.22,1.74-2a66.12,66.12,0,0,0,.42-7.23h-1.82c-.3,5.51-1,8.15-3.78,11l-1.4-1.32c-2.26.28-2.7.32-6.6.68a.79.79,0,0,0-.78.44.31.31,0,0,1-.24.12c-.18,0-.32-.1-.38-.82l-.12-1.46a31.23,31.23,0,0,0,4-.18v-1.24h-3.1v-1.38h3.1V474h-3.66v-1.48h3.66v-.92h-3.1v-4.37h8v4.37h-3.22v.92h3.38V474h-3.38v1.06h2.48v1.38h-2.48v1.14c.76-.08,2.54-.22,3.22-.28V478c.78-1,2.34-3,2.54-8.81Zm-2-2.54H274v-.94h-1.64v.94h-1.72v-.94H268.4v-1.56h2.24v-1.46l1.24.12c.74.08.82.06.82.22a.39.39,0,0,1-.08.16,1.28,1.28,0,0,0-.26.48v.48H274v-1.46l1.24.12c.68.06.76.06.76.2s-.28.56-.28.66v.48h2v1.56h-2Zm-4.88,1.92v1.65h1.38V468.6Zm4.52,1.65V468.6h-1.44v1.65Z" style="fill:#32c8ff"/><path d="M290.72,479.23a13.61,13.61,0,0,1-1.46-6.56c0-2.22.26-3.46,1.38-9l2,.8c.4.16.52.22.52.38s0,.1,0,.12a1.88,1.88,0,0,1-.3.12c-.4.16-1.54,4.62-1.54,7.71a12.65,12.65,0,0,0,.16,2,12.49,12.49,0,0,0,.78-1.32l1.32,1a10.15,10.15,0,0,0-1.3,4.22ZM304,478.11a24.89,24.89,0,0,1-4,.26c-4.2,0-5.12-.88-4.92-4.68l2-.18a4.15,4.15,0,0,0-.14,1.1c0,1,.66,1.62,2.38,1.62a21.08,21.08,0,0,0,4.7-.6Zm-.58-11a26.48,26.48,0,0,1-5.06.54,9.69,9.69,0,0,1-2.58-.26l0-2.1a10.92,10.92,0,0,0,3.06.4,15.79,15.79,0,0,0,4.64-.68Z" style="fill:#32c8ff"/><path d="M318.54,473.81c-.38,0-1,.08-1.78.08a13.07,13.07,0,0,1-2-.14,10.48,10.48,0,0,0-.24,1.86c0,1.74,1.2,2.48,2.72,2.48a3.51,3.51,0,0,0,3.82-3.34,5.14,5.14,0,0,0-1.12-3l1.86-1.06a8.61,8.61,0,0,1,1.34,4.32c0,2.72-2,5.08-6,5.08-3.64,0-4.86-2.36-4.86-4.14a11,11,0,0,1,.4-2.6,16.53,16.53,0,0,1-2.7-.78l.4-2.26a10.75,10.75,0,0,0,2.84,1.08c.26-.92.68-2.2.88-2.81-1.16-.22-1.94-.42-3.16-.76l.32-2.28a10.94,10.94,0,0,0,3.5,1.14,35.74,35.74,0,0,0,1.28-4l2.12,1c.18.08.52.26.52.42s-.16.16-.42.28A19,19,0,0,0,317,467c.22,0,.76.06,1.18.06a12.89,12.89,0,0,0,1.66-.14l-.56,2.17a28.88,28.88,0,0,1-3-.19c-.46,1.25-.7,2-.94,2.83.36,0,.92.06,1.72.06a9.88,9.88,0,0,0,2.18-.22Z" style="fill:#32c8ff"/><path d="M254.64,490.7a16.66,16.66,0,0,0-2,3.48,10.94,10.94,0,0,0-.94,4.15c0,1.82.88,4.08,3.36,4.08s4.1-2.2,4.1-5.26a17.93,17.93,0,0,0-1.84-7.53l2.18-.9c.64,1.26,2.9,5.11,5.59,6.85l-1.47,1.8a12,12,0,0,1-3-3.86,15.11,15.11,0,0,1,.44,3.7c0,6.5-4.46,7.22-6,7.22-3.16,0-5.32-2.28-5.32-5.92a11.71,11.71,0,0,1,1.64-5.75c-.42.14-2.3.87-2.7.92l-.76-2.1c1.6-.32,3.76-.76,5.08-2.42Zm7.12-1.72a1.93,1.93,0,1,1,1.92,2A1.95,1.95,0,0,1,261.76,489Zm3,0a1,1,0,1,0-2.08,0,1,1,0,1,0,2.08,0Z" style="fill:#32c8ff"/><path d="M274.34,501.87c5.6-.42,6.2-2.92,6.2-4a2.56,2.56,0,0,0-2.64-2.49c-1.18,0-2.1.35-4.62,1.33a19.4,19.4,0,0,1-3.08,1l-.86-1.88a16.51,16.51,0,0,0,3.52-.76c3.6-1.23,4-1.36,5.28-1.36a4.08,4.08,0,0,1,4.26,4.18c0,4.48-5.16,5.5-7.06,5.86Z" style="fill:#32c8ff"/><path d="M295.8,488.5c.16,0,.62.18.62.32a.29.29,0,0,1-.06.2c-.06.06-.34.22-.38.28s-.52,2-.6,2.32a9.87,9.87,0,0,0,3.22-1.2l.08,2.22a16.93,16.93,0,0,1-3.9,1.12,62,62,0,0,1-4.1,10.71l-2.28-.86a34,34,0,0,0,4.12-9.55,29.19,29.19,0,0,1-3.06.16l-.1-2.26a10.8,10.8,0,0,0,1.94.16A16,16,0,0,0,293,492a16.39,16.39,0,0,0,.64-4Zm7.66,15.67a17.92,17.92,0,0,1-3.24.22c-3.72,0-5.3-.6-5.3-2.76a8.12,8.12,0,0,1,.22-1.84l2.06.5a1.67,1.67,0,0,0-.18.74c0,.76.42,1.24,2.64,1.24a12,12,0,0,0,3.7-.48Zm-.2-7.52a17.5,17.5,0,0,0-3.24-.4,13.07,13.07,0,0,0-2.74.3v-2.18c.52,0,2.84-.11,3.3-.11a9.79,9.79,0,0,1,2.68.23Z" style="fill:#32c8ff"/><path d="M311.32,500.57a11.4,11.4,0,0,1-1-5.23,38.89,38.89,0,0,1,.88-6.68l1.78.38c.44.1.7.16.7.32s-.36.4-.4.5a15.31,15.31,0,0,0-1,5.19c0,.62,0,1.34.06,1.62.76-1.8,1.18-2.69,1.58-3.49l1.48.84a63.8,63.8,0,0,0-2.62,6.31Zm4.3,3.12c2.76-3,3.84-5.18,3.84-9.32A31.16,31.16,0,0,0,319,489l2.06-.22c.48-.06.7-.08.7.12s-.28.48-.28.58c0,.64.2,3.77.2,4.48,0,6.37-2,8.83-4.08,11.23Z" style="fill:#32c8ff"/><path d="M174.19,530.73a.35.35,0,0,1-.2-.31.37.37,0,0,1,.12-.27,6.51,6.51,0,0,0,.62-.84.42.42,0,0,1,.36-.21.41.41,0,0,1,.42.37.34.34,0,0,1-.06.21,7.56,7.56,0,0,1-.74,1,.41.41,0,0,1-.13.1h1.64c.85,0,1.21.35,1.21,1v.85a.43.43,0,0,1-.85,0v-.78c0-.25-.12-.36-.52-.36h-7.29c-.4,0-.52.11-.52.36v.93a.39.39,0,0,1-.42.37.4.4,0,0,1-.43-.37v-1c0-.63.36-1,1.21-1h1.55a.58.58,0,0,1-.18-.17,7.25,7.25,0,0,0-.6-.8.37.37,0,0,1,.32-.63.48.48,0,0,1,.33.15,5.43,5.43,0,0,1,.67.82.49.49,0,0,1,.08.27.44.44,0,0,1-.24.36H172v-1.52a.42.42,0,0,1,.84,0v1.52Zm-3.4,4.17c-.63,0-1.16-.08-1.16-.83v-.94c0-.59.28-.84,1.16-.84H174c.88,0,1.15.25,1.15.84v.94c0,.57-.27.83-1.15.83H172.8v1h2.3c.89,0,1.25.34,1.25,1v1.57c0,.66-.37.93-1,.93a3.7,3.7,0,0,1-.62,0,.4.4,0,0,1-.35-.39.34.34,0,0,1,.37-.34h.1a3.18,3.18,0,0,0,.4,0c.16,0,.24-.07.24-.32V537c0-.32-.09-.45-.48-.45h-2.2v3.17c0,.22-.22.34-.43.34s-.44-.12-.44-.34v-3.17h-2c-.41,0-.53.13-.53.45v2.07c0,.23-.22.33-.43.33s-.44-.1-.44-.33v-2.21c0-.63.33-1,1.22-1h2.21v-1Zm3.06-.66c.26,0,.51,0,.51-.32v-.64c0-.23-.11-.32-.51-.32H171c-.4,0-.5.09-.5.32v.64c0,.23.1.32.5.32Z" style="fill:#104052"/><path d="M180.85,533.16a.52.52,0,0,1,.17.37.43.43,0,0,1-.41.44.54.54,0,0,1-.37-.18,8.85,8.85,0,0,0-1-.88.41.41,0,0,1,.22-.77.54.54,0,0,1,.28.09A8,8,0,0,1,180.85,533.16Zm.4,2.33a.42.42,0,0,1,.42.42.46.46,0,0,1,0,.19,14.37,14.37,0,0,1-1.49,3.24.5.5,0,0,1-.44.26.4.4,0,0,1-.42-.39.56.56,0,0,1,.11-.31,12.81,12.81,0,0,0,1.43-3A.46.46,0,0,1,181.25,535.49Zm.43-5.15a.55.55,0,0,1,.14.38.42.42,0,0,1-.4.43A.53.53,0,0,1,181,531a6.05,6.05,0,0,0-1-.9.46.46,0,0,1-.2-.36.43.43,0,0,1,.44-.41.47.47,0,0,1,.27.08A7.2,7.2,0,0,1,181.68,530.34Zm.83,5.73c0-.76.37-1.12,1.21-1.12h4c.86,0,1.23.36,1.23,1.12v2.69h.66a.36.36,0,0,1,0,.72h-8a.36.36,0,0,1,0-.72h.91Zm1.7-2.12c-.78,0-1.31-.26-1.31-1.1v-2.09c0-.64.33-1.1,1.31-1.1h3c1,0,1.3.46,1.3,1.1v2.09c0,.65-.31,1.1-1.3,1.1Zm.2,4.81v-3.11h-.56c-.38,0-.53.11-.53.56v2.55Zm3.23-7.9c0-.34-.13-.48-.61-.48h-2.66c-.48,0-.63.14-.63.48v.56h3.9Zm-.61,2.37c.36,0,.61-.07.61-.47v-.62h-3.9v.62c0,.33.15.47.63.47Zm-.77,2.42h-1.09v3.11h1.09Zm1.91.56c0-.45-.15-.56-.53-.56H187v3.11h1.14Z" style="fill:#104052"/><path d="M197.82,531.54c-1.56.21-3.64.48-5.7.78a.25.25,0,0,1-.12,0,.47.47,0,0,1-.49-.47c0-.22.16-.42.49-.47,2.47-.31,5.49-.66,8-.89H200a.46.46,0,1,1,.08.91,4.69,4.69,0,0,0-1.36.47,4.24,4.24,0,0,0-2.44,3.67c0,1.39,1.08,2.38,2.76,2.53a.5.5,0,0,1,.51.48.49.49,0,0,1-.53.49c-1.39,0-3.68-1-3.68-3.4a5,5,0,0,1,2.44-4.09Zm1.11,2.09a.35.35,0,0,1,.36-.33.4.4,0,0,1,.24.08,6.53,6.53,0,0,1,1.12,1.11.55.55,0,0,1,.11.29.37.37,0,0,1-.36.37.35.35,0,0,1-.29-.15,7.86,7.86,0,0,0-1.05-1.09A.38.38,0,0,1,198.93,533.63Zm1-.92a.36.36,0,0,1,.36-.36.45.45,0,0,1,.26.09,7.3,7.3,0,0,1,1.09,1.07.5.5,0,0,1,.11.29.37.37,0,0,1-.35.37.4.4,0,0,1-.27-.14A8.26,8.26,0,0,0,200.1,533,.31.31,0,0,1,200,532.71Z" style="fill:#104052"/><path d="M207.72,531.66h.39a10.15,10.15,0,0,0,1.13-.06h.06a.44.44,0,0,1,.46.45.38.38,0,0,1-.37.39,8.06,8.06,0,0,1-1.12.06h-.7l-.3,2h.48a12.07,12.07,0,0,0,1.89-.15h.09a.43.43,0,0,1,.45.43.45.45,0,0,1-.39.43,10.29,10.29,0,0,1-2,.19h-.56a12.83,12.83,0,0,0-.09,1.3,1.69,1.69,0,0,0,1.88,1.88,2,2,0,0,0,2.21-2.09,2.6,2.6,0,0,0-.12-.74.5.5,0,0,1,0-.17.41.41,0,0,1,.42-.4.5.5,0,0,1,.46.33,3.23,3.23,0,0,1,.18,1,2.84,2.84,0,0,1-3.13,3,2.5,2.5,0,0,1-2.77-2.75,13.51,13.51,0,0,1,.08-1.4,9.26,9.26,0,0,1-1.51-.25.49.49,0,0,1-.4-.47.43.43,0,0,1,.46-.43l.18,0a10.07,10.07,0,0,0,1.38.23q.12-1,.3-2a11,11,0,0,1-1.38-.2.44.44,0,0,1-.37-.42.43.43,0,0,1,.46-.42h.15a9.11,9.11,0,0,0,1.28.19l.32-2a.41.41,0,0,1,.44-.34.43.43,0,0,1,.45.4v.07Z" style="fill:#104052"/><path d="M219.23,534.57a7.08,7.08,0,0,1,2.36-.38c1.71,0,2.91.83,2.91,2.19s-1,2.36-2.6,2.54h-.07a.43.43,0,0,1-.47-.43.48.48,0,0,1,.45-.45c1.24-.16,1.76-.73,1.76-1.65s-.64-1.39-2-1.39a6.74,6.74,0,0,0-2.37.42v2.14c0,1.06-.47,1.53-1.36,1.53a1.92,1.92,0,0,1-2-1.59c0-.72.47-1.65,2.48-2.65v-2.43c-.63.07-1.26.12-1.78.13a.43.43,0,0,1-.46-.43.42.42,0,0,1,.46-.43,15.07,15.07,0,0,0,1.78-.15v-1.92a.44.44,0,0,1,.87,0v1.8c.54-.08,1.05-.18,1.47-.28l.16,0a.42.42,0,0,1,.43.41.49.49,0,0,1-.38.46,16.14,16.14,0,0,1-1.68.33Zm-.87,1.19c-1.33.77-1.56,1.31-1.56,1.72s.52.71,1,.7.51-.27.51-.62Zm6.79-3.7a.59.59,0,0,1,.21.42.48.48,0,0,1-.47.48.52.52,0,0,1-.37-.17,8.48,8.48,0,0,0-1.59-1.21.46.46,0,0,1-.26-.4.44.44,0,0,1,.45-.43.55.55,0,0,1,.27.06A8,8,0,0,1,225.15,532.06Z" style="fill:#104052"/><path d="M228.55,530.68a.46.46,0,0,1,.48.47c0,.29-.05.73-.05,1.1,0,4,.92,5.35,1.47,5.35.31,0,.64-.32.9-1.19a.45.45,0,0,1,.9.1.79.79,0,0,1,0,.2c-.44,1.37-1.12,1.91-1.73,1.91-1.34,0-2.46-2-2.46-6.33a11.55,11.55,0,0,1,0-1.19A.46.46,0,0,1,228.55,530.68Zm8.6,4.77a.56.56,0,0,1,0,.21.47.47,0,0,1-.47.51.49.49,0,0,1-.47-.37,7.51,7.51,0,0,0-2-3.2.46.46,0,0,1-.17-.34.43.43,0,0,1,.45-.4.59.59,0,0,1,.35.13A7.44,7.44,0,0,1,237.15,535.45Z" style="fill:#104052"/><path d="M241.9,530.09a.44.44,0,0,1,.47-.42.45.45,0,0,1,.48.45c0,.1,0,.31,0,.4-.12,1.53-.21,3.58-.21,5.47,0,1.73.52,2.28,1.54,2.28a4.39,4.39,0,0,0,3.42-1.88.53.53,0,0,1,.42-.22.45.45,0,0,1,.46.43.61.61,0,0,1-.17.41,5.27,5.27,0,0,1-4.09,2.2c-1.7,0-2.54-.87-2.54-3.23C241.66,534.09,241.75,531.83,241.9,530.09Z" style="fill:#104052"/><path d="M257.35,529.38a.5.5,0,0,1,.5.47.56.56,0,0,1-.1.3,28.88,28.88,0,0,1-2.71,3.4.89.89,0,0,0-.33.68,1.25,1.25,0,0,0,.42.77c.88,1,2.08,2.35,3,3.57a.75.75,0,0,1,.14.42.51.51,0,0,1-.5.52.65.65,0,0,1-.51-.31,41.79,41.79,0,0,0-2.85-3.64,2,2,0,0,1-.64-1.32,1.74,1.74,0,0,1,.58-1.23,20.18,20.18,0,0,0,2.6-3.39A.49.49,0,0,1,257.35,529.38Z" style="fill:#104052"/><path d="M263.53,532.54a.44.44,0,0,1-.28.09.36.36,0,0,1-.39-.35.5.5,0,0,1,.23-.38,10.27,10.27,0,0,0,2.39-2.64.38.38,0,0,1,.34-.2.43.43,0,0,1,.34.7s0,0-.05.08a8.83,8.83,0,0,1,1.72,1.25.54.54,0,0,1,.18.39.43.43,0,0,1-.41.46.5.5,0,0,1-.36-.19,8.37,8.37,0,0,0-1.58-1.3A10.5,10.5,0,0,1,263.53,532.54Zm.34.91c0-.69.36-1,1.11-1h.35v-.73a.37.37,0,0,1,.4-.36.36.36,0,0,1,.39.36v.73h.35c.76,0,1.12.28,1.12,1v1.7c0,.7-.36,1-1.12,1h-1.81v2.22c.53-.15,1.06-.31,1.57-.51a4.62,4.62,0,0,0-.53-.64.44.44,0,0,1-.13-.28.38.38,0,0,1,.39-.35.47.47,0,0,1,.33.15,6.2,6.2,0,0,1,1.19,1.57.54.54,0,0,1,.07.26.42.42,0,0,1-.42.43.43.43,0,0,1-.39-.28c0-.09-.09-.16-.12-.24a17,17,0,0,1-3.15,1h-.09a.42.42,0,0,1-.41-.43.4.4,0,0,1,.33-.4c.2,0,.38-.07.57-.12Zm2.92.1c0-.33-.13-.4-.46-.4H265c-.22,0-.35.07-.35.4v.4h2.13Zm-.46,1.9c.3,0,.46,0,.46-.37v-.45h-2.13v.82Zm4.75-2.15c0,.14,0,.28,0,.43a8.57,8.57,0,0,0,2.53,5.17.58.58,0,0,1,.22.4.43.43,0,0,1-.44.41.59.59,0,0,1-.42-.2,8.81,8.81,0,0,1-2.16-3.92,7.77,7.77,0,0,1-2.63,4.18.6.6,0,0,1-.32.13.37.37,0,0,1-.37-.38.5.5,0,0,1,.2-.37,7.26,7.26,0,0,0,2.59-5.9v-.32a.38.38,0,0,1,.41-.38.39.39,0,0,1,.41.38Zm-1.3-1.24a11.32,11.32,0,0,1-.89,1.69.46.46,0,0,1-.4.25.37.37,0,0,1-.39-.36.56.56,0,0,1,.1-.29,12.3,12.3,0,0,0,1.51-3.86.45.45,0,0,1,.89.06.8.8,0,0,1,0,.15,13.5,13.5,0,0,1-.49,1.62h2.58c.58,0,.84.26.84.67a1,1,0,0,1-.06.38,4.93,4.93,0,0,1-.56,1.22.49.49,0,0,1-.4.24.37.37,0,0,1-.38-.38.5.5,0,0,1,.07-.25,5.25,5.25,0,0,0,.47-1,.2.2,0,0,0,0-.07c0-.08,0-.11-.23-.11Z" style="fill:#104052"/><path d="M280,537.38a.69.69,0,0,1,.08.32.4.4,0,0,1-.41.42.5.5,0,0,1-.43-.3c-.09-.2-.19-.39-.28-.59a2.46,2.46,0,0,1-1.84.92c-.82,0-1.38-.63-1.38-1.67a4.54,4.54,0,0,1,1.84-3.28,19.09,19.09,0,0,1-.42-2.21s0,0,0-.07a.43.43,0,0,1,.45-.42.39.39,0,0,1,.39.38c.09.6.19,1.21.34,1.83a6,6,0,0,1,2.49-.84,16.15,16.15,0,0,0,.24-1.66.4.4,0,0,1,.42-.37.41.41,0,0,1,.45.41v.06a15.64,15.64,0,0,1-.24,1.55c2,.09,3.46,1.36,3.46,3.2a3.79,3.79,0,0,1-2.89,3.81.46.46,0,0,1-.19,0,.48.48,0,0,1-.49-.48.49.49,0,0,1,.41-.47,2.79,2.79,0,0,0,2.23-2.89,2.52,2.52,0,0,0-2.71-2.44,10.41,10.41,0,0,1-1.89,4C279.69,536.87,279.83,537.13,280,537.38ZM277.75,534a3.58,3.58,0,0,0-1.17,2.34c0,.66.25.88.57.88s.82-.15,1.42-.81A25.31,25.31,0,0,1,277.75,534Zm2.83-1.33a5.06,5.06,0,0,0-2.11.82,23.3,23.3,0,0,0,.74,2.28A9.08,9.08,0,0,0,280.58,532.68Z" style="fill:#104052"/><path d="M291.35,534a4.3,4.3,0,0,1,1.93-.43,2.58,2.58,0,0,1,2.86,2.53c0,2-1.63,3.11-3.62,3.11-1.41,0-2.34-.65-2.34-1.62a1.25,1.25,0,0,1,1.36-1.3,2.23,2.23,0,0,1,2,2,2.17,2.17,0,0,0,1.62-2.14,1.75,1.75,0,0,0-1.93-1.74,6,6,0,0,0-4,1.67.44.44,0,0,1-.28.1.44.44,0,0,1-.28-.8,30.8,30.8,0,0,0,4.23-4.46c-.41.07-1.42.22-2.15.29l-.66.05a.44.44,0,0,1-.46-.45.44.44,0,0,1,.45-.43c.94-.06,1.94-.18,3.19-.35h.13a.59.59,0,0,1,.65.58.92.92,0,0,1-.23.55,35.26,35.26,0,0,1-2.57,2.87Zm1.36,4.39c-.22-.93-.67-1.33-1.17-1.33a.49.49,0,0,0-.55.53c0,.45.57.8,1.54.8Z" style="fill:#104052"/><path d="M300.8,538.48a.49.49,0,0,1-.44.28.41.41,0,0,1-.43-.4.52.52,0,0,1,.08-.28,20.58,20.58,0,0,0,1.9-5c-.59.08-1.19.19-1.71.31l-.13,0a.38.38,0,0,1-.38-.39.48.48,0,0,1,.39-.46,17.76,17.76,0,0,1,2-.33,18.33,18.33,0,0,0,.37-2.28.47.47,0,0,1,.46-.45.44.44,0,0,1,.44.46v.06c-.07.71-.19,1.41-.33,2.13l.91,0c1.36,0,1.92.59,1.92,2.46a9.72,9.72,0,0,1-.45,3,1.81,1.81,0,0,1-1.88,1.45,3.31,3.31,0,0,1-.7-.06.43.43,0,0,1-.37-.44.44.44,0,0,1,.43-.46h.1a2.18,2.18,0,0,0,.5.05,1,1,0,0,0,1.05-.79,9.33,9.33,0,0,0,.4-2.79c0-1.42-.26-1.66-1-1.66-.35,0-.72,0-1.12,0A22.28,22.28,0,0,1,300.8,538.48Zm8.83-4.56a.55.55,0,0,1,.06.27.51.51,0,0,1-.5.53.45.45,0,0,1-.43-.32,10,10,0,0,0-1.72-2.56.44.44,0,0,1-.14-.31.44.44,0,0,1,.45-.42.55.55,0,0,1,.37.16A10.23,10.23,0,0,1,309.63,533.92Z" style="fill:#104052"/><path d="M313.7,535.41a5.6,5.6,0,0,1,3.75-1.54c1.64,0,2.8.92,2.8,2.23,0,1.75-1.5,2.94-4.21,3.3H316a.46.46,0,0,1-.5-.44.48.48,0,0,1,.46-.46c2.31-.31,3.39-1.15,3.39-2.39,0-.85-.71-1.39-1.87-1.39a5,5,0,0,0-3.83,1.87.59.59,0,0,1-.43.19.5.5,0,0,1-.52-.52v-.09c.19-1.24.46-2.72.75-4a.45.45,0,0,1,.45-.37.42.42,0,0,1,.45.41.7.7,0,0,1,0,.12c-.24,1.05-.46,2.15-.61,3.09Zm3.9-5.1a.52.52,0,0,1,.32.47.42.42,0,0,1-.43.44.64.64,0,0,1-.28-.07,14,14,0,0,0-1.95-.76.47.47,0,0,1-.38-.44.44.44,0,0,1,.48-.42l.18,0A10.68,10.68,0,0,1,317.6,530.31Z" style="fill:#104052"/><path d="M323.05,537.24a.43.43,0,0,1,.45-.41.54.54,0,0,1,.28.09,10.15,10.15,0,0,1,2.24,2,.74.74,0,0,1,.16.43.5.5,0,0,1-.5.48.56.56,0,0,1-.47-.26,10.53,10.53,0,0,0-2-2A.42.42,0,0,1,323.05,537.24Z" style="fill:#104052"/><path d="M150.8,559.48a.49.49,0,0,1-.44.28.41.41,0,0,1-.43-.4.52.52,0,0,1,.08-.28,20.58,20.58,0,0,0,1.9-5c-.59.08-1.19.19-1.71.31l-.13,0a.38.38,0,0,1-.38-.39.48.48,0,0,1,.39-.46,17.76,17.76,0,0,1,2-.33,18.33,18.33,0,0,0,.37-2.28.47.47,0,0,1,.46-.45.44.44,0,0,1,.44.46v.06c-.07.71-.19,1.41-.33,2.13l.91,0c1.36,0,1.92.59,1.92,2.46a9.72,9.72,0,0,1-.45,3,1.81,1.81,0,0,1-1.88,1.45,3.31,3.31,0,0,1-.7-.06.43.43,0,0,1-.37-.44.44.44,0,0,1,.43-.46h.1a2.18,2.18,0,0,0,.5.05,1,1,0,0,0,1.05-.79,9.33,9.33,0,0,0,.4-2.79c0-1.42-.26-1.66-1-1.66-.35,0-.72,0-1.12,0A22.28,22.28,0,0,1,150.8,559.48Zm8.83-4.56a.55.55,0,0,1,.06.27.51.51,0,0,1-.5.53.45.45,0,0,1-.43-.32,10,10,0,0,0-1.72-2.56.44.44,0,0,1-.14-.31.44.44,0,0,1,.45-.42.55.55,0,0,1,.37.16A10.23,10.23,0,0,1,159.63,554.92Z" style="fill:#104052"/><path d="M163.07,550.91a.42.42,0,0,1,.45.42.45.45,0,0,1,0,.12,22.45,22.45,0,0,0-.61,4.87,22.16,22.16,0,0,0,.26,3.44.3.3,0,0,1,0,.12.45.45,0,0,1-.46.48.47.47,0,0,1-.46-.43,22,22,0,0,1-.27-3.62,24.24,24.24,0,0,1,.61-5A.46.46,0,0,1,163.07,550.91Zm5.75,2.15c.52-.06,1-.13,1.47-.22h.12a.41.41,0,0,1,.07.82,16.55,16.55,0,0,1-1.64.25c0,1.13,0,2.25.14,3.38a8.72,8.72,0,0,1,2.09,1.21.48.48,0,0,1,.19.39.45.45,0,0,1-.42.46.43.43,0,0,1-.29-.1,7.63,7.63,0,0,0-1.52-1,2,2,0,0,1-2.15,1.84c-1.27,0-2-.55-2-1.58,0-.83.75-1.58,2.22-1.58a4.18,4.18,0,0,1,1,.12c-.09-1-.11-2-.12-3-.6,0-1.18.07-1.72.07l-.62,0a.42.42,0,0,1,.05-.84l.57,0c.53,0,1.12,0,1.71-.07v-1.85a.41.41,0,0,1,.42-.42.4.4,0,0,1,.41.42Zm-.65,4.87v-.09a3.66,3.66,0,0,0-1.08-.17c-1,0-1.34.38-1.34.81s.34.77,1.13.77A1.17,1.17,0,0,0,168.17,557.93Zm1.13-7.45a.34.34,0,0,1,.35-.32.42.42,0,0,1,.34.18,6.4,6.4,0,0,1,.72,1.35.68.68,0,0,1,0,.19.37.37,0,0,1-.36.39.35.35,0,0,1-.33-.25,8.49,8.49,0,0,0-.69-1.35A.38.38,0,0,1,169.3,550.48Zm1.29-.55a.32.32,0,0,1,.33-.31.45.45,0,0,1,.34.18,6.65,6.65,0,0,1,.77,1.3.51.51,0,0,1,0,.2.38.38,0,0,1-.36.38.31.31,0,0,1-.3-.22,9.48,9.48,0,0,0-.74-1.33A.35.35,0,0,1,170.59,549.93Z" style="fill:#104052"/><path d="M176.54,555.75a2.37,2.37,0,0,1,1.56-.65c.93,0,1.47.66,1.55,2.38.06,1.32.37,1.7,1,1.7s1.36-.44,1.8-1.71a.47.47,0,0,1,.45-.34.43.43,0,0,1,.43.45.69.69,0,0,1,0,.22c-.62,1.69-1.57,2.26-2.67,2.26s-1.8-.63-1.88-2.49c-.06-1.32-.32-1.67-.89-1.67-.75,0-1.63.9-2.27,2.2-.18.36-.47,1-.72,1.53a.57.57,0,0,1-.49.34.42.42,0,0,1-.43-.42.65.65,0,0,1,.06-.25c1.19-2.7,2.63-5.81,3.85-8.15a.49.49,0,0,1,.43-.29.47.47,0,0,1,.48.45.54.54,0,0,1-.07.26l-2.16,4.16Z" style="fill:#104052"/><path d="M185.52,556.39a5,5,0,0,1,5.33-4.81c2.74,0,4.4,1.72,4.4,4a4.34,4.34,0,0,1-3.21,4.25.51.51,0,0,1-.2,0,.48.48,0,0,1-.49-.49.54.54,0,0,1,.42-.52,3.19,3.19,0,0,0,2.51-3.28,3.09,3.09,0,0,0-3.36-3.17,11.22,11.22,0,0,1-1.47,5.25c-.66,1.05-1.25,1.33-1.94,1.33C186.49,559,185.52,558.08,185.52,556.39Zm.95,0c0,1,.49,1.63,1,1.63.39,0,.73-.15,1.13-.79a10.46,10.46,0,0,0,1.32-4.76A4.07,4.07,0,0,0,186.47,556.39Z" style="fill:#104052"/><path d="M199.13,556.87c-.89,0-1.46-.28-1.46-1.26v-1.83c0-.84.44-1.26,1.46-1.26h2.79v-2.24a.41.41,0,0,1,.45-.39.4.4,0,0,1,.44.39v2.24h2.88c1,0,1.46.42,1.46,1.26v1.83c0,.84-.44,1.26-1.46,1.26h-2.88v3.76a.39.39,0,0,1-.44.37.4.4,0,0,1-.45-.37v-3.76Zm2.79-.79v-2.77h-2.55c-.67,0-.82.15-.82.6v1.57c0,.46.15.6.82.6Zm3.53,0c.66,0,.81-.13.81-.6v-1.57c0-.45-.14-.6-.81-.6h-2.64v2.77Z" style="fill:#104052"/><path d="M211.24,551.14a.44.44,0,0,1,.43.53,24.65,24.65,0,0,0-.55,5.21,21.06,21.06,0,0,0,.21,2.8v.08a.46.46,0,0,1-.47.47.44.44,0,0,1-.45-.41,21.12,21.12,0,0,1-.21-2.94,24.88,24.88,0,0,1,.57-5.37A.47.47,0,0,1,211.24,551.14Zm5.39,7.29a9.63,9.63,0,0,0,1.8-.18h.12a.46.46,0,0,1,.06.91,10.47,10.47,0,0,1-2,.19c-2.07,0-3-.64-3.09-2v-.06a.45.45,0,0,1,.45-.47.41.41,0,0,1,.43.38C214.56,558.14,215.18,558.43,216.63,558.43Zm1.24-6.25a.45.45,0,1,1,0,.9,29.18,29.18,0,0,1-3.36.28.46.46,0,0,1-.52-.46.46.46,0,0,1,.5-.45,28.65,28.65,0,0,0,3.27-.27Z" style="fill:#104052"/><path d="M222.55,551.68a.46.46,0,0,1,.48.47c0,.29-.05.73-.05,1.1,0,4,.92,5.35,1.47,5.35.31,0,.64-.32.9-1.19a.45.45,0,0,1,.9.1.79.79,0,0,1,0,.2c-.44,1.37-1.12,1.91-1.73,1.91-1.34,0-2.46-2-2.46-6.33a11.55,11.55,0,0,1,0-1.19A.46.46,0,0,1,222.55,551.68Zm8.6,4.77a.56.56,0,0,1,0,.21.47.47,0,0,1-.47.51.49.49,0,0,1-.47-.37,7.51,7.51,0,0,0-2-3.2.46.46,0,0,1-.17-.34.43.43,0,0,1,.45-.4.59.59,0,0,1,.35.13A7.44,7.44,0,0,1,231.15,556.45Z" style="fill:#104052"/><path d="M236.44,554.52c1.78-1.69,2.84-2.35,3.7-2.35a1.21,1.21,0,0,1,1.3,1.38v.16l-.23,4.16V558c0,.43.12.56.36.56a2.08,2.08,0,0,0,1.61-.92.45.45,0,0,1,.37-.21.43.43,0,0,1,.42.44.54.54,0,0,1-.14.34,2.93,2.93,0,0,1-2.36,1.29,1.09,1.09,0,0,1-1.2-1.24v-.12l.22-4.29v-.12c0-.49-.15-.66-.42-.66-.64,0-1.62.5-3.65,2.57v4.31a.41.41,0,0,1-.42.44.42.42,0,0,1-.43-.44l0-3.25-1.31,1.9a.43.43,0,0,1-.35.2.37.37,0,0,1-.38-.37.4.4,0,0,1,.08-.24,28.48,28.48,0,0,0,2-3.32l0-1-1.53.28h-.08a.43.43,0,0,1,0-.84l1.65-.28,0-2.13a.41.41,0,0,1,.43-.41.38.38,0,0,1,.42.38v0l0,2.05a.39.39,0,0,1,.37.38c0,.21-.1.4-.41.76Z" style="fill:#104052"/><path d="M251.94,552.54c-1.56.21-3.64.48-5.7.78a.25.25,0,0,1-.12,0,.47.47,0,0,1-.49-.47c0-.22.15-.42.49-.47,2.47-.31,5.49-.66,8-.89h.08a.46.46,0,1,1,.08.91,4.69,4.69,0,0,0-1.36.47,4.24,4.24,0,0,0-2.44,3.67c0,1.39,1.08,2.38,2.76,2.53a.5.5,0,0,1,.51.48.49.49,0,0,1-.51.49,3.61,3.61,0,0,1-3.7-3.4,5,5,0,0,1,2.44-4.09Z" style="fill:#104052"/><path d="M261.72,552.66h.39a10.15,10.15,0,0,0,1.13-.06h.06a.44.44,0,0,1,.46.45.38.38,0,0,1-.37.39,8.06,8.06,0,0,1-1.12.06h-.7l-.3,2h.48a12.07,12.07,0,0,0,1.89-.15h.09a.43.43,0,0,1,.45.43.45.45,0,0,1-.39.43,10.29,10.29,0,0,1-2.05.19h-.56a12.83,12.83,0,0,0-.09,1.3,1.69,1.69,0,0,0,1.88,1.88,2,2,0,0,0,2.21-2.09,2.6,2.6,0,0,0-.12-.74.5.5,0,0,1,0-.17.41.41,0,0,1,.42-.4.5.5,0,0,1,.46.33,3.23,3.23,0,0,1,.18,1,2.84,2.84,0,0,1-3.13,3,2.5,2.5,0,0,1-2.77-2.75,13.51,13.51,0,0,1,.08-1.4,9.26,9.26,0,0,1-1.51-.25.49.49,0,0,1-.4-.47.43.43,0,0,1,.46-.43l.18,0a10.07,10.07,0,0,0,1.38.23q.12-1,.3-2a11,11,0,0,1-1.38-.2.44.44,0,0,1-.37-.42.43.43,0,0,1,.46-.42h.15a9.11,9.11,0,0,0,1.28.19l.32-2a.41.41,0,0,1,.44-.34.43.43,0,0,1,.45.4v.07Z" style="fill:#104052"/><path d="M270.72,554.14a.55.55,0,0,1,.16.37.44.44,0,0,1-.41.44.48.48,0,0,1-.35-.18,7.69,7.69,0,0,0-1-.86.44.44,0,0,1-.2-.36.42.42,0,0,1,.43-.39.6.6,0,0,1,.29.09A7.09,7.09,0,0,1,270.72,554.14Zm.42,2.36a.41.41,0,0,1,.42.42.46.46,0,0,1,0,.19,14.68,14.68,0,0,1-1.44,3.24.54.54,0,0,1-.43.27.41.41,0,0,1-.42-.41.54.54,0,0,1,.1-.3,12.35,12.35,0,0,0,1.38-3A.45.45,0,0,1,271.14,556.5Zm.38-5.2a.54.54,0,0,1,.15.37.43.43,0,0,1-.42.44.47.47,0,0,1-.37-.19A6.62,6.62,0,0,0,270,551a.48.48,0,0,1-.2-.36.43.43,0,0,1,.43-.4.42.42,0,0,1,.26.08A6.16,6.16,0,0,1,271.52,551.3Zm3.4,5.85a6.55,6.55,0,0,0,.27-.74h-3a.34.34,0,0,1-.35-.35.34.34,0,0,1,.35-.35h7.32a.33.33,0,0,1,.34.35.34.34,0,0,1-.34.35H276a6.74,6.74,0,0,1-.3.74h2.15c.84,0,1.19.33,1.19,1V560a.88.88,0,0,1-1,.95,1.91,1.91,0,0,1-.45,0,.37.37,0,0,1-.32-.36.36.36,0,0,1,.35-.36h.1l.26,0c.21,0,.28-.09.28-.36v-1.58c0-.33-.07-.44-.59-.44H277v2.47a.33.33,0,0,1-.37.31c-.19,0-.38-.1-.38-.31v-2.47h-1.13v2.5a.34.34,0,0,1-.37.31.34.34,0,0,1-.38-.31v-2.5h-.58c-.46,0-.54.11-.54.44v2.4c0,.22-.2.33-.41.33a.36.36,0,0,1-.4-.33v-2.53c0-.65.33-1,1.18-1Zm.31-6H273a.34.34,0,0,1-.35-.35.34.34,0,0,1,.35-.35h5.6a.34.34,0,0,1,.35.35.34.34,0,0,1-.35.35H276v.65h2.25c.9,0,1.21.31,1.21.92v.61a.41.41,0,0,1-.81,0v-.51c0-.27-.15-.38-.61-.38h-2v2.68a.35.35,0,0,1-.39.31c-.21,0-.41-.11-.41-.31v-2.68h-1.81c-.46,0-.6.11-.6.38v.57c0,.23-.19.34-.4.34a.36.36,0,0,1-.39-.34v-.67c0-.61.3-.92,1.2-.92h2Zm-2.23,3.8a.33.33,0,0,1,0-.65h1.46a.33.33,0,1,1,0,.65Zm.51-1.21a.32.32,0,0,1-.31-.33.31.31,0,0,1,.31-.32h.95a.31.31,0,0,1,.34.32.32.32,0,0,1-.34.33Zm3.27,0a.3.3,0,0,1-.3-.33.29.29,0,0,1,.3-.32H278a.31.31,0,0,1,.33.32.32.32,0,0,1-.33.33Zm0,1.21a.33.33,0,0,1,0-.65h1.54a.33.33,0,1,1,0,.65Z" style="fill:#104052"/><path d="M284.44,554.52c1.78-1.69,2.84-2.35,3.7-2.35a1.21,1.21,0,0,1,1.3,1.38v.16l-.23,4.16V558c0,.43.12.56.36.56a2.08,2.08,0,0,0,1.61-.92.45.45,0,0,1,.37-.21.43.43,0,0,1,.42.44.54.54,0,0,1-.14.34,2.93,2.93,0,0,1-2.36,1.29,1.09,1.09,0,0,1-1.2-1.24v-.12l.22-4.29v-.12c0-.49-.15-.66-.42-.66-.64,0-1.62.5-3.65,2.57v4.31a.41.41,0,0,1-.42.44.42.42,0,0,1-.43-.44l0-3.25-1.31,1.9a.43.43,0,0,1-.35.2.37.37,0,0,1-.38-.37.4.4,0,0,1,.08-.24,28.48,28.48,0,0,0,2-3.32l0-1-1.53.28h-.08a.43.43,0,0,1,0-.84l1.65-.28,0-2.13a.41.41,0,0,1,.43-.41.38.38,0,0,1,.42.38v0l0,2.05a.39.39,0,0,1,.37.38c0,.21-.1.4-.41.76Z" style="fill:#104052"/><path d="M296.47,550.68a.42.42,0,0,1,.43-.36.44.44,0,0,1,.46.44.53.53,0,0,1,0,.12q-.18.78-.42,1.62c.44-.06.88-.14,1.29-.22h.13a.4.4,0,0,1,.44.38.49.49,0,0,1-.44.46c-.55.1-1.12.2-1.71.28a20.4,20.4,0,0,1-1.9,4.12.55.55,0,0,1-.46.29.43.43,0,0,1-.44-.42A.71.71,0,0,1,294,557a17.63,17.63,0,0,0,1.73-3.54c-.5,0-1.09.11-1.52.11a.43.43,0,0,1-.47-.44.42.42,0,0,1,.44-.43c.55,0,1.19-.06,1.85-.14C296.17,552,296.34,551.33,296.47,550.68Zm2.65,5.21a4.89,4.89,0,0,1,.11-1.13.43.43,0,0,1,.85,0s0,.05,0,.07a4.85,4.85,0,0,0-.1,1,9.79,9.79,0,0,0,.22,1.8,8.48,8.48,0,0,1,2.15,1,.52.52,0,0,1,.26.44.43.43,0,0,1-.42.44.44.44,0,0,1-.28-.1,8.88,8.88,0,0,0-1.59-.87v.12a1.66,1.66,0,0,1-1.87,1.75c-1.42,0-2.11-.64-2.11-1.56s.69-1.49,2.23-1.49a6.33,6.33,0,0,1,.73.06A9.78,9.78,0,0,1,299.12,555.89Zm.31,2.75c0-.12,0-.23,0-.34a3.73,3.73,0,0,0-.84-.11c-1,0-1.36.31-1.36.71s.3.76,1.23.76A.9.9,0,0,0,299.43,558.64Zm3.37-5.3a.57.57,0,0,1,.3.47.43.43,0,0,1-.42.44.59.59,0,0,1-.31-.1,9,9,0,0,0-1.75-.84.4.4,0,0,1-.3-.39.44.44,0,0,1,.44-.44l.18,0A7.64,7.64,0,0,1,302.8,553.34Z" style="fill:#104052"/><path d="M306.55,551.68a.46.46,0,0,1,.48.47c0,.29,0,.73,0,1.1,0,4,.92,5.35,1.47,5.35.31,0,.64-.32.9-1.19a.45.45,0,0,1,.9.1.79.79,0,0,1,0,.2c-.44,1.37-1.12,1.91-1.73,1.91-1.34,0-2.46-2-2.46-6.33a11.55,11.55,0,0,1,.05-1.19A.46.46,0,0,1,306.55,551.68Zm8.6,4.77a.56.56,0,0,1,0,.21.47.47,0,0,1-.47.51.49.49,0,0,1-.47-.37,7.51,7.51,0,0,0-2-3.2.46.46,0,0,1-.17-.34.43.43,0,0,1,.45-.4.59.59,0,0,1,.35.13A7.44,7.44,0,0,1,315.15,556.45Z" style="fill:#104052"/><path d="M323.21,559.18a.81.81,0,1,1-.81-.8A.8.8,0,0,1,323.21,559.18Zm-1.48-7.72a.66.66,0,0,1,.68-.63.63.63,0,0,1,.66.63c0,.16,0,.68,0,1-.11,1.79-.16,2.75-.21,4.74a.39.39,0,0,1-.42.39.38.38,0,0,1-.42-.39c-.05-1.95-.11-2.85-.2-4.74C321.77,552.2,321.73,551.63,321.73,551.46Z" style="fill:#104052"/><path d="M63.17,110.4a.35.35,0,0,1-.35-.37.35.35,0,0,1,.35-.37h2.19V107.6a.4.4,0,0,1,.43-.4.4.4,0,0,1,.43.4v2.06h4V107.6a.43.43,0,0,1,.86,0v2.06H73.3a.34.34,0,0,1,.35.37.35.35,0,0,1-.35.37H71.08v5.86c0,.84-.45,1.28-1.35,1.28h-3c-.9,0-1.36-.44-1.36-1.28V110.4Zm3,2.57h4V110.4h-4Zm0,3.14c0,.5.18.68.69.68h2.62c.51,0,.69-.18.69-.68v-2.4h-4Z" style="fill:#104052"/><path d="M82.22,113.46a11.75,11.75,0,0,1-1.91-2.65,31.49,31.49,0,0,1-3.18.42l-.52,0a.42.42,0,0,1-.42-.44.4.4,0,0,1,.4-.42,31.42,31.42,0,0,0,3.35-.4,14.53,14.53,0,0,1-.71-2,.34.34,0,0,1,0-.1.43.43,0,0,1,.47-.42.48.48,0,0,1,.47.37,14.47,14.47,0,0,0,.65,2,23.7,23.7,0,0,0,2.62-.66.51.51,0,0,1,.2,0,.39.39,0,0,1,.41.41.44.44,0,0,1-.33.44,24.7,24.7,0,0,1-2.52.65,14.65,14.65,0,0,0,2.13,2.9.62.62,0,0,1,.19.43.51.51,0,0,1-.54.51.78.78,0,0,1-.21,0A8.3,8.3,0,0,0,80,114c-1.53,0-2.21.51-2.21,1.27s.81,1.34,2.57,1.34a12.56,12.56,0,0,0,1.31-.06h.06a.42.42,0,0,1,.43.44.45.45,0,0,1-.42.46,10.81,10.81,0,0,1-1.35.07c-2.31,0-3.53-1-3.53-2.22s.83-2.12,3.13-2.12a7.2,7.2,0,0,1,2.21.31Z" style="fill:#104052"/><path d="M90,111.79a2.65,2.65,0,0,1,1.24-.33,1.45,1.45,0,0,1,1.58,1.16,31.24,31.24,0,0,1,3.29-1.19.55.55,0,0,1,.18,0,.41.41,0,0,1,.43.42.45.45,0,0,1-.36.43A31,31,0,0,0,93,113.42a9.46,9.46,0,0,1,.18,1.87v0a.42.42,0,0,1-.44.46.4.4,0,0,1-.41-.42,12.31,12.31,0,0,0-.12-1.58c-1.45.71-1.88,1.44-1.88,2s.51.91,2,.91a11.62,11.62,0,0,0,2.23-.2h.14a.44.44,0,0,1,.47.43.48.48,0,0,1-.44.46,14.07,14.07,0,0,1-2.4.19c-2,0-2.93-.67-2.93-1.73,0-.86.55-1.83,2.63-2.85-.21-.66-.52-.8-1-.8a4.36,4.36,0,0,0-2.46,1.18.6.6,0,0,1-.34.13.41.41,0,0,1-.42-.41.5.5,0,0,1,.21-.38A9.52,9.52,0,0,0,90.25,110c-.59,0-1.15.08-1.63.09a.45.45,0,0,1-.5-.42.46.46,0,0,1,.51-.45c.6,0,1.31,0,2-.09q.3-.72.54-1.44a.46.46,0,0,1,.44-.35.43.43,0,0,1,.45.41.34.34,0,0,1,0,.17,8.78,8.78,0,0,1-.43,1.11c.66-.07,1.32-.17,1.88-.26h.12a.41.41,0,0,1,.45.4.42.42,0,0,1-.39.41,24.9,24.9,0,0,1-2.49.35A12.25,12.25,0,0,1,90,111.76Z" style="fill:#104052"/><path d="M102.33,109.34a20.18,20.18,0,0,1-2.23.4h0a.42.42,0,0,1-.44-.42.42.42,0,0,1,.42-.43c1-.1,2-.27,3-.45h.11a.51.51,0,0,1,.54.49.5.5,0,0,1-.21.4,5.78,5.78,0,0,0-2.4,4.49c0,1.76,1,2.49,2.14,2.49,1.6,0,3-1.15,3-4a15.63,15.63,0,0,0-.4-3.49.18.18,0,0,1,0-.1.47.47,0,0,1,.48-.45.42.42,0,0,1,.4.25,13.42,13.42,0,0,0,2.53,3.59.6.6,0,0,1,.19.42.46.46,0,0,1-.45.46.53.53,0,0,1-.41-.22,13.88,13.88,0,0,1-1.76-2.63l0,0a11.83,11.83,0,0,1,.25,2.56c0,3.1-1.68,4.56-3.74,4.56-1.7,0-3.07-1.13-3.07-3.43a6.26,6.26,0,0,1,2.18-4.45Z" style="fill:#104052"/><path d="M112.63,116.55a.5.5,0,0,1-.44.29.43.43,0,0,1-.44-.41.51.51,0,0,1,.09-.27,20.09,20.09,0,0,0,1.89-5c-.59.09-1.19.19-1.7.31l-.13,0a.39.39,0,0,1-.39-.4.48.48,0,0,1,.4-.45,17.86,17.86,0,0,1,2-.34,19.71,19.71,0,0,0,.38-2.28.45.45,0,0,1,.45-.44.43.43,0,0,1,.45.46v0c-.08.71-.2,1.42-.34,2.14.34,0,.64,0,.91,0,1.37,0,1.92.59,1.92,2.46a10.11,10.11,0,0,1-.44,3,1.83,1.83,0,0,1-1.89,1.45,3.28,3.28,0,0,1-.69-.06.42.42,0,0,1-.37-.45.43.43,0,0,1,.43-.45h.09a2.32,2.32,0,0,0,.51.05,1,1,0,0,0,1-.79,9.39,9.39,0,0,0,.41-2.8c0-1.41-.27-1.65-1-1.65-.34,0-.71,0-1.11,0A22.38,22.38,0,0,1,112.63,116.55Zm8.83-4.56a.79.79,0,0,1,.06.28.53.53,0,0,1-.51.53.47.47,0,0,1-.43-.33,9.91,9.91,0,0,0-1.71-2.55.49.49,0,0,1-.15-.31.45.45,0,0,1,.46-.42.59.59,0,0,1,.37.15A10.65,10.65,0,0,1,121.46,112Z" style="fill:#104052"/><path d="M129.07,110h.18a.59.59,0,0,1,.66.56.81.81,0,0,1-.23.52l-2.27,2.39,0,0a2.45,2.45,0,0,1,.88-.16c.64,0,1.14.4,1.2,1.41v.19c.06,1,.42,1.24,1.06,1.24a8,8,0,0,0,2-.27l.15,0a.42.42,0,0,1,.42.43.45.45,0,0,1-.34.45,9.49,9.49,0,0,1-2.18.28c-1.3,0-1.84-.52-1.93-1.9v-.21c0-.59-.23-.84-.75-.84a2.4,2.4,0,0,0-1.32.58,17.24,17.24,0,0,0-2,2.09.71.71,0,0,1-.47.24.4.4,0,0,1-.42-.4.67.67,0,0,1,.2-.44l4.84-5.27v0l-3.67.63H125a.4.4,0,0,1-.39-.42.41.41,0,0,1,.37-.41Zm-2.2-2.43a13.4,13.4,0,0,1,2.46.61.51.51,0,0,1,.38.48.42.42,0,0,1-.44.43.74.74,0,0,1-.23,0,16.4,16.4,0,0,0-2.32-.63.42.42,0,0,1-.39-.4.44.44,0,0,1,.47-.44Z" style="fill:#104052"/><path d="M139.78,115.46a.71.71,0,0,1,.09.31.4.4,0,0,1-.41.42.47.47,0,0,1-.43-.3c-.1-.19-.19-.38-.29-.59a2.44,2.44,0,0,1-1.83.93c-.82,0-1.38-.64-1.38-1.67a4.54,4.54,0,0,1,1.83-3.29,21.29,21.29,0,0,1-.42-2.2s0,0,0-.07a.43.43,0,0,1,.44-.42.41.41,0,0,1,.4.38c.08.6.19,1.21.33,1.82a6.28,6.28,0,0,1,2.5-.84,16,16,0,0,0,.24-1.65.39.39,0,0,1,.42-.37.4.4,0,0,1,.44.4v.06a15.19,15.19,0,0,1-.24,1.55c2,.1,3.47,1.37,3.47,3.2A3.82,3.82,0,0,1,142,117l-.19,0a.49.49,0,0,1-.5-.48.49.49,0,0,1,.41-.46,2.8,2.8,0,0,0,2.23-2.89,2.52,2.52,0,0,0-2.71-2.44,10.54,10.54,0,0,1-1.88,4C139.52,114.94,139.65,115.21,139.78,115.46Zm-2.2-3.37a3.56,3.56,0,0,0-1.18,2.34c0,.66.25.87.58.87s.81-.14,1.41-.8A22.73,22.73,0,0,1,137.58,112.09Zm2.83-1.33a5.18,5.18,0,0,0-2.11.81,20.21,20.21,0,0,0,.74,2.28A9.23,9.23,0,0,0,140.41,110.76Z" style="fill:#104052"/><path d="M149.06,108.22a.41.41,0,0,1,.44.42.34.34,0,0,1,0,.1,24.74,24.74,0,0,0-.55,5.22,21.17,21.17,0,0,0,.22,2.8v.08a.47.47,0,0,1-.93.06A21.35,21.35,0,0,1,148,114a24.83,24.83,0,0,1,.56-5.37A.47.47,0,0,1,149.06,108.22Zm5.4,7.29a9.63,9.63,0,0,0,1.8-.18h.12a.43.43,0,0,1,.44.46.45.45,0,0,1-.38.45,10.55,10.55,0,0,1-2,.19c-2.08,0-2.95-.65-3.1-2v-.06a.45.45,0,0,1,.46-.47.43.43,0,0,1,.43.39C152.38,115.22,153,115.51,154.46,115.51Zm1.23-6.25a.45.45,0,1,1,0,.9,32,32,0,0,1-3.36.28.47.47,0,0,1-.53-.46.46.46,0,0,1,.5-.46,28.67,28.67,0,0,0,3.28-.26Z" style="fill:#104052"/><path d="M161.72,108.17a.48.48,0,0,1,1,0c0,.11,0,.31,0,.41-.12,1.52-.22,3.57-.22,5.47,0,1.73.53,2.28,1.55,2.28a4.4,4.4,0,0,0,3.42-1.89.54.54,0,0,1,.42-.21.44.44,0,0,1,.45.43.65.65,0,0,1-.17.41,5.27,5.27,0,0,1-4.09,2.19c-1.7,0-2.54-.86-2.54-3.22C161.48,112.16,161.58,109.91,161.72,108.17Z" style="fill:#104052"/><path d="M171.87,110.85a.41.41,0,0,1-.42-.43.45.45,0,0,1,.46-.45c.49,0,1.12-.1,1.81-.21.12-.68.18-1.18.25-1.94a.47.47,0,0,1,.48-.44.4.4,0,0,1,.43.4s0,.06,0,.09c-.08.69-.14,1.19-.23,1.74.4-.09.81-.18,1.22-.29l.15,0a.38.38,0,0,1,.4.4.47.47,0,0,1-.35.45c-.54.14-1.07.27-1.57.37a35.12,35.12,0,0,1-1.74,6.38.57.57,0,0,1-.53.41.43.43,0,0,1-.44-.45.73.73,0,0,1,.06-.26,30.27,30.27,0,0,0,1.71-5.91A13.28,13.28,0,0,1,171.87,110.85Zm3.95,4.14a.47.47,0,0,1,.47-.46.37.37,0,0,1,.38.34c.12.84.62,1.19,2.18,1.19a8.39,8.39,0,0,0,1.54-.16h.09a.42.42,0,0,1,.41.46.47.47,0,0,1-.37.47,9.13,9.13,0,0,1-1.68.15c-2,0-2.86-.65-3-1.92Zm3.91-4H180a.43.43,0,0,1,.45.45.41.41,0,0,1-.42.44h-.23a12.49,12.49,0,0,0-2.69.31l-.15,0a.4.4,0,0,1-.4-.41.51.51,0,0,1,.42-.5A12.32,12.32,0,0,1,179.73,111Z" style="fill:#104052"/><path d="M184.63,116.55a.5.5,0,0,1-.44.29.43.43,0,0,1-.44-.41.51.51,0,0,1,.09-.27,20.09,20.09,0,0,0,1.89-5c-.59.09-1.19.19-1.7.31l-.13,0a.39.39,0,0,1-.39-.4.48.48,0,0,1,.4-.45,17.86,17.86,0,0,1,2-.34,19.71,19.71,0,0,0,.38-2.28.45.45,0,0,1,.45-.44.43.43,0,0,1,.45.46v0c-.08.71-.2,1.42-.34,2.14.34,0,.64,0,.91,0,1.37,0,1.92.59,1.92,2.46a10.11,10.11,0,0,1-.44,3,1.83,1.83,0,0,1-1.89,1.45,3.28,3.28,0,0,1-.69-.06.42.42,0,0,1-.37-.45.43.43,0,0,1,.43-.45h.09a2.32,2.32,0,0,0,.51.05,1,1,0,0,0,1-.79,9.39,9.39,0,0,0,.41-2.8c0-1.41-.27-1.65-1-1.65-.34,0-.71,0-1.11,0A22.38,22.38,0,0,1,184.63,116.55Zm8.83-4.56a.79.79,0,0,1,.06.28.53.53,0,0,1-.51.53.47.47,0,0,1-.43-.33,9.91,9.91,0,0,0-1.71-2.55.49.49,0,0,1-.15-.31.45.45,0,0,1,.46-.42.59.59,0,0,1,.37.15A10.65,10.65,0,0,1,193.46,112Z" style="fill:#104052"/><path d="M197.53,113.48a5.61,5.61,0,0,1,3.74-1.53c1.64,0,2.81.92,2.81,2.23,0,1.75-1.5,2.94-4.21,3.3h-.08a.46.46,0,0,1-.5-.45.48.48,0,0,1,.47-.45c2.3-.32,3.38-1.16,3.38-2.39,0-.85-.71-1.39-1.87-1.39a5,5,0,0,0-3.83,1.87.56.56,0,0,1-.43.19.5.5,0,0,1-.51-.53v-.08c.19-1.25.45-2.72.74-4a.46.46,0,0,1,.46-.37.41.41,0,0,1,.44.41.6.6,0,0,1,0,.12c-.24,1.05-.46,2.14-.62,3.09Zm3.9-5.1a.54.54,0,0,1,.32.47.43.43,0,0,1-.43.45.71.71,0,0,1-.29-.08,14.27,14.27,0,0,0-1.94-.75.49.49,0,0,1-.39-.45.45.45,0,0,1,.48-.42,1.13,1.13,0,0,1,.18,0A10.92,10.92,0,0,1,201.43,108.38Z" style="fill:#104052"/><path d="M206.88,115.32a.43.43,0,0,1,.44-.41.55.55,0,0,1,.29.08,10.14,10.14,0,0,1,2.23,2,.72.72,0,0,1,.17.43.49.49,0,0,1-.51.48.57.57,0,0,1-.46-.25,10.9,10.9,0,0,0-2-2A.39.39,0,0,1,206.88,115.32Z" style="fill:#104052"/><path d="M69.67,129.68c.84,0,1.3.32,1.3.93a1.61,1.61,0,0,1-.13.63,11.4,11.4,0,0,1-1.63,2.87,17.68,17.68,0,0,1,3.37,3,.65.65,0,0,1,.17.42.53.53,0,0,1-.52.53.6.6,0,0,1-.46-.26,18.83,18.83,0,0,0-3.11-3,13.71,13.71,0,0,1-4,3.16.64.64,0,0,1-.28.07.46.46,0,0,1-.46-.47.52.52,0,0,1,.33-.47,11.61,11.61,0,0,0,5.68-6,.63.63,0,0,0,.07-.26c0-.16-.12-.2-.34-.2h-.08l-4.42.07a.44.44,0,0,1-.46-.45.45.45,0,0,1,.45-.46Z" style="fill:#104052"/><path d="M78.27,133.39a.5.5,0,0,1,0,.23.45.45,0,0,1-.46.44.46.46,0,0,1-.43-.31,12.3,12.3,0,0,0-.84-1.66.44.44,0,0,1-.07-.24.42.42,0,0,1,.44-.37.47.47,0,0,1,.4.22A12,12,0,0,1,78.27,133.39Zm5.27-2.07a.45.45,0,0,1,.48.45.32.32,0,0,1,0,.13,11,11,0,0,1-5.07,6.71.54.54,0,0,1-.26.07.42.42,0,0,1-.42-.43.46.46,0,0,1,.27-.42,9.84,9.84,0,0,0,4.57-6.16A.44.44,0,0,1,83.54,131.32Zm-2.89,1.48a.57.57,0,0,1,0,.18.47.47,0,0,1-.48.45.41.41,0,0,1-.39-.3,11.19,11.19,0,0,0-.79-1.66.43.43,0,0,1-.08-.21.4.4,0,0,1,.44-.36.48.48,0,0,1,.4.21A8.92,8.92,0,0,1,80.65,132.8Z" style="fill:#104052"/><path d="M90.9,129a.18.18,0,0,1,0-.1.46.46,0,0,1,.48-.44.45.45,0,0,1,.46.38l.37,2.11,3.08-.46h.08a.41.41,0,0,1,.4.44.4.4,0,0,1-.34.42l-3.08.47.37,2.05,3.7-.63h.08a.45.45,0,0,1,0,.88l-3.68.62.59,3.41s0,.06,0,.09a.45.45,0,0,1-.47.44.44.44,0,0,1-.44-.38l-.6-3.4-3.73.62h-.07a.43.43,0,0,1-.41-.45.4.4,0,0,1,.35-.42l3.7-.63L91.42,132l-2.88.43h-.07a.42.42,0,0,1-.4-.44.41.41,0,0,1,.35-.42l2.85-.43Z" style="fill:#104052"/><path d="M102.4,134.23a.45.45,0,0,1-.49.44.45.45,0,0,1-.49-.44v-4.71a.46.46,0,0,1,.49-.46.46.46,0,0,1,.49.46Zm3.63-4.92a.46.46,0,0,1,.5-.45.45.45,0,0,1,.48.45v3.6c0,3-1.34,4.87-3.53,5.75a.52.52,0,0,1-.21,0,.46.46,0,0,1-.47-.46.54.54,0,0,1,.37-.5c1.86-.79,2.86-2.13,2.86-4.93Z" style="fill:#104052"/><path d="M113.72,129.17a.48.48,0,0,1,1,0c0,.11,0,.31,0,.41-.12,1.52-.22,3.57-.22,5.47,0,1.73.53,2.28,1.55,2.28a4.4,4.4,0,0,0,3.42-1.89.54.54,0,0,1,.42-.21.44.44,0,0,1,.45.43.65.65,0,0,1-.17.41,5.27,5.27,0,0,1-4.09,2.19c-1.7,0-2.54-.86-2.54-3.22C113.48,133.16,113.58,130.91,113.72,129.17Z" style="fill:#104052"/><path d="M123.87,131.85a.41.41,0,0,1-.42-.43.45.45,0,0,1,.46-.45c.49,0,1.12-.1,1.81-.21.12-.68.18-1.18.25-1.94a.47.47,0,0,1,.48-.44.4.4,0,0,1,.43.4s0,.06,0,.09c-.08.69-.14,1.19-.23,1.74.4-.09.81-.18,1.22-.29l.15,0a.38.38,0,0,1,.4.4.47.47,0,0,1-.35.45c-.54.14-1.07.27-1.57.37a35.12,35.12,0,0,1-1.74,6.38.57.57,0,0,1-.53.41.43.43,0,0,1-.44-.45.73.73,0,0,1,.06-.26,30.27,30.27,0,0,0,1.71-5.91A13.28,13.28,0,0,1,123.87,131.85Zm3.95,4.14a.47.47,0,0,1,.47-.46.37.37,0,0,1,.38.34c.12.84.62,1.19,2.18,1.19a8.39,8.39,0,0,0,1.54-.16h.09a.42.42,0,0,1,.41.46.47.47,0,0,1-.37.47,9.13,9.13,0,0,1-1.68.15c-2,0-2.86-.65-3-1.92Zm3.91-4H132a.43.43,0,0,1,.45.45.41.41,0,0,1-.42.44h-.23a12.49,12.49,0,0,0-2.69.31.4.4,0,0,1-.15,0,.4.4,0,0,1-.4-.41.51.51,0,0,1,.42-.5A12.32,12.32,0,0,1,131.73,132Z" style="fill:#104052"/><path d="M136.88,130.67a.38.38,0,0,1,.41-.39.38.38,0,0,1,.41.39v8.11a.38.38,0,0,1-.41.37.37.37,0,0,1-.41-.37v-2.92a10.46,10.46,0,0,1-1.55.73.53.53,0,0,1-.2,0,.39.39,0,0,1-.4-.38.44.44,0,0,1,.33-.41,12.43,12.43,0,0,0,1.82-.84Zm-.36,2.36a.54.54,0,0,1,.1.3.42.42,0,0,1-.42.41.41.41,0,0,1-.37-.23,5.67,5.67,0,0,0-.68-.94.36.36,0,0,1-.1-.25.38.38,0,0,1,.38-.36.47.47,0,0,1,.34.15A5.92,5.92,0,0,1,136.52,133Zm7.59-4.09c.91,0,1.25.41,1.25,1v.69a.38.38,0,0,1-.42.38.39.39,0,0,1-.42-.38v-.56c0-.28-.11-.42-.56-.42h-7.33c-.46,0-.56.14-.56.4v.7a.42.42,0,0,1-.84,0V130c0-.6.33-1,1.24-1h3.3v-.68a.41.41,0,0,1,.43-.39.4.4,0,0,1,.42.39v.68Zm-4.29,7.15a.34.34,0,1,1,0-.67h3.11c.58,0,.95.27.95.66a1,1,0,0,1-.33.67,4.64,4.64,0,0,1-.78.68,8.31,8.31,0,0,0,2.33.72.43.43,0,0,1,.39.42.41.41,0,0,1-.44.42H145a8.09,8.09,0,0,1-2.89-1.09,10.16,10.16,0,0,1-3.43,1.16h-.08a.39.39,0,0,1-.4-.38c0-.16.11-.31.37-.36a10.69,10.69,0,0,0,2.87-.9,6.68,6.68,0,0,1-1.27-1.33Zm4.2-2c.91,0,1.24.31,1.24.95v.68a.41.41,0,0,1-.81,0v-.54c0-.3-.11-.42-.57-.42h-4.17c-.45,0-.56.12-.56.4v.56a.41.41,0,0,1-.82,0v-.68c0-.64.34-.95,1.25-.95Zm-.6-2.67c0-.25-.15-.34-.53-.34h-3.37a.34.34,0,1,1,0-.67H143c.82,0,1.22.23,1.22.89v1.35c0,.66-.4.89-1.22.89H139.4a.34.34,0,1,1,0-.67h3.49c.38,0,.53-.06.53-.35v-.23h-3.7a.33.33,0,0,1,0-.65h3.7Zm-2.4,4.64a5.11,5.11,0,0,0,.39.42,4.65,4.65,0,0,0,.66.51,3.94,3.94,0,0,0,.8-.64.29.29,0,0,0,.09-.18c0-.07-.07-.11-.23-.11Z" style="fill:#104052"/><path d="M152.2,131.89a.34.34,0,0,1,.35.37.35.35,0,0,1-.35.37h-2.1v1.6h1.56a.34.34,0,0,1,.35.37.35.35,0,0,1-.35.37H150.1v2.41a10.53,10.53,0,0,0,3.52.44c1.39,0,2.53-.06,3.72-.17h.06a.4.4,0,0,1,.42.42.42.42,0,0,1-.4.42c-1.2.11-2.35.15-3.8.15-3.18,0-4.68-.57-5.59-2a12.82,12.82,0,0,1-.64,2,.43.43,0,0,1-.4.3.35.35,0,0,1-.36-.37.7.7,0,0,1,0-.23,13.52,13.52,0,0,0,.93-4.25.39.39,0,0,1,.41-.41.4.4,0,0,1,.4.43,12.9,12.9,0,0,1-.19,1.57,3.83,3.83,0,0,0,1,1.31v-4.3h-2.21a.35.35,0,0,1-.35-.37.35.35,0,0,1,.35-.37h2.14V130.4h-1.44a.35.35,0,0,1-.34-.37.34.34,0,0,1,.34-.37h1.44v-1.31a.39.39,0,0,1,.42-.38.38.38,0,0,1,.42.38v1.31h1.54a.34.34,0,0,1,.35.37.35.35,0,0,1-.35.37H150v1.49Zm3.3.08c.41,0,.49-.09.49-.4v-1.45c0-.32-.08-.41-.49-.41h-2.25a.38.38,0,0,1,0-.75h2.36c.87,0,1.22.35,1.22,1v1.79c0,.63-.35,1-1.22,1h-1.2c-.41,0-.49.09-.49.41v2.11c0,.57.2.66,1.21.66,1.24,0,1.47-.17,1.54-1a.4.4,0,0,1,.41-.4.41.41,0,0,1,.42.46,2.25,2.25,0,0,1-.25,1c-.32.47-.73.72-2.12.72-1.64,0-2-.37-2-1.3V133c0-.64.35-1,1.22-1Z" style="fill:#104052"/><path d="M166.13,135.09a12.45,12.45,0,0,1-1.34-1.89,36.44,36.44,0,0,1-3.68.43.45.45,0,0,1-.48-.42.42.42,0,0,1,.45-.41,31,31,0,0,0,3.34-.37,15.92,15.92,0,0,1-.66-1.46,23.87,23.87,0,0,1-2.63.31.41.41,0,0,1-.44-.41.43.43,0,0,1,.45-.41,21,21,0,0,0,2.33-.26c-.15-.47-.29-.94-.39-1.39a.2.2,0,0,1,0-.1.41.41,0,0,1,.45-.38.44.44,0,0,1,.45.36c.1.44.23.9.37,1.35a19.53,19.53,0,0,0,2.22-.51.59.59,0,0,1,.21,0,.39.39,0,0,1,.42.39c0,.16-.11.33-.39.42a20.71,20.71,0,0,1-2.18.52c.19.5.41,1,.64,1.45a20.15,20.15,0,0,0,2.38-.6.55.55,0,0,1,.18,0,.42.42,0,0,1,.45.41.45.45,0,0,1-.38.42c-.67.2-1.43.39-2.25.56a15.65,15.65,0,0,0,1.55,2.11.63.63,0,0,1,.17.42.5.5,0,0,1-.51.51.78.78,0,0,1-.21,0,8,8,0,0,0-2.68-.48c-1.49,0-2.1.52-2.1,1.15s.58,1.09,2.46,1.09c.41,0,1,0,1.22,0a.43.43,0,0,1,.44.44.44.44,0,0,1-.41.43,10.26,10.26,0,0,1-1.23.06c-2.37,0-3.41-.81-3.41-1.95s.79-2,3-2a7,7,0,0,1,2.18.35Z" style="fill:#104052"/><path d="M173.06,129.22a.41.41,0,0,1,.44.42.34.34,0,0,1,0,.1,24.74,24.74,0,0,0-.55,5.22,21.17,21.17,0,0,0,.22,2.8v.08a.47.47,0,0,1-.93.06A21.35,21.35,0,0,1,172,135a24.83,24.83,0,0,1,.56-5.37A.47.47,0,0,1,173.06,129.22Zm5.4,7.29a9.63,9.63,0,0,0,1.8-.18h.12a.43.43,0,0,1,.44.46.45.45,0,0,1-.38.45,10.55,10.55,0,0,1-2,.19c-2.08,0-2.95-.65-3.1-2v-.06a.45.45,0,0,1,.46-.47.43.43,0,0,1,.43.39C176.38,136.22,177,136.51,178.46,136.51Zm1.23-6.25a.45.45,0,1,1,0,.9,32,32,0,0,1-3.36.28.47.47,0,0,1-.53-.46.46.46,0,0,1,.5-.46,28.67,28.67,0,0,0,3.28-.26Z" style="fill:#104052"/><path d="M186.21,130.46a20.18,20.18,0,0,1-2.23.4h0a.42.42,0,0,1-.44-.42.42.42,0,0,1,.42-.43c1-.1,2-.27,3-.45H187a.51.51,0,0,1,.54.49.5.5,0,0,1-.21.4,5.78,5.78,0,0,0-2.4,4.48c0,1.77,1,2.5,2.14,2.5,1.61,0,3-1.15,3-4a15.63,15.63,0,0,0-.4-3.49.18.18,0,0,1,0-.1.47.47,0,0,1,.48-.45.42.42,0,0,1,.4.25,13.58,13.58,0,0,0,2.53,3.59.6.6,0,0,1,.19.42.46.46,0,0,1-.45.46.53.53,0,0,1-.41-.22,13.88,13.88,0,0,1-1.76-2.63l0,0a11.83,11.83,0,0,1,.25,2.56c0,3.1-1.68,4.56-3.74,4.56-1.7,0-3.07-1.13-3.07-3.43a6.24,6.24,0,0,1,2.18-4.45Zm5.3-.94a1.32,1.32,0,1,1,1.32,1.32A1.3,1.3,0,0,1,191.51,129.52Zm.54,0a.78.78,0,0,0,1.56,0,.78.78,0,0,0-1.56,0Z" style="fill:#104052"/><path d="M201.41,132.23c1.68,0,2.87,1,2.87,2.43,0,1.85-1.33,3.22-4,3.59h-.08a.46.46,0,0,1-.46-.47.42.42,0,0,1,.39-.43c2.4-.33,3.27-1.34,3.27-2.69,0-1-.67-1.61-2-1.61a12.94,12.94,0,0,0-4.74,1.25.61.61,0,0,1-.25.06.44.44,0,0,1-.44-.44.52.52,0,0,1,.36-.47A13.33,13.33,0,0,1,201.41,132.23Z" style="fill:#104052"/><path d="M207.87,131.85a.41.41,0,0,1-.42-.43.45.45,0,0,1,.46-.45c.49,0,1.12-.1,1.81-.21.12-.68.18-1.18.25-1.94a.47.47,0,0,1,.48-.44.4.4,0,0,1,.43.4s0,.06,0,.09c-.08.69-.14,1.19-.23,1.74.4-.09.81-.18,1.22-.29l.15,0a.38.38,0,0,1,.4.4.47.47,0,0,1-.35.45c-.54.14-1.07.27-1.57.37a35.12,35.12,0,0,1-1.74,6.38.57.57,0,0,1-.53.41.43.43,0,0,1-.44-.45.73.73,0,0,1,.06-.26,30.27,30.27,0,0,0,1.71-5.91A13.28,13.28,0,0,1,207.87,131.85Zm3.95,4.14a.47.47,0,0,1,.47-.46.37.37,0,0,1,.38.34c.12.84.62,1.19,2.18,1.19a8.39,8.39,0,0,0,1.54-.16h.09a.42.42,0,0,1,.41.46.47.47,0,0,1-.37.47,9.13,9.13,0,0,1-1.68.15c-2,0-2.86-.65-3-1.92Zm3.91-4H216a.43.43,0,0,1,.45.45.41.41,0,0,1-.42.44h-.23a12.49,12.49,0,0,0-2.69.31.4.4,0,0,1-.15,0,.4.4,0,0,1-.4-.41.51.51,0,0,1,.42-.5A12.32,12.32,0,0,1,215.73,132Z" style="fill:#104052"/><path d="M222.19,134a10.4,10.4,0,0,0,.51-1.21.39.39,0,0,1,.36-.29.35.35,0,0,1,.36.36.69.69,0,0,1,0,.13,11.08,11.08,0,0,1-.79,1.87.67.67,0,0,1-.57.4.61.61,0,0,1-.55-.47,7.2,7.2,0,0,1-.24-1.94,16.8,16.8,0,0,1,.43-3.48.5.5,0,0,1,.48-.41.39.39,0,0,1,.41.41.61.61,0,0,1,0,.14,16.42,16.42,0,0,0-.46,3.24,11.26,11.26,0,0,0,.06,1.25Zm3.52-4.81a.44.44,0,0,1,.47-.43.46.46,0,0,1,.48.42,30.28,30.28,0,0,1,.25,3.79,6.38,6.38,0,0,1-2.53,5.48.64.64,0,0,1-.39.14.4.4,0,0,1-.42-.39.59.59,0,0,1,.27-.48A5.7,5.7,0,0,0,226,133a30.32,30.32,0,0,0-.24-3.72Z" style="fill:#104052"/><path d="M237,137.25a.81.81,0,1,1-.8-.79A.8.8,0,0,1,237,137.25Zm-1.47-7.71a.66.66,0,0,1,.68-.64.64.64,0,0,1,.66.64c0,.16,0,.67-.05,1-.11,1.8-.15,2.76-.2,4.75a.39.39,0,0,1-.42.38.38.38,0,0,1-.42-.38c-.05-1.95-.11-2.85-.21-4.75C235.59,130.27,235.56,129.71,235.56,129.54Z" style="fill:#104052"/><path d="M65.51,945.48a.48.48,0,0,1,.42.69,9,9,0,0,1-1.67,2.59.6.6,0,0,1-.44.22.44.44,0,0,1-.44-.44.57.57,0,0,1,.19-.42,8,8,0,0,0,1.5-2.33A.47.47,0,0,1,65.51,945.48Zm3.21,3.76a1.29,1.29,0,0,1-1.42,1.43,4.21,4.21,0,0,1-.81-.07.51.51,0,0,1-.45-.49.45.45,0,0,1,.46-.47h.12a3.2,3.2,0,0,0,.65.06c.32,0,.49-.13.49-.6V944H64.09a.42.42,0,0,1-.43-.45.43.43,0,0,1,.43-.46h3.67v-2a.46.46,0,0,1,.49-.43.42.42,0,0,1,.47.41v2h3.62a.43.43,0,0,1,.43.46.42.42,0,0,1-.43.45H68.72ZM72.79,948a.56.56,0,0,1,.17.4.51.51,0,0,1-.5.49.56.56,0,0,1-.46-.25,13,13,0,0,1-1.51-2.53.74.74,0,0,1,0-.23.43.43,0,0,1,.45-.43.51.51,0,0,1,.47.32A11,11,0,0,0,72.79,948ZM71,941.32a1.32,1.32,0,1,1,1.32,1.32A1.3,1.3,0,0,1,71,941.32Zm.54,0a.78.78,0,0,0,1.56,0,.78.78,0,0,0-1.56,0Z" style="fill:#104052"/><path d="M82.7,943c1,0,1.48.43,1.48,1.27a27.4,27.4,0,0,1-.32,4.25c-.22,1.29-.89,1.77-1.93,1.77a4.45,4.45,0,0,1-.65,0,.5.5,0,0,1-.48-.49.45.45,0,0,1,.48-.44l.18,0a2.18,2.18,0,0,0,.47,0c.51,0,.84-.15,1-1a23.27,23.27,0,0,0,.31-4c0-.41-.15-.5-.65-.5l-2.37,0a9.15,9.15,0,0,1-.94,3.47,7.94,7.94,0,0,1-2.66,2.85.6.6,0,0,1-.33.1.44.44,0,0,1-.44-.43.54.54,0,0,1,.3-.47,7.05,7.05,0,0,0,2.28-2.45,8.19,8.19,0,0,0,.83-3.07l-2.92,0a.43.43,0,0,1-.44-.45.41.41,0,0,1,.43-.43l3,0c0-.42,0-.88,0-1.39v-.73a.48.48,0,0,1,1,0v.72c0,.49,0,1,0,1.39Z" style="fill:#104052"/><path d="M90.44,946.28a.46.46,0,0,1-.49.45.46.46,0,0,1-.49-.45v-4.71a.46.46,0,0,1,.49-.46.46.46,0,0,1,.49.46Zm3.62-4.92a.46.46,0,0,1,.5-.45.45.45,0,0,1,.48.45V945c0,3-1.34,4.87-3.52,5.75a.59.59,0,0,1-.22,0,.48.48,0,0,1-.47-.47.52.52,0,0,1,.38-.49c1.85-.8,2.85-2.14,2.85-4.93Z" style="fill:#104052"/><path d="M105.7,941.74c.84,0,1.31.31,1.31.92a1.86,1.86,0,0,1-.13.64,11.84,11.84,0,0,1-1.63,2.86,18,18,0,0,1,3.37,3,.64.64,0,0,1,.16.42.52.52,0,0,1-.51.53.59.59,0,0,1-.47-.25,18.51,18.51,0,0,0-3.11-3,13.58,13.58,0,0,1-4,3.16.61.61,0,0,1-.28.07.46.46,0,0,1-.45-.47.49.49,0,0,1,.32-.46,11.74,11.74,0,0,0,5.69-6,1,1,0,0,0,.07-.27c0-.15-.12-.2-.35-.2h-.07l-4.43.07a.43.43,0,0,1-.45-.44.44.44,0,0,1,.44-.47Z" style="fill:#104052"/><path d="M115.75,943.22h-2.93a.41.41,0,0,1-.42-.44.41.41,0,0,1,.42-.44h7.08a.41.41,0,0,1,.42.44.41.41,0,0,1-.42.44h-3.17v5.06h4a.45.45,0,0,1,0,.89h-8.9a.45.45,0,0,1,0-.89h3.93Z" style="fill:#104052"/><path d="M126.31,945.44a.7.7,0,0,1,0,.23.45.45,0,0,1-.88.13,13.45,13.45,0,0,0-.84-1.65.49.49,0,0,1-.07-.24.41.41,0,0,1,.44-.37.47.47,0,0,1,.39.21A13.81,13.81,0,0,1,126.31,945.44Zm5.26-2.07a.46.46,0,0,1,.48.45.71.71,0,0,1,0,.14,11,11,0,0,1-5.07,6.7.57.57,0,0,1-.27.07.42.42,0,0,1-.42-.43.45.45,0,0,1,.28-.42,9.86,9.86,0,0,0,4.57-6.15A.43.43,0,0,1,131.57,943.37Zm-2.89,1.48a.39.39,0,0,1,0,.18.47.47,0,0,1-.48.45.42.42,0,0,1-.4-.3,10.28,10.28,0,0,0-.79-1.66.4.4,0,0,1-.07-.21.39.39,0,0,1,.43-.36.51.51,0,0,1,.41.21A8.91,8.91,0,0,1,128.68,944.85Z" style="fill:#104052"/><path d="M140,944.34a.43.43,0,0,1,.4-.24.47.47,0,0,1,.22,0,15.29,15.29,0,0,1,3,1.75.55.55,0,0,1,.24.43.49.49,0,0,1-.48.49.54.54,0,0,1-.33-.12,17.31,17.31,0,0,0-2.75-1.73.61.61,0,0,1-.25-.22v5.44a.48.48,0,0,1-1,0V941a.48.48,0,0,1,1,0Z" style="fill:#104052"/><path d="M150.5,946.52a5,5,0,0,1,5.33-4.81c2.74,0,4.4,1.72,4.4,4A4.36,4.36,0,0,1,157,950a.51.51,0,0,1-.2,0,.48.48,0,0,1-.49-.49.54.54,0,0,1,.42-.52,3.2,3.2,0,0,0,2.5-3.29,3.08,3.08,0,0,0-3.35-3.16,11.26,11.26,0,0,1-1.47,5.25c-.66,1-1.26,1.33-1.94,1.33C151.47,949.11,150.5,948.21,150.5,946.52Zm.95,0c0,1,.49,1.63,1,1.63.38,0,.73-.15,1.13-.79a10.46,10.46,0,0,0,1.32-4.76A4.07,4.07,0,0,0,151.45,946.52Z" style="fill:#104052"/><path d="M163.21,940.45a.35.35,0,0,1,.38-.35.36.36,0,0,1,.39.35v2.31h.89a.33.33,0,0,1,.34.34.34.34,0,0,1-.34.36H164v.94a6.42,6.42,0,0,1,1.13,1.21.47.47,0,0,1,.1.3.36.36,0,0,1-.35.37.41.41,0,0,1-.35-.23,5.67,5.67,0,0,0-.53-.74v5.5a.36.36,0,0,1-.39.34.35.35,0,0,1-.38-.34v-2.93l.06-2.43a11,11,0,0,1-1,2.38.41.41,0,0,1-.36.25.3.3,0,0,1-.3-.32.42.42,0,0,1,.07-.25,12.82,12.82,0,0,0,1.43-4H162a.33.33,0,0,1-.32-.36.33.33,0,0,1,.32-.34h1.17Zm4,6.08a7.76,7.76,0,0,1-.16,1.06,5.22,5.22,0,0,1,1.3.83.45.45,0,0,1,.19.37.37.37,0,0,1-.36.38.35.35,0,0,1-.27-.12,4.8,4.8,0,0,0-1.06-.79,5.66,5.66,0,0,1-1.5,2.45.47.47,0,0,1-.31.13.37.37,0,0,1-.37-.36.5.5,0,0,1,.18-.36,5.68,5.68,0,0,0,1.56-3.59h-.7a.35.35,0,1,1,0-.69h3a39.47,39.47,0,0,1-.28-5.42.36.36,0,0,1,.39-.36.37.37,0,0,1,.41.37,38.22,38.22,0,0,0,.29,5.41h1.69a.29.29,0,0,1-.12-.07,4.54,4.54,0,0,0-.54-.53.33.33,0,0,1-.12-.23.32.32,0,0,1,.19-.28l-.67.09h-.05a.36.36,0,0,1-.38-.35.33.33,0,0,1,.37-.34H170c.23-.29.45-.59.65-.89a7,7,0,0,0-.94-1,.38.38,0,0,1-.13-.28.35.35,0,0,1,.34-.34.42.42,0,0,1,.21.06,8.56,8.56,0,0,0,.6-1.11.37.37,0,0,1,.34-.22.4.4,0,0,1,.41.35.3.3,0,0,1,0,.17,10.25,10.25,0,0,1-.78,1.32c.13.14.26.3.4.44.18-.3.35-.61.52-.92a.37.37,0,0,1,.33-.21.39.39,0,0,1,.39.38.4.4,0,0,1-.07.22,14.15,14.15,0,0,1-1.43,2l1.07-.13c-.05-.08-.09-.16-.14-.23a.31.31,0,0,1,.26-.5.33.33,0,0,1,.29.15,5.59,5.59,0,0,1,.59,1.07.57.57,0,0,1,0,.18.35.35,0,0,1-.33.35.38.38,0,0,1-.35-.29l-.06-.17c-.43.07-.87.16-1.3.22a.36.36,0,0,1,.17.07,3.45,3.45,0,0,1,.6.54.3.3,0,0,1,.07.19.38.38,0,0,1-.27.34h1a.35.35,0,1,1,0,.69h-2.74c0,.26.11.5.17.71a7.83,7.83,0,0,0,.42,1.22,5.77,5.77,0,0,0,.84-1.09.37.37,0,0,1,.34-.21.4.4,0,0,1,.4.38.59.59,0,0,1-.07.23,7.7,7.7,0,0,1-1.17,1.39c.39.65.77.91,1,.91s.39-.19.48-1a.39.39,0,0,1,.4-.38.39.39,0,0,1,.4.41v.06c-.12,1.23-.66,1.73-1.22,1.73s-1.2-.4-1.72-1.25a8.67,8.67,0,0,1-2.62,1.41.5.5,0,0,1-.17,0,.33.33,0,0,1-.35-.32.4.4,0,0,1,.3-.36,8.58,8.58,0,0,0,2.49-1.41,12.74,12.74,0,0,1-.56-1.54c-.08-.27-.16-.6-.23-1Zm-1.3-4.78a9.33,9.33,0,0,0,.64-1.2.37.37,0,0,1,.34-.22.4.4,0,0,1,.41.35.3.3,0,0,1-.05.17,11.31,11.31,0,0,1-.83,1.39c.13.13.27.28.4.43.14-.25.3-.5.43-.74a.4.4,0,0,1,.36-.23.36.36,0,0,1,.37.35.46.46,0,0,1-.08.26,21.93,21.93,0,0,1-1.45,2.12c.32,0,.64-.07,1-.13a2,2,0,0,0-.12-.19.35.35,0,0,1-.06-.19.33.33,0,0,1,.33-.3.34.34,0,0,1,.28.14,4.25,4.25,0,0,1,.57,1,.46.46,0,0,1,0,.19.35.35,0,1,1-.69.1,1.27,1.27,0,0,1-.06-.18,19.65,19.65,0,0,1-2.13.34h-.06a.36.36,0,0,1-.38-.36c0-.15.12-.3.37-.33h.1c.28-.38.55-.77.79-1.17a7.91,7.91,0,0,0-1-1.12.35.35,0,0,1-.13-.28.34.34,0,0,1,.34-.34.39.39,0,0,1,.28.11Z" style="fill:#104052"/><path d="M177.61,941.87a.43.43,0,0,1-.14-.29.36.36,0,0,1,.38-.35.51.51,0,0,1,.34.15,5.72,5.72,0,0,1,1.23,1.5.5.5,0,0,1,.07.25.43.43,0,0,1-.42.44.42.42,0,0,1-.36-.24,4.25,4.25,0,0,0-.25-.39c-1.21.18-2.42.3-3.76.39h-.28A.37.37,0,0,1,174,943a.39.39,0,0,1,.4-.41l.6,0a14.77,14.77,0,0,0,1-2.07.46.46,0,0,1,.43-.31.39.39,0,0,1,.42.38.68.68,0,0,1,0,.19,17.78,17.78,0,0,1-.88,1.75c.67,0,1.34-.09,2-.18Zm-1.89,6.37v2.46a.39.39,0,0,1-.42.37.4.4,0,0,1-.42-.37v-5.64c0-.7.33-1,1.19-1h1.58c.87,0,1.19.31,1.19,1v4.76a1,1,0,0,1-1.05,1.07,3.19,3.19,0,0,1-.77-.09.38.38,0,0,1-.34-.39.39.39,0,0,1,.4-.4h.12a2,2,0,0,0,.5.08c.21,0,.3-.1.3-.36v-1.5Zm2.28-3.06c0-.31-.11-.41-.45-.41h-1.37c-.35,0-.46.1-.46.41v.55H178Zm-2.28,1.27v1.07H178v-1.07Zm5.42-2.88c0,.47.17.55,1.12.55,1.26,0,1.49-.18,1.6-.88a.4.4,0,0,1,.4-.35.41.41,0,0,1,.43.42s0,.05,0,.08c-.17,1.15-.64,1.5-2.42,1.5-1.63,0-2-.26-2-1.09v-3.14a.41.41,0,0,1,.44-.41.38.38,0,0,1,.4.39v1.49a9.66,9.66,0,0,0,2.34-1.13.43.43,0,0,1,.26-.07.47.47,0,0,1,.45.43.44.44,0,0,1-.25.39,12.42,12.42,0,0,1-2.8,1.21Zm0,5.78c0,.47.17.55,1.24.55,1.32,0,1.59-.21,1.7-1a.41.41,0,0,1,.41-.34.4.4,0,0,1,.42.43v.07c-.17,1.22-.7,1.6-2.53,1.6s-2.08-.29-2.08-1.12V946a.41.41,0,0,1,.44-.41.39.39,0,0,1,.4.4v1.46a10.12,10.12,0,0,0,2.41-1.14.44.44,0,0,1,.26-.08.46.46,0,0,1,.45.44.46.46,0,0,1-.25.39,12.68,12.68,0,0,1-2.87,1.24Z" style="fill:#104052"/><path d="M188.17,940.92a.42.42,0,0,1,.45.42.49.49,0,0,1,0,.12,20.93,20.93,0,0,0-.35,8.31.3.3,0,0,1,0,.12.46.46,0,0,1-.46.48.47.47,0,0,1-.46-.43,22,22,0,0,1-.27-3.62,24.42,24.42,0,0,1,.61-5A.46.46,0,0,1,188.17,940.92Zm5.75,2.15c.52-.06,1-.13,1.47-.22h.12a.4.4,0,0,1,.42.41.41.41,0,0,1-.35.41c-.52.1-1.08.19-1.64.25,0,1.12,0,2.25.14,3.38a8.39,8.39,0,0,1,2.09,1.21.47.47,0,0,1,.19.38.46.46,0,0,1-.42.47.39.39,0,0,1-.29-.11,8.6,8.6,0,0,0-1.52-1,2,2,0,0,1-2.15,1.85c-1.27,0-2-.55-2-1.58,0-.83.75-1.58,2.21-1.58a4.21,4.21,0,0,1,1,.12c-.09-1-.11-2-.12-3-.6,0-1.18.07-1.72.07l-.62,0a.42.42,0,0,1,.05-.84l.57,0c.53,0,1.12,0,1.7-.07v-1.85a.42.42,0,0,1,.42-.42.4.4,0,0,1,.42.42Zm-.66,4.87v-.09a3.59,3.59,0,0,0-1.08-.18c-.94,0-1.33.39-1.33.82s.34.77,1.13.77A1.17,1.17,0,0,0,193.26,947.94Z" style="fill:#104052"/><path d="M203.93,941.8a18.92,18.92,0,0,1-2.89.52.42.42,0,0,1-.45-.42.44.44,0,0,1,.43-.42,25.76,25.76,0,0,0,3.28-.58.72.72,0,0,1,.24,0,.57.57,0,0,1,.64.54.83.83,0,0,1-.24.55,19.05,19.05,0,0,1-3.66,3.22v0c1.19-.29,2.69-.61,5.83-1.23h.13a.43.43,0,1,1,.09.86,10.68,10.68,0,0,0-2,.63,2.89,2.89,0,0,0-1.9,2.44c0,.92.61,1.53,2.45,1.62a.44.44,0,0,1,.47.45.47.47,0,0,1-.5.48c-1.61,0-3.31-.74-3.31-2.44a3.2,3.2,0,0,1,1.7-2.69v0c-1.13.26-2.45.56-3.77.88-.42.1-.86.24-1.29.36l-.17,0a.43.43,0,0,1-.44-.43.5.5,0,0,1,.37-.47,7.3,7.3,0,0,0,1.78-1,19.39,19.39,0,0,0,3.2-2.84Z" style="fill:#104052"/><path d="M210.5,946.52a5,5,0,0,1,5.33-4.81c2.74,0,4.4,1.72,4.4,4A4.36,4.36,0,0,1,217,950a.51.51,0,0,1-.2,0,.48.48,0,0,1-.49-.49.54.54,0,0,1,.42-.52,3.2,3.2,0,0,0,2.5-3.29,3.08,3.08,0,0,0-3.35-3.16,11.26,11.26,0,0,1-1.47,5.25c-.66,1-1.26,1.33-1.94,1.33C211.47,949.11,210.5,948.21,210.5,946.52Zm.95,0c0,1,.49,1.63,1,1.63.38,0,.73-.15,1.13-.79a10.46,10.46,0,0,0,1.32-4.76A4.07,4.07,0,0,0,211.45,946.52Z" style="fill:#104052"/><path d="M227.75,942.1h.82l2.1,0a.45.45,0,0,1,.47.43.42.42,0,0,1-.47.41l-1.65,0h-1.25q0,.85.06,1.71c.85,0,1.66-.13,2.41-.23h.09a.44.44,0,0,1,.46.43.42.42,0,0,1-.4.42c-.79.11-1.64.18-2.52.23,0,.66.09,1.31.15,2a9.08,9.08,0,0,1,3.06,1.34.59.59,0,0,1,.28.49.44.44,0,0,1-.43.46.64.64,0,0,1-.35-.12,8.68,8.68,0,0,0-2.5-1.27,2.81,2.81,0,0,1,0,.3c0,1.14-1,1.76-2.24,1.76-1.53,0-2.26-.64-2.26-1.58s.9-1.62,2.38-1.62a7.8,7.8,0,0,1,1.18.08c-.06-.59-.09-1.17-.13-1.76h-.92a13.38,13.38,0,0,1-1.74-.1.45.45,0,0,1-.44-.43.42.42,0,0,1,.45-.41h.07a14.31,14.31,0,0,0,1.62.1H227c0-.58,0-1.15-.06-1.73l-2.42.07c-.16,0-.44,0-.6,0a.42.42,0,0,1-.45-.42.42.42,0,0,1,.45-.43c.89-.05,1.93-.09,3-.11v-1.39a.4.4,0,0,1,.43-.41.4.4,0,0,1,.43.41Zm-.54,6.38c0-.12,0-.22,0-.34A7,7,0,0,0,226,948c-1,0-1.44.35-1.44.81s.28.72,1.32.72C226.64,949.56,227.21,949.21,227.21,948.48Z" style="fill:#104052"/><path d="M239.75,942.1h.82l2.1,0a.45.45,0,0,1,.47.43.42.42,0,0,1-.47.41l-1.65,0h-1.25q0,.85.06,1.71c.85,0,1.66-.13,2.41-.23h.09a.44.44,0,0,1,.46.43.42.42,0,0,1-.4.42c-.79.11-1.64.18-2.52.23,0,.66.09,1.31.15,2a9.08,9.08,0,0,1,3.06,1.34.59.59,0,0,1,.28.49.44.44,0,0,1-.43.46.64.64,0,0,1-.35-.12,8.68,8.68,0,0,0-2.5-1.27,2.81,2.81,0,0,1,0,.3c0,1.14-1,1.76-2.24,1.76-1.53,0-2.26-.64-2.26-1.58s.9-1.62,2.38-1.62a7.8,7.8,0,0,1,1.18.08c-.06-.59-.09-1.17-.13-1.76h-.92a13.38,13.38,0,0,1-1.74-.1.45.45,0,0,1-.44-.43.42.42,0,0,1,.45-.41h.07a14.31,14.31,0,0,0,1.62.1H239c0-.58,0-1.15-.06-1.73l-2.42.07c-.16,0-.44,0-.6,0a.42.42,0,0,1-.45-.42.42.42,0,0,1,.45-.43c.89-.05,1.93-.09,3-.11v-1.39a.4.4,0,0,1,.43-.41.4.4,0,0,1,.43.41Zm-.54,6.38c0-.12,0-.22,0-.34A7,7,0,0,0,238,948c-1,0-1.44.35-1.44.81s.28.72,1.32.72C238.64,949.56,239.21,949.21,239.21,948.48Z" style="fill:#104052"/><path d="M250.1,948.84a1.94,1.94,0,1,1-1.93-1.91A1.93,1.93,0,0,1,250.1,948.84Zm-3.2,0a1.27,1.27,0,1,0,1.27-1.26A1.24,1.24,0,0,0,246.9,948.84Z" style="fill:#104052"/><path d="M65.26,969.57c.72.93,1.74,1.3,4.87,1.3,1.31,0,2.31,0,3.25-.13h.06a.39.39,0,0,1,.41.42.41.41,0,0,1-.4.42c-1,.09-2,.12-3.28.12-3,0-4.34-.39-5.22-1.42a8.1,8.1,0,0,1-1.55,1.48.48.48,0,0,1-.31.1.4.4,0,0,1-.39-.39.49.49,0,0,1,.26-.42,7.27,7.27,0,0,0,1.48-1.32v-2.41c0-.29-.07-.35-.41-.35H63.2a.39.39,0,0,1,0-.77h1c.77,0,1,.29,1,1Zm0-6.73a.69.69,0,0,1,.15.39.44.44,0,0,1-.43.44.53.53,0,0,1-.38-.21,7.92,7.92,0,0,0-1-1,.46.46,0,0,1-.19-.35.4.4,0,0,1,.41-.38.44.44,0,0,1,.28.09A7.78,7.78,0,0,1,65.29,962.84Zm4.76,5.23v.73h3.16a.36.36,0,0,1,0,.72H70.05v.75c0,.23-.19.33-.4.33a.35.35,0,0,1-.39-.33v-.75H66.32a.36.36,0,0,1,0-.72h2.94v-.73H68c-.87,0-1.2-.32-1.2-1V965.6c0-.63.33-1,1.2-1h1.3V964H67.51a.33.33,0,0,1-.34-.35.33.33,0,0,1,.34-.35h1.75v-.45a.4.4,0,0,1,.79,0v.45h1.83a.34.34,0,0,1,.35.35.34.34,0,0,1-.35.35H70.05v.69h1.49c.87,0,1.2.33,1.2,1v1.51c0,.64-.33,1-1.2,1Zm-2.62-5.83c-.43,0-.55.12-.55.39v.54a.43.43,0,0,1-.86,0v-.72c0-.53.32-.93,1.22-.93h4.88c.9,0,1.23.4,1.23.93v.72a.44.44,0,0,1-.87,0v-.54c0-.27-.12-.39-.55-.39Zm.68,3.07c-.41,0-.56.11-.56.4V966h1.71v-.71Zm-.56,1.7c0,.28.15.39.56.39h1.15v-.73H67.55Zm4.39-1.3c0-.29-.14-.4-.55-.4H70.05V966h1.89Zm-.55,1.69c.3,0,.55,0,.55-.39v-.34H70.05v.73Z" style="fill:#104052"/><path d="M76.6,968.4c-.72,0-1.24-.15-1.24-1v-1.74c0-.65.3-1,1.24-1h1V964H75a.36.36,0,0,1,0-.72h2.58v-.73c-.59.07-1.49.15-1.78.15a.37.37,0,0,1-.4-.36.38.38,0,0,1,.4-.37,24.8,24.8,0,0,0,4.34-.62l.13,0a.39.39,0,0,1,.41.39.41.41,0,0,1-.35.38c-.58.14-1.27.26-2,.36v.83H81a.36.36,0,0,1,0,.72H78.37v.7h1.09c1,0,1.25.33,1.25,1v1.74c0,.64-.3,1-1.25,1H78.37v.7h1.8a.36.36,0,0,1,0,.72h-1.8v.72c.63-.08,1.24-.18,1.88-.3h.12a.33.33,0,0,1,.35.33.35.35,0,0,1-.31.34,34.57,34.57,0,0,1-4.85.73,2.6,2.6,0,0,1-.36,0,.4.4,0,1,1,0-.79c.79-.06,1.6-.13,2.4-.23v-.82H75.69a.36.36,0,0,1,0-.72h1.89v-.7Zm1-2.2v-.79h-.89c-.43,0-.54.1-.54.38v.41Zm0,1.5v-.83H76.15v.45c0,.29.11.38.54.38Zm.79-1.5h1.54v-.41c0-.28-.1-.38-.54-.38h-1Zm0,.67v.83h1c.44,0,.54-.09.54-.38v-.45Zm5.95-2.66c.83,0,1.11.25,1.11,1a37.81,37.81,0,0,1-.29,5.13c-.17,1.23-.68,1.62-1.51,1.62a3.14,3.14,0,0,1-.73-.08.41.41,0,0,1-.35-.41A.4.4,0,0,1,83,971h.11a2.22,2.22,0,0,0,.55.08c.37,0,.59-.17.71-1a32.11,32.11,0,0,0,.28-4.78c0-.32-.07-.45-.38-.45h-1c-.08,3.43-.83,5.54-2.27,7a.49.49,0,0,1-.36.17.37.37,0,0,1-.37-.36.53.53,0,0,1,.16-.34c1.27-1.32,1.92-3.21,2-6.42h-1a.32.32,0,0,1-.33-.35.34.34,0,0,1,.34-.36h1v-2.58a.4.4,0,0,1,.42-.4.39.39,0,0,1,.42.4v2.55Z" style="fill:#104052"/><path d="M89.75,962.22a.46.46,0,0,1,.48-.42.45.45,0,0,1,.48.44c0,.11,0,.32,0,.41-.12,1.52-.22,3.58-.22,5.47,0,1.73.53,2.28,1.55,2.28a4.39,4.39,0,0,0,3.42-1.88.53.53,0,0,1,.42-.22.45.45,0,0,1,.46.43.63.63,0,0,1-.17.41,5.3,5.3,0,0,1-4.09,2.2c-1.71,0-2.55-.87-2.55-3.23C89.51,966.21,89.61,964,89.75,962.22Z" style="fill:#104052"/><path d="M99.91,964.91a.41.41,0,0,1-.42-.44.45.45,0,0,1,.45-.45c.5,0,1.12-.1,1.81-.2.12-.69.18-1.19.26-2a.46.46,0,0,1,.48-.44.41.41,0,0,1,.43.41s0,.06,0,.08c-.09.7-.15,1.19-.23,1.74.39-.08.8-.18,1.21-.29l.16,0a.38.38,0,0,1,.39.41.46.46,0,0,1-.35.44c-.54.14-1.06.27-1.57.37a35.12,35.12,0,0,1-1.74,6.38.55.55,0,0,1-.52.41.43.43,0,0,1-.45-.44,1,1,0,0,1,.06-.27,30.26,30.26,0,0,0,1.72-5.91A13.47,13.47,0,0,1,99.91,964.91Zm3.94,4.13a.47.47,0,0,1,.47-.46.38.38,0,0,1,.39.34c.12.84.62,1.19,2.18,1.19a9.11,9.11,0,0,0,1.53-.15.18.18,0,0,1,.1,0,.43.43,0,0,1,.41.46.47.47,0,0,1-.38.47,8.24,8.24,0,0,1-1.67.15c-2,0-2.87-.64-3-1.92Zm3.91-4H108a.44.44,0,0,1,.46.44.41.41,0,0,1-.42.44h-.24a12.55,12.55,0,0,0-2.69.32l-.14,0a.4.4,0,0,1-.41-.41.52.52,0,0,1,.42-.5A12.93,12.93,0,0,1,107.76,965Z" style="fill:#104052"/><path d="M113.56,967.53A5.63,5.63,0,0,1,117.3,966c1.65,0,2.81.92,2.81,2.23,0,1.75-1.5,2.94-4.21,3.3h-.07a.46.46,0,0,1-.5-.45.48.48,0,0,1,.46-.45c2.31-.31,3.39-1.15,3.39-2.39,0-.85-.71-1.39-1.88-1.39a5,5,0,0,0-3.82,1.87.59.59,0,0,1-.43.19.51.51,0,0,1-.52-.53v-.08c.19-1.25.46-2.72.75-4a.45.45,0,0,1,.45-.37.41.41,0,0,1,.44.41.6.6,0,0,1,0,.12c-.24,1.05-.46,2.14-.61,3.09Zm3.9-5.09a.51.51,0,0,1,.32.46.43.43,0,0,1-.43.45.93.93,0,0,1-.29-.07,13.87,13.87,0,0,0-1.94-.76.47.47,0,0,1-.38-.44.44.44,0,0,1,.48-.42l.18,0A10.05,10.05,0,0,1,117.46,962.44Z" style="fill:#104052"/><path d="M130.7,964c1,0,1.48.43,1.48,1.27a27.4,27.4,0,0,1-.32,4.25c-.22,1.29-.89,1.77-1.93,1.77a4.45,4.45,0,0,1-.65,0,.5.5,0,0,1-.48-.49.45.45,0,0,1,.48-.44l.18,0a2.18,2.18,0,0,0,.47,0c.51,0,.84-.15,1-1a23.27,23.27,0,0,0,.31-4c0-.41-.15-.5-.65-.5l-2.37,0a9.15,9.15,0,0,1-.94,3.47,7.94,7.94,0,0,1-2.66,2.85.6.6,0,0,1-.33.1.44.44,0,0,1-.44-.43.54.54,0,0,1,.3-.47,7.05,7.05,0,0,0,2.28-2.45,8.19,8.19,0,0,0,.83-3.07l-2.92,0a.43.43,0,0,1-.44-.45.41.41,0,0,1,.43-.43l3,0c0-.42,0-.88,0-1.39v-.73a.48.48,0,0,1,1,0v.72c0,.49,0,1,0,1.39Z" style="fill:#104052"/><path d="M142.85,964.86c.88,0,1.3.36,1.3,1a2.4,2.4,0,0,1-.07.5,7.43,7.43,0,0,1-5,5,.69.69,0,0,1-.2,0,.46.46,0,0,1-.46-.46.49.49,0,0,1,.36-.46,6.28,6.28,0,0,0,4.34-4.32.59.59,0,0,0,0-.21c0-.2-.13-.26-.46-.26l-6.06.08a.45.45,0,1,1,0-.89Zm0-2.48a.41.41,0,0,1,.42.44.42.42,0,0,1-.42.44h-5a.41.41,0,0,1-.41-.44.4.4,0,0,1,.41-.44Z" style="fill:#104052"/><path d="M154.4,963.47c.8,0,1.2.35,1.2.95a1.78,1.78,0,0,1-.09.52,11.79,11.79,0,0,1-5.83,6.84.62.62,0,0,1-.29.07.44.44,0,0,1-.45-.43.56.56,0,0,1,.35-.48,11.2,11.2,0,0,0,3.32-2.66,11,11,0,0,0-1.86-1.49.46.46,0,0,1-.24-.4A.44.44,0,0,1,151,966a.64.64,0,0,1,.3.09,11.18,11.18,0,0,1,1.91,1.46,9,9,0,0,0,1.37-2.73.79.79,0,0,0,0-.23c0-.19-.12-.25-.39-.25l-3.21,0a12.88,12.88,0,0,1-2.09,2.42.55.55,0,0,1-.37.16.42.42,0,0,1-.43-.42.58.58,0,0,1,.23-.42,13.47,13.47,0,0,0,3-4.21.49.49,0,0,1,.45-.31.47.47,0,0,1,.48.45.64.64,0,0,1,0,.23,11.51,11.51,0,0,1-.65,1.25Zm.52-1.5a.35.35,0,0,1,.36-.34.39.39,0,0,1,.28.12,8.21,8.21,0,0,1,.94,1.29.52.52,0,0,1,.05.24.35.35,0,0,1-.67.18,8.22,8.22,0,0,0-.86-1.25A.4.4,0,0,1,154.92,962Zm1.19-.75a.36.36,0,0,1,.36-.33.37.37,0,0,1,.29.13,7,7,0,0,1,.91,1.24.39.39,0,0,1,.06.22.37.37,0,0,1-.35.39.33.33,0,0,1-.29-.18,9.24,9.24,0,0,0-.88-1.23A.29.29,0,0,1,156.11,961.22Z" style="fill:#104052"/><path d="M163.58,963.79H164a10.15,10.15,0,0,0,1.13-.06h.06a.44.44,0,0,1,.46.44.39.39,0,0,1-.37.4,8.14,8.14,0,0,1-1.12.06h-.7l-.3,2h.48a12.07,12.07,0,0,0,1.89-.15.16.16,0,0,1,.09,0,.44.44,0,0,1,.45.44.45.45,0,0,1-.39.43,10.37,10.37,0,0,1-2.05.19H163a12.85,12.85,0,0,0-.09,1.29,1.69,1.69,0,0,0,1.88,1.89,2,2,0,0,0,2.21-2.09,2.74,2.74,0,0,0-.12-.75.41.41,0,0,1,0-.16.41.41,0,0,1,.42-.4.5.5,0,0,1,.46.33,3.17,3.17,0,0,1,.18,1,2.84,2.84,0,0,1-3.13,3,2.51,2.51,0,0,1-2.78-2.75,14,14,0,0,1,.09-1.4,9.26,9.26,0,0,1-1.51-.25.49.49,0,0,1-.4-.47.43.43,0,0,1,.46-.43l.18,0a9.81,9.81,0,0,0,1.38.23q.12-1,.3-2a11,11,0,0,1-1.38-.2.45.45,0,0,1-.38-.42.44.44,0,0,1,.47-.42h.15a10.88,10.88,0,0,0,1.28.19l.32-2a.41.41,0,0,1,.44-.34.43.43,0,0,1,.45.4v.07Z" style="fill:#104052"/><path d="M179.15,964.74c0-.42-.17-.55-.74-.55H173a.43.43,0,0,1-.43-.46.42.42,0,0,1,.43-.45h5.64c1,0,1.52.45,1.52,1.26v4.58c0,.8-.5,1.26-1.52,1.26h-5.83a.46.46,0,0,1,0-.92h5.65c.57,0,.74-.13.74-.55Z" style="fill:#104052"/><path d="M191.15,964.74c0-.42-.17-.55-.74-.55H185a.43.43,0,0,1-.43-.46.42.42,0,0,1,.43-.45h5.64c1,0,1.52.45,1.52,1.26v4.58c0,.8-.5,1.26-1.52,1.26h-5.83a.46.46,0,0,1,0-.92h5.65c.57,0,.74-.13.74-.55Z" style="fill:#104052"/><path d="M197.89,970.5c-1.15,0-1.62-.47-1.62-1.38v-4.58c0-.92.47-1.38,1.62-1.38h4.76c1.15,0,1.62.46,1.62,1.38v4.58c0,.91-.47,1.38-1.62,1.38Zm4.59-.87c.61,0,.83-.18.83-.66v-4.29c0-.48-.22-.66-.83-.66h-4.43c-.61,0-.82.18-.82.66V969c0,.48.21.66.82.66Z" style="fill:#104052"/><path d="M211.58,963.79H212a10.15,10.15,0,0,0,1.13-.06h.06a.44.44,0,0,1,.46.44.39.39,0,0,1-.37.4,8.14,8.14,0,0,1-1.12.06h-.7l-.3,2h.48a12.07,12.07,0,0,0,1.89-.15.16.16,0,0,1,.09,0,.44.44,0,0,1,.45.44.45.45,0,0,1-.39.43,10.37,10.37,0,0,1-2.05.19H211a12.85,12.85,0,0,0-.09,1.29,1.69,1.69,0,0,0,1.88,1.89,2,2,0,0,0,2.21-2.09,2.74,2.74,0,0,0-.12-.75.41.41,0,0,1,0-.16.41.41,0,0,1,.42-.4.5.5,0,0,1,.46.33,3.17,3.17,0,0,1,.18,1,2.84,2.84,0,0,1-3.13,3,2.51,2.51,0,0,1-2.78-2.75,14,14,0,0,1,.09-1.4,9.26,9.26,0,0,1-1.51-.25.49.49,0,0,1-.4-.47.43.43,0,0,1,.46-.43l.18,0a9.81,9.81,0,0,0,1.38.23q.12-1,.3-2a11,11,0,0,1-1.38-.2.45.45,0,0,1-.38-.42.44.44,0,0,1,.47-.42h.15a10.88,10.88,0,0,0,1.28.19l.32-2a.41.41,0,0,1,.44-.34.43.43,0,0,1,.45.4v.07Z" style="fill:#104052"/><path d="M224.76,968.77a1.21,1.21,0,0,1-1,.45,1.84,1.84,0,0,1-1.81-2,1.69,1.69,0,0,1,1.61-1.79,2.08,2.08,0,0,1,.87.18c0-.47,0-.92,0-1.38-.84,0-2.95.13-4.2.23l-.62,0a.44.44,0,1,1,0-.88c1.35-.1,3.09-.18,4.83-.26,0-.46,0-1,0-1.65a.44.44,0,0,1,.46-.45.42.42,0,0,1,.43.44v1.64c1.34,0,2.64-.07,3.71-.07a.41.41,0,0,1,.46.41.44.44,0,0,1-.48.44c-1.05,0-2.33,0-3.68.08,0,.75,0,1.49.09,2.23a2.81,2.81,0,0,1,.37,1.47,4.14,4.14,0,0,1-2.35,3.92.55.55,0,0,1-.27.06.45.45,0,0,1-.45-.44.49.49,0,0,1,.35-.47,3.06,3.06,0,0,0,1.77-2.15Zm-1.94-1.56a1.11,1.11,0,0,0,1.06,1.22.89.89,0,0,0,.87-1,1.11,1.11,0,0,0-1.09-1.23A.91.91,0,0,0,222.82,967.21Z" style="fill:#104052"/><path d="M237.45,965.28c1.68,0,2.87,1,2.87,2.43,0,1.85-1.34,3.22-4,3.59h-.09a.46.46,0,0,1-.45-.47.42.42,0,0,1,.38-.43c2.4-.32,3.28-1.34,3.28-2.69,0-1-.68-1.6-2-1.6a12.93,12.93,0,0,0-4.75,1.24.57.57,0,0,1-.24.06A.44.44,0,0,1,232,967a.51.51,0,0,1,.35-.47A13.42,13.42,0,0,1,237.45,965.28Z" style="fill:#104052"/><path d="M250.17,968.14a11.79,11.79,0,0,1-1.34-1.89,33.83,33.83,0,0,1-3.69.43.42.42,0,1,1,0-.83,31.11,31.11,0,0,0,3.33-.37c-.25-.48-.45-1-.66-1.46a23.73,23.73,0,0,1-2.62.31.42.42,0,0,1-.45-.41.42.42,0,0,1,.46-.4c.69,0,1.51-.14,2.33-.27-.16-.47-.29-.93-.4-1.39a.38.38,0,0,1,0-.1.4.4,0,0,1,.44-.38.45.45,0,0,1,.46.36c.09.44.23.9.37,1.36a21.74,21.74,0,0,0,2.22-.52.79.79,0,0,1,.2,0,.39.39,0,0,1,.42.39c0,.17-.11.33-.38.42-.63.19-1.38.37-2.18.53.19.49.4,1,.63,1.45a22.52,22.52,0,0,0,2.39-.6.38.38,0,0,1,.18,0,.41.41,0,0,1,.44.41.45.45,0,0,1-.37.42c-.67.2-1.44.4-2.25.56a14.31,14.31,0,0,0,1.54,2.12.6.6,0,0,1,.17.42.49.49,0,0,1-.5.5.54.54,0,0,1-.22,0,8,8,0,0,0-2.67-.48c-1.49,0-2.1.52-2.1,1.15s.57,1.1,2.46,1.1c.4,0,1-.05,1.22-.05a.42.42,0,0,1,.43.44.43.43,0,0,1-.41.43,10.08,10.08,0,0,1-1.22.06c-2.38,0-3.42-.81-3.42-2s.79-2,3-2a7,7,0,0,1,2.19.35Z" style="fill:#104052"/><path d="M258.22,967a10.5,10.5,0,0,0,.52-1.21.38.38,0,0,1,.36-.29.35.35,0,0,1,.36.36.31.31,0,0,1,0,.13,10,10,0,0,1-.79,1.88.67.67,0,0,1-.56.39.59.59,0,0,1-.55-.47,6.82,6.82,0,0,1-.24-1.94,16.14,16.14,0,0,1,.43-3.48.49.49,0,0,1,.48-.41.4.4,0,0,1,.41.41.39.39,0,0,1,0,.15,16.88,16.88,0,0,0-.45,3.23,9.11,9.11,0,0,0,.06,1.25Zm3.53-4.81a.44.44,0,0,1,.47-.43.47.47,0,0,1,.48.42A32.45,32.45,0,0,1,263,966a6.37,6.37,0,0,1-2.53,5.48.67.67,0,0,1-.4.14.4.4,0,0,1-.42-.39.59.59,0,0,1,.28-.48A5.72,5.72,0,0,0,262,966a32.58,32.58,0,0,0-.24-3.72Z" style="fill:#104052"/><path d="M269.09,962.27a.42.42,0,0,1,.45.42.45.45,0,0,1,0,.11A24.65,24.65,0,0,0,269,968a21.19,21.19,0,0,0,.21,2.8v.08a.46.46,0,0,1-.47.47.44.44,0,0,1-.45-.41,21.24,21.24,0,0,1-.21-2.94,24.88,24.88,0,0,1,.57-5.37A.46.46,0,0,1,269.09,962.27Zm5.4,7.29a9.63,9.63,0,0,0,1.8-.18h.12a.46.46,0,0,1,.06.91,10.47,10.47,0,0,1-2,.19c-2.07,0-3-.65-3.09-2v-.07a.44.44,0,0,1,.45-.46.41.41,0,0,1,.43.38C272.42,969.27,273,969.56,274.49,969.56Zm1.24-6.25a.45.45,0,0,1,.47.46.46.46,0,0,1-.45.44,29.18,29.18,0,0,1-3.36.28.46.46,0,0,1-.52-.46.45.45,0,0,1,.5-.45,28.65,28.65,0,0,0,3.27-.27Z" style="fill:#104052"/><path d="M285.06,970.3a.8.8,0,1,1-.8-.79A.8.8,0,0,1,285.06,970.3Zm-1.47-7.71a.65.65,0,0,1,.68-.63.63.63,0,0,1,.66.63c0,.16,0,.67-.05,1-.1,1.8-.15,2.76-.2,4.75a.39.39,0,0,1-.42.39.39.39,0,0,1-.42-.39c0-1.95-.11-2.85-.2-4.75C283.63,963.32,283.59,962.76,283.59,962.59Z" style="fill:#104052"/></g></svg>