<svg xmlns="http://www.w3.org/2000/svg" viewBox="0 0 375 636.5"><title>ぽかり</title><g id="Event"><path d="M.18-.16A88,88,0,0,0,19,17.91,128.21,128.21,0,0,0,29.8,25c3.72,2.17,7.52,4.2,11.41,6.06S49,34.66,53,36.29s8,3.2,12.09,4.64,8.16,2.83,12.29,4.1c2.06.65,4.14,1.27,6.21,1.87s4.15,1.21,6.24,1.79c16.7,4.57,33.68,8.23,50.79,11.28q12.84,2.3,25.76,4.15c4.31.64,8.62,1.22,12.94,1.79l6.48.84c2.16.26,4.3.52,6.55.81A380.39,380.39,0,0,1,245.11,78q13,3.57,25.66,8.11t24.93,10.2c4.09,1.87,8.11,3.88,12.1,6,2,1,4,2.11,5.93,3.2,1,.54,2,1.12,2.93,1.68s1.94,1.13,2.91,1.71a198.86,198.86,0,0,1,22.23,15.32A137,137,0,0,1,361.17,143a92.35,92.35,0,0,1,7.89,10.9A70.66,70.66,0,0,1,375,165.83a85.25,85.25,0,0,0-7.87-10.52,103.79,103.79,0,0,0-9.14-9.26q-4.83-4.35-10.05-8.19c-3.47-2.56-7-5-10.68-7.3a229.61,229.61,0,0,0-22.65-12.47c-1.94-.94-3.9-1.84-5.87-2.73s-3.93-1.77-5.91-2.62c-4-1.71-8-3.29-12-4.85-8.05-3.1-16.25-5.83-24.51-8.36s-16.6-4.75-25-6.78a470.92,470.92,0,0,0-51-9.23l-6.55-.81-6.61-.87q-6.62-.9-13.2-2c-4.4-.7-8.79-1.46-13.17-2.25S142.06,76,137.7,75s-8.72-1.88-13.06-2.93S116,70,111.66,68.8s-8.61-2.42-12.88-3.73S90.25,62.33,86,60.86c-2.11-.74-4.22-1.49-6.32-2.28S75.51,57,73.43,56.13c-4.16-1.68-8.3-3.41-12.38-5.31s-8.11-3.88-12.08-6S41.11,40.41,37.3,38s-7.51-5-11.08-7.76A114.82,114.82,0,0,1,16,21.37,87.1,87.1,0,0,1,7.1,11.26C5.76,9.46,4.51,7.6,3.34,5.71A65.14,65.14,0,0,1,.18-.16Z" style="fill:#fafdff"/><path d="M0,15c24.16,40.26,98.46,74.3,188.23,85.1,86.49,10.4,164.26,41.55,186.59,80.35V636H0Z" style="fill:#fafdff"/><path d="M110.61,166.93v24.34h3.48V174.7c1.1-4.48,4.21-5.6,6.34-5.68A6,6,0,0,1,127,174.5v16.68l3.13.08V174.58c-.32-7.68-8.09-8.34-8.09-8.34-6.56,0-8.25,4.43-8.25,4.43v-3.74Z" style="fill:#32c8ff"/><polygon points="69.44 196.44 73.37 196.44 80.67 216.25 87.67 196.08 91.53 196.08 98.5 215.8 105.19 196.08 109.41 196.08 99.9 220.97 96.83 220.97 89.6 200.59 81.95 221.32 79.02 221.32 69.44 196.44" style="fill:#32c8ff"/><path d="M142.1,189.73l-3.37,2v4.56h-5.24v3.63h5.24v16c0,6.25,5.15,5.83,5.15,5.83l3.59-.08.43-2.88h-2.5c-3.55,0-3.46-2.78-3.46-2.78V199.72h5.57v-3.46H142.1Z" style="fill:#32c8ff"/><path d="M130.52,221a7.34,7.34,0,0,1-.79-4V203.15c.1-7.88-8.31-7.67-8.31-7.67-9.3,0-9.57,7.09-9.57,7.09h3.28c1.16-4.23,5.92-3.92,5.92-3.92,6.3.27,5.29,7,5.29,7-13.69-1.32-15.28,5.29-15.28,5.29-2.49,8,4.65,10.63,4.65,10.63,8.47,2.17,11.06-3.7,11.06-3.7V221Zm-8-3.07c-1.39.74-5,1.3-7.17-.92a4.68,4.68,0,0,1,1.2-6.75c1.63-1.1,2.49-1.39,9.68-1.32C126.26,208.91,127.38,215.33,122.55,217.9Z" style="fill:#32c8ff"/><path d="M177.85,196.48l.07,24.21h3.64l-.21-15.92c1.25-7.66,8.21-6.05,8.21-6.05v-3.25c-6.52-.59-8.47,4.32-8.47,4.32v-3.37Z" style="fill:#32c8ff"/><path d="M161.19,218.6c-7.26-.28-7.54-9.14-7.54-9.14l18.85.19c0-9.06-4.43-12.07-4.43-12.07a11.38,11.38,0,0,0-15.93,2.64c-3.87,5.65-2.67,15.19.94,18.38,8.86,7.83,16.12.29,16.12.29,2.08-2.08,2.83-6.13,2.83-6.13h-3.49C167.51,219,161.19,218.6,161.19,218.6ZM161,198.84c7.12-.08,8,7.56,8,7.56H153.54C153.5,202.32,157.5,198.88,161,198.84Z" style="fill:#32c8ff"/><rect x="155.52" y="229.39" width="2.78" height="9.51" style="fill:#32c8ff"/><path d="M104,242.19h2.12A2.53,2.53,0,0,0,104.7,240a10.75,10.75,0,0,0-3.45-.18c-2.29.12-2.41,2.7-2.41,2.7,0,1.78,2,2.24,2,2.24l2.65.75c.91,1.26.51,1.61.51,1.61a1.67,1.67,0,0,1-2.35.4c-.75-.29-1.09-1.38-1.09-1.38H98.44c0,2,2.3,3,2.3,3,2.93.74,4.3-.41,4.3-.41,1.73-1.49,1.32-2.92,1.32-2.92,0-1.09-2.06-1.73-2.06-1.73-3-.28-3-1.49-3-1.49-.28-1.15,1.21-1.43,1.21-1.43C104.12,241.21,104,242.19,104,242.19Z" style="fill:#32c8ff"/><polygon points="108.44 240.07 111.41 248.98 113.88 248.98 115.89 242.2 117.9 248.94 120.33 248.94 123.3 240.19 120.33 240.19 119.2 246.38 117.61 240.07 114.3 240.07 112.84 246.68 111.16 240.07 108.44 240.07" style="fill:#32c8ff"/><polygon points="125.63 239.78 125.63 248.89 132.18 248.89 132.18 247.43 128.16 247.43 128.16 244.97 131.85 244.97 131.85 243.47 128.24 243.47 128.24 241.49 132.04 241.49 132.04 239.74 125.63 239.78" style="fill:#32c8ff"/><polygon points="144.86 239.88 144.88 241.62 148.17 241.62 148.17 249.03 150.66 249.03 150.66 241.59 153.23 241.59 153.23 239.91 144.86 239.88" style="fill:#32c8ff"/><path d="M159,252.08v9.3c-21.44,2.58-36.67-3.67-36.67-3.67-13-5.89-23.6-4.37-23.6-4.37a91.77,91.77,0,0,1,16-2.43c8.18-.43,14.27,1.93,19,2.79C143.08,255.4,159,252.08,159,252.08Z" style="fill:#32c8ff"/><path d="M138,229.46h-3l-3.72,9.13h2.47l.8-1.91h3.69l.75,1.83h2.86Zm-2.91,5.72,1.32-3.69,1.46,3.69Z" style="fill:#32c8ff"/><path d="M150.12,233.8a2,2,0,0,0,1.6-1.87c0-2.85-3.17-2.63-3.17-2.63l-5,0v9.2h3v-3.26c1.44-1.4,2.35.6,2.35.6l0,2.63h2.79C151.59,234.74,150.12,233.8,150.12,233.8Zm-3.77-.35V231s3.13-.24,2.84,1.25C149.19,232.21,149.43,233.56,146.35,233.45Z" style="fill:#32c8ff"/><path d="M140.89,239.75h-2.5l-4.34,9.16,2.62.05.61-1.78,4.1.06.67,1.85L145,249Zm-2.67,5.79,1.11-3.43,1.46,3.43Z" style="fill:#32c8ff"/><circle cx="74.58" cy="159.94" r="2.52" style="fill:#32c8ff"/><rect x="72.88" y="166.64" width="3.3" height="24.96" style="fill:#32c8ff"/><path d="M93.47,166c-6.21,0-11.25,5.85-11.25,13.07s5,13.06,11.25,13.06,11.26-5.85,11.26-13.06S99.69,166,93.47,166Zm0,23.15c-4.71,0-8.54-4.51-8.54-10.06S88.73,169,93.44,169s8.54,4.5,8.54,10.06S98.16,189.12,93.44,189.12Z" style="fill:#32c8ff"/><path d="M127.11,232.15l2.4,0a3.55,3.55,0,0,0-4-3.16c-2.71.09-4.37,2.74-4.29,5,.14,4.09,2.55,5,4.18,5,4.43-.06,4.18-3.27,4.18-3.27h-2.4c0,1.47-1.32,1.55-1.92,1.5-1.21-.12-1.72-2.15-1.72-3,0-2.71,1-3.47,2.06-3.44A1.42,1.42,0,0,1,127.11,232.15Z" style="fill:#32c8ff"/><path d="M106.11,231.19a2.28,2.28,0,0,0-2.25-1.8H99.11v9.12h2.52l0-3.41,2.44-.08c1.37-.15,1.85-.82,2-1.52A8.13,8.13,0,0,0,106.11,231.19Zm-4.58,2.39v-2.73s2.74-.26,2.77,1.22C104.31,233.09,103.56,233.73,101.53,233.58Z" style="fill:#32c8ff"/><path d="M113.56,229.17a5,5,0,1,0,4.42,5A4.71,4.71,0,0,0,113.56,229.17Zm.13,8c-1.18,0-2.14-1.43-2.14-3.18s1-3.19,2.14-3.19,2.15,1.43,2.15,3.19S114.88,237.13,113.69,237.13Z" style="fill:#32c8ff"/><path d="M211.87,207.76c-.38.52-1.34,1.48-1.6,1.76l-1.68-1.18A12.25,12.25,0,0,0,212,204l1.82.56c.32.1.56.18.56.34s-.06.16-.54.26c-.22.06-.32.08-.66.68h11.68v1.66h-1.82v2.7h2.84v1.72h-2.84v2.74h2.16v1.78h-15.7v-1.78h2.34v-2.74h-3.2V210.2h3.2Zm1,9.92c.18.1.54.3.54.5s0,.14-.38.22c-.1,0-.14.06-.18.18a11.16,11.16,0,0,1-2.3,3.1l-1.64-1.34a8.76,8.76,0,0,0,2.48-3.46ZM215,207.5h-1.34v2.7H215Zm0,4.42h-1.34v2.74H215Zm1.14,5.56a20.15,20.15,0,0,1,.84,3.74l-2.06.28a12.81,12.81,0,0,0-.66-3.58Zm2-10h-1.38v2.7h1.38Zm0,4.42h-1.38v2.74h1.38Zm1.66,5.5a12.18,12.18,0,0,1,1.26,3.5l-2,.5a15.46,15.46,0,0,0-1.08-3.5Zm1.48-9.92h-1.42v2.7h1.42Zm0,4.42h-1.42v2.74h1.42Zm2.12,5.12a15.49,15.49,0,0,1,2.38,3.58l-2,.92a17.94,17.94,0,0,0-2.12-3.6Z" style="fill:#32c8ff"/><path d="M231.63,204.4l1.62.06c.46,0,.66,0,.66.22a.23.23,0,0,1-.06.14c-.24.2-.28.24-.28.34v5.26h2.82v1.76h-2.78a12.31,12.31,0,0,0,2.7,3l-1.08,1.62a13.67,13.67,0,0,1-1.66-1.94v6.72h-1.94V216a13.71,13.71,0,0,1-1.9,3.1L228,218a14.7,14.7,0,0,0,3.64-5.78h-3.32v-1.76h3.36Zm-1.58,1.26a18.67,18.67,0,0,1,1.1,3.34l-1.66.6a22.54,22.54,0,0,0-1.1-3.24Zm6.34.46c.58.14.62.14.62.3s-.08.14-.26.22-.12.1-.3.66c-.42,1.36-.48,1.56-.78,2.34l-1.54-.62a14.64,14.64,0,0,0,.8-3.24Zm-.2,12.1-.22-2,5.5-1.42v-10.6l1.7.12c.24,0,.74,0,.74.26s-.1.22-.18.32-.2.26-.2.38v9l1.74-.44.1,2-1.84.48v5.12h-2.06v-4.6Zm2.14-7.84a25.68,25.68,0,0,1,2.42,2.68l-1.46,1.24a24.56,24.56,0,0,0-2.36-2.58Zm.18-4.62a18.32,18.32,0,0,1,2.36,2.3l-1.46,1.3a10.63,10.63,0,0,0-2.14-2.2Z" style="fill:#32c8ff"/><path d="M253.73,207.26v1.84h-6.3v-1.84Zm-4.12,14.36h-1.68V215.3h5.54v6.1h-1.7v-.72h-2.16Zm3.46-17.06v1.78h-4.92v-1.78Zm.12,5.48v1.7h-5V210Zm0,2.64v1.68h-5v-1.68Zm-1.42,4.22h-2.16v2.16h2.16Zm7.38,2.44c-.64.24-3.5,1.26-4.08,1.46-.26.1-.24.1-.3.3a.23.23,0,0,1-.24.2c-.1,0-.22,0-.32-.44l-.48-1.86c.28-.06.56-.12,1.34-.32V214.1h-1.24v-1.88h4.52v1.88H257v4.08c.8-.22,1.48-.42,2.14-.62Zm1.32-15.06c.3,0,.56.16.56.3s-.42.46-.46.54c-.08.26,0,2.32,0,2.76h3.94v2.18h-3.88a27.93,27.93,0,0,0,1,6.46c.14.46.64,2.18,1,2.18s.38-1.64.42-2.52l1.66,1c-.08,2.38-.34,4.5-1.62,4.5-3,0-4.24-7.7-4.36-11.58h-4.36v-2.18h4.3c-.06-1.78-.06-2-.06-3.76Zm2.08.3a7.32,7.32,0,0,1,1.68,2.24l-1.66.92A10.83,10.83,0,0,0,261,205.5Z" style="fill:#32c8ff"/><path d="M274.61,208.72a18.87,18.87,0,0,1-3.12-2.28,15.67,15.67,0,0,1-3,2.74h2.08v-1.4h1.58c.44,0,.64,0,.64.18s-.08.16-.2.24a.4.4,0,0,0-.08.26v.72H275v2a17.59,17.59,0,0,0,2.36-6.72l1.6.38c.78.18.86.2.86.36s-.42.38-.48.46a3.39,3.39,0,0,0-.28.78c-.12.38-.16.48-.2.64H284l.7.7a37.08,37.08,0,0,1-1.82,5.16l-1.78-.7a35.22,35.22,0,0,0,1.24-3.38h-4.14a25.73,25.73,0,0,1-1.78,3.92l-1.42-.92v3.56h-5.24v3.18c1.1-.2,1.7-.32,2.52-.52-.24-.54-.32-.72-.8-1.64l1.46-.7a28.43,28.43,0,0,1,2.18,4.06c3.5-2.9,3.5-6.62,3.5-10.46l1.66.08c.46,0,.68,0,.68.24s-.08.2-.32.36-.22.58-.22,1.52a13.58,13.58,0,0,0,1.14,4.48,16.13,16.13,0,0,0,3.12,4.44l-1.72,1.3a15.11,15.11,0,0,1-3.2-5.44,10.81,10.81,0,0,1-3.94,5.44l-1.58-1.28-.82.44c-.14-.42-.3-.92-.44-1.28-.54.14-5.06,1.34-5.2,1.42s-.34.38-.42.38-.3-.5-.32-.64l-.28-1.7c.36-.06.48-.08,1.18-.16v-9.4l-.26.2-1.36-1.46a16.53,16.53,0,0,0,4.68-4.22l1.26.38c.24.08.62.24.62.34a.17.17,0,0,1-.12.16,2,2,0,0,0-.3.16,13.12,13.12,0,0,0,3.28,2Zm-1.38,3v-1.14h-3.46v1.14Zm0,2.36V213h-3.46v1.16Z" style="fill:#32c8ff"/><path d="M290.09,211a24.11,24.11,0,0,1-2.38,1.26l-1.52-1.78a14.39,14.39,0,0,0,7.56-6.28l2.24.34c.46.06.78.12.78.38s-.28.44-.42.52a17.74,17.74,0,0,0,7.22,4.74l-1.42,1.78c-.82-.34-1.32-.6-2.18-1v1.28h-9.88Zm4.52,4.7c-.42.92-1.4,2.66-1.74,3.28.78,0,1.8-.1,5.06-.46a9.07,9.07,0,0,0-1.62-1.34l1.44-1.4a32.26,32.26,0,0,1,5.08,4.76l-1.7,1.38c-.12-.16-1.14-1.28-1.72-1.9a82.66,82.66,0,0,1-9.48,1.26c-.3,0-.86.1-1,.28s-.34.36-.5.36-.34-.18-.44-.58l-.56-2.14c1.88,0,2.34,0,2.9-.06a27.68,27.68,0,0,0,1.84-3.44h-4.52v-1.9h14.8v1.9Zm4.28-5.4a14,14,0,0,1-4.08-3.68,13.83,13.83,0,0,1-3.66,3.68Z" style="fill:#32c8ff"/><path d="M217.83,242c1.26-.36,5.26-1.46,5.26-6s-3.8-5.08-5-5.26a33.18,33.18,0,0,1-2.48,9.5c-.2.46-1.16,2.64-2.34,2.64s-4.12-1.76-4.12-5.76a8.36,8.36,0,0,1,8.62-8.28c4.62,0,7.54,3,7.54,7.18,0,5.6-4.5,7.28-6,7.84Zm-6.68-4.9c0,1.78,1,3.08,1.72,3.08.44,0,.8-.82,1.06-1.42a24.65,24.65,0,0,0,1.92-7.82A6.37,6.37,0,0,0,211.15,237.1Z" style="fill:#32c8ff"/><path d="M229.75,231.2a8.94,8.94,0,0,0,2.46.34c.5,0,.88,0,1.1-.06,0-.78.08-2.34.08-3a6.93,6.93,0,0,0,0-.88l2.12.32c.12,0,.6.1.6.32s-.3.4-.34.46a18,18,0,0,0-.32,2.52,11.68,11.68,0,0,0,3.3-1.18l0,2.28a35.68,35.68,0,0,1-3.48.92c0,.36-.08,2-.1,2.3a10.75,10.75,0,0,1,3.44-.62c2.78,0,4.66,1.56,4.66,4.28a4.19,4.19,0,0,1-4.08,4.56,2.53,2.53,0,0,1-2.6-2.8,4,4,0,0,1,.3-1.52l1.84.46a4.23,4.23,0,0,0-.1.86c0,.18,0,.94.72.94,1.08,0,1.76-1.34,1.76-2.52a2.45,2.45,0,0,0-2.66-2.44,10.28,10.28,0,0,0-3.34.72c0,.62.06,3.6.06,4,0,1.32-.18,2.32-1.4,2.32a7.54,7.54,0,0,1-3.56-1.6,2.41,2.41,0,0,1-1.26-1.92c0-.76.42-1.36,1.38-2.14a16.46,16.46,0,0,1,3-1.84c0-.86,0-1.06,0-2.74-.32,0-.68.06-1.38.06s-1.38,0-1.92-.08Zm1.16,9.16c0,.48,1.28,1.22,1.78,1.22s.52-.5.54-.68,0-1.08.08-2.72C232.41,238.7,230.91,239.58,230.91,240.36Zm12.56-5.5a14.75,14.75,0,0,0-4-2.74l1.22-1.58a13,13,0,0,1,4.12,2.72Z" style="fill:#32c8ff"/><path d="M253.41,236.64v.18a12,12,0,0,0,3.28,4.36l-1.56,1.64a10.12,10.12,0,0,1-2.48-3.26A12.54,12.54,0,0,1,249,244.5l-1.84-1.3a9.93,9.93,0,0,0,4.24-6.56h-3.72v-1.82h3.94c0-.42.1-1.16.1-3.34h-1a13.91,13.91,0,0,1-1.34,2.74l-1.88-.8a17.22,17.22,0,0,0,2.16-6.3l1.82.44c.24.06.7.2.7.4s0,.12-.4.36-.42,1-.48,1.32h4.74v1.84h-2.36c0,.58,0,2.18-.1,3.34h2.76v1.82Zm10.9,7h-2.06v-1.7H259v2.42h-2V229.08h7.34ZM262.25,231H259V240h3.24Z" style="fill:#32c8ff"/><path d="M269.89,238.52c.5-3.94.9-5.72,1.82-7.78l2,.9a15.2,15.2,0,0,0-1.34,4.58,8.76,8.76,0,0,1,4.94-1.78,4.2,4.2,0,0,1,4.5,4.42c0,5.32-6.76,5.52-9.34,5.58l-.86-2.22c.4,0,1,.06,1.66.06,1,0,6.3-.1,6.3-3.5a2.3,2.3,0,0,0-2.4-2.38,6.57,6.57,0,0,0-3.26,1.12,8.83,8.83,0,0,0-2.24,2.12Zm7.5-6.58a14.6,14.6,0,0,0-4.84-2.46l.84-2a17.94,17.94,0,0,1,5.12,2.44Z" style="fill:#32c8ff"/><path d="M299.37,228.58c.06,0,.56.08.56.32s-.32.42-.36.5a26.13,26.13,0,0,0-.26,3.08c.54-.1,2.86-.46,3.68-.6l.06,2.28c-1.54.1-2.28.16-3.82.3-.14,2.92-.18,3.56-.58,4.08-.58.72-1.38.72-3.48.7l-.44-2.12a11.68,11.68,0,0,0,1.52.1c1,0,1-.12,1.08-2.58-1.74.2-3.06.38-4.56.58,0,.4,0,2.32,0,2.76,0,3,0,3.34,3.08,3.34a23.68,23.68,0,0,0,5.46-.62l0,2.46c-2.42.14-3.74.18-5.38.18-2,0-5,0-5.12-3.2,0-.66-.06-3.88-.06-4.6-.76.12-2.6.42-3.82.72l-.06-2.22c1,0,1.92-.14,3.86-.38a25.21,25.21,0,0,0-.22-4.64l2.34.38c.2,0,.64.1.64.36,0,.1-.34.44-.38.54a22.31,22.31,0,0,0-.3,3.08l4.5-.6c0-1.24,0-2.9-.14-4.54Z" style="fill:#32c8ff"/><path d="M70.73,333.26v3.53c-5,4.68-8.36,10.66-9.07,21.25H57.25c1-12.76,7.4-19.62,9.16-21.25H52.83v-3.53Z" style="fill:#32c8ff"/><path d="M86.58,333.26,73.88,358h-3l12.69-24.78Z" style="fill:#32c8ff"/><path d="M98.12,358H94V340.66H87.63v-2.89c4.79,0,5.74-1.35,7-4.51h3.53Z" style="fill:#32c8ff"/><path d="M121,336.79H110.47l-.88,7.06a5.74,5.74,0,0,1,4.82-2.17c4.32,0,7.4,3.5,7.4,8.21s-2.78,8.63-8.38,8.63c-4.89,0-7.88-2.34-8.25-7.06h4.24a3.87,3.87,0,0,0,4,3.43c2.41,0,4.11-2.08,4.11-4.89,0-2.65-1.5-4.89-4.18-4.89a3.44,3.44,0,0,0-3.53,2.2h-4.18l1.7-14.05H121Z" style="fill:#32c8ff"/><path d="M131.35,359.45a10.16,10.16,0,0,1,0-15.15h.81a15.21,15.21,0,0,0,0,15.15Z" style="fill:#32c8ff"/><path d="M135.05,344.3l2.56,9.84,1.87-9.84h2.34l1.87,9.84,2.56-9.84h2.39l-3.8,12.38H142.6l-1.95-9.9-2,9.9h-2.24l-3.8-12.38Z" style="fill:#32c8ff"/><path d="M151.43,352.7c.17,1.22.74,2.47,2.17,2.47a1.65,1.65,0,0,0,1.56-1.05h2.14a4.18,4.18,0,0,1-3.82,2.79c-2.43,0-4.21-1.87-4.21-4.77,0-3.26,2.23-4.8,4.13-4.8,2.27,0,4,1.73,4,5.36Zm3.76-1.28c-.08-.59-.3-2.35-1.88-2.35s-1.81,1.76-1.88,2.35Z" style="fill:#32c8ff"/><path d="M166.17,356.68h-2.08v-1.54a2.76,2.76,0,0,1-2.5,1.77c-2,0-3.39-1.77-3.39-4.64s1.21-4.93,3.34-4.93a2.7,2.7,0,0,1,2.55,1.71V344.3h2.08Zm-5.76-4.56c0,1.27.37,3,1.85,3s1.83-1.7,1.83-3-.38-3-1.83-3S160.41,350.83,160.41,352.12Z" style="fill:#32c8ff"/><path d="M167,359.45a15.21,15.21,0,0,0,0-15.15h.83a10.18,10.18,0,0,1,0,15.15Z" style="fill:#32c8ff"/><path d="M231.85,374.22v11.61h-1.34v-.7h-8.35v.7h-1.32V374.22Zm-9.69,1.28V379h3.51V375.5Zm0,4.7v3.63h3.51V380.2Zm4.8-4.7V379h3.55V375.5Zm0,4.7v3.63h3.55V380.2Z" style="fill:#32c8ff"/><path d="M233.25,374.12h6.29v10h-5v1.05h-1.25Zm1.25,1.25v3h1.27v-3Zm0,4.23v3.29h1.27V379.6Zm2.47-4.23v3h1.36v-3Zm0,4.23v3.29h1.36V379.6Zm5.5-3.22h-2.42V375h5.07v1.4h-1.27v8.37c0,.61-.29,1.07-1,1.07h-2.65l-.25-1.37h2.17c.25,0,.33-.14.33-.31Z" style="fill:#32c8ff"/><path d="M246.41,381.85a16,16,0,0,1-.37,3.32l-.78-.4a11.7,11.7,0,0,0,.42-2.92Zm4.24,3a1.42,1.42,0,0,1-1.5,1h-1.56l-.21-1.17h1.52a.62.62,0,0,0,.67-.36,10.67,10.67,0,0,0,.41-3.24h-4.16v-7h5.46v1.06h-1.8v.94H251v1h-1.52v1H251V379h-1.52V380h1.71a18.18,18.18,0,0,1-.48,4.68,7.62,7.62,0,0,0,1.29-4.66v-6h5.34v5.67h-1.78a8.75,8.75,0,0,0,2.27,4.84l-.8,1.27a10.4,10.4,0,0,1-2.67-6.11h-1.09v.35a13.7,13.7,0,0,1-.47,3.52,6.31,6.31,0,0,1-1.22,2.24Zm-3.25-3c.07,1,.07,1.17.1,2.37l-.75.08c0-.5.05-1,.05-1.51a7.11,7.11,0,0,0-.05-.94Zm-.34-6.74v.94h1.28v-.94Zm0,1.91v1h1.28v-1Zm0,1.93V380h1.28V379Zm1.35,2.8a12.93,12.93,0,0,1,.21,2.2l-.63.11a12,12,0,0,0-.17-2.21Zm.88-.13a8.58,8.58,0,0,1,.25,1.78l-.55.08a7.45,7.45,0,0,0-.19-1.8Zm4-6.29v3.13H256v-3.13Z" style="fill:#32c8ff"/><path d="M53.19,380.06a9.94,9.94,0,0,0,3.58-3.81H53.28V375H57.4a7.76,7.76,0,0,0,.48-1.43l1.51.07a12.69,12.69,0,0,1-.48,1.36h6.61v1.29h-7.2a12,12,0,0,1-.65,1.12h6.5v7.3a1,1,0,0,1-1,1.12H60.92l-.27-1.26h1.92c.28,0,.28-.19.28-.35V383H57.09v2.8H55.76v-6a14.45,14.45,0,0,1-1.7,1.45Zm3.9-1.44v1.1h5.76v-1.1Zm0,2.22V382h5.76v-1.12Z" style="fill:#32c8ff"/><path d="M69.15,378.67a17.48,17.48,0,0,1-3.09,1.61l-.29-1.39a12.32,12.32,0,0,0,3.07-1.51Zm2.2,1.29H69.4v-5.41H71a8.45,8.45,0,0,0,.35-.93l1.42,0a6,6,0,0,1-.33.91h2.24V380h-2v.75H78v1.22H73.88a17.51,17.51,0,0,0,4.33,2.39l-.76,1.28a16.7,16.7,0,0,1-4.78-3.23v3.46H71.35v-3.29a15.61,15.61,0,0,1-4.82,3.11l-.67-1.34a15.29,15.29,0,0,0,4.43-2.38H66.06v-1.22h5.29Zm-4.59-5.79a10.06,10.06,0,0,1,2.31,1.53l-.76,1a9.34,9.34,0,0,0-2.25-1.57Zm3.86,1.47v1.08h2.87v-1.08Zm0,2.09v1.16h2.87v-1.16Zm4.93-.51a11.75,11.75,0,0,1,2.81,1.86l-.89,1.24a11.26,11.26,0,0,0-2.65-2ZM78,374.94a12.25,12.25,0,0,1-2,2l-.87-.91A10.54,10.54,0,0,0,77,374.1Z" style="fill:#32c8ff"/><path d="M78.86,374.12h6.29v10h-5v1.05H78.86Zm1.25,1.25v3h1.27v-3Zm0,4.23v3.29h1.27V379.6Zm2.47-4.23v3h1.36v-3Zm0,4.23v3.29h1.36V379.6Zm5.5-3.22H85.66V375h5.07v1.4H89.46v8.37c0,.61-.29,1.07-1,1.07H85.83l-.25-1.37h2.17c.25,0,.33-.14.33-.31Z" style="fill:#32c8ff"/><path d="M92,381.85a16,16,0,0,1-.37,3.32l-.78-.4a11.7,11.7,0,0,0,.42-2.92Zm4.24,3a1.42,1.42,0,0,1-1.5,1H93.2L93,384.66h1.52a.62.62,0,0,0,.67-.36,10.67,10.67,0,0,0,.41-3.24H91.43v-7h5.46v1.06h-1.8v.94h1.52v1H95.09v1h1.52V379H95.09V380H96.8a18.18,18.18,0,0,1-.48,4.68,7.62,7.62,0,0,0,1.29-4.66v-6H103v5.67h-1.78a8.7,8.7,0,0,0,2.28,4.84l-.81,1.27a10.4,10.4,0,0,1-2.67-6.11H98.88v.35a13.7,13.7,0,0,1-.47,3.52,6.31,6.31,0,0,1-1.22,2.24Zm-3.25-3c.07,1,.07,1.17.1,2.37l-.75.08c0-.5,0-1,0-1.51a7.11,7.11,0,0,0,0-.94Zm-.34-6.74v.94H94v-.94Zm0,1.91v1H94v-1Zm0,1.93V380H94V379Zm1.35,2.8a12.93,12.93,0,0,1,.21,2.2l-.63.11a12,12,0,0,0-.17-2.21Zm.88-.13a8.58,8.58,0,0,1,.25,1.78l-.55.08a7.45,7.45,0,0,0-.19-1.8Zm4-6.29v3.13h2.77v-3.13Z" style="fill:#32c8ff"/><path d="M290.12,377.71a9.88,9.88,0,0,0,1.52-.77,6.5,6.5,0,0,0,1.34-1.1h1.11v9h-1.58v-6.91a4.63,4.63,0,0,1-.88.54,8.59,8.59,0,0,1-1,.42Z" style="fill:#104052"/><path d="M297.12,377.71a10.26,10.26,0,0,0,1.51-.77,6.31,6.31,0,0,0,1.35-1.1h1.1v9h-1.57v-6.91a4.74,4.74,0,0,1-.89.54,8.48,8.48,0,0,1-1,.42Z" style="fill:#104052"/><path d="M305.71,379.13a1,1,0,0,1-.31.74,1.1,1.1,0,0,1-1.47,0,1,1,0,0,1,1.47-1.49A1,1,0,0,1,305.71,379.13Zm0,4.86a1,1,0,0,1-.31.74,1.1,1.1,0,0,1-1.47,0,1,1,0,0,1-.3-.74,1,1,0,0,1,.3-.75,1.08,1.08,0,0,1,1.47,0A1,1,0,0,1,305.71,384Z" style="fill:#104052"/><path d="M312.83,380.34a6.15,6.15,0,0,1-.83,3.49,2.79,2.79,0,0,1-4.6,0,6.15,6.15,0,0,1-.83-3.49,8.62,8.62,0,0,1,.21-2,4.27,4.27,0,0,1,.63-1.48,2.82,2.82,0,0,1,1-.91,2.7,2.7,0,0,1,1.31-.31,2.63,2.63,0,0,1,2.3,1.21A6.14,6.14,0,0,1,312.83,380.34Zm-1.62,0a10.89,10.89,0,0,0-.08-1.32,4.72,4.72,0,0,0-.25-1.06,1.94,1.94,0,0,0-.46-.71,1.13,1.13,0,0,0-1.44,0,1.84,1.84,0,0,0-.47.71,4.23,4.23,0,0,0-.25,1.06c0,.41-.07.85-.07,1.32s0,.9.07,1.31a4.34,4.34,0,0,0,.25,1.06,1.84,1.84,0,0,0,.47.71,1.13,1.13,0,0,0,1.44,0,1.94,1.94,0,0,0,.46-.71,4.86,4.86,0,0,0,.25-1.06A10.84,10.84,0,0,0,311.21,380.34Z" style="fill:#104052"/><path d="M319.83,380.34a6.23,6.23,0,0,1-.83,3.49,2.8,2.8,0,0,1-4.61,0,6.23,6.23,0,0,1-.83-3.49,8.08,8.08,0,0,1,.22-2,4.46,4.46,0,0,1,.62-1.48,2.77,2.77,0,0,1,1-.91,2.83,2.83,0,0,1,3.61.9A6.22,6.22,0,0,1,319.83,380.34Zm-1.63,0a9.18,9.18,0,0,0-.08-1.32,4.23,4.23,0,0,0-.25-1.06,1.94,1.94,0,0,0-.46-.71,1,1,0,0,0-.71-.26,1.09,1.09,0,0,0-.73.26,1.82,1.82,0,0,0-.46.71,4.23,4.23,0,0,0-.25,1.06,12.39,12.39,0,0,0,0,2.63,4.34,4.34,0,0,0,.25,1.06,1.82,1.82,0,0,0,.46.71,1.09,1.09,0,0,0,.73.26,1,1,0,0,0,.71-.26,1.94,1.94,0,0,0,.46-.71,4.34,4.34,0,0,0,.25-1.06A9.13,9.13,0,0,0,318.2,380.34Z" style="fill:#104052"/><path d="M325,382.15a1.71,1.71,0,0,1-.75-.16c-.23-.11-.45-.23-.67-.36l-.62-.35a1.25,1.25,0,0,0-.61-.17.63.63,0,0,0-.51.25,2.17,2.17,0,0,0-.34.73l-1.08-.3c.05-.21.11-.43.19-.67a2.61,2.61,0,0,1,.35-.66,2.19,2.19,0,0,1,.57-.52,1.61,1.61,0,0,1,.82-.2,1.71,1.71,0,0,1,.75.16c.23.11.45.23.67.36s.42.26.62.37a1.24,1.24,0,0,0,.61.16.61.61,0,0,0,.52-.25,2.06,2.06,0,0,0,.33-.74l1.07.3a5.2,5.2,0,0,1-.18.67,2.61,2.61,0,0,1-.35.66,2.17,2.17,0,0,1-.57.52A1.54,1.54,0,0,1,325,382.15Z" style="fill:#104052"/><path d="M140,382.57a2.75,2.75,0,0,1-.2,1,2.27,2.27,0,0,1-.58.83,2.84,2.84,0,0,1-1,.54,4.2,4.2,0,0,1-1.34.2,3.68,3.68,0,0,1-1.46-.25,2.61,2.61,0,0,1-.94-.62,2.32,2.32,0,0,1-.5-.81,2.56,2.56,0,0,1-.15-.83A2.36,2.36,0,0,1,134,382a2.19,2.19,0,0,1,.31-.61,3.11,3.11,0,0,1,.44-.52,4.07,4.07,0,0,1,.52-.41,2.94,2.94,0,0,1-.89-.91,2.21,2.21,0,0,1-.3-1.19,2.28,2.28,0,0,1,.21-1,2.43,2.43,0,0,1,.57-.82,3.1,3.1,0,0,1,.91-.56,3.45,3.45,0,0,1,1.19-.2,3.37,3.37,0,0,1,1.3.22,2.57,2.57,0,0,1,.89.57,2.17,2.17,0,0,1,.5.78,2.52,2.52,0,0,1,.15.83,2.21,2.21,0,0,1-.38,1.27,3.41,3.41,0,0,1-.9.88,3.07,3.07,0,0,1,1.14,1A2.28,2.28,0,0,1,140,382.57Zm-4.59.07a1.32,1.32,0,0,0,.07.42,1.15,1.15,0,0,0,.26.4,1.6,1.6,0,0,0,.47.31,1.87,1.87,0,0,0,.72.12,1.93,1.93,0,0,0,.67-.1,1.28,1.28,0,0,0,.47-.28,1.13,1.13,0,0,0,.27-.41,1.06,1.06,0,0,0,.1-.46,1.28,1.28,0,0,0-.15-.63,1.33,1.33,0,0,0-.41-.48,2.66,2.66,0,0,0-.63-.35,6.8,6.8,0,0,0-.8-.27,2.53,2.53,0,0,0-.76.73A1.73,1.73,0,0,0,135.44,382.64Zm2.83-4.44a1,1,0,0,0-.07-.37,1,1,0,0,0-.24-.37,1.21,1.21,0,0,0-.4-.29,1.4,1.4,0,0,0-.6-.12,1.58,1.58,0,0,0-.61.11,1.16,1.16,0,0,0-.64.67,1.09,1.09,0,0,0-.08.39,1.42,1.42,0,0,0,.37.94,2.55,2.55,0,0,0,1.24.7,2.67,2.67,0,0,0,.76-.68A1.67,1.67,0,0,0,138.27,378.2Z" style="fill:#104052"/><path d="M143,379.26a1,1,0,0,1-.31.75,1.1,1.1,0,0,1-1.47,0,1,1,0,0,1-.3-.75,1,1,0,0,1,.3-.74,1.05,1.05,0,0,1,1.47,0A1,1,0,0,1,143,379.26Zm0,4.87a1,1,0,0,1-.31.74,1.1,1.1,0,0,1-1.47,0,1,1,0,0,1,.74-1.78,1,1,0,0,1,.73.29A1,1,0,0,1,143,384.13Z" style="fill:#104052"/><path d="M150.15,380.47a6.18,6.18,0,0,1-.83,3.49,2.78,2.78,0,0,1-4.6,0,6.1,6.1,0,0,1-.83-3.49,8.74,8.74,0,0,1,.21-2,4.49,4.49,0,0,1,.62-1.47,2.94,2.94,0,0,1,1-.91,2.7,2.7,0,0,1,1.31-.31,2.63,2.63,0,0,1,2.3,1.21A6.21,6.21,0,0,1,150.15,380.47Zm-1.62,0a10.84,10.84,0,0,0-.08-1.31,4.72,4.72,0,0,0-.25-1.06,1.87,1.87,0,0,0-.47-.71,1.11,1.11,0,0,0-1.43,0,1.77,1.77,0,0,0-.47.71,4.23,4.23,0,0,0-.25,1.06c0,.41-.07.85-.07,1.31s0,.91.07,1.32a4.15,4.15,0,0,0,.25,1,1.77,1.77,0,0,0,.47.71,1.11,1.11,0,0,0,1.43,0,1.87,1.87,0,0,0,.47-.71,4.63,4.63,0,0,0,.25-1A10.89,10.89,0,0,0,148.53,380.47Z" style="fill:#104052"/><path d="M157.15,380.47a6.1,6.1,0,0,1-.84,3.49,2.78,2.78,0,0,1-4.6,0,6.18,6.18,0,0,1-.83-3.49,8.74,8.74,0,0,1,.21-2,4.72,4.72,0,0,1,.63-1.47,2.77,2.77,0,0,1,1-.91,2.66,2.66,0,0,1,1.3-.31,2.63,2.63,0,0,1,2.3,1.21A6.12,6.12,0,0,1,157.15,380.47Zm-1.63,0a9.13,9.13,0,0,0-.08-1.31,4.23,4.23,0,0,0-.25-1.06,1.86,1.86,0,0,0-.46-.71,1,1,0,0,0-.72-.26,1.08,1.08,0,0,0-.72.26,1.87,1.87,0,0,0-.47.71,4.25,4.25,0,0,0-.24,1.06,10.85,10.85,0,0,0,0,2.63,4.17,4.17,0,0,0,.24,1,1.87,1.87,0,0,0,.47.71,1,1,0,0,0,.72.26,1,1,0,0,0,.72-.26,1.86,1.86,0,0,0,.46-.71,4.15,4.15,0,0,0,.25-1A9.18,9.18,0,0,0,155.52,380.47Z" style="fill:#104052"/><path d="M162.32,382.29a1.71,1.71,0,0,1-.75-.16c-.23-.11-.45-.23-.67-.36s-.42-.25-.62-.35a1.25,1.25,0,0,0-.61-.17.63.63,0,0,0-.51.24,2.23,2.23,0,0,0-.34.74l-1.08-.3c0-.21.11-.43.19-.67a2.61,2.61,0,0,1,.35-.66,2,2,0,0,1,.57-.52,1.51,1.51,0,0,1,.82-.21,1.72,1.72,0,0,1,.75.17,7,7,0,0,1,.66.36,7.07,7.07,0,0,0,.63.36,1.25,1.25,0,0,0,.61.17.64.64,0,0,0,.52-.25,2.06,2.06,0,0,0,.33-.74l1.07.3a5.2,5.2,0,0,1-.18.67,2.61,2.61,0,0,1-.35.66,2.13,2.13,0,0,1-.57.51A1.54,1.54,0,0,1,162.32,382.29Z" style="fill:#104052"/><path d="M58.69,397.57h1.4v.87h5.42v1.17H53.24v-1.17h5.45Zm3.71,11h.89c.21,0,.32-.07.32-.33v-3.44H55.12v5H53.75v-6.05H65v5c0,.61-.27,1.06-.79,1.06H62.08l-.21-1.17h-5.5V405.5h6Zm1.32-8.41v2.9H55.05v-2.9Zm-7.35,1v1h6v-1Zm1.26,5.36v1.14h3.53v-1.14Z" style="fill:#32c8ff"/><path d="M77.46,398.22v11.61H76.12v-.7H67.77v.7H66.45V398.22Zm-9.69,1.28V403h3.51V399.5Zm0,4.7v3.63h3.51V404.2Zm4.8-4.7V403h3.55V399.5Zm0,4.7v3.63h3.55V404.2Z" style="fill:#32c8ff"/><path d="M80.68,406a10.19,10.19,0,0,1-1.14,3.93l-1.12-1a7.81,7.81,0,0,0,1-3.15Zm9.34-6.7H85.47v.93h4v1h-4v.93h4v1h-4v.92h4.88a16.62,16.62,0,0,1-.63,5.09,1.22,1.22,0,0,1-1.16.68h-2l-.34-1.43,1.88.07a.49.49,0,0,0,.5-.39,16.69,16.69,0,0,0,.35-2.87h-9.5v-7.13H90Zm-9.29,0v.93h3.5v-.93Zm0,2v.93h3.5v-.93Zm0,1.93v.92h3.5v-.92Zm1.86,3a12.26,12.26,0,0,1,.37,3.08l-1.39.11a13.14,13.14,0,0,0-.25-3.19ZM84.8,406a11.42,11.42,0,0,1,.77,2.62l-1.34.29a12.5,12.5,0,0,0-.66-2.78Zm2.43-.21a8.24,8.24,0,0,1,.74,1.78l-1.26.35A10.9,10.9,0,0,0,86,406Z" style="fill:#32c8ff"/><path d="M96.59,405.64A7,7,0,0,1,94.42,407l-.31-.45a24.83,24.83,0,0,1-3,1.14l-.13-1.42c.29-.06,1.19-.32,1.4-.39v-4.29H91.06v-1.28h1.27v-2.64h1.31v2.64h1v1.28h-1v3.88a8.7,8.7,0,0,0,1-.34l.05.58a5.09,5.09,0,0,0,2.14-1.78h-2.2v-1h8.73v1H98.1a6.92,6.92,0,0,1-.48.72H103a21.19,21.19,0,0,1-.42,4.42,1.14,1.14,0,0,1-1.24.74H99.57l-.27-1.27H101c.39,0,.43-.17.5-.51.1-.54.16-2.06.18-2.36h-.63a8.38,8.38,0,0,1-4.14,4.23l-.8-1a6.81,6.81,0,0,0,3.73-3.19h-.92a8.84,8.84,0,0,1-4.5,3.24l-.63-.95a8.46,8.46,0,0,0,3.84-2.29ZM95.25,398h7.26v4.22H95.25Zm1.23,1v.76h4.78V399Zm0,1.59v.76h4.78v-.76Z" style="fill:#32c8ff"/><path d="M104.63,405.85a16,16,0,0,1-.37,3.32l-.78-.4a11.7,11.7,0,0,0,.42-2.92Zm4.24,3a1.42,1.42,0,0,1-1.5,1h-1.56l-.21-1.17h1.52a.62.62,0,0,0,.67-.36,10.67,10.67,0,0,0,.41-3.24H104v-7h5.46v1.06h-1.8v.94h1.52v1H107.7v1h1.52V403H107.7V404h1.71a18.18,18.18,0,0,1-.48,4.68,7.55,7.55,0,0,0,1.29-4.66v-6h5.34v5.67h-1.78a8.7,8.7,0,0,0,2.28,4.84l-.81,1.27a10.4,10.4,0,0,1-2.67-6.11h-1.09v.35a13.7,13.7,0,0,1-.47,3.52,6.31,6.31,0,0,1-1.22,2.24Zm-3.25-3c.07,1,.07,1.17.1,2.37l-.75.08c0-.5,0-1,0-1.51a7.11,7.11,0,0,0,0-.94Zm-.34-6.74v.94h1.29v-.94Zm0,1.91v1h1.29v-1Zm0,1.93V404h1.29V403Zm1.35,2.8a12.93,12.93,0,0,1,.21,2.2l-.63.11a12,12,0,0,0-.17-2.21Zm.88-.13a8,8,0,0,1,.25,1.78l-.55.08a7.45,7.45,0,0,0-.19-1.8Zm4-6.29v3.13h2.77v-3.13Z" style="fill:#32c8ff"/><path d="M223.22,405.28a20.25,20.25,0,0,1-2.2,4.49l-.92-1.23a16,16,0,0,0,2-4Zm-2.42-4a9.82,9.82,0,0,1,2,1.28l-.83,1a13.81,13.81,0,0,0-1.82-1.23Zm.62-3.51a13.18,13.18,0,0,1,2,1.2l-.81,1.19a17.8,17.8,0,0,0-1.93-1.31Zm5.46,10.35a20.41,20.41,0,0,1-3.47,1.61l-.48-1.34a21.39,21.39,0,0,0,3.63-1.58Zm-2.48-9.83h1.34v3.6h1.66v-4.24h1.33V399h3.35v1.23h-3.35v1.64h3.72v1.21h-9.23v-1.21h1.18Zm.28,5a11,11,0,0,1,2.33,2.08l-.92.92a10.89,10.89,0,0,0-2.25-2Zm4,3.44a21.37,21.37,0,0,1,3.65,1.79l-.74,1.23a30.27,30.27,0,0,0-3.48-1.81Zm3.18-2.69a14,14,0,0,1-2.51,2.33l-.87-.91a22.08,22.08,0,0,0,2.32-2.18Z" style="fill:#32c8ff"/><path d="M244.48,404.8a10.33,10.33,0,0,1-1.11-.44v5.46H242v-.51h-6v.51h-1.35v-5.41c-.53.26-.69.33-1.05.48l-.83-1.25a11.31,11.31,0,0,0,5.44-3.66h1.46a10.81,10.81,0,0,0,5.51,3.56Zm-6.94-6.27a11.61,11.61,0,0,1-3.9,2.76l-.79-1.21a9.56,9.56,0,0,0,3.74-2.44Zm5.36,5.62a9.63,9.63,0,0,1-3.91-3.07,13.3,13.3,0,0,1-3.83,3.07ZM236,405.37v2.71h6v-2.71Zm8.4-4.22a10.18,10.18,0,0,1-4.17-2.73l1-.85a10.44,10.44,0,0,0,3.85,2.33Z" style="fill:#32c8ff"/><path d="M246.41,405.85a16,16,0,0,1-.37,3.32l-.78-.4a11.7,11.7,0,0,0,.42-2.92Zm4.24,3a1.42,1.42,0,0,1-1.5,1h-1.56l-.21-1.17h1.52a.62.62,0,0,0,.67-.36,10.67,10.67,0,0,0,.41-3.24h-4.16v-7h5.46v1.06h-1.8v.94H251v1h-1.52v1H251V403h-1.52V404h1.71a18.18,18.18,0,0,1-.48,4.68,7.62,7.62,0,0,0,1.29-4.66v-6h5.34v5.67h-1.78a8.75,8.75,0,0,0,2.27,4.84l-.8,1.27a10.4,10.4,0,0,1-2.67-6.11h-1.09v.35a13.7,13.7,0,0,1-.47,3.52,6.31,6.31,0,0,1-1.22,2.24Zm-3.25-3c.07,1,.07,1.17.1,2.37l-.75.08c0-.5.05-1,.05-1.51a7.11,7.11,0,0,0-.05-.94Zm-.34-6.74v.94h1.28v-.94Zm0,1.91v1h1.28v-1Zm0,1.93V404h1.28V403Zm1.35,2.8a12.93,12.93,0,0,1,.21,2.2l-.63.11a12,12,0,0,0-.17-2.21Zm.88-.13a8.58,8.58,0,0,1,.25,1.78l-.55.08a7.45,7.45,0,0,0-.19-1.8Zm4-6.29v3.13H256v-3.13Z" style="fill:#32c8ff"/><path d="M290.12,400.71a9.88,9.88,0,0,0,1.52-.77,6.5,6.5,0,0,0,1.34-1.1h1.11v9h-1.58v-6.91a4.63,4.63,0,0,1-.88.54,8.59,8.59,0,0,1-1,.42Z" style="fill:#104052"/><path d="M299,408a6.06,6.06,0,0,1-.73,0c-.24,0-.48-.07-.7-.12s-.42-.1-.6-.16a2.33,2.33,0,0,1-.42-.16l.31-1.34a5.26,5.26,0,0,0,.8.29,4.22,4.22,0,0,0,1.28.17,2.29,2.29,0,0,0,1.49-.4,1.35,1.35,0,0,0,.45-1.06,1.29,1.29,0,0,0-.18-.71,1.21,1.21,0,0,0-.48-.47,2.07,2.07,0,0,0-.7-.24,4.44,4.44,0,0,0-.84-.08h-.53v-1.27h.65a3.05,3.05,0,0,0,.6-.06,1.71,1.71,0,0,0,.56-.21,1.15,1.15,0,0,0,.4-.39,1.24,1.24,0,0,0,.16-.64,1.09,1.09,0,0,0-.12-.53,1.12,1.12,0,0,0-.31-.37,1.22,1.22,0,0,0-.43-.2,1.81,1.81,0,0,0-.52-.07,2.8,2.8,0,0,0-1,.18,4.7,4.7,0,0,0-.81.39l-.57-1.17a3.49,3.49,0,0,1,.44-.24,6.31,6.31,0,0,1,.58-.25,4.5,4.5,0,0,1,.68-.19,3.87,3.87,0,0,1,.77-.07,4.16,4.16,0,0,1,1.3.18,2.38,2.38,0,0,1,.9.51,2.28,2.28,0,0,1,.54.78,2.86,2.86,0,0,1,.17,1,1.89,1.89,0,0,1-.34,1.11,2.34,2.34,0,0,1-.89.76,2.52,2.52,0,0,1,1.16.82,2.25,2.25,0,0,1,.46,1.47,3,3,0,0,1-.21,1.11,2.27,2.27,0,0,1-.63.88,3.24,3.24,0,0,1-1.09.59A5.17,5.17,0,0,1,299,408Z" style="fill:#104052"/><path d="M305.71,402.13a1,1,0,0,1-.31.74,1.1,1.1,0,0,1-1.47,0,1,1,0,0,1,1.47-1.49A1,1,0,0,1,305.71,402.13Zm0,4.86a1,1,0,0,1-.31.74,1.1,1.1,0,0,1-1.47,0,1,1,0,0,1-.3-.74,1,1,0,0,1,.3-.75,1.08,1.08,0,0,1,1.47,0A1,1,0,0,1,305.71,407Z" style="fill:#104052"/><path d="M312.83,403.34a6.15,6.15,0,0,1-.83,3.49,2.79,2.79,0,0,1-4.6,0,6.15,6.15,0,0,1-.83-3.49,8.62,8.62,0,0,1,.21-2,4.27,4.27,0,0,1,.63-1.48,2.82,2.82,0,0,1,1-.91,2.7,2.7,0,0,1,1.31-.31,2.63,2.63,0,0,1,2.3,1.21A6.14,6.14,0,0,1,312.83,403.34Zm-1.62,0a10.89,10.89,0,0,0-.08-1.32,4.72,4.72,0,0,0-.25-1.06,1.94,1.94,0,0,0-.46-.71,1.13,1.13,0,0,0-1.44,0,1.84,1.84,0,0,0-.47.71,4.23,4.23,0,0,0-.25,1.06c0,.41-.07.85-.07,1.32s0,.9.07,1.31a4.34,4.34,0,0,0,.25,1.06,1.84,1.84,0,0,0,.47.71,1.13,1.13,0,0,0,1.44,0,1.94,1.94,0,0,0,.46-.71,4.86,4.86,0,0,0,.25-1.06A10.84,10.84,0,0,0,311.21,403.34Z" style="fill:#104052"/><path d="M319.83,403.34a6.23,6.23,0,0,1-.83,3.49,2.8,2.8,0,0,1-4.61,0,6.23,6.23,0,0,1-.83-3.49,8.08,8.08,0,0,1,.22-2,4.46,4.46,0,0,1,.62-1.48,2.77,2.77,0,0,1,1-.91,2.83,2.83,0,0,1,3.61.9A6.22,6.22,0,0,1,319.83,403.34Zm-1.63,0a9.18,9.18,0,0,0-.08-1.32,4.23,4.23,0,0,0-.25-1.06,1.94,1.94,0,0,0-.46-.71,1,1,0,0,0-.71-.26,1.09,1.09,0,0,0-.73.26,1.82,1.82,0,0,0-.46.71,4.23,4.23,0,0,0-.25,1.06,12.39,12.39,0,0,0,0,2.63,4.34,4.34,0,0,0,.25,1.06,1.82,1.82,0,0,0,.46.71,1.09,1.09,0,0,0,.73.26,1,1,0,0,0,.71-.26,1.94,1.94,0,0,0,.46-.71,4.34,4.34,0,0,0,.25-1.06A9.13,9.13,0,0,0,318.2,403.34Z" style="fill:#104052"/><path d="M325,405.15a1.71,1.71,0,0,1-.75-.16c-.23-.11-.45-.23-.67-.36l-.62-.35a1.25,1.25,0,0,0-.61-.17.63.63,0,0,0-.51.25,2.17,2.17,0,0,0-.34.73l-1.08-.3c.05-.21.11-.43.19-.67a2.61,2.61,0,0,1,.35-.66,2.19,2.19,0,0,1,.57-.52,1.61,1.61,0,0,1,.82-.2,1.71,1.71,0,0,1,.75.16c.23.11.45.23.67.36s.42.26.62.37a1.24,1.24,0,0,0,.61.16.61.61,0,0,0,.52-.25,2.06,2.06,0,0,0,.33-.74l1.07.3a5.2,5.2,0,0,1-.18.67,2.61,2.61,0,0,1-.35.66,2.17,2.17,0,0,1-.57.52A1.54,1.54,0,0,1,325,405.15Z" style="fill:#104052"/><path d="M133.31,401a9,9,0,0,0,1.52-.76,6,6,0,0,0,1.34-1.11h1.11v9h-1.57v-6.9a5.1,5.1,0,0,1-.89.53,9.36,9.36,0,0,1-1,.43Z" style="fill:#104052"/><path d="M140.31,401a8.9,8.9,0,0,0,1.51-.76,6.06,6.06,0,0,0,1.35-1.11h1.1v9H142.7v-6.9a5,5,0,0,1-.88.53,9.48,9.48,0,0,1-1,.43Z" style="fill:#104052"/><path d="M148.9,402.44a1,1,0,0,1-.3.74,1.06,1.06,0,0,1-.74.29,1,1,0,0,1-.74-.29,1,1,0,0,1-.3-.74,1,1,0,0,1,.3-.75,1,1,0,0,1,.74-.29,1.06,1.06,0,0,1,.74.29A1,1,0,0,1,148.9,402.44Zm0,4.86a1,1,0,0,1-.3.74,1.06,1.06,0,0,1-.74.29,1,1,0,0,1-.74-.29,1,1,0,0,1-.3-.74,1,1,0,0,1,.3-.74,1,1,0,0,1,.74-.3,1,1,0,0,1,.74.3A1,1,0,0,1,148.9,407.3Z" style="fill:#104052"/><path d="M156,403.65a6.1,6.1,0,0,1-.84,3.49,2.78,2.78,0,0,1-4.6,0,6.18,6.18,0,0,1-.83-3.49,8.74,8.74,0,0,1,.21-2,4.41,4.41,0,0,1,.63-1.47,2.7,2.7,0,0,1,2.29-1.23,2.64,2.64,0,0,1,2.3,1.22A6.1,6.1,0,0,1,156,403.65Zm-1.63,0a10.59,10.59,0,0,0-.08-1.31,4.23,4.23,0,0,0-.25-1.06,1.86,1.86,0,0,0-.46-.71,1,1,0,0,0-.72-.26,1.08,1.08,0,0,0-.72.26,1.87,1.87,0,0,0-.47.71,4.25,4.25,0,0,0-.24,1.06,10.77,10.77,0,0,0,0,2.62,4.25,4.25,0,0,0,.24,1.06,1.87,1.87,0,0,0,.47.71,1.08,1.08,0,0,0,.72.26,1,1,0,0,0,.72-.26,1.86,1.86,0,0,0,.46-.71,4.23,4.23,0,0,0,.25-1.06A10.59,10.59,0,0,0,154.4,403.65Z" style="fill:#104052"/><path d="M163,403.65a6.18,6.18,0,0,1-.83,3.49,2.79,2.79,0,0,1-4.61,0,6.18,6.18,0,0,1-.83-3.49,8.71,8.71,0,0,1,.22-2,4.4,4.4,0,0,1,.62-1.47,2.76,2.76,0,0,1,1-.91,2.7,2.7,0,0,1,1.31-.32,2.65,2.65,0,0,1,2.3,1.22A6.18,6.18,0,0,1,163,403.65Zm-1.63,0a10.68,10.68,0,0,0-.07-1.31,4.7,4.7,0,0,0-.26-1.06,1.75,1.75,0,0,0-.46-.71,1.11,1.11,0,0,0-1.43,0,1.67,1.67,0,0,0-.47.71,4.23,4.23,0,0,0-.25,1.06,12.29,12.29,0,0,0,0,2.62,4.23,4.23,0,0,0,.25,1.06,1.67,1.67,0,0,0,.47.71,1.11,1.11,0,0,0,1.43,0,1.75,1.75,0,0,0,.46-.71,4.7,4.7,0,0,0,.26-1.06A10.68,10.68,0,0,0,161.39,403.65Z" style="fill:#104052"/><path d="M168.19,405.47a1.64,1.64,0,0,1-.74-.16,6.06,6.06,0,0,1-.67-.36l-.63-.36a1.24,1.24,0,0,0-.61-.16.63.63,0,0,0-.51.24,2.06,2.06,0,0,0-.33.74l-1.08-.3a4.8,4.8,0,0,1,.18-.67,2.56,2.56,0,0,1,.36-.67,2.11,2.11,0,0,1,.56-.51,1.54,1.54,0,0,1,.82-.21,1.87,1.87,0,0,1,.75.16,6.29,6.29,0,0,1,.67.37l.62.36a1.25,1.25,0,0,0,.61.17.64.64,0,0,0,.52-.25,2.14,2.14,0,0,0,.33-.74l1.08.3c-.05.2-.11.43-.19.67a2.47,2.47,0,0,1-.35.66,2.15,2.15,0,0,1-.57.51A1.51,1.51,0,0,1,168.19,405.47Z" style="fill:#104052"/><path d="M220,431.74a9.32,9.32,0,0,0,2.64-2.43h-2.26v-1.2H223V426.9H220.3v-1.18h1.45a12.27,12.27,0,0,0-.39-1.86h-.8v-1.18H223V421.6h1.25v1.08h2.24v1.18h-.61c-.27,1.2-.3,1.34-.46,1.86h1.27v1.18h-2.44v1.21h2.14v1.2h-1.9a7,7,0,0,0,1.6,1.48l-.65,1.17a7,7,0,0,1-1.19-1.39v3.26H223v-3.24a10,10,0,0,1-2.3,2.34Zm2.55-7.88a14.68,14.68,0,0,1,.4,1.86h1.32a17.82,17.82,0,0,0,.4-1.86Zm9.92-1a10.75,10.75,0,0,1-4,1v2h4V427h-1.27v6.81h-1.36V427h-1.39v.35c0,3.63-.71,5-1.74,6.46l-1.26-.87c1.13-1.35,1.7-2.68,1.7-5.55v-4.84a9.73,9.73,0,0,0,4.58-1Z" style="fill:#32c8ff"/><path d="M236.53,426.19a7.52,7.52,0,0,0,2.31-1.81h-2v.88h-1.05v.38a8.24,8.24,0,0,0,1.41,2.32l-.69,1a7.07,7.07,0,0,1-.72-1.35v6.18h-1.23V428a11.42,11.42,0,0,1-1.2,2.81l-.55-1.71a11.83,11.83,0,0,0,1.6-3.87H232.9V424h1.63v-2.35h1.23V424h1v-.6h2.7c.05-.09.09-.15.27-.5-.91,0-1.49,0-1.53,0-.38,0-.64,0-.87,0l-.2-.94a29.66,29.66,0,0,0,6.79-.5l.44,1a20.39,20.39,0,0,1-3.31.4c-.07.15-.13.31-.26.57H245v1H243a6.12,6.12,0,0,0,2.35,1.75l-.52,1.1a9.89,9.89,0,0,1-1.22-.74v1.36H238.3v-1.44a12.46,12.46,0,0,1-1.24.79Zm8.24,2.22v4.47c0,.92-.69.92-1.13.92h-1.18l-.2-1.07H243c.45,0,.51,0,.51-.58v-2.78h-5.27v4.43h-1.21v-5.39ZM243,429.93v2.73h-4.07v-2.73Zm-3.7-3.74V427h3.37v-.82Zm3.1-.85a7.93,7.93,0,0,1-.7-1h-1.39a8,8,0,0,1-.77,1Zm-2.4,5.44v1h1.93v-1Z" style="fill:#32c8ff"/><path d="M246.41,429.85a16,16,0,0,1-.37,3.32l-.78-.4a11.7,11.7,0,0,0,.42-2.92Zm4.24,3a1.42,1.42,0,0,1-1.5,1h-1.56l-.21-1.17h1.52a.62.62,0,0,0,.67-.36,10.67,10.67,0,0,0,.41-3.24h-4.16v-7h5.46v1.06h-1.8v.94H251v1h-1.52v1H251V427h-1.52V428h1.71a18.18,18.18,0,0,1-.48,4.68,7.62,7.62,0,0,0,1.29-4.66v-6h5.34v5.67h-1.78a8.75,8.75,0,0,0,2.27,4.84l-.8,1.27a10.4,10.4,0,0,1-2.67-6.11h-1.09v.35a13.7,13.7,0,0,1-.47,3.52,6.31,6.31,0,0,1-1.22,2.24Zm-3.25-3c.07,1,.07,1.17.1,2.37l-.75.08c0-.5.05-1,.05-1.51a7.11,7.11,0,0,0-.05-.94Zm-.34-6.74v.94h1.28v-.94Zm0,1.91v1h1.28v-1Zm0,1.93V428h1.28V427Zm1.35,2.8a12.93,12.93,0,0,1,.21,2.2l-.63.11a12,12,0,0,0-.17-2.21Zm.88-.13a8.58,8.58,0,0,1,.25,1.78l-.55.08a7.45,7.45,0,0,0-.19-1.8Zm4-6.29v3.13H256v-3.13Z" style="fill:#32c8ff"/><path d="M56.22,429.28a20.25,20.25,0,0,1-2.2,4.49l-.92-1.23a16,16,0,0,0,2-4Zm-2.42-4a9.82,9.82,0,0,1,2,1.28l-.83,1a13.81,13.81,0,0,0-1.82-1.23Zm.62-3.51a13.18,13.18,0,0,1,2,1.2l-.81,1.19a17.8,17.8,0,0,0-1.93-1.31Zm5.46,10.35a20.41,20.41,0,0,1-3.47,1.61l-.48-1.34a21.39,21.39,0,0,0,3.63-1.58Zm-2.48-9.83h1.34v3.6H60.4v-4.24h1.33V423h3.35v1.23H61.73v1.64h3.72v1.21H56.22v-1.21H57.4Zm.28,5A11,11,0,0,1,60,429.36l-.92.92a10.89,10.89,0,0,0-2.25-2Zm4,3.44a21.37,21.37,0,0,1,3.65,1.79l-.74,1.23a30.27,30.27,0,0,0-3.48-1.81ZM64.91,428a14,14,0,0,1-2.51,2.33l-.87-.91a22.08,22.08,0,0,0,2.32-2.18Z" style="fill:#32c8ff"/><path d="M77.48,428.8a10.33,10.33,0,0,1-1.11-.44v5.46H75v-.51H69v.51H67.68v-5.41c-.53.26-.69.33-1.05.48l-.83-1.25A11.31,11.31,0,0,0,71.24,424H72.7a10.81,10.81,0,0,0,5.51,3.56Zm-6.94-6.27a11.61,11.61,0,0,1-3.9,2.76l-.79-1.21a9.56,9.56,0,0,0,3.74-2.44Zm5.36,5.62A9.63,9.63,0,0,1,72,425.08a13.3,13.3,0,0,1-3.83,3.07ZM69,429.37v2.71h6v-2.71Zm8.4-4.22a10.18,10.18,0,0,1-4.17-2.73l1-.85a10.44,10.44,0,0,0,3.85,2.33Z" style="fill:#32c8ff"/><path d="M79.41,429.85a16,16,0,0,1-.37,3.32l-.78-.4a11.7,11.7,0,0,0,.42-2.92Zm4.24,3a1.42,1.42,0,0,1-1.5,1H80.59l-.21-1.17H81.9a.62.62,0,0,0,.67-.36,10.67,10.67,0,0,0,.41-3.24H78.82v-7h5.46v1.06h-1.8v.94H84v1H82.48v1H84V427H82.48V428h1.71a18.18,18.18,0,0,1-.48,4.68A7.62,7.62,0,0,0,85,428.05v-6h5.34v5.67H88.56a8.75,8.75,0,0,0,2.27,4.84l-.8,1.27a10.4,10.4,0,0,1-2.67-6.11H86.27v.35a13.7,13.7,0,0,1-.47,3.52,6.31,6.31,0,0,1-1.22,2.24Zm-3.25-3c.07,1,.07,1.17.1,2.37l-.75.08c0-.5,0-1,0-1.51a7.11,7.11,0,0,0,0-.94Zm-.34-6.74v.94h1.28v-.94Zm0,1.91v1h1.28v-1Zm0,1.93V428h1.28V427Zm1.35,2.8a12.93,12.93,0,0,1,.21,2.2l-.63.11a12,12,0,0,0-.17-2.21Zm.88-.13a8.58,8.58,0,0,1,.25,1.78l-.55.08a7.45,7.45,0,0,0-.19-1.8Zm4-6.29v3.13H89v-3.13Z" style="fill:#32c8ff"/><path d="M290.12,424.71a9.88,9.88,0,0,0,1.52-.77,6.5,6.5,0,0,0,1.34-1.1h1.11v9h-1.58v-6.91a4.63,4.63,0,0,1-.88.54,8.59,8.59,0,0,1-1,.42Z" style="fill:#104052"/><path d="M302.71,429.43a2.75,2.75,0,0,1-.2,1,2.19,2.19,0,0,1-.58.83,2.86,2.86,0,0,1-1,.55,4.19,4.19,0,0,1-1.33.19,3.7,3.7,0,0,1-1.47-.25,2.7,2.7,0,0,1-.94-.62,2.32,2.32,0,0,1-.5-.81,2.56,2.56,0,0,1-.15-.83,2.23,2.23,0,0,1,.42-1.33,2.69,2.69,0,0,1,.44-.51,3.42,3.42,0,0,1,.52-.42,3,3,0,0,1-.89-.9,2.26,2.26,0,0,1-.29-1.19,2.31,2.31,0,0,1,.2-1,2.2,2.2,0,0,1,.58-.81,2.69,2.69,0,0,1,.91-.56,3.18,3.18,0,0,1,1.18-.21,3.42,3.42,0,0,1,1.31.22,2.68,2.68,0,0,1,.88.57,2.21,2.21,0,0,1,.5.78,2.59,2.59,0,0,1,.16.83,2.15,2.15,0,0,1-.39,1.27,3.26,3.26,0,0,1-.9.88,3.26,3.26,0,0,1,1.14,1A2.3,2.3,0,0,1,302.71,429.43Zm-4.59.08a1.06,1.06,0,0,0,.08.41.92.92,0,0,0,.26.4,1.29,1.29,0,0,0,.46.31,1.9,1.9,0,0,0,.72.12,2,2,0,0,0,.68-.1,1.23,1.23,0,0,0,.46-.28,1.21,1.21,0,0,0,.28-.4,1.25,1.25,0,0,0,.09-.46,1.29,1.29,0,0,0-.15-.64,1.42,1.42,0,0,0-.41-.48A2.66,2.66,0,0,0,300,428a5.36,5.36,0,0,0-.8-.26,2.62,2.62,0,0,0-.76.72A1.76,1.76,0,0,0,298.12,429.51Zm2.83-4.45a1,1,0,0,0-.07-.37,1.1,1.1,0,0,0-.23-.37,1.58,1.58,0,0,0-.41-.29,1.57,1.57,0,0,0-.6-.11,1.37,1.37,0,0,0-.6.11,1.29,1.29,0,0,0-.42.28,1.25,1.25,0,0,0-.23.38,1.14,1.14,0,0,0-.08.4,1.45,1.45,0,0,0,.37.93,2.47,2.47,0,0,0,1.24.7,2.42,2.42,0,0,0,.76-.68A1.65,1.65,0,0,0,301,425.06Z" style="fill:#104052"/><path d="M305.71,426.13a1,1,0,0,1-.31.74,1.1,1.1,0,0,1-1.47,0,1,1,0,0,1,1.47-1.49A1,1,0,0,1,305.71,426.13Zm0,4.86a1,1,0,0,1-.31.74,1.1,1.1,0,0,1-1.47,0,1,1,0,0,1-.3-.74,1,1,0,0,1,.3-.75,1.08,1.08,0,0,1,1.47,0A1,1,0,0,1,305.71,431Z" style="fill:#104052"/><path d="M312.83,427.34a6.15,6.15,0,0,1-.83,3.49,2.79,2.79,0,0,1-4.6,0,6.15,6.15,0,0,1-.83-3.49,8.62,8.62,0,0,1,.21-2,4.27,4.27,0,0,1,.63-1.48,2.82,2.82,0,0,1,1-.91,2.7,2.7,0,0,1,1.31-.31,2.63,2.63,0,0,1,2.3,1.21A6.14,6.14,0,0,1,312.83,427.34Zm-1.62,0a10.89,10.89,0,0,0-.08-1.32,4.72,4.72,0,0,0-.25-1.06,1.94,1.94,0,0,0-.46-.71,1.13,1.13,0,0,0-1.44,0,1.84,1.84,0,0,0-.47.71,4.23,4.23,0,0,0-.25,1.06c0,.41-.07.85-.07,1.32s0,.9.07,1.31a4.34,4.34,0,0,0,.25,1.06,1.84,1.84,0,0,0,.47.71,1.13,1.13,0,0,0,1.44,0,1.94,1.94,0,0,0,.46-.71,4.86,4.86,0,0,0,.25-1.06A10.84,10.84,0,0,0,311.21,427.34Z" style="fill:#104052"/><path d="M319.83,427.34a6.23,6.23,0,0,1-.83,3.49,2.8,2.8,0,0,1-4.61,0,6.23,6.23,0,0,1-.83-3.49,8.08,8.08,0,0,1,.22-2,4.46,4.46,0,0,1,.62-1.48,2.77,2.77,0,0,1,1-.91,2.83,2.83,0,0,1,3.61.9A6.22,6.22,0,0,1,319.83,427.34Zm-1.63,0a9.18,9.18,0,0,0-.08-1.32,4.23,4.23,0,0,0-.25-1.06,1.94,1.94,0,0,0-.46-.71,1,1,0,0,0-.71-.26,1.09,1.09,0,0,0-.73.26,1.82,1.82,0,0,0-.46.71,4.23,4.23,0,0,0-.25,1.06,12.39,12.39,0,0,0,0,2.63,4.34,4.34,0,0,0,.25,1.06,1.82,1.82,0,0,0,.46.71,1.09,1.09,0,0,0,.73.26,1,1,0,0,0,.71-.26,1.94,1.94,0,0,0,.46-.71,4.34,4.34,0,0,0,.25-1.06A9.13,9.13,0,0,0,318.2,427.34Z" style="fill:#104052"/><path d="M325,429.15a1.71,1.71,0,0,1-.75-.16c-.23-.11-.45-.23-.67-.36l-.62-.35a1.25,1.25,0,0,0-.61-.17.63.63,0,0,0-.51.25,2.17,2.17,0,0,0-.34.73l-1.08-.3c.05-.21.11-.43.19-.67a2.61,2.61,0,0,1,.35-.66,2.19,2.19,0,0,1,.57-.52,1.61,1.61,0,0,1,.82-.2,1.71,1.71,0,0,1,.75.16c.23.11.45.23.67.36s.42.26.62.37a1.24,1.24,0,0,0,.61.16.61.61,0,0,0,.52-.25,2.06,2.06,0,0,0,.33-.74l1.07.3a5.2,5.2,0,0,1-.18.67,2.61,2.61,0,0,1-.35.66,2.17,2.17,0,0,1-.57.52A1.54,1.54,0,0,1,325,429.15Z" style="fill:#104052"/><path d="M133.84,425.12a9,9,0,0,0,1.51-.77,6.31,6.31,0,0,0,1.35-1.1h1.1v9h-1.57v-6.91a5,5,0,0,1-.88.54c-.36.17-.7.31-1,.43Z" style="fill:#104052"/><path d="M142.73,432.45a6,6,0,0,1-.72,0,6.78,6.78,0,0,1-.7-.12c-.22-.05-.43-.1-.61-.16a1.94,1.94,0,0,1-.41-.16l.31-1.34a5.6,5.6,0,0,0,.79.3,4.72,4.72,0,0,0,1.29.16,2.2,2.2,0,0,0,1.48-.4,1.35,1.35,0,0,0,.46-1.06,1.27,1.27,0,0,0-.66-1.17,2.15,2.15,0,0,0-.7-.25,4.61,4.61,0,0,0-.84-.07h-.53v-1.28h.65a3.05,3.05,0,0,0,.6-.06,1.45,1.45,0,0,0,.55-.2,1.3,1.3,0,0,0,.41-.4,1.21,1.21,0,0,0,.15-.64,1.09,1.09,0,0,0-.12-.53.88.88,0,0,0-.3-.36,1.12,1.12,0,0,0-.44-.21,1.72,1.72,0,0,0-.52-.07,2.84,2.84,0,0,0-1,.18,5.42,5.42,0,0,0-.8.39l-.57-1.16a2.87,2.87,0,0,1,.44-.25,4.58,4.58,0,0,1,.58-.25,4.5,4.5,0,0,1,.68-.19,3.8,3.8,0,0,1,.77-.07,4.21,4.21,0,0,1,1.3.18,2.48,2.48,0,0,1,.9.52,2,2,0,0,1,.53.78,2.59,2.59,0,0,1,.18,1,1.93,1.93,0,0,1-.35,1.12,2.16,2.16,0,0,1-.89.75,2.55,2.55,0,0,1,1.17.82,2.31,2.31,0,0,1,.46,1.47,2.89,2.89,0,0,1-.21,1.11,2.22,2.22,0,0,1-.64.88,2.94,2.94,0,0,1-1.08.59A5.19,5.19,0,0,1,142.73,432.45Z" style="fill:#104052"/><path d="M149.42,426.54a1,1,0,0,1-.3.74,1.12,1.12,0,0,1-1.48,0,1,1,0,0,1-.29-.74,1,1,0,0,1,.29-.75,1.09,1.09,0,0,1,1.48,0A1,1,0,0,1,149.42,426.54Zm0,4.86a1,1,0,0,1-.3.74,1.09,1.09,0,0,1-1.48,0,1,1,0,0,1-.29-.74,1,1,0,0,1,.29-.75,1.09,1.09,0,0,1,1.48,0A1,1,0,0,1,149.42,431.4Z" style="fill:#104052"/><path d="M156.55,427.75a6.21,6.21,0,0,1-.83,3.49,2.79,2.79,0,0,1-4.6,0,6.12,6.12,0,0,1-.84-3.49,8.58,8.58,0,0,1,.22-2,4.46,4.46,0,0,1,.62-1.48,2.85,2.85,0,0,1,1-.91,2.7,2.7,0,0,1,1.31-.31,2.65,2.65,0,0,1,2.3,1.22A6.18,6.18,0,0,1,156.55,427.75Zm-1.63,0a11,11,0,0,0-.07-1.32,4.84,4.84,0,0,0-.26-1.06,1.78,1.78,0,0,0-.46-.7,1.11,1.11,0,0,0-1.43,0,1.7,1.7,0,0,0-.47.7,4.34,4.34,0,0,0-.25,1.06,12.39,12.39,0,0,0,0,2.63,4.23,4.23,0,0,0,.25,1.06,1.73,1.73,0,0,0,.47.71,1.11,1.11,0,0,0,1.43,0,1.82,1.82,0,0,0,.46-.71,4.7,4.7,0,0,0,.26-1.06A10.91,10.91,0,0,0,154.92,427.75Z" style="fill:#104052"/><path d="M163.54,427.75a6.12,6.12,0,0,1-.83,3.49,2.79,2.79,0,0,1-4.6,0,6.12,6.12,0,0,1-.83-3.49,8.62,8.62,0,0,1,.21-2,4.27,4.27,0,0,1,.63-1.48,2.82,2.82,0,0,1,1-.91,2.7,2.7,0,0,1,1.31-.31,2.64,2.64,0,0,1,2.3,1.22A6.1,6.1,0,0,1,163.54,427.75Zm-1.62,0a10.89,10.89,0,0,0-.08-1.32,4.86,4.86,0,0,0-.25-1.06,1.9,1.9,0,0,0-.46-.7,1,1,0,0,0-.72-.26,1,1,0,0,0-.72.26,1.8,1.8,0,0,0-.47.7,4.34,4.34,0,0,0-.25,1.06c0,.41-.07.85-.07,1.32s0,.9.07,1.31a4.23,4.23,0,0,0,.25,1.06,1.84,1.84,0,0,0,.47.71,1,1,0,0,0,.72.26,1.06,1.06,0,0,0,.72-.26,1.94,1.94,0,0,0,.46-.71,4.72,4.72,0,0,0,.25-1.06A10.84,10.84,0,0,0,161.92,427.75Z" style="fill:#104052"/><path d="M168.72,429.57a1.72,1.72,0,0,1-.75-.17,6.11,6.11,0,0,1-.67-.35l-.62-.36a1.27,1.27,0,0,0-.62-.16.62.62,0,0,0-.5.24,2.17,2.17,0,0,0-.34.73l-1.08-.3a5.85,5.85,0,0,1,.19-.67,2.47,2.47,0,0,1,.35-.66,2,2,0,0,1,.57-.51,1.48,1.48,0,0,1,.81-.21,1.71,1.71,0,0,1,.75.16,5.44,5.44,0,0,1,.67.37l.63.36a1.24,1.24,0,0,0,.61.16.64.64,0,0,0,.52-.24,2,2,0,0,0,.32-.75l1.08.3a4,4,0,0,1-.19.67,2.52,2.52,0,0,1-.35.67,2.11,2.11,0,0,1-.56.51A1.54,1.54,0,0,1,168.72,429.57Z" style="fill:#104052"/><path d="M236.73,333.39v3.53c-5,4.68-8.36,10.66-9.07,21.25h-4.41c1-12.76,7.4-19.62,9.16-21.25H218.83v-3.53Z" style="fill:#32c8ff"/><path d="M252.58,333.39l-12.7,24.78h-3l12.69-24.78Z" style="fill:#32c8ff"/><path d="M264.12,358.17H260V340.79h-6.35V337.9c4.79,0,5.74-1.36,7-4.51h3.53Z" style="fill:#32c8ff"/><path d="M288.39,333.39v3.53c-5,4.68-8.35,10.66-9.06,21.25h-4.42c1-12.76,7.4-19.62,9.17-21.25H270.5v-3.53Z" style="fill:#32c8ff"/><path d="M297.35,359.58a10.16,10.16,0,0,1,0-15.15h.81a15.21,15.21,0,0,0,0,15.15Z" style="fill:#32c8ff"/><path d="M308.11,344.43v1.78h-6.43v3.44h5.82v1.77h-5.82v5.39h-2.12V344.43Z" style="fill:#32c8ff"/><path d="M311.23,347.68v2.14c.82-1.46,1.51-2.22,3.23-2.36v2.12c-1.33,0-3.23.12-3.23,2.63v4.6h-2.07v-9.13Z" style="fill:#32c8ff"/><path d="M317.05,344.43v2.08H315v-2.08Zm0,3.25v9.13H315v-9.13Z" style="fill:#32c8ff"/><path d="M317.89,359.58a15.21,15.21,0,0,0,0-15.15h.83a10.2,10.2,0,0,1,0,15.15Z" style="fill:#32c8ff"/><path d="M194.79,354c2.12,6.68,2.32,13.84,2.08,20.8s-1.08,13.94-2,20.85-2,13.78-2.8,20.66c-.4,3.44-.76,6.89-.91,10.35a39.89,39.89,0,0,0,.6,10.34,35.82,35.82,0,0,1-1.58-10.35,101.84,101.84,0,0,1,.33-10.49c.53-7,1.49-13.88,2.38-20.78s1.83-13.77,2.4-20.67c.26-3.45.45-6.91.42-10.37A52.92,52.92,0,0,0,194.79,354Z" style="fill:#32c8ff"/></g></svg>