<svg xmlns="http://www.w3.org/2000/svg" viewBox="0 0 375 239.88"><title>poca</title><g id="footer"><path d="M0,240.33V0C0,30,108,54.93,201.42,54.93c86.42,0,168.45,7.33,173.58,33V240.33Z" style="fill:#32c8ff"/><path d="M70.73,193.22a2.75,2.75,0,0,1,.52-.95,2.46,2.46,0,0,1,.85-.67,2.78,2.78,0,0,1,1.19-.24,2.75,2.75,0,0,1,1.19.24,2.5,2.5,0,0,1,.86.67,2.92,2.92,0,0,1,.52.95,3.86,3.86,0,0,1,.17,1.13,3.8,3.8,0,0,1-.17,1.12,3,3,0,0,1-.52,1,2.6,2.6,0,0,1-.86.66,2.75,2.75,0,0,1-1.19.24,2.78,2.78,0,0,1-1.19-.24,2.56,2.56,0,0,1-.85-.66,2.79,2.79,0,0,1-.52-1,3.5,3.5,0,0,1-.17-1.12A3.56,3.56,0,0,1,70.73,193.22Zm.7,2a2.29,2.29,0,0,0,.35.76,1.77,1.77,0,0,0,1.51.74,1.93,1.93,0,0,0,.9-.2,1.87,1.87,0,0,0,.61-.54,2.53,2.53,0,0,0,.36-.76,3.54,3.54,0,0,0,.11-.85,3.48,3.48,0,0,0-.11-.85,2.32,2.32,0,0,0-.36-.76,1.77,1.77,0,0,0-.61-.54,1.88,1.88,0,0,0-2.41.54,2.12,2.12,0,0,0-.35.76,3.05,3.05,0,0,0-.11.85A3.1,3.1,0,0,0,71.43,195.2Z" style="fill:#fafdff"/><path d="M78.61,193.07v.6h-.82v2.57a.53.53,0,0,0,0,.19.21.21,0,0,0,.07.11.34.34,0,0,0,.16.05h.57v.6h-.52a3,3,0,0,1-.45,0,.76.76,0,0,1-.3-.13.53.53,0,0,1-.17-.28,1.42,1.42,0,0,1-.06-.46v-2.63H76.4v-.6h.71v-1.24h.68v1.24Z" style="fill:#fafdff"/><path d="M79.88,196.28a.78.78,0,0,0,.26.25,1.21,1.21,0,0,0,.35.13,1.75,1.75,0,0,0,.4,0l.34,0a1.07,1.07,0,0,0,.32-.08.67.67,0,0,0,.25-.19.53.53,0,0,0,.09-.32.44.44,0,0,0-.2-.4,1.79,1.79,0,0,0-.5-.22l-.65-.15a3.27,3.27,0,0,1-.65-.19,1.29,1.29,0,0,1-.5-.35.92.92,0,0,1-.2-.62,1,1,0,0,1,.5-.9,1.6,1.6,0,0,1,.5-.21,2,2,0,0,1,.54-.07,3.27,3.27,0,0,1,.65.06,1.42,1.42,0,0,1,.52.21,1,1,0,0,1,.37.4,1.62,1.62,0,0,1,.16.63h-.68a.62.62,0,0,0-.11-.33.66.66,0,0,0-.22-.22,1,1,0,0,0-.3-.11,1.24,1.24,0,0,0-.33,0l-.31,0a1.15,1.15,0,0,0-.28.09.49.49,0,0,0-.21.16.42.42,0,0,0-.08.26.38.38,0,0,0,.12.29,1,1,0,0,0,.32.19,2.42,2.42,0,0,0,.43.13l.48.11a4.1,4.1,0,0,1,.5.14,1.44,1.44,0,0,1,.43.21,1.08,1.08,0,0,1,.31.33,1.06,1.06,0,0,1,.11.5,1.19,1.19,0,0,1-.15.62,1.3,1.3,0,0,1-.41.4,1.77,1.77,0,0,1-.57.21,3.36,3.36,0,0,1-.63.06,2.7,2.7,0,0,1-.65-.07,1.67,1.67,0,0,1-.56-.24,1.22,1.22,0,0,1-.38-.43,1.55,1.55,0,0,1-.16-.65h.68A.89.89,0,0,0,79.88,196.28Z" style="fill:#fafdff"/><path d="M86.15,197.2v-.65h0a1.41,1.41,0,0,1-.55.56,1.65,1.65,0,0,1-.79.18,1.7,1.7,0,0,1-.68-.11,1.08,1.08,0,0,1-.44-.3,1.35,1.35,0,0,1-.24-.48,2.93,2.93,0,0,1-.06-.61v-2.72H84v2.8a.84.84,0,0,0,.23.61.86.86,0,0,0,.61.22,1.27,1.27,0,0,0,.54-.1.88.88,0,0,0,.38-.27,1,1,0,0,0,.23-.41,1.72,1.72,0,0,0,.08-.52v-2.33h.68v4.13Z" style="fill:#fafdff"/><path d="M88.53,191.49v3.39l1.89-1.81h.91l-1.64,1.5,1.76,2.63h-.86L89.17,195l-.64.59v1.57h-.68v-5.71Z" style="fill:#fafdff"/><path d="M95.63,197.19a1,1,0,0,1-.49.1.57.57,0,0,1-.42-.15.64.64,0,0,1-.16-.48,1.52,1.52,0,0,1-.65.48,2.11,2.11,0,0,1-.8.15,2.2,2.2,0,0,1-.53-.06,1.37,1.37,0,0,1-.44-.2.94.94,0,0,1-.29-.36,1.4,1.4,0,0,1,0-1.11,1,1,0,0,1,.32-.36,1.55,1.55,0,0,1,.45-.21,3.81,3.81,0,0,1,.51-.12l.53-.09a2.6,2.6,0,0,0,.45-.08.65.65,0,0,0,.3-.15.35.35,0,0,0,.11-.29.74.74,0,0,0-.08-.36.63.63,0,0,0-.22-.21.91.91,0,0,0-.29-.1l-.33,0a1.42,1.42,0,0,0-.72.17.69.69,0,0,0-.31.62H91.9a1.38,1.38,0,0,1,.16-.65,1.24,1.24,0,0,1,.39-.43A1.56,1.56,0,0,1,93,193a3.47,3.47,0,0,1,1.22,0,1.63,1.63,0,0,1,.5.16,1,1,0,0,1,.36.35,1.13,1.13,0,0,1,.14.58v2.13a1.58,1.58,0,0,0,0,.35c0,.07.08.11.19.11l.21,0Zm-1.11-2.12a.84.84,0,0,1-.33.14l-.44.07-.46.06a1.64,1.64,0,0,0-.41.12.69.69,0,0,0-.3.22.65.65,0,0,0-.12.41.51.51,0,0,0,.07.28.47.47,0,0,0,.18.19.82.82,0,0,0,.25.1,1.39,1.39,0,0,0,.3,0,1.68,1.68,0,0,0,.58-.09,1.22,1.22,0,0,0,.39-.23,1,1,0,0,0,.22-.3.73.73,0,0,0,.07-.31Z" style="fill:#fafdff"/><path d="M98.46,194.66v.64H96.15v-.64Z" style="fill:#fafdff"/><path d="M100.08,193.07v.56h0a1,1,0,0,1,.53-.5,1.89,1.89,0,0,1,.79-.16,1.86,1.86,0,0,1,.84.18,1.6,1.6,0,0,1,.59.47,2,2,0,0,1,.36.7,2.78,2.78,0,0,1,.12.83,2.82,2.82,0,0,1-.12.83,1.91,1.91,0,0,1-.35.68,1.66,1.66,0,0,1-.59.46,1.84,1.84,0,0,1-.83.17l-.34,0a2.24,2.24,0,0,1-.37-.1,1.51,1.51,0,0,1-.35-.2,1.19,1.19,0,0,1-.28-.31h0v2.13H99.4v-5.71Zm2.44,1.47a1.64,1.64,0,0,0-.23-.5,1.19,1.19,0,0,0-.4-.34,1.14,1.14,0,0,0-.57-.13,1.15,1.15,0,0,0-1,.49,1.73,1.73,0,0,0-.22.5,2.78,2.78,0,0,0-.07.57,2.33,2.33,0,0,0,.08.59,1.34,1.34,0,0,0,.22.5,1.27,1.27,0,0,0,.41.35,1.21,1.21,0,0,0,.6.13,1.13,1.13,0,0,0,.58-.14,1,1,0,0,0,.38-.36,1.45,1.45,0,0,0,.21-.51,2.32,2.32,0,0,0,.07-.59A2.1,2.1,0,0,0,102.52,194.54Z" style="fill:#fafdff"/><path d="M107,196.94a1.86,1.86,0,0,1-1.16.35,2.06,2.06,0,0,1-.86-.16,1.65,1.65,0,0,1-.62-.45A2.12,2.12,0,0,1,104,196a3.45,3.45,0,0,1-.14-.88,2.39,2.39,0,0,1,.15-.86,2,2,0,0,1,.4-.68,1.87,1.87,0,0,1,.62-.45,1.78,1.78,0,0,1,.78-.16,1.68,1.68,0,0,1,.91.23,1.82,1.82,0,0,1,.59.58,2.47,2.47,0,0,1,.3.77,3.1,3.1,0,0,1,.07.79h-3.1a1.81,1.81,0,0,0,.07.52,1.06,1.06,0,0,0,.23.43,1.28,1.28,0,0,0,.41.3,1.46,1.46,0,0,0,.58.11,1.22,1.22,0,0,0,.71-.2,1,1,0,0,0,.36-.61h.67A1.65,1.65,0,0,1,107,196.94Zm-.16-2.66a1.05,1.05,0,0,0-.25-.37,1.1,1.1,0,0,0-.37-.25,1.14,1.14,0,0,0-.46-.09,1.21,1.21,0,0,0-.48.09,1,1,0,0,0-.36.26,1.18,1.18,0,0,0-.24.37,1.35,1.35,0,0,0-.11.45H107A1.47,1.47,0,0,0,106.88,194.28Z" style="fill:#fafdff"/><path d="M108.32,194.29a1.78,1.78,0,0,1,.38-.69,1.71,1.71,0,0,1,.63-.46,2.14,2.14,0,0,1,.87-.17,2.06,2.06,0,0,1,.86.17,1.71,1.71,0,0,1,.63.46,1.94,1.94,0,0,1,.39.69,2.84,2.84,0,0,1,0,1.7,2,2,0,0,1-.39.68,1.71,1.71,0,0,1-.63.46,2.06,2.06,0,0,1-.86.16,2.14,2.14,0,0,1-.87-.16,1.71,1.71,0,0,1-.63-.46,1.82,1.82,0,0,1-.38-.68,2.84,2.84,0,0,1,0-1.7Zm.69,1.52a1.77,1.77,0,0,0,.27.49,1.1,1.1,0,0,0,.42.29,1.18,1.18,0,0,0,.5.11,1.25,1.25,0,0,0,.5-.11,1.14,1.14,0,0,0,.41-.29,1.37,1.37,0,0,0,.27-.49,2.29,2.29,0,0,0,0-1.34,1.29,1.29,0,0,0-.27-.49,1.35,1.35,0,0,0-.41-.31,1.44,1.44,0,0,0-.5-.1,1.35,1.35,0,0,0-.5.1,1.27,1.27,0,0,0-.42.31,1.64,1.64,0,0,0-.27.49,2.29,2.29,0,0,0,0,1.34Z" style="fill:#fafdff"/><path d="M113.71,193.07v.56h0a1,1,0,0,1,.53-.5A1.89,1.89,0,0,1,115,193a1.86,1.86,0,0,1,.84.18,1.6,1.6,0,0,1,.59.47,2,2,0,0,1,.36.7,2.78,2.78,0,0,1,.12.83,2.82,2.82,0,0,1-.12.83,1.91,1.91,0,0,1-.35.68,1.58,1.58,0,0,1-.59.46,1.81,1.81,0,0,1-.83.17l-.34,0a2.24,2.24,0,0,1-.37-.1,1.75,1.75,0,0,1-.35-.2,1.19,1.19,0,0,1-.28-.31h0v2.13H113v-5.71Zm2.44,1.47a1.64,1.64,0,0,0-.23-.5,1.1,1.1,0,0,0-.4-.34,1.14,1.14,0,0,0-.57-.13,1.15,1.15,0,0,0-1,.49,1.73,1.73,0,0,0-.22.5,2.78,2.78,0,0,0-.07.57,2.33,2.33,0,0,0,.08.59,1.34,1.34,0,0,0,.22.5,1.27,1.27,0,0,0,.41.35,1.21,1.21,0,0,0,.6.13,1.09,1.09,0,0,0,1-.5,1.65,1.65,0,0,0,.2-.51,2.32,2.32,0,0,0,.07-.59A2.1,2.1,0,0,0,116.15,194.54Z" style="fill:#fafdff"/><path d="M118.47,191.49v5.71h-.68v-5.71Z" style="fill:#fafdff"/><path d="M122.45,196.94a1.91,1.91,0,0,1-1.17.35,2.1,2.1,0,0,1-.86-.16,1.7,1.7,0,0,1-.61-.45,1.94,1.94,0,0,1-.37-.68,3.45,3.45,0,0,1-.14-.88,2.63,2.63,0,0,1,.14-.86,2,2,0,0,1,.41-.68,1.93,1.93,0,0,1,.61-.45,1.85,1.85,0,0,1,.78-.16,1.72,1.72,0,0,1,.92.23,1.79,1.79,0,0,1,.58.58,2.27,2.27,0,0,1,.31.77,3.62,3.62,0,0,1,.07.79H120a1.81,1.81,0,0,0,.06.52,1.22,1.22,0,0,0,.24.43,1.24,1.24,0,0,0,.4.3,1.51,1.51,0,0,0,.59.11,1.22,1.22,0,0,0,.71-.2,1,1,0,0,0,.36-.61h.67A1.65,1.65,0,0,1,122.45,196.94Zm-.16-2.66a1.17,1.17,0,0,0-.62-.62,1.16,1.16,0,0,0-.47-.09,1.19,1.19,0,0,0-.47.09,1.08,1.08,0,0,0-.37.26,1.18,1.18,0,0,0-.24.37,1.64,1.64,0,0,0-.1.45h2.38A1.82,1.82,0,0,0,122.29,194.28Z" style="fill:#fafdff"/><path d="M128.52,193.79a1,1,0,0,0-.69-.22,1.29,1.29,0,0,0-.62.14,1.12,1.12,0,0,0-.39.36,1.68,1.68,0,0,0-.22.51,3.08,3.08,0,0,0-.06.61,2.1,2.1,0,0,0,.07.56,1.3,1.3,0,0,0,.21.48,1,1,0,0,0,.38.34,1.07,1.07,0,0,0,.55.13,1.16,1.16,0,0,0,.79-.26,1.2,1.2,0,0,0,.34-.75h.7a1.94,1.94,0,0,1-.57,1.19,1.84,1.84,0,0,1-1.25.41,2.17,2.17,0,0,1-.84-.15,1.69,1.69,0,0,1-.61-.43,2.07,2.07,0,0,1-.37-.67,2.86,2.86,0,0,1-.12-.85,3,3,0,0,1,.12-.87,2,2,0,0,1,.36-.7,1.85,1.85,0,0,1,.62-.48,2,2,0,0,1,.85-.17,2.71,2.71,0,0,1,.66.08,1.66,1.66,0,0,1,.55.27,1.36,1.36,0,0,1,.38.44,1.72,1.72,0,0,1,.2.64h-.71A1,1,0,0,0,128.52,193.79Z" style="fill:#fafdff"/><path d="M131,193.07v.87h0a1.84,1.84,0,0,1,.61-.74,1.52,1.52,0,0,1,.91-.23v.72a2,2,0,0,0-.69.11,1.17,1.17,0,0,0-.47.33,1.3,1.3,0,0,0-.25.53,2.5,2.5,0,0,0-.08.7v1.84h-.68v-4.13Z" style="fill:#fafdff"/><path d="M135.93,196.94a1.91,1.91,0,0,1-1.17.35,2.1,2.1,0,0,1-.86-.16,1.7,1.7,0,0,1-.61-.45,1.94,1.94,0,0,1-.37-.68,3.45,3.45,0,0,1-.14-.88,2.63,2.63,0,0,1,.14-.86,2,2,0,0,1,.41-.68,1.93,1.93,0,0,1,.61-.45,1.85,1.85,0,0,1,.78-.16,1.72,1.72,0,0,1,.92.23,1.79,1.79,0,0,1,.58.58,2.27,2.27,0,0,1,.31.77,3.62,3.62,0,0,1,.07.79h-3.1a1.81,1.81,0,0,0,.06.52,1.22,1.22,0,0,0,.24.43,1.24,1.24,0,0,0,.4.3,1.51,1.51,0,0,0,.59.11,1.22,1.22,0,0,0,.71-.2,1,1,0,0,0,.36-.61h.67A1.65,1.65,0,0,1,135.93,196.94Zm-.16-2.66a1.17,1.17,0,0,0-.62-.62,1.16,1.16,0,0,0-.47-.09,1.15,1.15,0,0,0-1.08.72,1.34,1.34,0,0,0-.1.45h2.38A1.47,1.47,0,0,0,135.77,194.28Z" style="fill:#fafdff"/><path d="M141,197.19a.93.93,0,0,1-.48.1.57.57,0,0,1-.42-.15.6.6,0,0,1-.16-.48,1.58,1.58,0,0,1-.65.48,2.16,2.16,0,0,1-.81.15,2.33,2.33,0,0,1-.53-.06,1.32,1.32,0,0,1-.43-.2,1,1,0,0,1-.3-.36,1.46,1.46,0,0,1,0-1.11,1,1,0,0,1,.31-.36A1.55,1.55,0,0,1,138,195a4.37,4.37,0,0,1,.52-.12l.53-.09a2.48,2.48,0,0,0,.44-.08.69.69,0,0,0,.31-.15.38.38,0,0,0,.11-.29.64.64,0,0,0-.09-.36.53.53,0,0,0-.21-.21,1,1,0,0,0-.3-.1l-.32,0a1.42,1.42,0,0,0-.72.17.67.67,0,0,0-.31.62h-.68a1.38,1.38,0,0,1,.16-.65,1.13,1.13,0,0,1,.38-.43,1.61,1.61,0,0,1,.55-.24A3.34,3.34,0,0,1,139,193a3.39,3.39,0,0,1,.55,0,1.55,1.55,0,0,1,.5.16,1,1,0,0,1,.36.35,1.13,1.13,0,0,1,.14.58v2.13a1.44,1.44,0,0,0,0,.35c0,.07.08.11.19.11l.2,0Zm-1.1-2.12a.89.89,0,0,1-.34.14l-.43.07-.46.06a1.6,1.6,0,0,0-.42.12.84.84,0,0,0-.3.22.64.64,0,0,0-.11.41.61.61,0,0,0,.06.28.66.66,0,0,0,.18.19.93.93,0,0,0,.25.1,1.55,1.55,0,0,0,.31,0,1.62,1.62,0,0,0,.57-.09,1.22,1.22,0,0,0,.39-.23.89.89,0,0,0,.23-.3.73.73,0,0,0,.07-.31Z" style="fill:#fafdff"/><path d="M143.36,193.07v.6h-.82v2.57a.92.92,0,0,0,0,.19.18.18,0,0,0,.08.11.26.26,0,0,0,.15.05h.57v.6h-.52a3,3,0,0,1-.45,0,.83.83,0,0,1-.3-.13.53.53,0,0,1-.17-.28,1.42,1.42,0,0,1-.06-.46v-2.63h-.7v-.6h.7v-1.24h.68v1.24Z" style="fill:#fafdff"/><path d="M144.16,192.32v-.83h.68v.83Zm.68.75v4.13h-.68v-4.13Z" style="fill:#fafdff"/><path d="M146.53,193.07v.65h0a1.43,1.43,0,0,1,1.34-.75,1.9,1.9,0,0,1,.68.11,1.12,1.12,0,0,1,.44.32,1.23,1.23,0,0,1,.24.47,2.84,2.84,0,0,1,.07.61v2.72h-.68v-2.8a.8.8,0,0,0-.23-.6.82.82,0,0,0-.61-.23,1.27,1.27,0,0,0-.54.1.88.88,0,0,0-.38.27,1,1,0,0,0-.23.41,1.72,1.72,0,0,0-.08.52v2.33h-.68v-4.13Z" style="fill:#fafdff"/><path d="M153.44,198.37a1.87,1.87,0,0,1-1.45.51,3.06,3.06,0,0,1-.59-.07,1.6,1.6,0,0,1-.54-.21,1.22,1.22,0,0,1-.41-.37,1.16,1.16,0,0,1-.17-.57H151a.47.47,0,0,0,.11.31.71.71,0,0,0,.27.21,1.5,1.5,0,0,0,.34.12l.35,0a1.26,1.26,0,0,0,.57-.12,1,1,0,0,0,.38-.31,1.52,1.52,0,0,0,.22-.5,2.48,2.48,0,0,0,.07-.63v-.27h0a1.11,1.11,0,0,1-.53.56,1.67,1.67,0,0,1-.76.18,1.78,1.78,0,0,1-.8-.16,1.77,1.77,0,0,1-.58-.46,2.08,2.08,0,0,1-.35-.66,2.62,2.62,0,0,1-.11-.8,3.35,3.35,0,0,1,.09-.76,2.13,2.13,0,0,1,.32-.7,1.77,1.77,0,0,1,.59-.53,1.94,1.94,0,0,1,.91-.2,1.59,1.59,0,0,1,.72.17,1.22,1.22,0,0,1,.51.52h0v-.59h.64v3.78A2.16,2.16,0,0,1,153.44,198.37Zm-.86-1.86a1.12,1.12,0,0,0,.38-.37,2,2,0,0,0,.21-.51,2.87,2.87,0,0,0,.07-.58,2.5,2.5,0,0,0-.07-.54,1.52,1.52,0,0,0-.2-.47,1.05,1.05,0,0,0-.91-.47,1.08,1.08,0,0,0-.56.13,1.1,1.1,0,0,0-.38.33,1.51,1.51,0,0,0-.22.48,2.62,2.62,0,0,0-.06.57,3.41,3.41,0,0,0,0,.55,1.63,1.63,0,0,0,.19.51,1,1,0,0,0,.36.37,1.08,1.08,0,0,0,.56.14A1.16,1.16,0,0,0,152.58,196.51Z" style="fill:#fafdff"/><path d="M157.8,193.07v.65h0a1.43,1.43,0,0,1,1.35-.75,1.94,1.94,0,0,1,.68.11,1.19,1.19,0,0,1,.44.32,1.09,1.09,0,0,1,.23.47,2.32,2.32,0,0,1,.07.61v2.72h-.68v-2.8a.79.79,0,0,0-.22-.6.85.85,0,0,0-.62-.23,1.27,1.27,0,0,0-.54.1.94.94,0,0,0-.38.27,1.18,1.18,0,0,0-.23.41,1.72,1.72,0,0,0-.07.52v2.33h-.68v-4.13Z" style="fill:#fafdff"/><path d="M164.53,196.94a1.91,1.91,0,0,1-1.17.35,2.1,2.1,0,0,1-.86-.16,1.7,1.7,0,0,1-.61-.45,1.94,1.94,0,0,1-.37-.68,3.45,3.45,0,0,1-.14-.88,2.63,2.63,0,0,1,.14-.86,2,2,0,0,1,.41-.68,1.93,1.93,0,0,1,.61-.45,1.85,1.85,0,0,1,.78-.16,1.72,1.72,0,0,1,.92.23,1.79,1.79,0,0,1,.58.58,2.27,2.27,0,0,1,.31.77,3.62,3.62,0,0,1,.07.79h-3.1a1.81,1.81,0,0,0,.06.52,1.22,1.22,0,0,0,.24.43,1.24,1.24,0,0,0,.4.3,1.51,1.51,0,0,0,.59.11,1.22,1.22,0,0,0,.71-.2,1,1,0,0,0,.36-.61h.67A1.65,1.65,0,0,1,164.53,196.94Zm-.16-2.66a1.17,1.17,0,0,0-.62-.62,1.16,1.16,0,0,0-.47-.09,1.19,1.19,0,0,0-.47.09,1.08,1.08,0,0,0-.37.26,1.18,1.18,0,0,0-.24.37,1.34,1.34,0,0,0-.1.45h2.38A1.82,1.82,0,0,0,164.37,194.28Z" style="fill:#fafdff"/><path d="M169.28,197.2l-.84-3.28h0l-.83,3.28h-.74l-1.33-4.13h.76l.93,3.38h0l.83-3.38h.74l.87,3.38h0l.93-3.38h.71L170,197.2Z" style="fill:#fafdff"/><path d="M174.89,193.07v.56h0a1,1,0,0,1,.53-.5,1.86,1.86,0,0,1,.79-.16,1.78,1.78,0,0,1,.83.18,1.63,1.63,0,0,1,.6.47,2.19,2.19,0,0,1,.35.7,2.78,2.78,0,0,1,.12.83,3.2,3.2,0,0,1-.11.83,1.93,1.93,0,0,1-.36.68,1.5,1.5,0,0,1-.59.46,1.81,1.81,0,0,1-.83.17l-.34,0a2.54,2.54,0,0,1-.37-.1,1.75,1.75,0,0,1-.35-.2,1,1,0,0,1-.27-.31h0v2.13h-.68v-5.71Zm2.45,1.47a1.45,1.45,0,0,0-.24-.5,1,1,0,0,0-.4-.34,1.14,1.14,0,0,0-.57-.13,1.16,1.16,0,0,0-.58.14,1.2,1.2,0,0,0-.39.35,1.32,1.32,0,0,0-.22.5,2.22,2.22,0,0,0-.07.57,2.32,2.32,0,0,0,.07.59,1.35,1.35,0,0,0,.23.5,1.23,1.23,0,0,0,.4.35,1.26,1.26,0,0,0,.6.13,1.17,1.17,0,0,0,.59-.14,1.09,1.09,0,0,0,.38-.36,1.66,1.66,0,0,0,.21-.51,2.88,2.88,0,0,0,.06-.59A2.1,2.1,0,0,0,177.34,194.54Z" style="fill:#fafdff"/><path d="M179.55,193.07v.87h0a1.84,1.84,0,0,1,.61-.74,1.54,1.54,0,0,1,.91-.23v.72a2,2,0,0,0-.69.11,1.25,1.25,0,0,0-.47.33,1.45,1.45,0,0,0-.25.53,2.93,2.93,0,0,0-.08.7v1.84h-.68v-4.13Z" style="fill:#fafdff"/><path d="M181.5,194.29a1.92,1.92,0,0,1,.38-.69,1.75,1.75,0,0,1,.64-.46,2.09,2.09,0,0,1,.86-.17,2.14,2.14,0,0,1,.87.17,1.71,1.71,0,0,1,.63.46,1.92,1.92,0,0,1,.38.69,2.84,2.84,0,0,1,0,1.7,2,2,0,0,1-.38.68,1.71,1.71,0,0,1-.63.46,2.14,2.14,0,0,1-.87.16,2.1,2.1,0,0,1-.86-.16,1.75,1.75,0,0,1-.64-.46,2,2,0,0,1-.38-.68,2.84,2.84,0,0,1,0-1.7Zm.69,1.52a1.57,1.57,0,0,0,.28.49,1.06,1.06,0,0,0,.41.29,1.19,1.19,0,0,0,1,0,1.06,1.06,0,0,0,.41-.29,1.57,1.57,0,0,0,.28-.49,2.29,2.29,0,0,0,0-1.34,1.46,1.46,0,0,0-.28-.49,1.24,1.24,0,0,0-.41-.31,1.3,1.3,0,0,0-1,0,1.24,1.24,0,0,0-.41.31,1.46,1.46,0,0,0-.28.49,2.29,2.29,0,0,0,0,1.34Z" style="fill:#fafdff"/><path d="M189.2,197.2v-.56h0a1,1,0,0,1-.53.5,2,2,0,0,1-.79.15,2,2,0,0,1-.84-.17,1.73,1.73,0,0,1-.59-.48,1.93,1.93,0,0,1-.36-.68,2.89,2.89,0,0,1-.12-.84,2.82,2.82,0,0,1,.12-.83,1.91,1.91,0,0,1,.35-.68,1.81,1.81,0,0,1,.59-.47,2,2,0,0,1,.83-.17l.35,0a1.65,1.65,0,0,1,.36.11,1.51,1.51,0,0,1,.35.2,1.19,1.19,0,0,1,.28.31h0v-2.13h.68v5.71Zm-2.44-1.46a1.69,1.69,0,0,0,.23.49,1.19,1.19,0,0,0,.4.34,1.17,1.17,0,0,0,.57.13,1.15,1.15,0,0,0,1-.49,1.73,1.73,0,0,0,.22-.5,2.22,2.22,0,0,0,.07-.57,2.88,2.88,0,0,0-.07-.59,1.64,1.64,0,0,0-.23-.5,1.27,1.27,0,0,0-.41-.35,1.33,1.33,0,0,0-.6-.13,1.16,1.16,0,0,0-.58.14,1,1,0,0,0-.38.36,1.45,1.45,0,0,0-.21.51,2.88,2.88,0,0,0-.07.59A2.24,2.24,0,0,0,186.76,195.74Z" style="fill:#fafdff"/><path d="M193.72,197.2v-.65h0a1.41,1.41,0,0,1-.55.56,2,2,0,0,1-1.47.07,1,1,0,0,1-.44-.3,1.09,1.09,0,0,1-.24-.48,2.92,2.92,0,0,1-.07-.61v-2.72h.68v2.8a.84.84,0,0,0,.23.61.86.86,0,0,0,.61.22,1.27,1.27,0,0,0,.54-.1.94.94,0,0,0,.38-.27,1.18,1.18,0,0,0,.23-.41,1.72,1.72,0,0,0,.08-.52v-2.33h.68v4.13Z" style="fill:#fafdff"/><path d="M197.85,193.79a1,1,0,0,0-.69-.22,1.25,1.25,0,0,0-.61.14,1.07,1.07,0,0,0-.4.36,1.45,1.45,0,0,0-.21.51,3.08,3.08,0,0,0-.06.61,2.6,2.6,0,0,0,.06.56,1.51,1.51,0,0,0,.22.48,1,1,0,0,0,.37.34,1.09,1.09,0,0,0,.55.13,1.14,1.14,0,0,0,.79-.26,1.2,1.2,0,0,0,.35-.75h.7a2,2,0,0,1-.58,1.19,1.81,1.81,0,0,1-1.25.41,2.16,2.16,0,0,1-.83-.15,1.6,1.6,0,0,1-.61-.43,1.9,1.9,0,0,1-.37-.67,2.86,2.86,0,0,1-.12-.85,3,3,0,0,1,.12-.87,2,2,0,0,1,.36-.7,1.81,1.81,0,0,1,.61-.48,2.09,2.09,0,0,1,.86-.17,2.84,2.84,0,0,1,.66.08,1.71,1.71,0,0,1,.54.27,1.28,1.28,0,0,1,.39.44,1.55,1.55,0,0,1,.19.64h-.7A1,1,0,0,0,197.85,193.79Z" style="fill:#fafdff"/><path d="M201.44,193.07v.6h-.82v2.57a.92.92,0,0,0,0,.19.18.18,0,0,0,.08.11.26.26,0,0,0,.15.05h.57v.6h-.52a3,3,0,0,1-.45,0,.83.83,0,0,1-.3-.13.53.53,0,0,1-.17-.28,1.42,1.42,0,0,1-.06-.46v-2.63h-.7v-.6h.7v-1.24h.68v1.24Z" style="fill:#fafdff"/><path d="M202.72,196.28a.67.67,0,0,0,.25.25,1.21,1.21,0,0,0,.35.13,1.81,1.81,0,0,0,.4,0l.34,0a1,1,0,0,0,.32-.08.67.67,0,0,0,.25-.19.53.53,0,0,0,.09-.32.44.44,0,0,0-.2-.4,1.79,1.79,0,0,0-.5-.22l-.65-.15a3.27,3.27,0,0,1-.65-.19,1.29,1.29,0,0,1-.5-.35.92.92,0,0,1-.2-.62,1,1,0,0,1,.5-.9,1.6,1.6,0,0,1,.5-.21,2,2,0,0,1,.54-.07,3.27,3.27,0,0,1,.65.06,1.55,1.55,0,0,1,.53.21,1.07,1.07,0,0,1,.36.4,1.62,1.62,0,0,1,.16.63h-.68a.61.61,0,0,0-.1-.33.8.8,0,0,0-.23-.22,1,1,0,0,0-.3-.11,1.24,1.24,0,0,0-.33,0l-.31,0a1.15,1.15,0,0,0-.28.09.49.49,0,0,0-.21.16.42.42,0,0,0-.08.26.38.38,0,0,0,.12.29,1,1,0,0,0,.32.19,2.42,2.42,0,0,0,.43.13l.48.11a4.1,4.1,0,0,1,.5.14,1.44,1.44,0,0,1,.43.21,1.08,1.08,0,0,1,.31.33,1,1,0,0,1,.11.5,1.19,1.19,0,0,1-.15.62,1.3,1.3,0,0,1-.41.4,1.77,1.77,0,0,1-.57.21,3.36,3.36,0,0,1-.63.06,2.81,2.81,0,0,1-.65-.07,1.61,1.61,0,0,1-.55-.24,1.24,1.24,0,0,1-.39-.43,1.55,1.55,0,0,1-.16-.65h.68A.77.77,0,0,0,202.72,196.28Z" style="fill:#fafdff"/><path d="M208,193.67v-.6h.7v-.62a1,1,0,0,1,.29-.76,1.22,1.22,0,0,1,.85-.26h.22a1,1,0,0,1,.22.05v.59l-.19,0h-.19a.67.67,0,0,0-.38.09.44.44,0,0,0-.14.37v.58h.8v.6h-.8v3.53h-.68v-3.53Z" style="fill:#fafdff"/><path d="M210.69,194.29a1.94,1.94,0,0,1,.39-.69,1.71,1.71,0,0,1,.63-.46,2.29,2.29,0,0,1,1.73,0,1.71,1.71,0,0,1,.63.46,1.78,1.78,0,0,1,.38.69,2.84,2.84,0,0,1,0,1.7,1.82,1.82,0,0,1-.38.68,1.71,1.71,0,0,1-.63.46,2.42,2.42,0,0,1-1.73,0,1.71,1.71,0,0,1-.63-.46,2,2,0,0,1-.39-.68,2.84,2.84,0,0,1,0-1.7Zm.69,1.52a1.57,1.57,0,0,0,.28.49,1.14,1.14,0,0,0,.41.29,1.25,1.25,0,0,0,.5.11,1.18,1.18,0,0,0,.5-.11,1,1,0,0,0,.41-.29,1.57,1.57,0,0,0,.28-.49,2.29,2.29,0,0,0,0-1.34,1.46,1.46,0,0,0-.28-.49,1.14,1.14,0,0,0-.41-.31,1.35,1.35,0,0,0-.5-.1,1.44,1.44,0,0,0-.5.1,1.35,1.35,0,0,0-.41.31,1.46,1.46,0,0,0-.28.49,2.29,2.29,0,0,0,0,1.34Z" style="fill:#fafdff"/><path d="M216,193.07v.87h0a1.84,1.84,0,0,1,.61-.74,1.52,1.52,0,0,1,.91-.23v.72a2,2,0,0,0-.69.11,1.17,1.17,0,0,0-.47.33,1.3,1.3,0,0,0-.25.53,2.5,2.5,0,0,0-.08.7v1.84h-.68v-4.13Z" style="fill:#fafdff"/><path d="M221,191.49v2.14h0a1,1,0,0,1,.53-.5,1.86,1.86,0,0,1,.79-.16,1.78,1.78,0,0,1,.83.18,1.63,1.63,0,0,1,.6.47,2.19,2.19,0,0,1,.35.7,2.78,2.78,0,0,1,.12.83,3.2,3.2,0,0,1-.11.83,1.93,1.93,0,0,1-.36.68,1.5,1.5,0,0,1-.59.46,1.78,1.78,0,0,1-.83.17l-.34,0a2.54,2.54,0,0,1-.37-.1,1.75,1.75,0,0,1-.35-.2,1,1,0,0,1-.27-.31h0v.55h-.68v-5.71Zm2.45,3a1.45,1.45,0,0,0-.24-.5,1,1,0,0,0-.4-.34,1.14,1.14,0,0,0-.57-.13,1.16,1.16,0,0,0-.58.14,1.2,1.2,0,0,0-.39.35,1.32,1.32,0,0,0-.22.5,2.22,2.22,0,0,0-.07.57,2.32,2.32,0,0,0,.07.59,1.35,1.35,0,0,0,.23.5,1.23,1.23,0,0,0,.4.35,1.26,1.26,0,0,0,.6.13,1.17,1.17,0,0,0,.59-.14,1,1,0,0,0,.38-.36,1.45,1.45,0,0,0,.21-.51,2.88,2.88,0,0,0,.06-.59A2.1,2.1,0,0,0,223.42,194.54Z" style="fill:#fafdff"/><path d="M227.94,196.94a1.91,1.91,0,0,1-1.17.35,2.06,2.06,0,0,1-.86-.16,1.62,1.62,0,0,1-.61-.45,1.8,1.8,0,0,1-.37-.68,3.45,3.45,0,0,1-.14-.88,2.63,2.63,0,0,1,.14-.86,2,2,0,0,1,.41-.68,1.83,1.83,0,0,1,.61-.45,1.85,1.85,0,0,1,.78-.16,1.72,1.72,0,0,1,.92.23,1.79,1.79,0,0,1,.58.58,2.27,2.27,0,0,1,.31.77,3.08,3.08,0,0,1,.06.79h-3.09a1.51,1.51,0,0,0,.06.52,1.37,1.37,0,0,0,.23.43,1.4,1.4,0,0,0,.41.3,1.51,1.51,0,0,0,.59.11,1.18,1.18,0,0,0,.7-.2,1,1,0,0,0,.37-.61h.67A1.65,1.65,0,0,1,227.94,196.94Zm-.16-2.66a1.41,1.41,0,0,0-.25-.37,1.34,1.34,0,0,0-.37-.25,1.27,1.27,0,0,0-.94,0,1,1,0,0,0-.37.26,1.18,1.18,0,0,0-.24.37,1.34,1.34,0,0,0-.1.45h2.37A1.46,1.46,0,0,0,227.78,194.28Z" style="fill:#fafdff"/><path d="M231.08,193.07v.6h-.83v2.57a.92.92,0,0,0,0,.19.23.23,0,0,0,.08.11.3.3,0,0,0,.15.05h.58v.6h-.52a3,3,0,0,1-.46,0,.83.83,0,0,1-.3-.13.6.6,0,0,1-.17-.28,1.42,1.42,0,0,1-.06-.46v-2.63h-.7v-.6h.7v-1.24h.68v1.24Z" style="fill:#fafdff"/><path d="M233.6,193.07v.6h-.83v2.57a.92.92,0,0,0,0,.19.18.18,0,0,0,.08.11.33.33,0,0,0,.15.05h.58v.6h-.52a3,3,0,0,1-.46,0,.83.83,0,0,1-.3-.13.6.6,0,0,1-.17-.28,1.42,1.42,0,0,1-.06-.46v-2.63h-.7v-.6h.7v-1.24h.68v1.24Z" style="fill:#fafdff"/><path d="M237.28,196.94a1.91,1.91,0,0,1-1.17.35,2.06,2.06,0,0,1-.86-.16,1.62,1.62,0,0,1-.61-.45,2,2,0,0,1-.38-.68,3.45,3.45,0,0,1-.14-.88,2.39,2.39,0,0,1,.15-.86,2,2,0,0,1,.4-.68,2,2,0,0,1,.62-.45,1.85,1.85,0,0,1,.78-.16,1.68,1.68,0,0,1,.91.23,1.82,1.82,0,0,1,.59.58,2.25,2.25,0,0,1,.3.77,3.1,3.1,0,0,1,.07.79h-3.1a1.81,1.81,0,0,0,.07.52,1.19,1.19,0,0,0,.23.43,1.28,1.28,0,0,0,.41.3,1.46,1.46,0,0,0,.58.11,1.19,1.19,0,0,0,.71-.2,1,1,0,0,0,.36-.61h.68A1.69,1.69,0,0,1,237.28,196.94Zm-.17-2.66a1.05,1.05,0,0,0-.25-.37,1.16,1.16,0,0,0-.36-.25,1.23,1.23,0,0,0-.47-.09,1.21,1.21,0,0,0-.48.09,1,1,0,0,0-.36.26,1.18,1.18,0,0,0-.24.37,1.35,1.35,0,0,0-.11.45h2.38A1.47,1.47,0,0,0,237.11,194.28Z" style="fill:#fafdff"/><path d="M239.26,193.07v.87h0a1.75,1.75,0,0,1,.6-.74,1.56,1.56,0,0,1,.92-.23v.72a2,2,0,0,0-.7.11,1.14,1.14,0,0,0-.46.33,1.32,1.32,0,0,0-.26.53,2.93,2.93,0,0,0-.08.7v1.84h-.68v-4.13Z" style="fill:#fafdff"/><path d="M244.21,191.49v2.18h0a1,1,0,0,1,.22-.32,1.46,1.46,0,0,1,.33-.22,2.29,2.29,0,0,1,.37-.12,1.69,1.69,0,0,1,.38,0,1.9,1.9,0,0,1,.68.11,1.12,1.12,0,0,1,.44.32,1.23,1.23,0,0,1,.24.47,2.84,2.84,0,0,1,.07.61v2.72h-.68v-2.8a.8.8,0,0,0-.23-.6.82.82,0,0,0-.61-.23,1.27,1.27,0,0,0-.54.1.88.88,0,0,0-.38.27,1,1,0,0,0-.23.41,1.72,1.72,0,0,0-.08.52v2.33h-.68v-5.71Z" style="fill:#fafdff"/><path d="M250.91,196.94a1.91,1.91,0,0,1-1.17.35,2.06,2.06,0,0,1-.86-.16,1.62,1.62,0,0,1-.61-.45,1.8,1.8,0,0,1-.37-.68,3.06,3.06,0,0,1-.14-.88,2.39,2.39,0,0,1,.14-.86,2.18,2.18,0,0,1,.4-.68,2,2,0,0,1,.62-.45,1.85,1.85,0,0,1,.78-.16,1.74,1.74,0,0,1,.92.23,1.89,1.89,0,0,1,.58.58,2.07,2.07,0,0,1,.3.77,3.1,3.1,0,0,1,.07.79h-3.09a1.51,1.51,0,0,0,.06.52,1.37,1.37,0,0,0,.23.43,1.28,1.28,0,0,0,.41.3,1.5,1.5,0,0,0,.58.11,1.19,1.19,0,0,0,.71-.2,1,1,0,0,0,.37-.61h.67A1.65,1.65,0,0,1,250.91,196.94Zm-.17-2.66a1.18,1.18,0,0,0-.24-.37,1.34,1.34,0,0,0-.37-.25,1.19,1.19,0,0,0-.47-.09,1.24,1.24,0,0,0-.48.09,1,1,0,0,0-.36.26,1.18,1.18,0,0,0-.24.37,1.34,1.34,0,0,0-.1.45h2.37A1.47,1.47,0,0,0,250.74,194.28Z" style="fill:#fafdff"/><path d="M255.94,197.19a1,1,0,0,1-.49.1.6.6,0,0,1-.42-.15.64.64,0,0,1-.15-.48,1.61,1.61,0,0,1-.66.48,2.07,2.07,0,0,1-.8.15,2.26,2.26,0,0,1-.53-.06,1.37,1.37,0,0,1-.44-.2.94.94,0,0,1-.29-.36,1.4,1.4,0,0,1,0-1.11,1,1,0,0,1,.32-.36,1.55,1.55,0,0,1,.45-.21,4.21,4.21,0,0,1,.51-.12l.53-.09a2.6,2.6,0,0,0,.45-.08.61.61,0,0,0,.3-.15.35.35,0,0,0,.11-.29.64.64,0,0,0-.08-.36.63.63,0,0,0-.22-.21.83.83,0,0,0-.29-.1l-.33,0a1.47,1.47,0,0,0-.72.17.69.69,0,0,0-.31.62h-.68a1.52,1.52,0,0,1,.16-.65,1.24,1.24,0,0,1,.39-.43,1.65,1.65,0,0,1,.54-.24A3.51,3.51,0,0,1,254,193a3.43,3.43,0,0,1,.56,0,1.63,1.63,0,0,1,.5.16,1,1,0,0,1,.36.35,1.13,1.13,0,0,1,.14.58v2.13a2.61,2.61,0,0,0,0,.35c0,.07.09.11.19.11l.21,0Zm-1.1-2.12a1,1,0,0,1-.34.14l-.44.07-.46.06a1.64,1.64,0,0,0-.41.12.69.69,0,0,0-.3.22.65.65,0,0,0-.12.41.51.51,0,0,0,.07.28.47.47,0,0,0,.18.19.82.82,0,0,0,.25.1,1.39,1.39,0,0,0,.3,0,1.64,1.64,0,0,0,.58-.09,1.22,1.22,0,0,0,.39-.23.86.86,0,0,0,.22-.3.75.75,0,0,0,.08-.31Z" style="fill:#fafdff"/><path d="M257.29,191.49v5.71h-.68v-5.71Z" style="fill:#fafdff"/><path d="M260.12,193.07v.6h-.83v2.57a.92.92,0,0,0,0,.19.18.18,0,0,0,.08.11.3.3,0,0,0,.15.05h.58v.6h-.52a3,3,0,0,1-.46,0,.83.83,0,0,1-.3-.13.6.6,0,0,1-.17-.28,1.42,1.42,0,0,1-.06-.46v-2.63h-.7v-.6h.7v-1.24h.68v1.24Z" style="fill:#fafdff"/><path d="M261.55,191.49v2.18h0a1,1,0,0,1,.23-.32,1.21,1.21,0,0,1,.32-.22,2.4,2.4,0,0,1,.38-.12,1.64,1.64,0,0,1,.38,0,1.9,1.9,0,0,1,.68.11,1.12,1.12,0,0,1,.44.32,1.09,1.09,0,0,1,.23.47,2.32,2.32,0,0,1,.07.61v2.72h-.68v-2.8a.79.79,0,0,0-.22-.6.85.85,0,0,0-.62-.23,1.27,1.27,0,0,0-.54.1.94.94,0,0,0-.38.27,1.18,1.18,0,0,0-.23.41,1.72,1.72,0,0,0-.07.52v2.33h-.68v-5.71Z" style="fill:#fafdff"/><path d="M270.92,197.2l-.84-3.28h0l-.83,3.28h-.74l-1.33-4.13h.76l.93,3.38h0l.83-3.38h.74l.87,3.38h0l.93-3.38H273l-1.32,4.13Z" style="fill:#fafdff"/><path d="M273.51,194.29a1.78,1.78,0,0,1,.38-.69,1.71,1.71,0,0,1,.63-.46,2.31,2.31,0,0,1,1.74,0,1.76,1.76,0,0,1,.62.46,1.94,1.94,0,0,1,.39.69,2.84,2.84,0,0,1,0,1.7,2,2,0,0,1-.39.68,1.76,1.76,0,0,1-.62.46,2.45,2.45,0,0,1-1.74,0,1.71,1.71,0,0,1-.63-.46,1.82,1.82,0,0,1-.38-.68,2.84,2.84,0,0,1,0-1.7Zm.69,1.52a1.57,1.57,0,0,0,.28.49,1,1,0,0,0,.41.29,1.18,1.18,0,0,0,.5.11,1.25,1.25,0,0,0,.5-.11,1.14,1.14,0,0,0,.41-.29,1.57,1.57,0,0,0,.28-.49,2.29,2.29,0,0,0,0-1.34,1.46,1.46,0,0,0-.28-.49,1.35,1.35,0,0,0-.41-.31,1.44,1.44,0,0,0-.5-.1,1.35,1.35,0,0,0-.5.1,1.14,1.14,0,0,0-.41.31,1.46,1.46,0,0,0-.28.49,2.29,2.29,0,0,0,0,1.34Z" style="fill:#fafdff"/><path d="M278.81,193.07v.87h0a1.76,1.76,0,0,1,.61-.74,1.52,1.52,0,0,1,.91-.23v.72a2.06,2.06,0,0,0-.7.11,1.14,1.14,0,0,0-.46.33,1.32,1.32,0,0,0-.26.53,2.93,2.93,0,0,0-.08.7v1.84h-.68v-4.13Z" style="fill:#fafdff"/><path d="M281.58,191.49v5.71h-.68v-5.71Z" style="fill:#fafdff"/><path d="M285.65,197.2v-.56h0a1,1,0,0,1-.53.5,2.06,2.06,0,0,1-.79.15,2,2,0,0,1-.84-.17,1.64,1.64,0,0,1-.59-.48,1.93,1.93,0,0,1-.36-.68,2.89,2.89,0,0,1-.12-.84,2.82,2.82,0,0,1,.12-.83,1.91,1.91,0,0,1,.35-.68,1.71,1.71,0,0,1,.59-.47,2,2,0,0,1,.83-.17l.34,0a1.58,1.58,0,0,1,.37.11,1.75,1.75,0,0,1,.35.2,1.19,1.19,0,0,1,.28.31h0v-2.13h.68v5.71Zm-2.44-1.46a1.69,1.69,0,0,0,.23.49,1.1,1.1,0,0,0,.4.34,1.14,1.14,0,0,0,.57.13,1.15,1.15,0,0,0,1-.49,1.73,1.73,0,0,0,.22-.5,2.78,2.78,0,0,0,.07-.57,2.33,2.33,0,0,0-.08-.59,1.41,1.41,0,0,0-.22-.5,1.27,1.27,0,0,0-.41-.35,1.33,1.33,0,0,0-.6-.13,1.16,1.16,0,0,0-.58.14,1.12,1.12,0,0,0-.39.36,1.65,1.65,0,0,0-.2.51,2.32,2.32,0,0,0-.07.59A2.24,2.24,0,0,0,283.21,195.74Z" style="fill:#fafdff"/><path d="M290.76,197.2l-.84-3.28h0l-.83,3.28h-.74L287,193.07h.76l.93,3.38h0l.83-3.38h.74l.87,3.38h0l.93-3.38h.7l-1.32,4.13Z" style="fill:#fafdff"/><path d="M293.48,192.32v-.83h.68v.83Zm.68.75v4.13h-.68v-4.13Z" style="fill:#fafdff"/><path d="M298.23,197.2v-.56h0a1,1,0,0,1-.53.5,2,2,0,0,1-.79.15,2,2,0,0,1-.84-.17,1.84,1.84,0,0,1-.59-.48,1.91,1.91,0,0,1-.35-.68,2.89,2.89,0,0,1-.12-.84,2.82,2.82,0,0,1,.11-.83,2.08,2.08,0,0,1,.35-.68,1.81,1.81,0,0,1,.59-.47,2,2,0,0,1,.83-.17l.35,0a1.92,1.92,0,0,1,.37.11,1.68,1.68,0,0,1,.34.2,1.19,1.19,0,0,1,.28.31h0v-2.13h.69v5.71Zm-2.44-1.46a1.69,1.69,0,0,0,.23.49,1.19,1.19,0,0,0,.4.34,1.21,1.21,0,0,0,.58.13,1.18,1.18,0,0,0,.58-.14,1.2,1.2,0,0,0,.39-.35,1.5,1.5,0,0,0,.22-.5,2.22,2.22,0,0,0,.07-.57,2.88,2.88,0,0,0-.07-.59,1.64,1.64,0,0,0-.23-.5,1.18,1.18,0,0,0-.41-.35,1.32,1.32,0,0,0-.59-.13,1.2,1.2,0,0,0-.59.14,1,1,0,0,0-.38.36,1.45,1.45,0,0,0-.21.51,2.88,2.88,0,0,0-.07.59A2.24,2.24,0,0,0,295.79,195.74Z" style="fill:#fafdff"/><path d="M302.89,196.94a1.91,1.91,0,0,1-1.17.35,2.1,2.1,0,0,1-.86-.16,1.7,1.7,0,0,1-.61-.45,1.94,1.94,0,0,1-.37-.68,3.45,3.45,0,0,1-.14-.88,2.63,2.63,0,0,1,.14-.86,2,2,0,0,1,.41-.68,1.93,1.93,0,0,1,.61-.45,1.85,1.85,0,0,1,.78-.16,1.72,1.72,0,0,1,.92.23,1.79,1.79,0,0,1,.58.58,2.27,2.27,0,0,1,.31.77,3.08,3.08,0,0,1,.06.79h-3.09a1.51,1.51,0,0,0,.06.52,1.22,1.22,0,0,0,.24.43,1.24,1.24,0,0,0,.4.3,1.51,1.51,0,0,0,.59.11,1.22,1.22,0,0,0,.71-.2,1,1,0,0,0,.36-.61h.67A1.65,1.65,0,0,1,302.89,196.94Zm-.16-2.66a1.17,1.17,0,0,0-.62-.62,1.27,1.27,0,0,0-.94,0,1.08,1.08,0,0,0-.37.26,1.18,1.18,0,0,0-.24.37,1.34,1.34,0,0,0-.1.45h2.37A1.46,1.46,0,0,0,302.73,194.28Z" style="fill:#fafdff"/><path d="M109.93,204.3a2,2,0,0,0-1.91-.11,1.67,1.67,0,0,0-.6.51,2.19,2.19,0,0,0-.35.74,3.15,3.15,0,0,0-.11.87,3.46,3.46,0,0,0,.11.92,2,2,0,0,0,.35.76,1.68,1.68,0,0,0,.6.52,2,2,0,0,0,.88.19,1.78,1.78,0,0,0,.67-.12,1.61,1.61,0,0,0,.5-.35,1.54,1.54,0,0,0,.33-.52,2.28,2.28,0,0,0,.15-.66h.76a2.58,2.58,0,0,1-.75,1.68,2.39,2.39,0,0,1-1.72.6,2.61,2.61,0,0,1-1.16-.23,2.35,2.35,0,0,1-.83-.62,2.76,2.76,0,0,1-.49-.95,4,4,0,0,1-.16-1.17,4.09,4.09,0,0,1,.17-1.17,2.82,2.82,0,0,1,.52-.95,2.38,2.38,0,0,1,.85-.65,2.67,2.67,0,0,1,1.16-.23,3,3,0,0,1,.85.12,2,2,0,0,1,.71.35,1.82,1.82,0,0,1,.52.58,2,2,0,0,1,.27.8h-.76A1.39,1.39,0,0,0,109.93,204.3Z" style="fill:#fafdff"/><path d="M112,206.29a1.94,1.94,0,0,1,.39-.69,1.71,1.71,0,0,1,.63-.46,2.29,2.29,0,0,1,1.73,0,1.71,1.71,0,0,1,.63.46,1.78,1.78,0,0,1,.38.69,2.84,2.84,0,0,1,0,1.7,1.82,1.82,0,0,1-.38.68,1.71,1.71,0,0,1-.63.46,2.42,2.42,0,0,1-1.73,0,1.71,1.71,0,0,1-.63-.46A2,2,0,0,1,112,208a3.07,3.07,0,0,1,0-1.7Zm.7,1.52a1.37,1.37,0,0,0,.27.49,1.14,1.14,0,0,0,.41.29,1.25,1.25,0,0,0,.5.11,1.18,1.18,0,0,0,.5-.11,1.1,1.1,0,0,0,.42-.29,1.55,1.55,0,0,0,.27-.49,2.29,2.29,0,0,0,0-1.34,1.45,1.45,0,0,0-.27-.49,1.27,1.27,0,0,0-.42-.31,1.35,1.35,0,0,0-.5-.1,1.44,1.44,0,0,0-.5.1,1.35,1.35,0,0,0-.41.31,1.29,1.29,0,0,0-.27.49,2.29,2.29,0,0,0,0,1.34Z" style="fill:#fafdff"/><path d="M117.44,205.07v.56h0a1,1,0,0,1,.53-.5,2,2,0,0,1,1.63,0,1.6,1.6,0,0,1,.59.47,2,2,0,0,1,.36.7,2.78,2.78,0,0,1,.12.83,2.82,2.82,0,0,1-.12.83,1.91,1.91,0,0,1-.35.68,1.66,1.66,0,0,1-.59.46,1.84,1.84,0,0,1-.83.17l-.34,0a2.24,2.24,0,0,1-.37-.1,1.51,1.51,0,0,1-.35-.2,1.19,1.19,0,0,1-.28-.31h0v2.13h-.68v-5.71Zm2.44,1.47a1.64,1.64,0,0,0-.23-.5,1.19,1.19,0,0,0-.4-.34,1.17,1.17,0,0,0-.57-.13,1.15,1.15,0,0,0-1,.49,1.73,1.73,0,0,0-.22.5,2.78,2.78,0,0,0-.07.57,2.88,2.88,0,0,0,.07.59,1.53,1.53,0,0,0,.23.5,1.27,1.27,0,0,0,.41.35,1.21,1.21,0,0,0,.6.13,1.13,1.13,0,0,0,.58-.14,1,1,0,0,0,.38-.36,1.45,1.45,0,0,0,.21-.51,2.32,2.32,0,0,0,.07-.59A2.1,2.1,0,0,0,119.88,206.54Z" style="fill:#fafdff"/><path d="M123.1,209.76a4.13,4.13,0,0,1-.24.51,1.3,1.3,0,0,1-.25.34.93.93,0,0,1-.31.19,1.25,1.25,0,0,1-.4.06l-.24,0-.23-.05v-.63l.2.07.2,0a.58.58,0,0,0,.35-.1.67.67,0,0,0,.21-.28l.28-.7L121,205.07h.77l1.2,3.38h0l1.16-3.38h.72Z" style="fill:#fafdff"/><path d="M126.09,205.07v.87h0a1.76,1.76,0,0,1,.61-.74,1.52,1.52,0,0,1,.91-.23v.72a2.06,2.06,0,0,0-.7.11,1.14,1.14,0,0,0-.46.33,1.46,1.46,0,0,0-.26.53,2.93,2.93,0,0,0-.08.7v1.84h-.68v-4.13Z" style="fill:#fafdff"/><path d="M128.18,204.32v-.83h.68v.83Zm.68.75v4.13h-.68v-4.13Z" style="fill:#fafdff"/><path d="M133,210.37a1.89,1.89,0,0,1-1.46.51,3,3,0,0,1-.58-.07,1.66,1.66,0,0,1-.55-.21,1.18,1.18,0,0,1-.4-.37,1.07,1.07,0,0,1-.18-.57h.68a.54.54,0,0,0,.12.31.75.75,0,0,0,.26.21,2,2,0,0,0,.34.12l.35,0a1.2,1.2,0,0,0,.57-.12,1,1,0,0,0,.39-.31,1.52,1.52,0,0,0,.22-.5,3.06,3.06,0,0,0,.06-.63v-.27h0a1.16,1.16,0,0,1-.53.56,1.67,1.67,0,0,1-.76.18,1.86,1.86,0,0,1-.81-.16,1.73,1.73,0,0,1-.57-.46,1.75,1.75,0,0,1-.35-.66,2.63,2.63,0,0,1-.12-.8,2.89,2.89,0,0,1,.1-.76,1.94,1.94,0,0,1,.32-.7,1.77,1.77,0,0,1,.59-.53,1.93,1.93,0,0,1,.9-.2,1.53,1.53,0,0,1,.72.17,1.3,1.3,0,0,1,.52.52h0v-.59h.64v3.78A2.16,2.16,0,0,1,133,210.37Zm-.87-1.86a1,1,0,0,0,.38-.37,1.45,1.45,0,0,0,.21-.51,2.3,2.3,0,0,0,.07-.58,2.48,2.48,0,0,0-.06-.54,1.33,1.33,0,0,0-.21-.47,1,1,0,0,0-.36-.34,1,1,0,0,0-.54-.13,1.08,1.08,0,0,0-.56.13.94.94,0,0,0-.38.33,1.51,1.51,0,0,0-.22.48,2.12,2.12,0,0,0-.07.57,2.57,2.57,0,0,0,.06.55,1.42,1.42,0,0,0,.19.51,1,1,0,0,0,.36.37,1.08,1.08,0,0,0,.56.14A1.15,1.15,0,0,0,132.15,208.51Z" style="fill:#fafdff"/><path d="M135.19,203.49v2.18h0a1,1,0,0,1,.23-.32,1.21,1.21,0,0,1,.32-.22,2.4,2.4,0,0,1,.38-.12,1.64,1.64,0,0,1,.38,0,1.9,1.9,0,0,1,.68.11,1.12,1.12,0,0,1,.44.32,1.09,1.09,0,0,1,.23.47,2.32,2.32,0,0,1,.07.61v2.72h-.68v-2.8a.79.79,0,0,0-.22-.6.85.85,0,0,0-.62-.23,1.27,1.27,0,0,0-.54.1.94.94,0,0,0-.38.27,1.18,1.18,0,0,0-.23.41,1.72,1.72,0,0,0-.07.52v2.33h-.68v-5.71Z" style="fill:#fafdff"/><path d="M140.72,205.07v.6h-.82v2.57a.92.92,0,0,0,0,.19.18.18,0,0,0,.08.11.26.26,0,0,0,.15.05h.57v.6h-.52a3,3,0,0,1-.45,0,.76.76,0,0,1-.3-.13.53.53,0,0,1-.17-.28,1.42,1.42,0,0,1-.06-.46v-2.63h-.7v-.6h.7v-1.24h.68v1.24Z" style="fill:#fafdff"/><path d="M143.62,205.16a3,3,0,0,1,.65-.95,3.26,3.26,0,0,1,1-.63,3.19,3.19,0,0,1,2.33,0,3.09,3.09,0,0,1,.95.63,3,3,0,0,1,.65.95,2.85,2.85,0,0,1,.24,1.17,3,3,0,0,1-.24,1.2,3.15,3.15,0,0,1-.65.95,2.92,2.92,0,0,1-.95.63,3.19,3.19,0,0,1-2.33,0,3.07,3.07,0,0,1-1-.63,3.15,3.15,0,0,1-.65-.95,3,3,0,0,1-.24-1.2A2.85,2.85,0,0,1,143.62,205.16Zm.49,2.19a2.62,2.62,0,0,0,.52.81,2.31,2.31,0,0,0,.79.54,2.42,2.42,0,0,0,1,.2,2.43,2.43,0,0,0,1.74-.74,2.3,2.3,0,0,0,.52-.81,2.61,2.61,0,0,0,.19-1,2.54,2.54,0,0,0-.19-1,2.17,2.17,0,0,0-.52-.8,2.37,2.37,0,0,0-1.74-.73,2.41,2.41,0,0,0-1,.19,2.31,2.31,0,0,0-.79.54,2.46,2.46,0,0,0-.52.8,2.74,2.74,0,0,0-.19,1A2.8,2.8,0,0,0,144.11,207.35Zm3.34.49a1.43,1.43,0,0,1-1,.34,1.86,1.86,0,0,1-.73-.14,1.59,1.59,0,0,1-.56-.38,1.66,1.66,0,0,1-.36-.58,2.14,2.14,0,0,1,0-1.47,1.63,1.63,0,0,1,.34-.57,1.55,1.55,0,0,1,.55-.38,2,2,0,0,1,.74-.14,1.67,1.67,0,0,1,1,.31,1.32,1.32,0,0,1,.51.91h-.5a1,1,0,0,0-.33-.56,1,1,0,0,0-.66-.22,1.25,1.25,0,0,0-.53.11,1,1,0,0,0-.38.29,1.23,1.23,0,0,0-.23.44,1.78,1.78,0,0,0-.08.53,1.91,1.91,0,0,0,.08.54,1.41,1.41,0,0,0,.25.45,1.21,1.21,0,0,0,.9.42,1,1,0,0,0,.67-.23,1,1,0,0,0,.31-.59H148A1.6,1.6,0,0,1,147.45,207.84Z" style="fill:#fafdff"/><path d="M152.29,205.22a2.73,2.73,0,0,1,.51-.95,2.59,2.59,0,0,1,.86-.67,3.07,3.07,0,0,1,2.38,0,2.59,2.59,0,0,1,.86.67,2.92,2.92,0,0,1,.52.95,3.86,3.86,0,0,1,.17,1.13,3.8,3.8,0,0,1-.17,1.12,3,3,0,0,1-.52,1,2.7,2.7,0,0,1-.86.66,3.07,3.07,0,0,1-2.38,0,2.7,2.7,0,0,1-.86-.66,2.77,2.77,0,0,1-.51-1,3.5,3.5,0,0,1-.17-1.12A3.56,3.56,0,0,1,152.29,205.22Zm.7,2a2.29,2.29,0,0,0,.35.76,1.91,1.91,0,0,0,.62.54,1.89,1.89,0,0,0,.89.2,1.93,1.93,0,0,0,.9-.2,1.87,1.87,0,0,0,.61-.54,2.29,2.29,0,0,0,.35-.76,3.12,3.12,0,0,0,.12-.85,3.06,3.06,0,0,0-.12-.85,2.12,2.12,0,0,0-.35-.76,1.77,1.77,0,0,0-.61-.54,1.81,1.81,0,0,0-.9-.2,1.77,1.77,0,0,0-.89.2,1.8,1.8,0,0,0-.62.54,2.12,2.12,0,0,0-.35.76,3.05,3.05,0,0,0-.11.85A3.1,3.1,0,0,0,153,207.2Z" style="fill:#fafdff"/><path d="M160.17,205.07v.6h-.82v2.57a.53.53,0,0,0,0,.19.21.21,0,0,0,.07.11.34.34,0,0,0,.16.05h.57v.6h-.52a2.9,2.9,0,0,1-.45,0,.7.7,0,0,1-.3-.13.62.62,0,0,1-.18-.28,1.83,1.83,0,0,1-.05-.46v-2.63H158v-.6h.71v-1.24h.68v1.24Z" style="fill:#fafdff"/><path d="M161.44,208.28a.78.78,0,0,0,.26.25,1.21,1.21,0,0,0,.35.13,1.75,1.75,0,0,0,.4,0l.34,0a1.16,1.16,0,0,0,.32-.08.67.67,0,0,0,.25-.19.53.53,0,0,0,.09-.32.47.47,0,0,0-.2-.4,1.79,1.79,0,0,0-.5-.22l-.65-.15a3.27,3.27,0,0,1-.65-.19,1.29,1.29,0,0,1-.5-.35.87.87,0,0,1-.2-.62,1,1,0,0,1,.14-.54,1,1,0,0,1,.36-.36,1.55,1.55,0,0,1,.49-.21,2.13,2.13,0,0,1,.55-.07,3.27,3.27,0,0,1,.65.06,1.42,1.42,0,0,1,.52.21,1,1,0,0,1,.37.4,1.62,1.62,0,0,1,.16.63h-.68a.62.62,0,0,0-.11-.33.77.77,0,0,0-.22-.22,1,1,0,0,0-.3-.11,1.24,1.24,0,0,0-.33,0l-.31,0a1.15,1.15,0,0,0-.28.09.49.49,0,0,0-.21.16.37.37,0,0,0-.08.26.38.38,0,0,0,.12.29.91.91,0,0,0,.32.19,2.42,2.42,0,0,0,.43.13l.48.11a4.1,4.1,0,0,1,.5.14,1.44,1.44,0,0,1,.43.21,1.08,1.08,0,0,1,.31.33,1.06,1.06,0,0,1,.11.5,1.19,1.19,0,0,1-.15.62,1.3,1.3,0,0,1-.41.4,1.77,1.77,0,0,1-.57.21,3.36,3.36,0,0,1-.63.06,2.7,2.7,0,0,1-.65-.07,1.67,1.67,0,0,1-.56-.24,1.22,1.22,0,0,1-.38-.43,1.42,1.42,0,0,1-.16-.65h.68A.77.77,0,0,0,161.44,208.28Z" style="fill:#fafdff"/><path d="M167.71,209.2v-.65h0a1.41,1.41,0,0,1-.55.56,1.65,1.65,0,0,1-.79.18,1.7,1.7,0,0,1-.68-.11,1.08,1.08,0,0,1-.44-.3,1.35,1.35,0,0,1-.24-.48,2.92,2.92,0,0,1-.07-.61v-2.72h.68v2.8a.84.84,0,0,0,.23.61.86.86,0,0,0,.61.22,1.27,1.27,0,0,0,.54-.1.88.88,0,0,0,.38-.27,1.18,1.18,0,0,0,.23-.41,1.72,1.72,0,0,0,.08-.52v-2.33h.68v4.13Z" style="fill:#fafdff"/><path d="M170.09,203.49v3.39l1.89-1.81h.91l-1.64,1.5L173,209.2h-.86L170.73,207l-.64.59v1.57h-.68v-5.71Z" style="fill:#fafdff"/><path d="M177.19,209.19a1,1,0,0,1-.49.1.57.57,0,0,1-.42-.15.64.64,0,0,1-.16-.48,1.52,1.52,0,0,1-.65.48,2.11,2.11,0,0,1-.8.15,2.35,2.35,0,0,1-.54-.06,1.42,1.42,0,0,1-.43-.2.94.94,0,0,1-.29-.36,1.4,1.4,0,0,1,0-1.11.93.93,0,0,1,.32-.36,1.63,1.63,0,0,1,.44-.21,4.37,4.37,0,0,1,.52-.12l.53-.09a2.6,2.6,0,0,0,.45-.08.71.71,0,0,0,.3-.15.38.38,0,0,0,.11-.29.74.74,0,0,0-.08-.36.63.63,0,0,0-.22-.21,1,1,0,0,0-.29-.1l-.33,0a1.42,1.42,0,0,0-.72.17.69.69,0,0,0-.31.62h-.68a1.38,1.38,0,0,1,.16-.65,1.13,1.13,0,0,1,.38-.43,1.7,1.7,0,0,1,.55-.24,3.47,3.47,0,0,1,1.22,0,1.63,1.63,0,0,1,.5.16,1,1,0,0,1,.36.35,1.13,1.13,0,0,1,.13.58v2.13a1.44,1.44,0,0,0,0,.35c0,.07.08.11.19.11l.21,0Zm-1.11-2.12a.84.84,0,0,1-.33.14l-.44.07-.46.06a1.64,1.64,0,0,0-.41.12.79.79,0,0,0-.31.22.71.71,0,0,0-.11.41.51.51,0,0,0,.07.28.52.52,0,0,0,.17.19,1,1,0,0,0,.26.1,1.39,1.39,0,0,0,.3,0,1.59,1.59,0,0,0,.57-.09,1.28,1.28,0,0,0,.4-.23,1,1,0,0,0,.22-.3.73.73,0,0,0,.07-.31Z" style="fill:#fafdff"/><path d="M182.66,203.49a1.76,1.76,0,0,1,1.31.45,1.69,1.69,0,0,1,.44,1.24,1.73,1.73,0,0,1-.44,1.25,1.76,1.76,0,0,1-1.31.44h-1.74v2.33h-.76v-5.71Zm-.26,2.74a1.38,1.38,0,0,0,.95-.27,1.16,1.16,0,0,0,0-1.56,1.38,1.38,0,0,0-.95-.27h-1.48v2.1Z" style="fill:#fafdff"/><path d="M185.91,203.49v2.18h0a1,1,0,0,1,.23-.32,1.21,1.21,0,0,1,.32-.22,2.4,2.4,0,0,1,.38-.12,1.64,1.64,0,0,1,.38,0,1.9,1.9,0,0,1,.68.11,1.12,1.12,0,0,1,.44.32,1.09,1.09,0,0,1,.23.47,2.32,2.32,0,0,1,.07.61v2.72H188v-2.8a.79.79,0,0,0-.22-.6.85.85,0,0,0-.62-.23,1.27,1.27,0,0,0-.54.1.94.94,0,0,0-.38.27,1.18,1.18,0,0,0-.23.41,1.72,1.72,0,0,0-.07.52v2.33h-.68v-5.71Z" style="fill:#fafdff"/><path d="M193.34,209.19a1,1,0,0,1-.49.1.6.6,0,0,1-.42-.15.64.64,0,0,1-.15-.48,1.61,1.61,0,0,1-.66.48,2.07,2.07,0,0,1-.8.15,2.26,2.26,0,0,1-.53-.06,1.37,1.37,0,0,1-.44-.2.94.94,0,0,1-.29-.36,1.4,1.4,0,0,1,0-1.11,1,1,0,0,1,.32-.36,1.63,1.63,0,0,1,.44-.21,4.87,4.87,0,0,1,.52-.12l.53-.09a2.6,2.6,0,0,0,.45-.08.61.61,0,0,0,.3-.15.35.35,0,0,0,.11-.29.74.74,0,0,0-.08-.36.63.63,0,0,0-.22-.21.83.83,0,0,0-.29-.1l-.33,0a1.45,1.45,0,0,0-.72.17.69.69,0,0,0-.31.62h-.68a1.52,1.52,0,0,1,.16-.65,1.24,1.24,0,0,1,.39-.43,1.56,1.56,0,0,1,.54-.24,3.47,3.47,0,0,1,1.22,0,1.63,1.63,0,0,1,.5.16,1,1,0,0,1,.36.35,1.13,1.13,0,0,1,.14.58v2.13a1.58,1.58,0,0,0,0,.35c0,.07.08.11.19.11l.21,0Zm-1.11-2.12a.84.84,0,0,1-.33.14l-.44.07-.46.06a1.64,1.64,0,0,0-.41.12.69.69,0,0,0-.3.22.65.65,0,0,0-.12.41.51.51,0,0,0,.07.28.47.47,0,0,0,.18.19.82.82,0,0,0,.25.1,1.39,1.39,0,0,0,.3,0,1.64,1.64,0,0,0,.58-.09,1.22,1.22,0,0,0,.39-.23.86.86,0,0,0,.22-.3.73.73,0,0,0,.07-.31Z" style="fill:#fafdff"/><path d="M194.59,205.07v.87h0a1.84,1.84,0,0,1,.61-.74,1.52,1.52,0,0,1,.91-.23v.72a2,2,0,0,0-.69.11,1.17,1.17,0,0,0-.47.33,1.45,1.45,0,0,0-.25.53,2.5,2.5,0,0,0-.08.7v1.84H194v-4.13Z" style="fill:#fafdff"/><path d="M197.28,205.07v.6h0a1.53,1.53,0,0,1,1.34-.7,1.43,1.43,0,0,1,.69.16.89.89,0,0,1,.44.54,1.42,1.42,0,0,1,.55-.51,1.49,1.49,0,0,1,.75-.19,1.91,1.91,0,0,1,.56.07,1.23,1.23,0,0,1,.43.21.93.93,0,0,1,.28.37,1.35,1.35,0,0,1,.11.55v3h-.69v-2.71a2,2,0,0,0,0-.36.69.69,0,0,0-.12-.29.68.68,0,0,0-.24-.2,1,1,0,0,0-.4-.07,1.11,1.11,0,0,0-.8.29,1,1,0,0,0-.28.77v2.57h-.68v-2.71a2.21,2.21,0,0,0,0-.37,1.1,1.1,0,0,0-.12-.29.57.57,0,0,0-.24-.19.86.86,0,0,0-.38-.07,1,1,0,0,0-.51.12,1.21,1.21,0,0,0-.34.29,1.09,1.09,0,0,0-.19.35.79.79,0,0,0-.07.3v2.57h-.68v-4.13Z" style="fill:#fafdff"/><path d="M207.12,209.19a.94.94,0,0,1-.49.1.6.6,0,0,1-.42-.15.64.64,0,0,1-.15-.48,1.58,1.58,0,0,1-.65.48,2.16,2.16,0,0,1-.81.15,2.33,2.33,0,0,1-.53-.06,1.48,1.48,0,0,1-.44-.2,1,1,0,0,1-.29-.36,1.46,1.46,0,0,1,0-1.11,1,1,0,0,1,.31-.36,1.55,1.55,0,0,1,.45-.21,4.7,4.7,0,0,1,.51-.12l.54-.09a2.48,2.48,0,0,0,.44-.08.69.69,0,0,0,.31-.15.38.38,0,0,0,.11-.29.64.64,0,0,0-.09-.36.53.53,0,0,0-.21-.21,1,1,0,0,0-.3-.1l-.32,0a1.42,1.42,0,0,0-.72.17.67.67,0,0,0-.31.62h-.68a1.52,1.52,0,0,1,.15-.65,1.24,1.24,0,0,1,.39-.43,1.61,1.61,0,0,1,.55-.24,3.34,3.34,0,0,1,.66-.07,3.39,3.39,0,0,1,.55,0,1.55,1.55,0,0,1,.5.16,1,1,0,0,1,.36.35,1.13,1.13,0,0,1,.14.58v2.13a1.44,1.44,0,0,0,0,.35c0,.07.08.11.19.11l.2,0Zm-1.1-2.12a1,1,0,0,1-.34.14l-.43.07-.46.06a1.6,1.6,0,0,0-.42.12.84.84,0,0,0-.3.22.64.64,0,0,0-.11.41.61.61,0,0,0,.06.28.66.66,0,0,0,.18.19.93.93,0,0,0,.25.1,1.55,1.55,0,0,0,.31,0,1.62,1.62,0,0,0,.57-.09,1.22,1.22,0,0,0,.39-.23,1,1,0,0,0,.23-.3.73.73,0,0,0,.07-.31Z" style="fill:#fafdff"/><path d="M210.23,205.79a1,1,0,0,0-.69-.22,1.29,1.29,0,0,0-.62.14,1.12,1.12,0,0,0-.39.36,1.68,1.68,0,0,0-.22.51,3.08,3.08,0,0,0-.06.61,2.1,2.1,0,0,0,.07.56,1.49,1.49,0,0,0,.21.48,1,1,0,0,0,.38.34,1.07,1.07,0,0,0,.55.13,1.16,1.16,0,0,0,.79-.26,1.26,1.26,0,0,0,.35-.75h.69a1.89,1.89,0,0,1-.57,1.19,1.83,1.83,0,0,1-1.25.41,2.17,2.17,0,0,1-.84-.15,1.78,1.78,0,0,1-.61-.43,1.88,1.88,0,0,1-.36-.67,2.57,2.57,0,0,1-.13-.85,3,3,0,0,1,.12-.87,1.88,1.88,0,0,1,.37-.7,1.72,1.72,0,0,1,.61-.48,2,2,0,0,1,.85-.17,2.71,2.71,0,0,1,.66.08,1.66,1.66,0,0,1,.55.27,1.52,1.52,0,0,1,.39.44,1.72,1.72,0,0,1,.19.64h-.71A1,1,0,0,0,210.23,205.79Z" style="fill:#fafdff"/><path d="M215,208.94a1.91,1.91,0,0,1-1.17.35,2.06,2.06,0,0,1-.86-.16,1.62,1.62,0,0,1-.61-.45A1.8,1.8,0,0,1,212,208a3.06,3.06,0,0,1-.14-.88,2.63,2.63,0,0,1,.14-.86,2,2,0,0,1,.41-.68,1.83,1.83,0,0,1,.61-.45,1.85,1.85,0,0,1,.78-.16,1.74,1.74,0,0,1,.92.23,1.79,1.79,0,0,1,.58.58,2.27,2.27,0,0,1,.31.77,3.6,3.6,0,0,1,.06.79h-3.09a1.51,1.51,0,0,0,.06.52,1.37,1.37,0,0,0,.23.43,1.4,1.4,0,0,0,.41.3,1.5,1.5,0,0,0,.58.11,1.19,1.19,0,0,0,.71-.2,1,1,0,0,0,.37-.61h.67A1.65,1.65,0,0,1,215,208.94Zm-.17-2.66a1.18,1.18,0,0,0-.24-.37,1.34,1.34,0,0,0-.37-.25,1.19,1.19,0,0,0-.47-.09,1.24,1.24,0,0,0-.48.09,1,1,0,0,0-.36.26,1.18,1.18,0,0,0-.24.37,1.34,1.34,0,0,0-.1.45h2.37A1.24,1.24,0,0,0,214.81,206.28Z" style="fill:#fafdff"/><path d="M219.13,209.2v-.65h0a1.43,1.43,0,0,1-.56.56,1.62,1.62,0,0,1-.79.18,1.7,1.7,0,0,1-.68-.11,1.08,1.08,0,0,1-.44-.3,1.19,1.19,0,0,1-.23-.48,2.37,2.37,0,0,1-.07-.61v-2.72H217v2.8a.83.83,0,0,0,.22.61.88.88,0,0,0,.62.22,1.3,1.3,0,0,0,.54-.1.94.94,0,0,0,.38-.27,1.36,1.36,0,0,0,.23-.41,1.72,1.72,0,0,0,.07-.52v-2.33h.68v4.13Z" style="fill:#fafdff"/><path d="M222.56,205.07v.6h-.82v2.57a.92.92,0,0,0,0,.19.21.21,0,0,0,.07.11.34.34,0,0,0,.16.05h.57v.6H222a3,3,0,0,1-.45,0,.76.76,0,0,1-.3-.13.53.53,0,0,1-.17-.28,1.42,1.42,0,0,1-.06-.46v-2.63h-.7v-.6h.7v-1.24h.68v1.24Z" style="fill:#fafdff"/><path d="M223.36,204.32v-.83H224v.83Zm.68.75v4.13h-.68v-4.13Z" style="fill:#fafdff"/><path d="M227.56,205.79a1,1,0,0,0-.68-.22,1.26,1.26,0,0,0-.62.14,1.07,1.07,0,0,0-.4.36,1.45,1.45,0,0,0-.21.51,3.08,3.08,0,0,0-.06.61,2.1,2.1,0,0,0,.07.56,1.3,1.3,0,0,0,.21.48,1,1,0,0,0,.37.34,1.09,1.09,0,0,0,.55.13,1.14,1.14,0,0,0,.79-.26,1.2,1.2,0,0,0,.35-.75h.7a2,2,0,0,1-.58,1.19,1.81,1.81,0,0,1-1.25.41,2.16,2.16,0,0,1-.83-.15,1.6,1.6,0,0,1-.61-.43A1.9,1.9,0,0,1,225,208a2.86,2.86,0,0,1-.12-.85,3,3,0,0,1,.12-.87,2,2,0,0,1,.36-.7,1.81,1.81,0,0,1,.61-.48,2.09,2.09,0,0,1,.86-.17,2.84,2.84,0,0,1,.66.08,1.61,1.61,0,0,1,.54.27,1.28,1.28,0,0,1,.39.44,1.55,1.55,0,0,1,.19.64h-.7A1,1,0,0,0,227.56,205.79Z" style="fill:#fafdff"/><path d="M233.05,209.19a1,1,0,0,1-.49.1.6.6,0,0,1-.42-.15.64.64,0,0,1-.15-.48,1.61,1.61,0,0,1-.66.48,2.07,2.07,0,0,1-.8.15,2.26,2.26,0,0,1-.53-.06,1.48,1.48,0,0,1-.44-.2.94.94,0,0,1-.29-.36,1.4,1.4,0,0,1,0-1.11,1,1,0,0,1,.32-.36,1.55,1.55,0,0,1,.45-.21,4.21,4.21,0,0,1,.51-.12l.54-.09a2.66,2.66,0,0,0,.44-.08.61.61,0,0,0,.3-.15.36.36,0,0,0,.12-.29.64.64,0,0,0-.09-.36.63.63,0,0,0-.22-.21.83.83,0,0,0-.29-.1l-.32,0a1.49,1.49,0,0,0-.73.17.69.69,0,0,0-.31.62h-.68a1.52,1.52,0,0,1,.16-.65,1.24,1.24,0,0,1,.39-.43,1.61,1.61,0,0,1,.55-.24,3.34,3.34,0,0,1,.66-.07,3.39,3.39,0,0,1,.55,0,1.63,1.63,0,0,1,.5.16,1,1,0,0,1,.36.35,1.13,1.13,0,0,1,.14.58v2.13a2.61,2.61,0,0,0,0,.35c0,.07.09.11.19.11l.21,0Zm-1.1-2.12a1,1,0,0,1-.34.14l-.44.07-.46.06a1.64,1.64,0,0,0-.41.12.84.84,0,0,0-.3.22.65.65,0,0,0-.12.41.61.61,0,0,0,.07.28.55.55,0,0,0,.18.19.82.82,0,0,0,.25.1,1.45,1.45,0,0,0,.3,0,1.64,1.64,0,0,0,.58-.09,1.22,1.22,0,0,0,.39-.23,1,1,0,0,0,.23-.3.92.92,0,0,0,.07-.31Z" style="fill:#fafdff"/><path d="M234.4,203.49v5.71h-.68v-5.71Z" style="fill:#fafdff"/><path d="M241.25,204.3a1.79,1.79,0,0,0-1-.3,1.73,1.73,0,0,0-1.48.7,2.38,2.38,0,0,0-.34.74,3.15,3.15,0,0,0-.11.87,3.46,3.46,0,0,0,.11.92,2.2,2.2,0,0,0,.34.76,1.71,1.71,0,0,0,.61.52,2,2,0,0,0,.88.19,1.78,1.78,0,0,0,.67-.12,1.61,1.61,0,0,0,.5-.35,1.54,1.54,0,0,0,.33-.52,2.28,2.28,0,0,0,.15-.66h.76a2.63,2.63,0,0,1-.75,1.68,2.4,2.4,0,0,1-1.73.6,2.6,2.6,0,0,1-1.15-.23,2.27,2.27,0,0,1-.83-.62,2.76,2.76,0,0,1-.49-.95,4,4,0,0,1-.16-1.17,3.76,3.76,0,0,1,.17-1.17,2.82,2.82,0,0,1,.52-.95,2.35,2.35,0,0,1,.84-.65,2.72,2.72,0,0,1,1.17-.23,3,3,0,0,1,.85.12,2.05,2.05,0,0,1,.71.35,1.82,1.82,0,0,1,.52.58,2,2,0,0,1,.27.8h-.76A1.39,1.39,0,0,0,241.25,204.3Z" style="fill:#fafdff"/><path d="M243.36,206.29a1.94,1.94,0,0,1,.39-.69,1.71,1.71,0,0,1,.63-.46,2.29,2.29,0,0,1,1.73,0,1.71,1.71,0,0,1,.63.46,1.78,1.78,0,0,1,.38.69,2.84,2.84,0,0,1,0,1.7,1.82,1.82,0,0,1-.38.68,1.71,1.71,0,0,1-.63.46,2.42,2.42,0,0,1-1.73,0,1.71,1.71,0,0,1-.63-.46,2,2,0,0,1-.39-.68,2.84,2.84,0,0,1,0-1.7Zm.69,1.52a1.57,1.57,0,0,0,.28.49,1.14,1.14,0,0,0,.41.29,1.25,1.25,0,0,0,.5.11,1.18,1.18,0,0,0,.5-.11,1,1,0,0,0,.41-.29,1.57,1.57,0,0,0,.28-.49,2.29,2.29,0,0,0,0-1.34,1.46,1.46,0,0,0-.28-.49,1.14,1.14,0,0,0-.41-.31,1.35,1.35,0,0,0-.5-.1,1.44,1.44,0,0,0-.5.1,1.35,1.35,0,0,0-.41.31,1.46,1.46,0,0,0-.28.49,2.54,2.54,0,0,0,0,1.34Z" style="fill:#fafdff"/><path d="M249.09,208.32v.88h-.89v-.88Z" style="fill:#fafdff"/><path d="M251.31,208.32v.8a1.43,1.43,0,0,1-.2.79,1.14,1.14,0,0,1-.68.46V210a.53.53,0,0,0,.23-.14,1,1,0,0,0,.15-.2.83.83,0,0,0,.08-.22,1.48,1.48,0,0,0,0-.21h-.47v-.88Z" style="fill:#fafdff"/><path d="M255.59,203.49v5.07h3v.64h-3.79v-5.71Z" style="fill:#fafdff"/><path d="M260.94,205.07v.6h-.82v2.57a1,1,0,0,0,0,.19.23.23,0,0,0,.08.11.34.34,0,0,0,.16.05h.57v.6h-.52a2.81,2.81,0,0,1-.45,0,.81.81,0,0,1-.31-.13.7.7,0,0,1-.17-.28,1.46,1.46,0,0,1-.05-.46v-2.63h-.71v-.6h.71v-1.24h.68v1.24Z" style="fill:#fafdff"/><path d="M264.71,209.2v-.56h0a1,1,0,0,1-.53.5,2,2,0,0,1-.79.15,1.92,1.92,0,0,1-.83-.17,1.77,1.77,0,0,1-.6-.48,2.08,2.08,0,0,1-.35-.68,2.89,2.89,0,0,1-.12-.84,3.2,3.2,0,0,1,.11-.83,1.93,1.93,0,0,1,.36-.68,1.62,1.62,0,0,1,.59-.47,1.92,1.92,0,0,1,.83-.17l.34,0a1.92,1.92,0,0,1,.37.11,1.75,1.75,0,0,1,.35.2,1.16,1.16,0,0,1,.27.31h0v-2.13h.68v5.71Zm-2.45-1.46a1.49,1.49,0,0,0,.24.49,1.07,1.07,0,0,0,.39.34,1.21,1.21,0,0,0,.58.13,1.16,1.16,0,0,0,.58-.14,1.2,1.2,0,0,0,.39-.35,1.5,1.5,0,0,0,.22-.5,2.22,2.22,0,0,0,.07-.57,2.32,2.32,0,0,0-.07-.59,1.43,1.43,0,0,0-.23-.5,1.23,1.23,0,0,0-.4-.35,1.4,1.4,0,0,0-.6-.13,1.2,1.2,0,0,0-.59.14,1,1,0,0,0-.38.36,1.45,1.45,0,0,0-.21.51,2.88,2.88,0,0,0-.06.59A2.22,2.22,0,0,0,262.26,207.74Z" style="fill:#fafdff"/><path d="M267.47,208.32v.88h-.88v-.88Z" style="fill:#fafdff"/><path d="M155.16,167.67a18,18,0,0,0,8.2,9.84l-1.4,2a19.33,19.33,0,0,1-8-9.36,14.82,14.82,0,0,1-8.28,9.42l-1.38-1.78c4.1-1.52,7.7-6,8.18-10.14h-7.8v-2.12h7.88v-4.7h2.26v4.7h8v2.12Z" style="fill:#fafdff"/><path d="M184.34,169.07a41.7,41.7,0,0,1-4.1,2.6A15.57,15.57,0,0,0,185.1,176L184,177.77a16.26,16.26,0,0,1-3.68-3.72c0,.58,0,1,0,1.46,0,3.14-.58,4.14-2.36,4.14a14.81,14.81,0,0,1-2.26-.2l-.36-1.86a10.16,10.16,0,0,0,2,.26c.54,0,.74-.1.86-.5a10,10,0,0,0,.22-2.26c0-.3,0-.3,0-.86a22.17,22.17,0,0,1-6.2,4.54l-1.2-1.54a22.4,22.4,0,0,0,7.2-5,8.28,8.28,0,0,0-.28-1.12,19.13,19.13,0,0,1-4.88,3.14L172,172.77a17.83,17.83,0,0,0,5.32-3.06c-.18-.3-.34-.56-.58-.92a19,19,0,0,1-4,2.18l-1.12-1.46a16.69,16.69,0,0,0,5.1-2.64h-3.14v-1.2h-1.4v1.64h-2.06V174c.62-.22,1.22-.44,1.82-.7l.26,1.82a53,53,0,0,1-5.88,2.28l-.7-2c1.12-.28,1.7-.46,2.46-.68v-7.4H165.9v-1.94h2.18v-4.72h2v4.72h2v-3.84h12.28v4.14H183v1.2h-3.9a13.43,13.43,0,0,1-1,.92,10.1,10.1,0,0,1,1.4,2.5,27.7,27.7,0,0,0,3.44-2.66Zm-10.22-5.86v2h8.34v-2Z" style="fill:#fafdff"/><path d="M205.18,174.31a17.53,17.53,0,0,1-2.88,1.9,16.81,16.81,0,0,0,4.41,1.58l-1.29,1.72c-4.12-1.24-7.12-3.4-8.48-6.08a15.9,15.9,0,0,1-2.38,1.6v2.32c2.46-.44,3.12-.6,4.64-1l.06,1.6a52.15,52.15,0,0,1-8.9,1.78l-.62-1.74c1.24-.14,1.7-.2,2.68-.34V176a29.93,29.93,0,0,1-4.32,1.26l-1-1.64a25.06,25.06,0,0,0,7.3-2.34h-6.9v-1.58h8.4v-.78H198v.78h8.48v1.58h-2.68Zm-12.62-12.26v-1.4h1.92v1.4h3.88v1.4h-3.88v1H199v1.42h-4.52v.86h3.88v2.88c0,.92-.24,1.12-1.44,1.12a9.64,9.64,0,0,1-1.54-.08l-.24-1.34a9.87,9.87,0,0,0,1.14.08c.28,0,.32,0,.32-.34v-1h-2.12v2.92h-1.92V168h-1.94v2.8h-1.86v-4.1h3.8v-.86H187.5v-1.42h1.78l-1.42-1.08a7.71,7.71,0,0,0,1.88-2.58l1.78.38a9.61,9.61,0,0,1-.44.92Zm-2.36,1.4a7.92,7.92,0,0,1-.82,1h3.18v-1Zm8.66,9.84a9.82,9.82,0,0,0,1.92,1.94,16.59,16.59,0,0,0,2.52-1.94Zm2.68-11.7V168H199.6v-6.44Zm3.84-.94v8.4c0,1.38-.42,1.74-2,1.74a20.3,20.3,0,0,1-2.3-.14l-.34-1.58a15.5,15.5,0,0,0,2.14.18c.42,0,.52-.1.52-.54v-8.06Z" style="fill:#fafdff"/><path d="M214.46,171.81v-6.6h2.84a12.62,12.62,0,0,0,.28-1.28l2,.3a10.22,10.22,0,0,1-.4,1h3.54v6.6H219.6v1.06h8.5v1.64h-6.3a24.67,24.67,0,0,0,6.5,2.68L227,179a21.11,21.11,0,0,1-7.44-4.18v4.84h-2.12v-4.78a16.43,16.43,0,0,1-7.3,4.42l-1.22-1.7a19.18,19.18,0,0,0,6.68-3.08H209.1v-1.64h8.38v-1.06Zm-5.14-1.12a18.91,18.91,0,0,0,4.2-2.14l.56,1.54a23,23,0,0,1-4,2.32Zm4.82-10h2.12V162h4.54v-1.34h2.1V162h4.78v1.6H222.9v1.06h-2.1v-1.06h-4.54v1.06h-2.12v-1.06h-4.6V162h4.6Zm-1.56,7.52a13.08,13.08,0,0,0-2.82-2.44l1.24-1.34a15.76,15.76,0,0,1,2.9,2.32Zm3.84-.36h4.38v-1.28h-4.38Zm0,2.68h4.38v-1.34h-4.38Zm6.56-3.86a20.32,20.32,0,0,0,3-2.44l1.44,1.32a23.52,23.52,0,0,1-3.34,2.44Zm3.94,5.54a31.17,31.17,0,0,0-3.9-2.38l1-1.34a28.92,28.92,0,0,1,4,2.1Z" style="fill:#fafdff"/></g></svg>