<svg xmlns="http://www.w3.org/2000/svg" xmlns:xlink="http://www.w3.org/1999/xlink" viewBox="0 0 375 1026.87"><defs><linearGradient id="名称未設定グラデーション_12" x1="188" y1="1026" x2="188" gradientUnits="userSpaceOnUse"><stop offset="0.35" stop-color="#fff"/><stop offset="0.38" stop-color="#effbff"/><stop offset="0.46" stop-color="#bdedff"/><stop offset="0.55" stop-color="#92e2ff"/><stop offset="0.64" stop-color="#70d9ff"/><stop offset="0.72" stop-color="#55d1ff"/><stop offset="0.81" stop-color="#41ccff"/><stop offset="0.9" stop-color="#36c9ff"/><stop offset="1" stop-color="#32c8ff"/></linearGradient></defs><title>poca</title><g id="Product"><path d="M.5,1026V90.83c81-78.78,342-55.61,375-90.83V1026Z" style="fill:url(#名称未設定グラデーション_12)"/><path d="M-.5,115.87a51.81,51.81,0,0,1,2.94-5.56c.56-.89,1.08-1.82,1.69-2.68L6,105.07a29.65,29.65,0,0,1,2-2.46c.7-.79,1.37-1.63,2.11-2.39,1.52-1.48,3-3.07,4.59-4.43l2.4-2.13,2.52-2c1.66-1.35,3.44-2.5,5.19-3.73s3.59-2.29,5.39-3.44,3.68-2.13,5.55-3.15c15-8,31.19-13.49,47.44-18q12.21-3.32,24.56-5.87c8.23-1.75,16.49-3.26,24.76-4.66s16.55-2.6,24.83-3.77,16.58-2.15,24.87-3.16c33.15-3.93,66.32-6.63,99.2-10.54,16.43-2,32.81-4.24,48.86-7.82,4-.86,8-1.89,11.94-3s7.83-2.46,11.63-4c1.93-.71,3.76-1.6,5.63-2.44s3.66-1.84,5.38-3A41.7,41.7,0,0,0,374.5,7.5,39.58,39.58,0,0,1,366,16.83c-1.62,1.39-3.39,2.54-5.14,3.77s-3.59,2.28-5.47,3.26A141.53,141.53,0,0,1,332,33.73c-16.07,5.28-32.57,8.78-49.06,11.78s-33.07,5.26-49.61,7.4c-8.27,1.07-16.55,2-24.81,3l-24.78,2.9q-12.37,1.41-24.72,3c-8.22,1-16.43,2.1-24.63,3.22-16.38,2.29-32.68,4.9-48.78,8.27s-32,7.6-47.12,13.81A113,113,0,0,0,17,98.59C15.21,99.7,13.67,101,12,102.25c-.81.64-1.54,1.35-2.32,2s-1.55,1.34-2.25,2.09A61.37,61.37,0,0,0-.5,115.87Z" style="fill:#fafdff"/><path d="M135.28,129.79c-9.36,0-9.82-.06-10.74-.16-2.38-.26-2.74-.83-3.38-1.79-.24.25-1.48,1.45-1.52,1.49-.2.2-.22.3-.22.44s0,.24-.12.24-.12-.09-.2-.21l-1.1-1.75a11.89,11.89,0,0,0,2.4-1.69V122h-2.08v-1.66h4.08v4.58c0,3.06,1.24,3.28,5.32,3.28a77.91,77.91,0,0,0,8.32-.43ZM121,117.24a10.11,10.11,0,0,0-2.38-2.76l1.36-1.34a10.65,10.65,0,0,1,2.58,2.86Zm9.12,2.66a1.33,1.33,0,0,1-.52-.2,1,1,0,0,1-.38-.8v-3h3.48v-1.16h-3.48v-1.38h5.26v3.74h-3.64V118a.5.5,0,0,0,.54.54h1.68c.22,0,.76,0,.86-1.14l1.46.62c-.22,1.28-.58,2-1.62,2H131.9v.9h3v1.36h-3v1.12h3.42v1.34H131a10.2,10.2,0,0,0,3.56,1.64l-1.08,1.52a15.38,15.38,0,0,1-4.12-2.1l1-1.06h-2.94l.88,1c.18.2.22.3.22.38s-.06.16-.26.16-.3,0-.36,0a2,2,0,0,0-.38.24,9.45,9.45,0,0,1-2.78,1.44l-1.14-1.44a7.8,7.8,0,0,0,3.4-1.76h-3.76v-1.34h3v-1.12h-2.8V120.9h2.8V120h-1.68c-.68,0-1.28-.18-1.28-1.14v-3h3.32v-1.22h-3.32v-1.32h5v3.74H125V118a.54.54,0,0,0,.56.6h1.28c.46,0,.56-.58.6-1.1l1.38.64c-.16,1-.32,1.46-.78,1.82v1h2.1Zm-2.1,2.36v1.12h2.1v-1.12Z" style="fill:#fafdff"/><path d="M153.92,127.42a42,42,0,0,1-6.34-6.7c-1.08-1.44-1.54-2-2-2s-.5.14-1.34,1.28c-2.78,3.76-3.1,4.18-3.72,4.78l-2.06-1.46a34.35,34.35,0,0,0,3.8-4.3c2-2.62,2.22-2.94,3.24-2.94s1.2.28,3.52,3c3.3,3.82,4.86,5.08,6.7,6.32Zm-1.16-9.48a11.61,11.61,0,0,0-1.88-1.88l1-.94a9.13,9.13,0,0,1,1.94,1.86Zm2.12-1.94a20.39,20.39,0,0,0-1.9-1.76l.88-1a11.63,11.63,0,0,1,2,1.78Z" style="fill:#fafdff"/><path d="M159.76,123.64a35.36,35.36,0,0,0,7.26-7.4c-2,.26-2.64.32-4.76.46l-.34-2.3c.56,0,1.52.1,2.08.1a22.42,22.42,0,0,0,6.44-1l.92,1.58a31,31,0,0,0-4.42,4.54,6,6,0,0,1,1.66-.22c4,0,4.74,2.94,4.74,4.62,0,3.46-2.8,5.73-6.42,5.73-1.34,0-4.1-.34-4.1-2.91,0-1.3.88-2.7,3.12-2.7a4,4,0,0,1,3.82,2.62A3.29,3.29,0,0,0,171.2,124c0-1.14-.46-2.8-3.22-2.8s-4.22,1.62-6.52,4.14Zm6.16,2.16a1.08,1.08,0,0,0-1.16.94c0,.77,1.06,1.1,1.92,1.1a4.06,4.06,0,0,0,1.24-.2A2.1,2.1,0,0,0,165.92,125.8Z" style="fill:#fafdff"/><path d="M192,116.6h-6.22l-.52,4.16a3.38,3.38,0,0,1,2.84-1.28c2.54,0,4.36,2.06,4.36,4.84s-1.64,5.09-4.94,5.09c-2.88,0-4.64-1.39-4.86-4.17h2.5a2.27,2.27,0,0,0,2.36,2c1.42,0,2.42-1.22,2.42-2.88s-.88-2.88-2.46-2.88a2,2,0,0,0-2.08,1.3H182.9l1-8.28H192Z" style="fill:#fafdff"/><path d="M202.16,128.34a14.77,14.77,0,0,0,6.74-4.44,19.13,19.13,0,0,0-3.68-2.28l1.26-1.48a23.36,23.36,0,0,1,3.64,2.1,16.85,16.85,0,0,0,1.86-4h-5.42a15.2,15.2,0,0,1-3.78,4.12l-1.86-1.26a15.4,15.4,0,0,0,5.86-8l1.92.76c.54.22.54.3.54.4s-.14.2-.28.22-.28.1-.56.64-.42.82-.64,1.24h4.52a2,2,0,0,0,1.18-.56l1.72,1.54a2.84,2.84,0,0,0-1.08,1.5,23,23,0,0,1-2.32,4.66,15.14,15.14,0,0,1,1.7,1.46L212,126.82a13.42,13.42,0,0,0-1.46-1.56,16.13,16.13,0,0,1-6.76,4.85Z" style="fill:#fafdff"/><path d="M227.22,120.84a32,32,0,0,1-5.16,2.94l-1.74-1.88a27.79,27.79,0,0,0,11.88-8.72l1.5,1.3c.56.5.64.54.64.72s-.06.18-.62.18c-.18,0-.26.1-1,.88a31.76,31.76,0,0,1-3.2,2.88v10.59h-2.32Z" style="fill:#fafdff"/><path d="M241.14,117.38V115.3h11a1.17,1.17,0,0,0,1-.4l1.86,1.84c-.56.4-.56.4-1.42,2.86-.78,2.26-2.5,6.84-9,10.09l-1.84-1.79c5.86-2.56,8-6.08,9.18-10.52Zm12.38-3.6a1.93,1.93,0,1,1,1.9,2A1.95,1.95,0,0,1,253.52,113.78Zm3,0a1,1,0,1,0-1,1A1,1,0,0,0,256.48,113.78Z" style="fill:#fafdff"/><path d="M255.5,139.41v13.64c-19.8,2.61-31.75-.56-42.58-4.67-7.79-2.95-19.43-9.15-31.94-8,21.11-7.29,37.54,1.87,51.36,1.87C238.5,142.22,248.78,142,255.5,139.41Z" style="fill:#fafdff"/></g></svg>