<svg xmlns="http://www.w3.org/2000/svg" viewBox="0 0 375 57.41"><title>poca-insta</title><g id="footer"><path d="M199.49,29c0,1.71,0,3.42,0,5.13a7,7,0,0,1-5.22,6.65,7,7,0,0,1-1.65.22c-3.41,0-6.83,0-10.24,0a6.69,6.69,0,0,1-4.26-1.52,6.91,6.91,0,0,1-2.54-4.39A7.56,7.56,0,0,1,175.5,34V24a7,7,0,0,1,7-7c3.38,0,6.76,0,10.15,0a6.66,6.66,0,0,1,4.14,1.46,6.93,6.93,0,0,1,2.56,4.12,7.43,7.43,0,0,1,.13,1.42v5Zm-12-10.15h-5a5.14,5.14,0,0,0-1.66.25,5.08,5.08,0,0,0-3.52,4.82c0,3.39,0,6.78,0,10.17a4.92,4.92,0,0,0,.23,1.48,5.1,5.1,0,0,0,4.88,3.58h9.94a4.35,4.35,0,0,0,.51,0,4.78,4.78,0,0,0,2.41-.81A5,5,0,0,0,197.64,34c0-3.34,0-6.67,0-10a5.76,5.76,0,0,0-.11-1.09,5.1,5.1,0,0,0-4.95-4Z" style="fill:#fff"/><path d="M194,29a6.46,6.46,0,1,1-6.36-6.46A6.49,6.49,0,0,1,194,29Zm-1.85,0a4.62,4.62,0,1,0-4.61,4.61A4.62,4.62,0,0,0,192.11,29Z" style="fill:#fff"/><path d="M194.88,20.7a.92.92,0,1,1-.92.91A.9.9,0,0,1,194.88,20.7Z" style="fill:#fff"/></g></svg>