
<svg id="レイヤー_5" data-name="レイヤー 5" xmlns="http://www.w3.org/2000/svg" viewBox="0 0 214.7 82.07">
	<g>
		<title>footer</title><path d="M202.66,71.92c-.3.06-.61.11-.92.15A26.78,26.78,0,0,1,181,66.51l-.39-.33A174.49,174.49,0,0,1,161.5,47.62c-2.52-2.85-5-5.79-7.29-8.81C153.11,37.39,152,36,151,34.5c-.82-1.06-1.66-2.12-2.51-3.17q-1.72-2.13-3.53-4.22A174.81,174.81,0,0,0,125.33,7.76c-.7-.59-1.41-1.18-2.13-1.76A26.07,26.07,0,0,0,119,3.42,26.73,26.73,0,0,0,82.41,17.71a14.56,14.56,0,0,1,.8-1.64A13.3,13.3,0,0,1,92.46,9.6l.22,0a26.55,26.55,0,0,1,23.48,7.8,173.92,173.92,0,0,1,17,16.69q4,4.48,7.67,9.25c.86,1.13,1.72,2.26,2.56,3.41s1.86,2.38,2.82,3.55c1.15,1.42,2.33,2.82,3.52,4.2a175.09,175.09,0,0,0,18.93,18.71q1.8,1.53,3.65,3a28,28,0,0,0,3.27,1.92,26.81,26.81,0,0,0,22.18.67A26.69,26.69,0,0,0,212,64.66,13.38,13.38,0,0,1,202.66,71.92Z" style="fill:#fff8eb"/><path d="M122.54,71.93c-.3.06-.61.11-.91.15a26.77,26.77,0,0,1-20.74-5.56l-.4-.33A176.23,176.23,0,0,1,81.38,47.64q-3.78-4.29-7.29-8.82C73,37.4,71.92,36,70.87,34.51c-.83-1.06-1.66-2.12-2.51-3.16-1.16-1.43-2.33-2.84-3.53-4.22A175.74,175.74,0,0,0,45.22,7.77L43.09,6A26.71,26.71,0,0,0,5.6,11.7a27,27,0,0,0-3.31,6,13.9,13.9,0,0,1,.8-1.65,13.32,13.32,0,0,1,9.25-6.47l.23,0a26.78,26.78,0,0,1,18.82,3.95,26.49,26.49,0,0,1,4.66,3.85,176.21,176.21,0,0,1,17,16.69q4,4.48,7.66,9.25c.87,1.13,1.72,2.26,2.56,3.41s1.87,2.38,2.82,3.55q1.72,2.13,3.53,4.2A175,175,0,0,0,88.54,73.18q1.8,1.53,3.65,3a28,28,0,0,0,3.27,1.92,26.74,26.74,0,0,0,36.38-13.44A13.39,13.39,0,0,1,122.54,71.93Z" style="fill:#fff8eb"/><path d="M27.28,81.34A26.67,26.67,0,0,0,48,71.48c.29-.36.58-.73.85-1.1a27,27,0,0,0,2.74-4.68,13.36,13.36,0,0,1-9,6.68c-.34.08-.69.13-1,.18-.89.13-1.78.22-2.66.26l-1.19,0h-.17l-1.12,0A39.91,39.91,0,0,1,8.71,60.56a27,27,0,0,1-4.1-5,26.52,26.52,0,0,1-3.24-7.4c-.1.39-.19.79-.28,1.2a26.74,26.74,0,0,0,26.19,32Z" style="fill:#fff8eb"/><path d="M187.42.8a26.62,26.62,0,0,0-20.71,9.86c-.29.36-.58.73-.85,1.1a26.41,26.41,0,0,0-2.74,4.68,13.36,13.36,0,0,1,9-6.68c.34-.08.69-.13,1-.18.89-.13,1.77-.22,2.66-.27l1.19,0h.16c.38,0,.75,0,1.12,0A39.91,39.91,0,0,1,206,21.58a27,27,0,0,1,4.1,5,26.52,26.52,0,0,1,3.24,7.4q.15-.59.27-1.2a26.19,26.19,0,0,0,.53-5.28A26.71,26.71,0,0,0,187.42.8Z" style="fill:#fff8eb"/>
		<animateTransform attributeType="xml" attributeName="transform" type="translate" values="0 0;200% 0" calcMode="linear" dur="5s" repeatCount="indefinite" />
	</g>
</svg>