<svg xmlns="http://www.w3.org/2000/svg" viewBox="0 0 631.73 355.09"><title>名称未設定-334</title><g id="レイヤー_8" data-name="レイヤー 8"><rect width="631.42" height="355.17" style="fill:#16151c"/><path d="M241.18,212.67c-.35.07-.69.13-1,.18a30.26,30.26,0,0,1-23.44-6.29l-.45-.38a196.05,196.05,0,0,1-21.59-21q-4.28-4.84-8.24-10c-1.24-1.61-2.45-3.23-3.65-4.87-.93-1.2-1.87-2.4-2.83-3.58q-2-2.42-4-4.77a196.52,196.52,0,0,0-22.17-21.87c-.79-.67-1.6-1.34-2.4-2a30.2,30.2,0,0,0-46.11,13.25,15.22,15.22,0,0,1,.91-1.86,15.06,15.06,0,0,1,10.45-7.32l.26,0A30.11,30.11,0,0,1,143.42,151a196.68,196.68,0,0,1,19.21,18.87q4.51,5.07,8.67,10.46,1.47,1.91,2.89,3.84c1,1.35,2.11,2.69,3.18,4q2,2.4,4,4.74a197.77,197.77,0,0,0,21.39,21.15q2,1.72,4.12,3.4a30,30,0,0,0,17.06,5.28,30.26,30.26,0,0,0,27.75-18.29A15.12,15.12,0,0,1,241.18,212.67Z" style="fill:#50dcfc"/><path d="M133.51,222.77a30.14,30.14,0,0,0,23.41-11.13c.33-.41.65-.83,1-1.25a31.05,31.05,0,0,0,3.1-5.29,15.17,15.17,0,0,1-10.13,7.56c-.39.08-.78.14-1.18.19a27.64,27.64,0,0,1-3,.3c-.44,0-.89,0-1.34,0h-.18c-.43,0-.85,0-1.27,0a45.1,45.1,0,0,1-31.35-13.87,30.38,30.38,0,0,1-4.63-5.66,29.74,29.74,0,0,1-3.66-8.37c-.12.45-.22.9-.31,1.36a30.21,30.21,0,0,0,29.59,36.15Z" style="fill:#522df2"/><path d="M496.6,132.3a30.09,30.09,0,0,0-23.41,11.14c-.33.41-.65.82-1,1.25a29.44,29.44,0,0,0-3.1,5.29,15.12,15.12,0,0,1,10.13-7.56c.38-.08.78-.14,1.18-.2,1-.15,2-.25,3-.3l1.35,0H485l1.26,0a45.09,45.09,0,0,1,31.35,13.87,30.18,30.18,0,0,1,8.3,14c.11-.44.22-.9.31-1.35a30.91,30.91,0,0,0,.59-6A30.19,30.19,0,0,0,496.6,132.3Z" style="fill:#522df2"/><path d="M422.6,212.67c-.34.07-.68.12-1,.17a30.22,30.22,0,0,1-23.44-6.29l-.45-.37a198,198,0,0,1-21.6-21q-4.27-4.83-8.23-10-1.86-2.4-3.65-4.87-1.4-1.8-2.84-3.58-2-2.42-4-4.77a198.12,198.12,0,0,0-22.16-21.87l-2.41-2a30.15,30.15,0,0,0-42.36,6.43,29.85,29.85,0,0,0-3.74,6.81,16,16,0,0,1,.91-1.86,15,15,0,0,1,10.45-7.31l.25-.05A30.05,30.05,0,0,1,324.85,151a197.68,197.68,0,0,1,19.21,18.86q4.5,5.07,8.66,10.46,1.47,1.9,2.9,3.85t3.18,4c1.31,1.6,2.63,3.19,4,4.75a196.76,196.76,0,0,0,21.39,21.14c1.35,1.15,2.73,2.29,4.12,3.4a29.62,29.62,0,0,0,3.7,2.17,30.24,30.24,0,0,0,41.11-15.18A15.13,15.13,0,0,1,422.6,212.67Z" style="fill:#f4427d"/><path d="M332.06,212.68c-.34.07-.69.12-1,.17a30.19,30.19,0,0,1-23.44-6.29l-.45-.37a197.89,197.89,0,0,1-21.59-21q-4.28-4.84-8.24-10-1.86-2.4-3.64-4.86c-.94-1.21-1.88-2.4-2.84-3.58q-2-2.43-4-4.77a196.61,196.61,0,0,0-22.17-21.88c-.79-.67-1.6-1.33-2.4-2a30.73,30.73,0,0,0-4.8-2.92,30.23,30.23,0,0,0-41.31,16.16,16,16,0,0,1,.91-1.86,15,15,0,0,1,10.45-7.31l.26,0A30,30,0,0,1,234.3,151a195.45,195.45,0,0,1,19.21,18.86q4.51,5.09,8.67,10.46,1.47,1.91,2.89,3.85c1,1.35,2.11,2.69,3.18,4,1.31,1.6,2.64,3.19,4,4.75a196.76,196.76,0,0,0,21.39,21.14c1.36,1.16,2.73,2.29,4.12,3.41a30.29,30.29,0,0,0,3.7,2.16,30.2,30.2,0,0,0,25.07.76,30.26,30.26,0,0,0,12.66-10,29.83,29.83,0,0,0,3.38-5.92A15.11,15.11,0,0,1,332.06,212.68Z" style="fill:#ffa400"/><path d="M513.82,212.66c-.34.07-.69.13-1,.17a30.22,30.22,0,0,1-23.44-6.28l-.45-.38a197.89,197.89,0,0,1-21.59-21q-4.28-4.85-8.24-10-1.86-2.4-3.64-4.86c-.94-1.21-1.88-2.4-2.84-3.58-1.31-1.61-2.64-3.21-4-4.77a197.46,197.46,0,0,0-22.17-21.88c-.79-.67-1.6-1.33-2.4-2a30.18,30.18,0,0,0-29.95-3.48,30.29,30.29,0,0,0-16.16,16.72,15.15,15.15,0,0,1,11.36-9.17l.26,0A30,30,0,0,1,416.06,151a197.73,197.73,0,0,1,19.21,18.86q4.51,5.08,8.67,10.46c1,1.27,1.94,2.56,2.89,3.85s2.11,2.69,3.19,4q2,2.41,4,4.75a197.77,197.77,0,0,0,21.39,21.15q2,1.72,4.12,3.4a30.29,30.29,0,0,0,3.7,2.16,30.25,30.25,0,0,0,25.07.77,30.36,30.36,0,0,0,12.66-10,29.83,29.83,0,0,0,3.38-5.92A15.11,15.11,0,0,1,513.82,212.66Z" style="fill:#a8e442"/></g></svg>