<svg xmlns="http://www.w3.org/2000/svg" xmlns:xlink="http://www.w3.org/1999/xlink" viewBox="0 0 631.73 355.09"><defs><clipPath id="clip-path"><rect x="13.49" y="49.61" width="608.98" height="255.95" style="fill:none"/></clipPath></defs><title>名称未設定-33</title><g id="レイヤー_8" data-name="レイヤー 8"><rect width="631.42" height="355.17" style="fill:#16151c"/><path d="M534.12,248.27c-.68.15-1.38.26-2.08.35A60.78,60.78,0,0,1,484.87,236c-.3-.24-.6-.5-.9-.75A397.14,397.14,0,0,1,440.52,193q-8.62-9.75-16.58-20.05-3.75-4.83-7.34-9.79-2.82-3.65-5.71-7.21-3.94-4.86-8-9.6a396.92,396.92,0,0,0-44.6-44c-1.6-1.35-3.22-2.69-4.84-4A60.77,60.77,0,0,0,260.64,125a32.05,32.05,0,0,1,1.82-3.73,30.27,30.27,0,0,1,21-14.72l.51-.09a60.88,60.88,0,0,1,42.81,9,59.5,59.5,0,0,1,10.58,8.75,395.82,395.82,0,0,1,38.67,38q9.07,10.22,17.43,21,3,3.84,5.83,7.74,3.15,4.08,6.4,8.08,3.94,4.83,8,9.55a395.7,395.7,0,0,0,43,42.55q4.09,3.48,8.29,6.85a61.34,61.34,0,0,0,7.44,4.36,60.8,60.8,0,0,0,82.73-30.55A30.39,30.39,0,0,1,534.12,248.27Z" style="fill:none;stroke:#ffe4ad;stroke-miterlimit:10;stroke-width:3px"/><path d="M351.91,248.3c-.68.14-1.38.25-2.08.35A60.86,60.86,0,0,1,302.66,236l-.9-.76a396.22,396.22,0,0,1-43.45-42.19q-8.62-9.74-16.58-20-3.75-4.84-7.34-9.8-2.82-3.63-5.71-7.21-3.94-4.86-8-9.59a397,397,0,0,0-44.6-44c-1.61-1.35-3.22-2.68-4.85-4A60.75,60.75,0,0,0,78.43,125a31.42,31.42,0,0,1,1.82-3.74,30.3,30.3,0,0,1,21-14.72l.51-.09a60.45,60.45,0,0,1,53.39,17.74,398.11,398.11,0,0,1,38.67,37.95q9.06,10.22,17.43,21.06,3,3.83,5.82,7.73,3.15,4.09,6.41,8.08,3.94,4.85,8,9.56a397.53,397.53,0,0,0,43,42.55q4.1,3.48,8.29,6.84a60.81,60.81,0,0,0,57.9,5.9,60.94,60.94,0,0,0,25.48-20.19,60,60,0,0,0,6.79-11.9A30.43,30.43,0,0,1,351.91,248.3Z" style="fill:none;stroke:#ffe4ad;stroke-miterlimit:10;stroke-width:3px"/><path d="M135.25,268.6a60.59,60.59,0,0,0,47.11-22.41c.66-.82,1.31-1.66,1.93-2.51A60.82,60.82,0,0,0,190.52,233a30.39,30.39,0,0,1-20.38,15.21c-.78.17-1.57.3-2.37.4a58.72,58.72,0,0,1-6.05.6c-.9,0-1.8.07-2.7.07h-.37c-.85,0-1.7,0-2.55-.06A90.84,90.84,0,0,1,93,221.34a60.88,60.88,0,0,1-16.69-28.22c-.23.9-.43,1.81-.62,2.72a60.79,60.79,0,0,0,59.55,72.76Z" style="fill:none;stroke:#ffe4ad;stroke-miterlimit:10;stroke-width:3px"/><path d="M499.47,86.54A60.62,60.62,0,0,0,452.36,109c-.67.82-1.31,1.66-1.93,2.51a61.19,61.19,0,0,0-6.23,10.65,30.39,30.39,0,0,1,20.38-15.21q1.17-.24,2.37-.39a58.74,58.74,0,0,1,6.05-.61c.9,0,1.8-.06,2.7-.07h.37c.85,0,1.7,0,2.55.07a90.83,90.83,0,0,1,63.09,27.91A61.4,61.4,0,0,1,551,145.18,60.42,60.42,0,0,1,558.4,162c.22-.91.43-1.81.62-2.73a60.79,60.79,0,0,0-59.55-72.76Z" style="fill:none;stroke:#ffe4ad;stroke-miterlimit:10;stroke-width:3px"/><g style="clip-path:url(#clip-path)"><circle cx="317.36" cy="147.13" r="60.74" style="fill:none;stroke:#f0c46e;stroke-miterlimit:10;stroke-width:0.5px;stroke-dasharray:2"/><circle cx="554.57" cy="-68.21" r="394.83" style="fill:none;stroke:#f0c46e;stroke-miterlimit:10;stroke-width:0.5px;stroke-dasharray:2"/><circle cx="317.36" cy="207.88" r="60.74" style="fill:none;stroke:#f0c46e;stroke-miterlimit:10;stroke-width:0.5px;stroke-dasharray:2"/><circle cx="345.68" cy="218.86" r="30.37" style="fill:none;stroke:#f0c46e;stroke-miterlimit:10;stroke-width:0.5px;stroke-dasharray:2"/><circle cx="341.09" cy="188.78" r="60.74" style="fill:none;stroke:#f0c46e;stroke-miterlimit:10;stroke-width:0.5px;stroke-dasharray:2"/><circle cx="289.04" cy="136.15" r="30.37" style="fill:none;stroke:#f0c46e;stroke-miterlimit:10;stroke-width:0.5px;stroke-dasharray:2"/><circle cx="293.63" cy="166.23" r="60.74" style="fill:none;stroke:#f0c46e;stroke-miterlimit:10;stroke-width:0.5px;stroke-dasharray:2"/><circle cx="-77.79" cy="404.36" r="394.83" style="fill:none;stroke:#f0c46e;stroke-miterlimit:10;stroke-width:0.5px;stroke-dasharray:2"/><circle cx="-101.12" cy="424.42" r="394.83" style="fill:none;stroke:#f0c46e;stroke-miterlimit:10;stroke-width:0.5px;stroke-dasharray:2"/><circle cx="531.01" cy="-49.15" r="394.83" style="fill:none;stroke:#f0c46e;stroke-miterlimit:10;stroke-width:0.5px;stroke-dasharray:2"/><circle cx="736.8" cy="-68.22" r="394.83" style="fill:none;stroke:#f0c46e;stroke-miterlimit:10;stroke-width:0.5px;stroke-dasharray:2"/><circle cx="104.44" cy="404.36" r="394.83" style="fill:none;stroke:#f0c46e;stroke-miterlimit:10;stroke-width:0.5px;stroke-dasharray:2"/><circle cx="81.11" cy="424.41" r="394.83" style="fill:none;stroke:#f0c46e;stroke-miterlimit:10;stroke-width:0.5px;stroke-dasharray:2"/><circle cx="713.24" cy="-49.16" r="394.83" style="fill:none;stroke:#f0c46e;stroke-miterlimit:10;stroke-width:0.5px;stroke-dasharray:2"/><circle cx="499.59" cy="147.13" r="60.74" style="fill:none;stroke:#f0c46e;stroke-miterlimit:10;stroke-width:0.5px;stroke-dasharray:2"/><circle cx="499.59" cy="207.87" r="60.74" style="fill:none;stroke:#f0c46e;stroke-miterlimit:10;stroke-width:0.5px;stroke-dasharray:2"/><circle cx="527.91" cy="218.85" r="30.37" style="fill:none;stroke:#f0c46e;stroke-miterlimit:10;stroke-width:0.5px;stroke-dasharray:2"/><circle cx="523.32" cy="188.77" r="60.74" style="fill:none;stroke:#f0c46e;stroke-miterlimit:10;stroke-width:0.5px;stroke-dasharray:2"/><circle cx="471.27" cy="136.14" r="30.37" style="fill:none;stroke:#f0c46e;stroke-miterlimit:10;stroke-width:0.5px;stroke-dasharray:2"/><circle cx="135.13" cy="147.13" r="60.74" style="fill:none;stroke:#f0c46e;stroke-miterlimit:10;stroke-width:0.5px;stroke-dasharray:2"/><circle cx="135.13" cy="207.88" r="60.74" style="fill:none;stroke:#f0c46e;stroke-miterlimit:10;stroke-width:0.5px;stroke-dasharray:2"/><circle cx="163.45" cy="218.86" r="30.37" style="fill:none;stroke:#f0c46e;stroke-miterlimit:10;stroke-width:0.5px;stroke-dasharray:2"/><circle cx="106.81" cy="136.15" r="30.37" style="fill:none;stroke:#f0c46e;stroke-miterlimit:10;stroke-width:0.5px;stroke-dasharray:2"/><circle cx="111.4" cy="166.23" r="60.74" style="fill:none;stroke:#f0c46e;stroke-miterlimit:10;stroke-width:0.5px;stroke-dasharray:2"/><circle cx="499.59" cy="177.51" r="60.74" style="fill:none;stroke:#f0c46e;stroke-miterlimit:10;stroke-width:0.5px;stroke-dasharray:2"/><circle cx="158.58" cy="158.13" r="91.11" style="fill:none;stroke:#f0c46e;stroke-miterlimit:10;stroke-width:0.5px;stroke-dasharray:2"/><circle cx="135.13" cy="177.52" r="60.74" style="fill:none;stroke:#f0c46e;stroke-miterlimit:10;stroke-width:0.5px;stroke-dasharray:2"/><circle cx="475.86" cy="196.58" r="91.11" style="fill:none;stroke:#f0c46e;stroke-miterlimit:10;stroke-width:0.5px;stroke-dasharray:2"/></g></g></svg>