<svg xmlns="http://www.w3.org/2000/svg" viewBox="0 0 840.86 49.55"><title>identity</title>
<g id="identity" data-name="identity">
	<path d="M123.57,44a5,5,0,0,1-.56.09,16.5,16.5,0,0,1-12.8-3.43l-.25-.21A108,108,0,0,1,98.17,29q-2.34-2.64-4.5-5.44c-.68-.87-1.34-1.76-2-2.65-.51-.66-1-1.31-1.55-2-.71-.88-1.44-1.75-2.18-2.6A107.52,107.52,0,0,0,75.85,4.41L74.53,3.32a16.1,16.1,0,0,0-2.61-1.59,16.5,16.5,0,0,0-22.56,8.82,8.52,8.52,0,0,1,.49-1,8.17,8.17,0,0,1,5.71-4l.14,0A16.54,16.54,0,0,1,67.32,8a16.89,16.89,0,0,1,2.87,2.37,109.69,109.69,0,0,1,10.49,10.3q2.46,2.78,4.73,5.72c.54.69,1.06,1.39,1.58,2.1s1.15,1.47,1.74,2.19c.71.88,1.44,1.74,2.18,2.59a108,108,0,0,0,11.68,11.55q1.11.94,2.25,1.86a16.92,16.92,0,0,0,2,1.18,16.4,16.4,0,0,0,7.3,1.7,16.41,16.41,0,0,0,13.31-6.76,16.34,16.34,0,0,0,1.84-3.23A8.27,8.27,0,0,1,123.57,44Z"/><path d="M173,44l-.57.1a16.51,16.51,0,0,1-12.8-3.44l-.24-.2A107.16,107.16,0,0,1,147.62,29c-1.56-1.76-3.06-3.58-4.5-5.44-.68-.87-1.34-1.76-2-2.66-.51-.66-1-1.31-1.55-1.95-.72-.88-1.44-1.75-2.18-2.61A106.69,106.69,0,0,0,125.29,4.41c-.43-.37-.87-.73-1.31-1.09a16.19,16.19,0,0,0-2.62-1.59A16.48,16.48,0,0,0,98.8,10.55a8.61,8.61,0,0,1,.5-1,8.22,8.22,0,0,1,5.71-4l.14,0a16.49,16.49,0,0,1,14.49,4.81,108.5,108.5,0,0,1,10.49,10.3c1.64,1.85,3.22,3.76,4.73,5.71l1.58,2.1c.57.74,1.15,1.47,1.74,2.2s1.44,1.74,2.18,2.59A107.05,107.05,0,0,0,152,44.78c.74.63,1.49,1.24,2.25,1.85a16.32,16.32,0,0,0,9.31,2.89,16.46,16.46,0,0,0,13.31-6.76,16.9,16.9,0,0,0,1.85-3.23A8.26,8.26,0,0,1,173,44Z"/><path d="M222.47,44l-.57.09a16.51,16.51,0,0,1-12.8-3.43l-.24-.21A108.14,108.14,0,0,1,197.06,29q-2.33-2.64-4.49-5.44c-.68-.87-1.35-1.76-2-2.65-.5-.66-1-1.31-1.54-2-.72-.88-1.44-1.75-2.18-2.6a108.45,108.45,0,0,0-12.11-12c-.43-.37-.87-.73-1.31-1.09a16.63,16.63,0,0,0-2.62-1.59,16.5,16.5,0,0,0-22.56,8.82,7.28,7.28,0,0,1,.5-1,8.16,8.16,0,0,1,5.7-4l.14,0a16.43,16.43,0,0,1,14.49,4.81,108.54,108.54,0,0,1,10.49,10.3c1.65,1.85,3.22,3.76,4.74,5.72.53.69,1.06,1.39,1.58,2.1s1.15,1.47,1.73,2.19c.72.88,1.44,1.74,2.18,2.59a108.87,108.87,0,0,0,11.68,11.55q1.11.94,2.25,1.86a17.74,17.74,0,0,0,2,1.18,16.49,16.49,0,0,0,22.45-8.29A8.25,8.25,0,0,1,222.47,44Z"/><path d="M271.91,44l-.56.1a16.51,16.51,0,0,1-12.8-3.44l-.25-.2A108,108,0,0,1,246.51,29c-1.56-1.76-3.06-3.58-4.5-5.44-.67-.87-1.34-1.76-2-2.66-.51-.66-1-1.31-1.55-1.95-.71-.88-1.44-1.75-2.18-2.61A107.43,107.43,0,0,0,224.19,4.4c-.44-.37-.87-.73-1.32-1.09a16.1,16.1,0,0,0-2.61-1.59,16.48,16.48,0,0,0-22.56,8.82,8.52,8.52,0,0,1,.49-1,8.24,8.24,0,0,1,5.71-4l.14,0a16.43,16.43,0,0,1,14.49,4.81A107.37,107.37,0,0,1,229,20.62c1.64,1.85,3.22,3.76,4.73,5.71.54.7,1.06,1.4,1.58,2.1s1.15,1.47,1.74,2.2,1.44,1.74,2.18,2.59a108,108,0,0,0,11.68,11.55c.74.63,1.49,1.24,2.25,1.85a17,17,0,0,0,2,1.19,16.49,16.49,0,0,0,22.45-8.29A8.24,8.24,0,0,1,271.91,44Z"/><path d="M321.36,44c-.19,0-.37.07-.56.09A16.48,16.48,0,0,1,308,40.65l-.25-.21A107.16,107.16,0,0,1,296,29q-2.34-2.64-4.5-5.44c-.68-.87-1.34-1.76-2-2.65-.51-.66-1-1.31-1.55-2-.71-.88-1.44-1.75-2.18-2.6a107.52,107.52,0,0,0-12.1-11.95L272.32,3.3a16.19,16.19,0,0,0-2.62-1.59,16.54,16.54,0,0,0-22.56,8.82,8.61,8.61,0,0,1,.5-1,8.17,8.17,0,0,1,5.71-4l.14,0A16.49,16.49,0,0,1,268,10.31a110.87,110.87,0,0,1,10.49,10.3q2.46,2.78,4.73,5.72c.53.69,1.06,1.39,1.58,2.1s1.15,1.47,1.74,2.19c.71.88,1.44,1.74,2.18,2.59a108,108,0,0,0,11.68,11.55q1.11.95,2.25,1.86a16.16,16.16,0,0,0,2,1.18,16.36,16.36,0,0,0,7.29,1.7,16.38,16.38,0,0,0,13.31-6.76,16.9,16.9,0,0,0,1.85-3.23A8.27,8.27,0,0,1,321.36,44Z"/><path d="M370.81,44l-.57.1a16.51,16.51,0,0,1-12.8-3.44l-.24-.2A107.16,107.16,0,0,1,345.41,29c-1.56-1.76-3.06-3.58-4.5-5.44-.68-.87-1.34-1.76-2-2.66-.51-.66-1-1.31-1.55-1.95-.72-.88-1.44-1.75-2.18-2.61A107.52,107.52,0,0,0,323.08,4.39c-.43-.37-.87-.73-1.31-1.09a16.63,16.63,0,0,0-2.62-1.59,16.48,16.48,0,0,0-22.56,8.82,8.61,8.61,0,0,1,.5-1,8.2,8.2,0,0,1,5.7-4l.14,0a16.49,16.49,0,0,1,11.62,2.44,16.07,16.07,0,0,1,2.87,2.37,107.47,107.47,0,0,1,10.5,10.3c1.64,1.85,3.21,3.76,4.73,5.71l1.58,2.1c.57.74,1.15,1.47,1.74,2.2s1.43,1.74,2.17,2.59a108.87,108.87,0,0,0,11.68,11.55c.75.63,1.5,1.24,2.25,1.85a17.82,17.82,0,0,0,2,1.19,16.49,16.49,0,0,0,22.45-8.29A8.22,8.22,0,0,1,370.81,44Z"/><path d="M420.25,44c-.18,0-.37.07-.56.09a16.51,16.51,0,0,1-12.8-3.43l-.24-.21A107.25,107.25,0,0,1,394.85,29q-2.34-2.64-4.5-5.44c-.67-.87-1.34-1.76-2-2.65-.51-.66-1-1.31-1.55-2-.71-.88-1.44-1.75-2.18-2.6a107.52,107.52,0,0,0-12.1-11.95c-.43-.37-.87-.73-1.31-1.09A16.63,16.63,0,0,0,368.6,1.7,16.5,16.5,0,0,0,346,10.52a8.52,8.52,0,0,1,.49-1,8.2,8.2,0,0,1,5.71-4l.14,0a16.43,16.43,0,0,1,14.49,4.81,109.69,109.69,0,0,1,10.49,10.3q2.46,2.77,4.73,5.72c.54.69,1.07,1.39,1.58,2.1s1.15,1.47,1.74,2.19c.72.88,1.44,1.74,2.18,2.59a108,108,0,0,0,11.68,11.55q1.11.95,2.25,1.86a16.92,16.92,0,0,0,2,1.18A16.49,16.49,0,0,0,426,39.5,8.25,8.25,0,0,1,420.25,44Z"/><path d="M469.7,44l-.56.1a16.49,16.49,0,0,1-12.8-3.44,2.43,2.43,0,0,1-.25-.2A108,108,0,0,1,444.3,29c-1.56-1.76-3.06-3.58-4.5-5.44-.68-.87-1.34-1.76-2-2.66-.51-.66-1-1.31-1.55-1.95-.71-.88-1.44-1.75-2.18-2.61A107.43,107.43,0,0,0,422,4.38l-1.32-1.09A16.19,16.19,0,0,0,418,1.7a16.48,16.48,0,0,0-20.51,5.1,16.2,16.2,0,0,0-2,3.72,8.52,8.52,0,0,1,.49-1,8.22,8.22,0,0,1,5.71-4l.14,0a16.45,16.45,0,0,1,11.61,2.44,16.13,16.13,0,0,1,2.88,2.37,108.5,108.5,0,0,1,10.49,10.3c1.64,1.85,3.22,3.76,4.73,5.71.54.7,1.06,1.4,1.58,2.1s1.15,1.47,1.74,2.2,1.44,1.74,2.18,2.59a108,108,0,0,0,11.68,11.55c.74.63,1.49,1.24,2.25,1.85a17,17,0,0,0,2,1.19,16.52,16.52,0,0,0,22.45-8.29A8.26,8.26,0,0,1,469.7,44Z"/><path d="M519.15,44l-.57.09a16.51,16.51,0,0,1-12.8-3.43l-.24-.21A107.16,107.16,0,0,1,493.75,29q-2.34-2.64-4.5-5.44c-.68-.87-1.34-1.76-2-2.65-.51-.66-1-1.31-1.55-2-.72-.88-1.44-1.75-2.18-2.6A107.61,107.61,0,0,0,471.42,4.37c-.43-.37-.87-.73-1.31-1.09a16.19,16.19,0,0,0-2.62-1.59,16.5,16.5,0,0,0-22.56,8.82,8.61,8.61,0,0,1,.5-1,8.17,8.17,0,0,1,5.71-4l.13,0a16.43,16.43,0,0,1,14.49,4.81,109.8,109.8,0,0,1,10.5,10.3q2.46,2.78,4.73,5.72c.53.69,1.06,1.39,1.58,2.1s1.15,1.47,1.74,2.19c.71.88,1.44,1.74,2.17,2.59a108,108,0,0,0,11.69,11.55q1.11.94,2.25,1.86a16.16,16.16,0,0,0,2,1.18,16.36,16.36,0,0,0,7.29,1.7A16.38,16.38,0,0,0,523,42.72a16.9,16.9,0,0,0,1.85-3.23A8.27,8.27,0,0,1,519.15,44Z"/><path d="M568.6,44l-.57.1a16.51,16.51,0,0,1-12.8-3.44l-.24-.2A108.14,108.14,0,0,1,543.19,29c-1.55-1.76-3.05-3.58-4.5-5.44-.67-.87-1.34-1.76-2-2.66-.51-.66-1-1.31-1.55-1.95-.71-.88-1.44-1.75-2.18-2.61a107.43,107.43,0,0,0-12.1-11.94c-.43-.37-.87-.73-1.31-1.09a16.63,16.63,0,0,0-2.62-1.59,16.48,16.48,0,0,0-22.56,8.82,8.52,8.52,0,0,1,.49-1,8.24,8.24,0,0,1,5.71-4l.14,0a16.49,16.49,0,0,1,11.62,2.44,16.07,16.07,0,0,1,2.87,2.37,106.26,106.26,0,0,1,10.49,10.3c1.65,1.85,3.22,3.76,4.73,5.71q.81,1.05,1.59,2.1c.57.74,1.15,1.47,1.73,2.2s1.44,1.74,2.18,2.59a108.87,108.87,0,0,0,11.68,11.55c.74.63,1.49,1.24,2.25,1.85a17,17,0,0,0,2,1.19,16.49,16.49,0,0,0,22.45-8.29A8.24,8.24,0,0,1,568.6,44Z"/><path d="M618,44c-.18,0-.37.07-.56.09a16.5,16.5,0,0,1-12.8-3.43l-.25-.21A108,108,0,0,1,592.64,29q-2.34-2.64-4.5-5.44c-.68-.87-1.34-1.76-2-2.65-.51-.66-1-1.31-1.55-2-.71-.88-1.44-1.75-2.18-2.6a107.52,107.52,0,0,0-12.1-11.95L569,3.27a16.1,16.1,0,0,0-2.61-1.59,16.5,16.5,0,0,0-22.56,8.82,8.52,8.52,0,0,1,.49-1,8.17,8.17,0,0,1,5.71-4l.14,0a16.54,16.54,0,0,1,11.62,2.44,16.89,16.89,0,0,1,2.87,2.37,109.69,109.69,0,0,1,10.49,10.3q2.46,2.78,4.73,5.72c.54.69,1.06,1.39,1.58,2.1s1.15,1.47,1.74,2.19c.71.88,1.44,1.74,2.18,2.59a108,108,0,0,0,11.68,11.55q1.11.95,2.25,1.86a16.92,16.92,0,0,0,2,1.18,16.4,16.4,0,0,0,7.3,1.7,16.41,16.41,0,0,0,13.31-6.76,16.34,16.34,0,0,0,1.84-3.23A8.27,8.27,0,0,1,618,44Z"/><path d="M667.49,44l-.56.1a16.52,16.52,0,0,1-12.81-3.44l-.24-.2A107.16,107.16,0,0,1,642.09,29c-1.56-1.76-3.06-3.58-4.5-5.44-.68-.87-1.34-1.76-2-2.66-.51-.66-1-1.31-1.55-1.95-.71-.88-1.44-1.75-2.18-2.61a107.43,107.43,0,0,0-12.1-11.94l-1.32-1.09a16.19,16.19,0,0,0-2.62-1.59,16.48,16.48,0,0,0-22.56,8.82,8.61,8.61,0,0,1,.5-1,8.22,8.22,0,0,1,5.71-4l.14,0a16.49,16.49,0,0,1,14.49,4.81,108.5,108.5,0,0,1,10.49,10.3c1.64,1.85,3.22,3.76,4.73,5.71l1.58,2.1c.57.74,1.15,1.47,1.74,2.2s1.44,1.74,2.18,2.59a107.05,107.05,0,0,0,11.68,11.55c.74.63,1.49,1.24,2.25,1.85a16.32,16.32,0,0,0,9.31,2.89,16.46,16.46,0,0,0,13.31-6.76,16.9,16.9,0,0,0,1.85-3.23A8.26,8.26,0,0,1,667.49,44Z"/><path d="M716.94,44l-.57.09a16.51,16.51,0,0,1-12.8-3.43l-.24-.21A108.14,108.14,0,0,1,691.53,29q-2.32-2.64-4.49-5.44c-.68-.87-1.35-1.76-2-2.65-.5-.66-1-1.31-1.54-2-.72-.88-1.44-1.75-2.18-2.6a108.45,108.45,0,0,0-12.11-12c-.43-.37-.87-.73-1.31-1.09a16.63,16.63,0,0,0-2.62-1.59,16.5,16.5,0,0,0-22.56,8.82,7.28,7.28,0,0,1,.5-1,8.16,8.16,0,0,1,5.7-4l.14,0a16.43,16.43,0,0,1,14.49,4.81A108.54,108.54,0,0,1,674,20.57c1.65,1.85,3.22,3.76,4.74,5.72.53.69,1.06,1.39,1.58,2.1s1.15,1.47,1.74,2.19c.71.88,1.43,1.74,2.17,2.59A108.87,108.87,0,0,0,696,44.72c.74.63,1.5,1.25,2.25,1.86a17.74,17.74,0,0,0,2,1.18,16.49,16.49,0,0,0,22.45-8.29A8.25,8.25,0,0,1,716.94,44Z"/><path d="M766.38,43.94l-.56.1A16.51,16.51,0,0,1,753,40.6l-.25-.2A108,108,0,0,1,741,29c-1.56-1.76-3.06-3.58-4.5-5.44-.67-.87-1.34-1.76-2-2.66-.51-.66-1-1.31-1.55-2-.71-.88-1.44-1.75-2.18-2.61a107.43,107.43,0,0,0-12.1-11.94c-.44-.37-.87-.73-1.32-1.09a16.1,16.1,0,0,0-2.61-1.59,16.48,16.48,0,0,0-22.56,8.82,8.52,8.52,0,0,1,.49-1,8.24,8.24,0,0,1,5.71-4l.14,0A16.43,16.43,0,0,1,713,10.27a107.37,107.37,0,0,1,10.49,10.3c1.64,1.85,3.22,3.76,4.73,5.71.54.7,1.07,1.4,1.58,2.1s1.15,1.47,1.74,2.2,1.44,1.74,2.18,2.59A108,108,0,0,0,745.4,44.72c.74.63,1.49,1.24,2.25,1.85a17,17,0,0,0,2,1.19,16.49,16.49,0,0,0,22.45-8.29A8.24,8.24,0,0,1,766.38,43.94Z"/><path d="M815.83,43.94c-.18,0-.37.07-.56.09a16.48,16.48,0,0,1-12.8-3.43l-.25-.21a107.16,107.16,0,0,1-11.79-11.45q-2.34-2.64-4.5-5.44c-.68-.87-1.34-1.76-2-2.65-.51-.66-1-1.31-1.55-2-.71-.88-1.44-1.75-2.18-2.6a107.52,107.52,0,0,0-12.1-11.95l-1.32-1.09a16.19,16.19,0,0,0-2.62-1.59,16.54,16.54,0,0,0-22.56,8.82,10.52,10.52,0,0,1,.5-1,8.17,8.17,0,0,1,5.71-4l.14,0a16.49,16.49,0,0,1,14.49,4.81,110.87,110.87,0,0,1,10.49,10.3q2.46,2.78,4.73,5.72c.54.69,1.06,1.39,1.58,2.1s1.15,1.47,1.74,2.19c.71.88,1.44,1.74,2.18,2.59a108,108,0,0,0,11.68,11.55q1.11.95,2.25,1.86a16.16,16.16,0,0,0,2,1.18,16.36,16.36,0,0,0,7.29,1.7,16.38,16.38,0,0,0,13.31-6.76,16.38,16.38,0,0,0,1.85-3.23A8.27,8.27,0,0,1,815.83,43.94Z"/><path d="M865.28,43.93l-.57.1a16.51,16.51,0,0,1-12.8-3.44l-.24-.2a107.16,107.16,0,0,1-11.79-11.45c-1.56-1.76-3.06-3.58-4.5-5.44-.68-.87-1.34-1.76-2-2.66-.51-.66-1-1.31-1.55-1.95-.72-.88-1.44-1.75-2.18-2.61A107.52,107.52,0,0,0,817.55,4.34c-.43-.37-.87-.73-1.31-1.09a16.63,16.63,0,0,0-2.62-1.59,16.48,16.48,0,0,0-22.56,8.82,8.61,8.61,0,0,1,.5-1,8.2,8.2,0,0,1,5.7-4l.14,0A16.49,16.49,0,0,1,809,7.89a16.07,16.07,0,0,1,2.87,2.37,107.47,107.47,0,0,1,10.5,10.3c1.64,1.85,3.21,3.76,4.73,5.71l1.58,2.1c.57.74,1.15,1.47,1.74,2.2s1.43,1.74,2.17,2.59a108.87,108.87,0,0,0,11.68,11.55c.75.63,1.5,1.24,2.25,1.85a17.82,17.82,0,0,0,2,1.19,16.48,16.48,0,0,0,20.61-5.06A16.9,16.9,0,0,0,871,39.46,8.26,8.26,0,0,1,865.28,43.93Z"/><path d="M24.32,44l-.56.1A16.49,16.49,0,0,1,11,40.67a2.43,2.43,0,0,1-.25-.2A107.16,107.16,0,0,1-1.08,29c-1.56-1.76-3.06-3.58-4.5-5.44-.68-.87-1.34-1.76-2-2.66-.51-.66-1-1.31-1.55-2-.71-.88-1.44-1.75-2.18-2.61A107.43,107.43,0,0,0-23.4,4.42l-1.32-1.09a16.19,16.19,0,0,0-2.62-1.59A16.38,16.38,0,0,0-34.54.08a16.33,16.33,0,0,0-6.53,1.35,16.43,16.43,0,0,0-6.78,5.41,16.2,16.2,0,0,0-2,3.72,8.52,8.52,0,0,1,.49-1,8.22,8.22,0,0,1,5.71-4l.14,0A16.45,16.45,0,0,1-31.94,8a16.13,16.13,0,0,1,2.88,2.37,108.5,108.5,0,0,1,10.49,10.3c1.64,1.85,3.22,3.76,4.73,5.71.54.7,1.06,1.4,1.58,2.1s1.15,1.47,1.74,2.2,1.44,1.74,2.18,2.59A108,108,0,0,0,3.34,44.79c.74.63,1.49,1.24,2.25,1.85a16.32,16.32,0,0,0,9.31,2.89,16.55,16.55,0,0,0,15.16-10A8.26,8.26,0,0,1,24.32,44Z"/><path d="M74.13,44l-.56.1a16.51,16.51,0,0,1-12.8-3.44l-.25-.2A108,108,0,0,1,48.73,29c-1.56-1.76-3.06-3.58-4.5-5.44-.67-.87-1.34-1.76-2-2.66-.51-.66-1-1.31-1.55-2-.71-.88-1.44-1.75-2.18-2.61A107.43,107.43,0,0,0,26.41,4.42c-.44-.37-.87-.73-1.32-1.09a16.1,16.1,0,0,0-2.61-1.59A16.48,16.48,0,0,0-.08,10.56a8.52,8.52,0,0,1,.49-1,8.24,8.24,0,0,1,5.71-4l.14,0A16.49,16.49,0,0,1,17.88,8a16.07,16.07,0,0,1,2.87,2.37,107.37,107.37,0,0,1,10.49,10.3c1.64,1.85,3.22,3.76,4.73,5.71.54.7,1.07,1.4,1.58,2.1s1.15,1.47,1.74,2.2,1.44,1.74,2.18,2.59A108,108,0,0,0,53.15,44.79c.74.63,1.49,1.24,2.25,1.85a17,17,0,0,0,2,1.19,16.49,16.49,0,0,0,22.45-8.29A8.24,8.24,0,0,1,74.13,44Z"/>
</g>
</svg>