<svg id="レイヤー_1" data-name="レイヤー 1" xmlns="http://www.w3.org/2000/svg" viewBox="0 0 1690.84 193.68"><defs><style>.cls-1{fill:#7a3a18;}</style></defs><title>name-brown</title><path class="cls-1" d="M179.88,110.57c-3.82,10.13-9.8,18.76-16.27,27.06-13.12,16.61-39,40.84-60.6,23.08-11.45-9.13-12-25.9-16.43-38.85-2.16-6.31-5.48-12-12.29-14.27-6.47-2.33-13.44-1.66-20.08.16l-3.16,4.65a3.89,3.89,0,0,1-1.49,1.33l-.17.16c-2.66,7.31-5.64,14.61-8.47,22.08-3.48,8.8-6.64,17.77-12.28,25.74a3.2,3.2,0,0,1-5.81-2.49C24,149.59,27.64,141,31,132.16c2.83-7.64,5.65-15,8.64-22.25Q47.07,90.23,55,70.56L64.17,47C65.83,43.34,69,35.7,66.32,31.88c-1.66-2.16-5.47-.5-7.13.33A71.59,71.59,0,0,0,50.39,36,93,93,0,0,0,33.12,47.16,97.73,97.73,0,0,0,7.22,80c-1.82,3.32-6.31.33-5-3A101.66,101.66,0,0,1,33.79,36.7a109,109,0,0,1,19.92-12c6.64-2.82,15.27-5.81,20.42,1.5C78,31.38,77.28,38.69,75.62,44.5,73.46,53,69.48,61.1,66.49,69.4c-3.15,8.14-6.31,16.11-9.3,24.24C62.67,88,69,83.35,75.46,78.87c22.24-15.61,46.81-28.06,71.88-38.19A336.22,336.22,0,0,1,187,27.57c11.12-3.16,24.57-6,33.7,3.15,3,3-1,7.47-4.48,5.81-11.13-5.48-26.07.5-37.19,3.65A375.42,375.42,0,0,0,108.66,68.9c-11,5.81-21.58,12.29-32,19.1a127.3,127.3,0,0,0-13,10.12,40.3,40.3,0,0,1,11,.34A28.07,28.07,0,0,1,93.72,113.4c3,6.14,4.81,12.95,6.64,19.59,1.82,6,3.32,12.78,7.47,17.59,7,8.14,16.6,6,24.9,1.17,9.8-6,17.93-14.95,25.23-23.91,5.15-6.64,10.63-13,15.28-20.09C175.4,104.6,181.37,106.42,179.88,110.57Z" transform="translate(-2)"/><path class="cls-1" d="M273.52,113.23c-7,7.64-16.77,12.12-26.73,14.94a91.38,91.38,0,0,1-31.38,3.49l-9.63-1.16c-4.15,6.47-10.12,12.28-17.26,14.44-8.3,2.66-17.93-.5-19.59-9.8-.83-4.64.16-9.79,1.33-14.27a53.38,53.38,0,0,1,3.15-9.13,19.11,19.11,0,0,1-1-7.64c.5-9.63,8.64-14.94,17.6-15.61,8.14-.49,20.42,2,23.08,10.8,1.33,4.64.33,10.12-.67,14.6a49.14,49.14,0,0,1-2,7.14A94.46,94.46,0,0,0,231,121c13.78-1.66,25.73-7.47,37.68-14.11C272.85,104.6,276.67,109.91,273.52,113.23Zm-77.37,15.11c-6.8-1.83-13.28-4.82-17.76-9.13a24.13,24.13,0,0,0-.83,3.65c-.83,3.49-2.32,9.13,0,12.45,3.65,5.48,12.62-.66,15.77-3.82A24.87,24.87,0,0,0,196.15,128.34ZM191,115.55a65.8,65.8,0,0,0,10.12,3.82c.67-1.66,1.17-3.32,1.66-5,.84-3.32,1.83-7.47,1.33-11-.33-3.32-3.65-3.82-6.47-4.49-4.32-.83-11.46-1.33-14.28,2.83C179.72,107.42,186.53,113.23,191,115.55Z" transform="translate(-2)"/><path class="cls-1" d="M402.68,115.89c-7.47,5.31-15.44,10.12-23.24,14.77-8.63,5.31-17.93,10.63-28.06,12.29-8,1.33-19.59.66-24.73-7-4.15-6-2.16-13.61.66-19.75,2-4.48,6.14-10.29,6.64-14.44,0-.34-.17-2.16,0-1.5V100a5.85,5.85,0,0,0-1.83-1.49c-1.32-.84-1.49-1-2.82-1-4,.16-8.63,2-12.78,4.15a127.28,127.28,0,0,0-16.77,11.12c-10.29,8-18.92,17.1-28.06,26.07l-.33,3c-.33,3-2.32,5.64-5.81,5.64-2.82,0-6.14-2.66-5.81-5.64A331.24,331.24,0,0,1,276,72.22c5.81-17.1,12.78-34.69,25.07-48,5.81-6.31,13.94-12.79,22.58-14.61,9.13-2,20.09,4,18.09,14.61-.83,4.48-3.15,9-5,13.11A134.11,134.11,0,0,1,330,50.14a197.06,197.06,0,0,1-16.44,23.91,215.55,215.55,0,0,1-36.86,37c-1.16,5.31-2.15,10.63-3.15,15.94l5.31-6a234.65,234.65,0,0,1,18.76-17.59c8.64-7,20.09-15.78,31.71-15.94a15.85,15.85,0,0,1,12.95,6.31c3.82,5.31,2.16,11.45-.33,16.76-2.33,5.15-6.14,10.13-7,15.78-1,7.8,11.95,6.64,16.93,5.47,16.93-4.31,30.21-17.26,45.49-25.06C403.51,103.6,408.16,111.9,402.68,115.89ZM283.15,87.17l-3,10.12a295.12,295.12,0,0,0,26.73-30.54,205.14,205.14,0,0,0,13.78-21.42c2.16-3.82,4.15-8,6-11.95,1.49-3.32,3.48-7,4.15-10.46.49-3-3.32-2.49-5.32-2-3.48,1-6.8,3.15-9.79,5.31A57.1,57.1,0,0,0,301.91,42C293.28,55.79,288,71.56,283.15,87.17Z" transform="translate(-2)"/><path class="cls-1" d="M496.49,110.41c-2.49,4.81-7.64,8.3-11.79,11.45a223.82,223.82,0,0,1-19.26,13.78c-11.79,7.81-25.07,15.61-39.35,16.6-15.1,1.17-28.88-9.46-29-25.23-.16-6,1.83-12,4-17.6a48.51,48.51,0,0,1,9.46-14.94c7.14-7.14,19.76-11.79,28.89-5.31,9.62,7,4,19.42-4.32,24.73a24.38,24.38,0,0,1-24.07.5,31,31,0,0,0-2.66,11.46,15.17,15.17,0,0,0,3.16,9.13,8.28,8.28,0,0,0,1.82,2c0,.17.5.66.83.83.17,0,.67.5.83.5a7,7,0,0,0,1.5.83.51.51,0,0,0,.33.16.16.16,0,0,0,.16.17,21.21,21.21,0,0,0,3,.83c.33,0,.67.17,1,.17.5,0,1,.16,1.49.16a29.11,29.11,0,0,0,3.65-.16,8.08,8.08,0,0,0,2.83-.34l3.65-.66c2.66-.66,5.31-1.49,7.8-2.32,11.13-3.82,21.25-10,30.88-16.44l12.78-9c2.83-2.16,5.65-4.49,9.14-5.48A2.88,2.88,0,0,1,496.49,110.41Zm-77.7-10c-2.82,2.82-3.49,4.48-5.15,8.3,8,2.82,17.44,2.49,21.92-5,2.65-4.48,1-8.47-4.32-8.8C426.59,94.64,421.94,97.29,418.79,100.45Z" transform="translate(-2)"/><path class="cls-1" d="M560.07,134.15c-10.46,4.48-21.08,8.8-32.2,11.45-9,2.16-18.6,3.66-27.73,1.66-10-2.32-18.26-10.62-17.1-21.41a32.56,32.56,0,0,1,6.48-16.11c2.82-3.81,7.13-9.62,12.28-9.62,2.82-.17,4.32,2.49,3.82,5-.5,2.82-3,4.64-4.65,6.8a62.64,62.64,0,0,0-4,6c-2,3.65-4,8.8-1.83,12.78,3.15,5.48,11.29,5.81,17.1,5.48,8-.5,15.77-2.82,23.24-5.31a275.3,275.3,0,0,0,27.89-11.62c5-2.33,10-4.65,14.78-7.14,5-2.49,10.12-5,15.6-6,4-.66,7.31,3.82,4.15,7-5.31,5.48-12.12,8.64-18.76,12C572.86,128.17,566.55,131.33,560.07,134.15ZM506.62,85.34a33.2,33.2,0,0,1,12.78-8c3.15-1,4.65,3.49,2.16,5.15a88.88,88.88,0,0,0-10.13,7.63C508.28,93.14,503.46,88.49,506.62,85.34Z" transform="translate(-2)"/><path class="cls-1" d="M836.49,110.74c-10.12,19.09-31,26.06-50.63,31.71-7.31,2.16-14.61,4-22.08,6-2.16,3.32-4.48,6.47-6.64,9.62-7,10-13.95,19.93-23.74,27.23-8.47,6.48-23.08,12.12-32.87,5.31-5.15-3.48-7.14-9.46-6.31-15.44,1-6.14,4.81-11,9.63-14.61,5.14-3.81,11.29-6.47,17.26-9a191.54,191.54,0,0,1,19.43-7c6-2,12.12-3.65,18.09-5.32a23.25,23.25,0,0,0,1.83-2.49c7.64-10.79,15.11-21.58,22.41-32.53-2.32,1.82-4.81,3.65-7.3,5.31-8,5.31-16.94,9.46-25.9,13.28a108.53,108.53,0,0,1-29.72,8.3c-9.79,1.16-19.92,2.49-29.72.83a31.13,31.13,0,0,1-20.42-13.61c-5.31-8.47-3.32-17.77,1.17-26.23,10-18.76,24.57-34.87,36.52-52.3,2.16-3.32,7.3-.33,5.31,3.16-10.95,18.76-26.23,35-35.69,54.78-3.65,7.64-2.82,15.11,3.82,20.75,6.64,5.48,15.27,5.65,23.41,5.32a140.35,140.35,0,0,0,26.39-3.66c9.13-2.49,17.6-6.47,26.07-10.62,7.8-4,15.1-8.14,21.91-13.62A138.6,138.6,0,0,0,796.65,78.2C807.11,65.92,815.41,52,824.54,38.69L827,34.54c1.83-3,6.31-.67,5.15,2.49a2.47,2.47,0,0,1,0,2.16,164.81,164.81,0,0,1-22.25,37.52C800.8,92,791.34,107.25,781.71,122.2l-9.13,13.61,8.3-2.16c11.12-3,22.41-6,32.37-11.79,7-4,12.62-9.46,18.43-14.94C834.17,104.43,838.15,107.59,836.49,110.74Zm-87.15,41.84-1.5.49c-12,3.66-24.07,7.64-34.86,14.12-3.82,2.15-8.14,5.47-8.3,10.29-.33,5.14,4.65,5.81,8.63,5.31,10.29-.83,18.26-8.47,24.74-15.77C742,162.37,745.68,157.56,749.34,152.58Z" transform="translate(-2)"/><path class="cls-1" d="M965.49,114.23c-4.31,4.31-10.79,7-16.27,9.79-5.31,2.66-10.79,5.15-16.27,7.47a136.38,136.38,0,0,1-33.86,10c-6,.83-12.29,1-17.93-1.66a17.31,17.31,0,0,1-9.47-11.95,15.29,15.29,0,0,1,0-5.48l-4.64,3.16c-6.48,4.31-13.12,8.63-19.76,12.78-6.14,3.65-12.12,7.64-18.59,11-5.65,3-12.45,4.31-18.27.66-12.28-8.47-.16-24.4,6.81-31.88,15.61-16.43,40.84-25.4,63.09-19.25a4.29,4.29,0,0,1,2.32,1.82,32.81,32.81,0,0,1,4.65-4.81c2.32-2,6.81-.33,5.64,3.15-1.82,5-5,9.47-7.3,14.28-1.83,3.49-4.81,8.63-3.32,12.78,3,8,17.43,4,23.08,2.66A169,169,0,0,0,933.45,119c4.48-2,8.8-4.15,13.28-6.47,4.49-2.16,9.3-5.32,14.28-6.31C965.49,105.43,969,110.57,965.49,114.23Zm-91-6.48a1.24,1.24,0,0,1-.34-.83c0-.16,0-.16.17-.33a65.25,65.25,0,0,0-26.56,3.82A62.66,62.66,0,0,0,825,125.18a50.06,50.06,0,0,0-8.3,11.13c-.66,1.32-1.82,3.48-.49,4.81s4.31.5,5.81-.16c5.14-2.16,10.12-5.65,14.94-8.64,5-3,10-6.14,14.94-9.29l14.77-9.63Z" transform="translate(-2)"/><path class="cls-1" d="M1135.33,115.55a98.1,98.1,0,0,1-26.4,20.26,112.89,112.89,0,0,1-27.55,9.46c-10.3,2.16-21.59,4-31.55-.66-9.13-4.32-14.27-13.62-12.45-23.41.83-4.82,4.15-10,5.48-15.11a134.58,134.58,0,0,0-34.36,33.54,5.22,5.22,0,0,1-9.47-4c1.83-9.63,3.65-19.26,5.31-28.88a340.62,340.62,0,0,0-45.65,37.68c-3.15,3.16-8-.16-7.14-4.32,1.66-9.79,4.48-22.91,8.14-32,1.82-4.31,8.63-2.65,7.14,1.83a151.18,151.18,0,0,0-5,18.93,301.33,301.33,0,0,1,46.82-36.53c4-2.49,8,1.66,7.31,5.48-1.33,6.81-2.33,13.78-3.49,20.59a136,136,0,0,1,32.7-26.4c3.16-2,6.48,0,7.81,3.15,3.65,9-2,17.44-4.49,25.74-1,3.32-1.32,6.47.5,9.46a15.23,15.23,0,0,0,9,5.64c8.63,2.16,18.76-.33,27.06-2.65a89,89,0,0,0,42.5-25.57C1132.34,102.61,1140.15,110.41,1135.33,115.55Z" transform="translate(-2)"/><path class="cls-1" d="M1262.84,114.23c-4.32,4.31-10.79,7-16.27,9.79-5.31,2.66-10.79,5.15-16.27,7.47a136.57,136.57,0,0,1-33.87,10c-6,.83-12.28,1-17.93-1.66a17.3,17.3,0,0,1-9.46-11.95,15.29,15.29,0,0,1,0-5.48l-4.65,3.16c-6.47,4.31-13.11,8.63-19.76,12.78-6.14,3.65-12.11,7.64-18.59,11-5.64,3-12.45,4.31-18.26.66-12.29-8.47-.17-24.4,6.81-31.88,15.6-16.43,40.84-25.4,63.08-19.25a4.28,4.28,0,0,1,2.33,1.82,32.25,32.25,0,0,1,4.64-4.81c2.33-2,6.81-.33,5.65,3.15-1.83,5-5,9.47-7.31,14.28-1.82,3.49-4.81,8.63-3.32,12.78,3,8,17.44,4,23.08,2.66A168.75,168.75,0,0,0,1230.8,119c4.48-2,8.8-4.15,13.28-6.47,4.48-2.16,9.3-5.32,14.28-6.31C1262.84,105.43,1266.32,110.57,1262.84,114.23Zm-91-6.48a1.29,1.29,0,0,1-.33-.83c0-.16,0-.16.17-.33a65.3,65.3,0,0,0-26.57,3.82,62.7,62.7,0,0,0-22.74,14.77,49.75,49.75,0,0,0-8.3,11.13c-.67,1.32-1.83,3.48-.5,4.81s4.32.5,5.81-.16c5.15-2.16,10.13-5.65,14.94-8.64,5-3,10-6.14,14.94-9.29l14.78-9.63Z" transform="translate(-2)"/><path class="cls-1" d="M1432.68,115.55a98.25,98.25,0,0,1-26.4,20.26,112.82,112.82,0,0,1-27.56,9.46c-10.29,2.16-21.58,4-31.54-.66-9.13-4.32-14.28-13.62-12.45-23.41.83-4.82,4.15-10,5.48-15.11a134.62,134.62,0,0,0-34.37,33.54,5.21,5.21,0,0,1-9.46-4c1.82-9.63,3.65-19.26,5.31-28.88A339.36,339.36,0,0,0,1256,144.44c-3.16,3.16-8-.16-7.14-4.32,1.66-9.79,4.48-22.91,8.13-32,1.83-4.31,8.63-2.65,7.14,1.83a151.13,151.13,0,0,0-5,18.93A300.86,300.86,0,0,1,1306,92.31c4-2.49,8,1.66,7.3,5.48-1.33,6.81-2.32,13.78-3.49,20.59A136.07,136.07,0,0,1,1342.53,92c3.15-2,6.47,0,7.8,3.15,3.65,9-2,17.44-4.48,25.74-1,3.32-1.33,6.47.5,9.46a15.24,15.24,0,0,0,9,5.64c8.64,2.16,18.76-.33,27.06-2.65a89,89,0,0,0,42.5-25.57C1429.69,102.61,1437.49,110.41,1432.68,115.55Z" transform="translate(-2)"/><path class="cls-1" d="M1551.22,10.47c-7,19.09-17.1,37.18-27.06,55a359.64,359.64,0,0,1-21.58,34.86c-7.81,11-17.1,23.24-29.72,28.89a32,32,0,0,1-13.95,2.49c-4.81,8-12.12,14.44-21.58,15.27-8,.83-14.28-4.48-14.77-12.62-.34-6.8,1.82-14.6,5-21.08-2.33-6.81-.5-14.44,5.81-18.59,6.31-3.82,14.61-3.49,21.41-1.5,4.15,1.16,8.14,3.16,10.13,7.31,1.83,3.82,1.16,8.63.66,12.78a59.42,59.42,0,0,1-2.15,8.63l1.32-.33a16.26,16.26,0,0,0,2.33-.66l1.49-.5a.59.59,0,0,1,.33-.17l2.49-1.33a16.1,16.1,0,0,0,2.83-1.82l1.32-1h.17l.66-.5c11.29-9.62,19.1-21.58,26.9-34,6.31-10.13,12.28-20.58,17.93-31,7.64-14.28,14.44-29.22,22.91-43C1546.4,3.83,1552.71,6.15,1551.22,10.47ZM1449.62,130a11.69,11.69,0,0,1-3.16-1c-5.14-1.82-10.62-4.31-14.44-8.3l-1,4.15c-.83,3.49-2.16,8.8-.16,12.29,3.81,6.14,13.44-1.17,16.43-4.32A19.84,19.84,0,0,0,1449.62,130ZM1436,109.58c1.66,5.81,8.14,8.63,13.45,10.29l5,1.5a35.18,35.18,0,0,0,2.32-9.14c.67-3.15,1.67-8-1.82-9.62a20.12,20.12,0,0,0-9.8-1.83C1439.82,100.78,1434.18,103.44,1436,109.58Z" transform="translate(-2)"/><path class="cls-1" d="M1597.21,112.23c-8.8,15.94-25.4,27.89-41.67,35.53-13.62,6.31-34.7,15.11-47.82,3.16-12.78-11.46-6.3-32.54-3-46.82a312.23,312.23,0,0,1,11.62-38.68c-10,.33-19.92,1-29.89,1.82-4,.34-4.81-6.3-1-6.8,11.29-1.66,22.74-2.82,34-3.65A373.66,373.66,0,0,1,1546.9,2.17c3-5,10.8-.5,7.81,4.64A374.45,374.45,0,0,0,1532.29,56c2.5,0,5-.17,7.48-.34,6-.16,12.45-1,18.26.34,4.48,1,4.81,8.46,0,9.29-5.81,1-12.12,0-18.26,0-3.49-.16-7.14-.16-10.63-.16a388.37,388.37,0,0,0-11.12,40c-1.66,7.47-3.65,14.94-4.15,22.57-.33,5-.5,11.46,4.48,14.28,5.31,2.82,12.45.67,17.76-.83a91.06,91.06,0,0,0,19.76-7.3c13.45-6.81,23.91-16.61,34.86-26.57A4.13,4.13,0,0,1,1597.21,112.23Z" transform="translate(-2)"/><path class="cls-1" d="M1691.67,113.23c-7,7.64-16.76,12.12-26.73,14.94a91.29,91.29,0,0,1-31.37,3.49l-9.63-1.16c-4.15,6.47-10.13,12.28-17.27,14.44-8.3,2.66-17.93-.5-19.59-9.8-.83-4.64.17-9.79,1.33-14.27a53.41,53.41,0,0,1,3.16-9.13,18.93,18.93,0,0,1-1-7.64c.5-9.63,8.63-14.94,17.6-15.61,8.13-.49,20.42,2,23.07,10.8,1.33,4.64.34,10.12-.66,14.6a50.44,50.44,0,0,1-2,7.14,94.37,94.37,0,0,0,20.58,0c13.78-1.66,25.74-7.47,37.69-14.11C1691,104.6,1694.83,109.91,1691.67,113.23Zm-77.36,15.11c-6.81-1.83-13.28-4.82-17.76-9.13a21.93,21.93,0,0,0-.83,3.65c-.83,3.49-2.33,9.13,0,12.45,3.65,5.48,12.61-.66,15.77-3.82A25.66,25.66,0,0,0,1614.31,128.34Zm-5.15-12.79a65.92,65.92,0,0,0,10.13,3.82c.66-1.66,1.16-3.32,1.66-5,.83-3.32,1.83-7.47,1.33-11-.33-3.32-3.65-3.82-6.48-4.49-4.31-.83-11.45-1.33-14.27,2.83C1597.87,107.42,1604.68,113.23,1609.16,115.55Z" transform="translate(-2)"/></svg>