<?xml version="1.0" encoding="utf-8"?>
<!-- Generator: Adobe Illustrator 22.0.1, SVG Export Plug-In . SVG Version: 6.00 Build 0)  -->
<svg version="1.1" id="レイヤー_1" xmlns="http://www.w3.org/2000/svg" xmlns:xlink="http://www.w3.org/1999/xlink" x="0px"
	 y="0px" viewBox="0 0 1694.6 196.6" style="enable-background:new 0 0 1694.6 196.6;" xml:space="preserve">
<style type="text/css">
	.st0{fill:#EAEAEA;}
</style>
<image style="display:none;overflow:visible;" width="5246" height="3502" xlink:href="photo/180218/AOI_4199ee.jpg" >
</image>
<g>
	<path class="st0" d="M179.9,110.6c-3.8,10.1-9.8,18.8-16.3,27.1c-13.1,16.6-39,40.8-60.6,23.1c-11.5-9.1-12-25.9-16.4-38.8
		c-2.2-6.3-5.5-12-12.3-14.3c-6.5-2.3-13.4-1.7-20.1,0.2l-3.2,4.6c-0.3,0.5-0.8,1-1.5,1.3l-0.2,0.2c-2.7,7.3-5.6,14.6-8.5,22.1
		c-3.5,8.8-6.6,17.8-12.3,25.7c-2.2,3.2-6.5,1-5.8-2.5c1.2-9.6,4.8-18.3,8.1-27.1c2.8-7.6,5.6-14.9,8.6-22.2
		c5-13.1,10.1-26.2,15.4-39.3L64.2,47c1.7-3.7,4.8-11.3,2.2-15.1c-1.7-2.2-5.5-0.5-7.1,0.3c-3.2,1-6,2.5-8.8,3.8
		c-6.1,3.2-12.1,6.8-17.3,11.1c-11,9-19.8,20.3-25.9,32.9c-1.8,3.3-6.3,0.3-5-3c7-15.9,17.8-29.9,31.5-40.3
		c6.1-4.6,12.8-8.6,19.9-12c6.6-2.8,15.3-5.8,20.4,1.5c3.8,5.1,3.2,12.5,1.5,18.3c-2.2,8.5-6.1,16.6-9.1,24.9
		c-3.2,8.1-6.3,16.1-9.3,24.2C62.7,88,69,83.3,75.5,78.9c22.2-15.6,46.8-28.1,71.9-38.2c12.9-5.1,26.2-9.6,39.7-13.1
		c11.1-3.2,24.6-6,33.7,3.2c3,3-1,7.5-4.5,5.8c-11.1-5.5-26.1,0.5-37.2,3.7c-24.2,7.1-48,16.8-70.4,28.7c-11,5.8-21.6,12.3-32,19.1
		c-4.5,3.2-9,6.5-12.9,10.1c3.7-0.3,7.3-0.3,11,0.3c8.5,1.8,15.1,7.3,19.1,14.9c3,6.1,4.8,12.9,6.6,19.6c1.8,6,3.3,12.8,7.5,17.6
		c7,8.1,16.6,6,24.9,1.2c9.8-6,17.9-14.9,25.2-23.9c5.1-6.6,10.6-12.9,15.3-20.1C175.4,104.6,181.4,106.4,179.9,110.6z"/>
	<path class="st0" d="M273.5,113.2c-7,7.6-16.8,12.1-26.7,14.9c-10.1,3-20.9,4.2-31.4,3.5l-9.6-1.2c-4.2,6.5-10.1,12.3-17.3,14.4
		c-8.3,2.7-17.9-0.5-19.6-9.8c-0.8-4.6,0.2-9.8,1.3-14.3c0.8-3.2,1.8-6.3,3.2-9.1c-0.8-2.3-1.2-4.8-1-7.6
		c0.5-9.6,8.6-14.9,17.6-15.6c8.1-0.5,20.4,2,23.1,10.8c1.3,4.6,0.3,10.1-0.7,14.6c-0.5,2.5-1.2,4.8-2,7.1c7,0.8,14.1,0.7,20.6,0
		c13.8-1.7,25.7-7.5,37.7-14.1C272.9,104.6,276.7,109.9,273.5,113.2z M196.2,128.3c-6.8-1.8-13.3-4.8-17.8-9.1
		c-0.3,1.2-0.7,2.3-0.8,3.7c-0.8,3.5-2.3,9.1,0,12.5c3.7,5.5,12.6-0.7,15.8-3.8C194.3,130.5,195.3,129.5,196.2,128.3z M191,115.6
		c3.2,1.5,6.6,2.8,10.1,3.8c0.7-1.7,1.2-3.3,1.7-5c0.8-3.3,1.8-7.5,1.3-11c-0.3-3.3-3.7-3.8-6.5-4.5c-4.3-0.8-11.5-1.3-14.3,2.8
		C179.7,107.4,186.5,113.2,191,115.6z"/>
	<path class="st0" d="M402.7,115.9c-7.5,5.3-15.4,10.1-23.2,14.8c-8.6,5.3-17.9,10.6-28.1,12.3c-8,1.3-19.6,0.7-24.7-7
		c-4.2-6-2.2-13.6,0.7-19.8c2-4.5,6.1-10.3,6.6-14.4c0-0.3-0.2-2.2,0-1.5v-0.3c-0.5-0.7-0.8-0.8-1.8-1.5c-1.3-0.8-1.5-1-2.8-1
		c-4,0.2-8.6,2-12.8,4.2c-6,3.2-11.5,7.1-16.8,11.1c-10.3,8-18.9,17.1-28.1,26.1l-0.3,3c-0.3,3-2.3,5.6-5.8,5.6
		c-2.8,0-6.1-2.7-5.8-5.6c3-23.7,8.3-47.1,16.3-69.6c5.8-17.1,12.8-34.7,25.1-48c5.8-6.3,13.9-12.8,22.6-14.6
		c9.1-2,20.1,4,18.1,14.6c-0.8,4.5-3.2,9-5,13.1c-2,4.3-4.3,8.6-6.8,12.8c-4.8,8.5-10.5,16.3-16.4,23.9
		c-10.6,13.4-23.1,26.4-36.9,37c-1.2,5.3-2.2,10.6-3.2,15.9l5.3-6c6-6.1,12.1-12.1,18.8-17.6c8.6-7,20.1-15.8,31.7-15.9
		c4.8-0.2,10.1,2.3,12.9,6.3c3.8,5.3,2.2,11.5-0.3,16.8c-2.3,5.1-6.1,10.1-7,15.8c-1,7.8,12,6.6,16.9,5.5
		c16.9-4.3,30.2-17.3,45.5-25.1C403.5,103.6,408.2,111.9,402.7,115.9z M283.1,87.2l-3,10.1c9.5-9.6,18.6-19.6,26.7-30.5
		c5-6.8,9.6-13.9,13.8-21.4c2.2-3.8,4.2-8,6-12c1.5-3.3,3.5-7,4.2-10.5c0.5-3-3.3-2.5-5.3-2c-3.5,1-6.8,3.2-9.8,5.3
		c-5.5,4.2-10.1,9.8-13.8,15.8C293.3,55.8,288,71.6,283.1,87.2z"/>
	<path class="st0" d="M496.5,110.4c-2.5,4.8-7.6,8.3-11.8,11.5c-6.1,4.8-12.6,9.6-19.3,13.8c-11.8,7.8-25.1,15.6-39.3,16.6
		c-15.1,1.2-28.9-9.5-29.1-25.2c-0.2-6,1.8-12,4-17.6c2.3-5.5,5.3-10.6,9.5-14.9c7.1-7.1,19.8-11.8,28.9-5.3c9.6,7,4,19.4-4.3,24.7
		c-7.3,4.5-16.8,4.5-24.1,0.5c-1.5,3.7-2.7,7.6-2.7,11.5c0,3.5,1.2,6.3,3.2,9.1c0.2,0.3,0.8,1.2,1.8,2c0,0.2,0.5,0.7,0.8,0.8
		c0.2,0,0.7,0.5,0.8,0.5c0.5,0.3,1,0.7,1.5,0.8c0.2,0.2,0.3,0.2,0.3,0.2c0,0.2,0.2,0.2,0.2,0.2c1,0.3,2,0.7,3,0.8
		c0.3,0,0.7,0.2,1,0.2c0.5,0,1,0.2,1.5,0.2c1.2,0,2.3,0,3.7-0.2c1.7,0,1.2,0,2.8-0.3l3.7-0.7c2.7-0.7,5.3-1.5,7.8-2.3
		c11.1-3.8,21.2-10,30.9-16.4l12.8-9c2.8-2.2,5.6-4.5,9.1-5.5C495.7,105.4,497.6,108.2,496.5,110.4z M418.8,100.4
		c-2.8,2.8-3.5,4.5-5.1,8.3c8,2.8,17.4,2.5,21.9-5c2.7-4.5,1-8.5-4.3-8.8C426.6,94.6,421.9,97.3,418.8,100.4z"/>
	<path class="st0" d="M560.1,134.1c-10.5,4.5-21.1,8.8-32.2,11.5c-9,2.2-18.6,3.7-27.7,1.7c-10-2.3-18.3-10.6-17.1-21.4
		c0.5-5.8,3-11.3,6.5-16.1c2.8-3.8,7.1-9.6,12.3-9.6c2.8-0.2,4.3,2.5,3.8,5c-0.5,2.8-3,4.6-4.6,6.8c-1.5,2-2.8,4-4,6
		c-2,3.7-4,8.8-1.8,12.8c3.2,5.5,11.3,5.8,17.1,5.5c8-0.5,15.8-2.8,23.2-5.3c9.6-3.3,18.8-7.3,27.9-11.6c5-2.3,10-4.6,14.8-7.1
		c5-2.5,10.1-5,15.6-6c4-0.7,7.3,3.8,4.2,7c-5.3,5.5-12.1,8.6-18.8,12C572.9,128.2,566.5,131.3,560.1,134.1z M506.6,85.3
		c3.8-3.7,7.8-6.3,12.8-8c3.2-1,4.6,3.5,2.2,5.1c-3.5,2.3-7,4.8-10.1,7.6C508.3,93.1,503.5,88.5,506.6,85.3z"/>
	<path class="st0" d="M836.5,110.7c-10.1,19.1-31,26.1-50.6,31.7c-7.3,2.2-14.6,4-22.1,6c-2.2,3.3-4.5,6.5-6.6,9.6
		c-7,10-13.9,19.9-23.7,27.2c-8.5,6.5-23.1,12.1-32.9,5.3c-5.1-3.5-7.1-9.5-6.3-15.4c1-6.1,4.8-11,9.6-14.6c5.1-3.8,11.3-6.5,17.3-9
		c6.3-2.7,12.8-5,19.4-7c6-2,12.1-3.7,18.1-5.3c0.7-0.8,1.3-1.7,1.8-2.5c7.6-10.8,15.1-21.6,22.4-32.5c-2.3,1.8-4.8,3.7-7.3,5.3
		c-8,5.3-16.9,9.5-25.9,13.3c-9.6,4.2-19.3,7-29.7,8.3c-9.8,1.2-19.9,2.5-29.7,0.8c-8.1-1.5-15.9-6.5-20.4-13.6
		c-5.3-8.5-3.3-17.8,1.2-26.2c10-18.8,24.6-34.9,36.5-52.3c2.2-3.3,7.3-0.3,5.3,3.2c-11,18.8-26.2,35-35.7,54.8
		c-3.7,7.6-2.8,15.1,3.8,20.8c6.6,5.5,15.3,5.6,23.4,5.3c8.8-0.5,17.9-1.5,26.4-3.7c9.1-2.5,17.6-6.5,26.1-10.6
		c7.8-4,15.1-8.1,21.9-13.6c6.5-5.3,12.5-11.3,17.9-17.8c10.5-12.3,18.8-26.2,27.9-39.5l2.5-4.2c1.8-3,6.3-0.7,5.1,2.5
		c0.3,0.7,0.3,1.3,0,2.2c-5.6,13.4-13.3,26.1-22.2,37.5c-9.1,15.3-18.6,30.5-28.2,45.5l-9.1,13.6l8.3-2.2c11.1-3,22.4-6,32.4-11.8
		c7-4,12.6-9.5,18.4-14.9C834.2,104.4,838.2,107.6,836.5,110.7z M749.3,152.6l-1.5,0.5c-12,3.7-24.1,7.6-34.9,14.1
		c-3.8,2.2-8.1,5.5-8.3,10.3c-0.3,5.1,4.6,5.8,8.6,5.3c10.3-0.8,18.3-8.5,24.7-15.8C742,162.4,745.7,157.6,749.3,152.6z"/>
	<path class="st0" d="M965.5,114.2c-4.3,4.3-10.8,7-16.3,9.8c-5.3,2.7-10.8,5.1-16.3,7.5c-11,4.6-22.2,8.3-33.9,10
		c-6,0.8-12.3,1-17.9-1.7c-4.6-2.3-8.5-6.6-9.5-12c-0.3-1.8-0.3-3.7,0-5.5l-4.6,3.2c-6.5,4.3-13.1,8.6-19.8,12.8
		c-6.1,3.7-12.1,7.6-18.6,11c-5.6,3-12.5,4.3-18.3,0.7c-12.3-8.5-0.2-24.4,6.8-31.9c15.6-16.4,40.8-25.4,63.1-19.3
		c1,0.3,1.8,1,2.3,1.8c1.5-1.8,3-3.5,4.6-4.8c2.3-2,6.8-0.3,5.6,3.2c-1.8,5-5,9.5-7.3,14.3c-1.8,3.5-4.8,8.6-3.3,12.8
		c3,8,17.4,4,23.1,2.7c9.6-2.3,18.9-5.6,28.1-9.6c4.5-2,8.8-4.2,13.3-6.5c4.5-2.2,9.3-5.3,14.3-6.3
		C965.5,105.4,969,110.6,965.5,114.2z M874.5,107.8c-0.2-0.2-0.3-0.5-0.3-0.8c0-0.2,0-0.2,0.2-0.3c-9.1-0.5-18.1,0.7-26.6,3.8
		s-16.4,8.3-22.7,14.8c-3.2,3.3-6.1,7-8.3,11.1c-0.7,1.3-1.8,3.5-0.5,4.8s4.3,0.5,5.8-0.2c5.1-2.2,10.1-5.6,14.9-8.6
		c5-3,10-6.1,14.9-9.3l14.8-9.6L874.5,107.8z"/>
	<path class="st0" d="M1135.3,115.6c-7.6,8.1-16.4,15.1-26.4,20.3c-8.6,4.3-17.9,7.5-27.6,9.5c-10.3,2.2-21.6,4-31.5-0.7
		c-9.1-4.3-14.3-13.6-12.5-23.4c0.8-4.8,4.2-10,5.5-15.1c-13.3,9-25.1,20.4-34.4,33.5c-3.3,4.8-10.5,1.8-9.5-4
		c1.8-9.6,3.7-19.3,5.3-28.9c-16.3,11.1-31.4,23.7-45.7,37.7c-3.2,3.2-8-0.2-7.1-4.3c1.7-9.8,4.5-22.9,8.1-32
		c1.8-4.3,8.6-2.7,7.1,1.8c-1.8,5.3-4,13.4-5,18.9c14.3-13.8,30.2-25.9,46.8-36.5c4-2.5,8,1.7,7.3,5.5c-1.3,6.8-2.3,13.8-3.5,20.6
		c9.5-10.5,20.4-19.3,32.7-26.4c3.2-2,6.5,0,7.8,3.2c3.7,9-2,17.4-4.5,25.7c-1,3.3-1.3,6.5,0.5,9.5c2.2,3,5.5,4.8,9,5.6
		c8.6,2.2,18.8-0.3,27.1-2.7c16.6-4.5,30.9-13.1,42.5-25.6C1132.3,102.6,1140.1,110.4,1135.3,115.6z"/>
	<path class="st0" d="M1262.8,114.2c-4.3,4.3-10.8,7-16.3,9.8c-5.3,2.7-10.8,5.1-16.3,7.5c-11,4.6-22.2,8.3-33.9,10
		c-6,0.8-12.3,1-17.9-1.7c-4.6-2.3-8.5-6.6-9.5-12c-0.3-1.8-0.3-3.7,0-5.5l-4.6,3.2c-6.5,4.3-13.1,8.6-19.8,12.8
		c-6.1,3.7-12.1,7.6-18.6,11c-5.6,3-12.5,4.3-18.3,0.7c-12.3-8.5-0.2-24.4,6.8-31.9c15.6-16.4,40.8-25.4,63.1-19.3
		c1,0.3,1.8,1,2.3,1.8c1.5-1.8,3-3.5,4.6-4.8c2.3-2,6.8-0.3,5.6,3.2c-1.8,5-5,9.5-7.3,14.3c-1.8,3.5-4.8,8.6-3.3,12.8
		c3,8,17.4,4,23.1,2.7c9.6-2.3,18.9-5.6,28.1-9.6c4.5-2,8.8-4.2,13.3-6.5c4.5-2.2,9.3-5.3,14.3-6.3
		C1262.8,105.4,1266.3,110.6,1262.8,114.2z M1171.9,107.8c-0.2-0.2-0.3-0.5-0.3-0.8c0-0.2,0-0.2,0.2-0.3c-9.1-0.5-18.1,0.7-26.6,3.8
		s-16.4,8.3-22.7,14.8c-3.2,3.3-6.1,7-8.3,11.1c-0.7,1.3-1.8,3.5-0.5,4.8s4.3,0.5,5.8-0.2c5.1-2.2,10.1-5.6,14.9-8.6
		c5-3,10-6.1,14.9-9.3l14.8-9.6L1171.9,107.8z"/>
	<path class="st0" d="M1432.7,115.6c-7.6,8.1-16.4,15.1-26.4,20.3c-8.6,4.3-17.9,7.5-27.6,9.5c-10.3,2.2-21.6,4-31.5-0.7
		c-9.1-4.3-14.3-13.6-12.5-23.4c0.8-4.8,4.2-10,5.5-15.1c-13.3,9-25.1,20.4-34.4,33.5c-3.3,4.8-10.5,1.8-9.5-4
		c1.8-9.6,3.7-19.3,5.3-28.9c-16.3,11.1-31.4,23.7-45.7,37.7c-3.2,3.2-8-0.2-7.1-4.3c1.7-9.8,4.5-22.9,8.1-32
		c1.8-4.3,8.6-2.7,7.1,1.8c-1.8,5.3-4,13.4-5,18.9c14.3-13.8,30.2-25.9,46.8-36.5c4-2.5,8,1.7,7.3,5.5c-1.3,6.8-2.3,13.8-3.5,20.6
		c9.5-10.5,20.4-19.3,32.7-26.4c3.2-2,6.5,0,7.8,3.2c3.7,9-2,17.4-4.5,25.7c-1,3.3-1.3,6.5,0.5,9.5c2.2,3,5.5,4.8,9,5.6
		c8.6,2.2,18.8-0.3,27.1-2.7c16.6-4.5,30.9-13.1,42.5-25.6C1429.7,102.6,1437.5,110.4,1432.7,115.6z"/>
	<path class="st0" d="M1551.2,10.5c-7,19.1-17.1,37.2-27.1,55c-6.6,12-13.6,23.7-21.6,34.9c-7.8,11-17.1,23.2-29.7,28.9
		c-4.6,2-9.3,2.7-13.9,2.5c-4.8,8-12.1,14.4-21.6,15.3c-8,0.8-14.3-4.5-14.8-12.6c-0.3-6.8,1.8-14.6,5-21.1
		c-2.3-6.8-0.5-14.4,5.8-18.6c6.3-3.8,14.6-3.5,21.4-1.5c4.2,1.2,8.1,3.2,10.1,7.3c1.8,3.8,1.2,8.6,0.7,12.8
		c-0.5,2.8-1.2,5.6-2.2,8.6l1.3-0.3c0.7-0.2,1.5-0.3,2.3-0.7l1.5-0.5c0,0,0.2-0.2,0.3-0.2l2.5-1.3c1-0.5,2-1.2,2.8-1.8l1.3-1h0.2
		l0.7-0.5c11.3-9.6,19.1-21.6,26.9-34c6.3-10.1,12.3-20.6,17.9-31c7.6-14.3,14.4-29.2,22.9-43C1546.4,3.8,1552.7,6.2,1551.2,10.5z
		 M1449.6,130c-1-0.2-2.2-0.5-3.2-1c-5.1-1.8-10.6-4.3-14.4-8.3l-1,4.2c-0.8,3.5-2.2,8.8-0.2,12.3c3.8,6.1,13.4-1.2,16.4-4.3
		C1448.1,132,1449,131,1449.6,130z M1436,109.6c1.7,5.8,8.1,8.6,13.4,10.3l5,1.5c1.2-3,2-6,2.3-9.1c0.7-3.2,1.7-8-1.8-9.6
		c-3-1.5-6.6-2-9.8-1.8C1439.8,100.8,1434.2,103.4,1436,109.6z"/>
	<path class="st0" d="M1597.2,112.2c-8.8,15.9-25.4,27.9-41.7,35.5c-13.6,6.3-34.7,15.1-47.8,3.2c-12.8-11.5-6.3-32.5-3-46.8
		c3-13.1,7-26.1,11.6-38.7c-10,0.3-19.9,1-29.9,1.8c-4,0.3-4.8-6.3-1-6.8c11.3-1.7,22.7-2.8,34-3.7c7.6-18.9,16.8-37.2,27.4-54.6
		c3-5,10.8-0.5,7.8,4.6c-8.6,15.8-16.1,32.2-22.4,49.1c2.5,0,5-0.2,7.5-0.3c6-0.2,12.5-1,18.3,0.3c4.5,1,4.8,8.5,0,9.3
		c-5.8,1-12.1,0-18.3,0c-3.5-0.2-7.1-0.2-10.6-0.2c-4.5,13.3-8.1,26.6-11.1,40c-1.7,7.5-3.7,14.9-4.2,22.6c-0.3,5-0.5,11.5,4.5,14.3
		c5.3,2.8,12.5,0.7,17.8-0.8c7-1.7,13.4-4.2,19.8-7.3c13.4-6.8,23.9-16.6,34.9-26.6C1594.2,103.9,1599.5,108.1,1597.2,112.2z"/>
	<path class="st0" d="M1691.7,113.2c-7,7.6-16.8,12.1-26.7,14.9c-10.1,3-20.9,4.2-31.4,3.5l-9.6-1.2c-4.2,6.5-10.1,12.3-17.3,14.4
		c-8.3,2.7-17.9-0.5-19.6-9.8c-0.8-4.6,0.2-9.8,1.3-14.3c0.8-3.2,1.8-6.3,3.2-9.1c-0.8-2.3-1.2-4.8-1-7.6
		c0.5-9.6,8.6-14.9,17.6-15.6c8.1-0.5,20.4,2,23.1,10.8c1.3,4.6,0.3,10.1-0.7,14.6c-0.5,2.5-1.2,4.8-2,7.1c7,0.8,14.1,0.7,20.6,0
		c13.8-1.7,25.7-7.5,37.7-14.1C1691,104.6,1694.8,109.9,1691.7,113.2z M1614.3,128.3c-6.8-1.8-13.3-4.8-17.8-9.1
		c-0.3,1.2-0.7,2.3-0.8,3.7c-0.8,3.5-2.3,9.1,0,12.5c3.7,5.5,12.6-0.7,15.8-3.8C1612.5,130.5,1613.5,129.5,1614.3,128.3z
		 M1609.2,115.6c3.2,1.5,6.6,2.8,10.1,3.8c0.7-1.7,1.2-3.3,1.7-5c0.8-3.3,1.8-7.5,1.3-11c-0.3-3.3-3.7-3.8-6.5-4.5
		c-4.3-0.8-11.5-1.3-14.3,2.8C1597.9,107.4,1604.7,113.2,1609.2,115.6z"/>
</g>
</svg>
