<svg xmlns="http://www.w3.org/2000/svg" viewBox="0 0 1440 810"><defs><style>.a{fill:#1f1d18;}</style></defs><title>character</title><path class="a" d="M99.66,87.4a70.93,70.93,0,0,0-3.11-10.23L91.34,64.25h-35L51.16,77.17A55.47,55.47,0,0,0,48.05,87.4H37.63c2-3.31,2.7-4.81,5.41-11.53L65.49,20.56a57.3,57.3,0,0,0,3.2-9.32H78.81c.41,1.9.91,3.2,3.41,9.32l22.45,55.31A100.13,100.13,0,0,0,110,87.4ZM76,24.26c-.3-.8-.3-.9-2.21-6.41-.5,1.5-.9,2.61-1.1,3.31-.6,1.6-.9,2.7-1.1,3.1L58.77,57.33H88.94Z"/><path class="a" d="M170.51,87.4c-4.41,0-7.52.1-11,.3a61.16,61.16,0,0,0,.91-12.43V21.66A57.1,57.1,0,0,0,159.58,11c3.11.2,5.11.2,10.93.2h21.34c14.53,0,22.65,6.61,22.65,18.44,0,5.81-1.8,10.22-5.41,13.42-2.11,1.81-3.91,2.71-7.92,4,4.61.9,7,1.91,9.72,4.21,4.11,3.51,6.21,8.62,6.21,15,0,13.43-8.81,21.05-24.15,21.05Zm21.24-43.5c9.32,0,14.83-4.91,14.83-13.32s-5-12.53-14.93-12.53H168.1V43.9ZM168.1,80.58h24.15c10.93,0,16.74-5.21,16.74-14.83,0-9.92-5.81-15-16.94-15h-24Z"/><path class="a" d="M325.33,32.88c-1.5-4.31-2.61-6.41-4.71-8.82-4-4.71-10-7.21-17.34-7.21-16.23,0-26.45,12.42-26.45,32.37s10.32,32.46,26.45,32.46c7.92,0,14.63-3,18.74-8.41,2.11-2.91,3.11-5.41,4-10l8.32,2c-1.71,5.91-3,8.72-5.41,11.92-5.61,7.52-14.73,11.63-26,11.63-9.62,0-17.73-3-23.45-8.82-7-7-10.82-17.94-10.82-30.46,0-12.93,4-23.85,11.42-31.17,5.82-5.61,13.43-8.52,22.95-8.52s17,2.71,22.45,8.12c3.51,3.41,5.41,6.41,7.82,12.63Z"/><path class="a" d="M388.16,22.36a72.17,72.17,0,0,0-.8-11.42c3.51.2,6.21.3,11,.3h16.94c22.34,0,35.07,13.62,35.07,37.58,0,12.52-3.81,22.94-10.72,29.66-6,5.91-14.33,8.92-24.35,8.92H398.38c-4.81,0-7.51.1-11,.3a70.7,70.7,0,0,0,.8-11.93Zm27,58c7.91,0,14.23-2.3,18.74-7.11,5.51-5.62,8.41-14.13,8.41-24.45s-2.6-18.44-7.91-23.75c-4.41-4.61-10.62-6.82-18.84-6.82H396V80.38Z"/><path class="a" d="M555.31,88.1a65.74,65.74,0,0,0-11.22-.7H514.72c-4.81,0-7.61.1-11,.3a69.2,69.2,0,0,0,.8-11.93V22.36a74,74,0,0,0-.8-11.42c3.51.2,6.21.3,11,.3h28.56a75,75,0,0,0,11.23-.7V19a70.59,70.59,0,0,0-11.23-.7H512.42V43.9h26.35A78.67,78.67,0,0,0,550,43.2v8.42a68.15,68.15,0,0,0-11.23-.7H512.42V80.38h31.77a74.34,74.34,0,0,0,11.12-.7Z"/><path class="a" d="M617.24,75.67A63.24,63.24,0,0,0,618,87.4h-9.52a63.24,63.24,0,0,0,.8-11.73V22.36a69.73,69.73,0,0,0-.8-11.42c3.51.2,6.21.3,11,.3H646.1a78.2,78.2,0,0,0,11.52-.7v8.51a70.44,70.44,0,0,0-11.52-.7H617.24V44.21h23.45a76.66,76.66,0,0,0,11.42-.71v8.42a70,70,0,0,0-11.42-.7H617.24Z"/><path class="a" d="M756.33,56a54.21,54.21,0,0,0-10.32.6V48.51a60.43,60.43,0,0,0,10.92.61h2.9a100.36,100.36,0,0,0,10.63-.41,69,69,0,0,0-.7,11.33v9.22a64.37,64.37,0,0,0,.7,11.12c-6,3.51-9,4.91-13.63,6.21A57.62,57.62,0,0,1,741.9,88.5c-9.52,0-17-2.41-22.85-7.42-7.82-6.91-12.33-18.44-12.33-32,0-24.16,13.63-39.49,35-39.49,8.91,0,16.13,2.51,21.44,7.42,3.31,3.1,5.11,6,7.32,11.42l-7.82,2.61c-3.61-9.82-10.32-14.43-21-14.43-16.54,0-26.66,12.32-26.66,32.47,0,10.72,2.91,19.54,8.42,25.45q6.76,7.22,18.64,7.21c7.91,0,14.33-1.8,20.24-5.61V56Z"/><path class="a" d="M887.7,11.24a61.17,61.17,0,0,0-.8,11V76.17a63,63,0,0,0,.8,11.23h-9.42a62.26,62.26,0,0,0,.8-11.23V50.82H833.79V76.17a60.18,60.18,0,0,0,.8,11.23h-9.42a59.5,59.5,0,0,0,.8-11.23V22.46a60.68,60.68,0,0,0-.8-11.22h9.42a60.46,60.46,0,0,0-.8,11V43.7h45.29V22.46a60.68,60.68,0,0,0-.8-11.22Z"/><path class="a" d="M953,11.24a62.88,62.88,0,0,0-.9,11.22V76.17A62.28,62.28,0,0,0,953,87.4h-9.52a60.86,60.86,0,0,0,.8-11.23V22.46a60,60,0,0,0-.8-11.22Z"/><path class="a" d="M1044.33,11.24a60.68,60.68,0,0,0-.8,11.22V67.15c0,6.82-1.31,11.53-4.11,15.13-3.31,4.21-8.82,6.32-16.14,6.32-7,0-12.72-2.11-16.53-6-1.9-1.91-3-3.61-5-7.62l7.91-3.31c1.31,3.11,2.11,4.51,3.51,6,2.41,2.61,5.91,3.91,10.22,3.91,8.52,0,12.33-4.41,12.33-14.43V22.46a60.68,60.68,0,0,0-.8-11.22Z"/><path class="a" d="M1152.15,76.47c5.71,7.22,6.72,8.32,9.42,10.93H1150a60.51,60.51,0,0,0-5.91-8.62l-23.65-30.47-11.73,11.53V76.17a59.5,59.5,0,0,0,.8,11.23h-9.32a60.08,60.08,0,0,0,.81-11.23V22.46a63.44,63.44,0,0,0-.81-11.22h9.32a58,58,0,0,0-.8,11.22V50.22l30.47-30.67c3.8-3.8,5.51-5.81,6.91-8.31h11.82c-1.8,1.7-1.8,1.7-2.6,2.5-1.6,1.61-3.11,3-4.41,4.41-1.8,1.9-3,3.11-3.31,3.41L1125.9,43.1Z"/><path class="a" d="M1222.3,87.4c-4.61,0-7.42.1-10.93.3a69.59,69.59,0,0,0,.81-11.93V23.06a63.92,63.92,0,0,0-.81-11.82h9.43a63.24,63.24,0,0,0-.81,11.82V80.28h31.57a79.55,79.55,0,0,0,11.62-.7V88.1a68.62,68.62,0,0,0-11.62-.7Z"/><path class="a" d="M1324.21,32.18a92.15,92.15,0,0,1-4.51-12.43c.3,4.31.7,10.53.7,12.93V75.57a63.73,63.73,0,0,0,.8,11.83h-9.12a66.42,66.42,0,0,0,.81-11.83V23.16a68.91,68.91,0,0,0-.81-11.92h11.63a47.71,47.71,0,0,0,3.31,9.92l24.75,55.21,24.65-55.21a51.89,51.89,0,0,0,3.41-9.92h11.52a68.27,68.27,0,0,0-.8,11.92V75.57a63.73,63.73,0,0,0,.8,11.83h-9.12a67.25,67.25,0,0,0,.8-11.83V32.08c0-2.81.3-8.22.7-12.33A65.45,65.45,0,0,1,1379.42,32L1359,77a57.72,57.72,0,0,0-3.81,10.43h-7.11a51.32,51.32,0,0,0-3.71-10.53Z"/><path class="a" d="M10.52,149.62c.9,2.31,2.21,4.51,5.11,9L47.3,206c1.1,1.7,4.11,6.61,6.51,10.92-.4-8-.6-12.42-.6-13.33V161.15a63.66,63.66,0,0,0-.8-11.53h9.32a63,63,0,0,0-.8,11.53v53.41a57.4,57.4,0,0,0,.8,11.22H50.81a69,69,0,0,0-5.21-9l-32.17-48.3c-.8-1.2-4.11-6.91-5.51-9.62.4,4.71.6,9.62.6,12.23v42.79a64.11,64.11,0,0,0,.8,11.92H0a64.11,64.11,0,0,0,.8-11.92v-53A63,63,0,0,0,0,149.62Z"/><path class="a" d="M184.48,187.7c0,24.15-13.52,39.58-34.67,39.58s-34.57-15.43-34.57-39.58,13.63-39.58,34.67-39.58S184.48,163.55,184.48,187.7Zm-17.13,25.66c5.71-5.62,8.92-14.94,8.92-25.66,0-11-3-19.84-8.82-25.65a24.44,24.44,0,0,0-17.54-6.92c-16,0-26.55,12.83-26.55,32.47S134,220.17,150,220.17A23.76,23.76,0,0,0,167.35,213.36Z"/><path class="a" d="M237.8,225.78a62.14,62.14,0,0,0,.8-11.22V160.75a74.08,74.08,0,0,0-.8-11.43c3.6.2,6.41.3,11,.3h20.44c15.43,0,24.15,7.92,24.15,21.85,0,14.73-9,23.25-24.65,23.25H246.41v19.74a60.26,60.26,0,0,0,.81,11.32Zm31-38c10.62,0,16.64-5.71,16.64-15.93,0-10-5.82-15.33-16.64-15.33H246.41V187.8Z"/><path class="a" d="M402.94,232c-1.8-2.5-2.91-3.7-8.72-9.42a32.08,32.08,0,0,1-17.64,4.71c-21,0-34.57-15.43-34.57-39.48s13.63-39.68,34.67-39.68,34.58,15.43,34.58,39.48a48.51,48.51,0,0,1-3.61,19.24c-1.9,4.51-3.61,6.92-8,11.63a91.68,91.68,0,0,0,8.72,7.91ZM386.2,204.74c1.71,2,3,3.5,8,8.51a24.42,24.42,0,0,0,5.61-8.21A45.89,45.89,0,0,0,403,187.5c0-19.74-10.22-32.37-26.26-32.37S350.13,168,350.13,187.7s10.52,32.57,27,32.57a22.53,22.53,0,0,0,11.82-3,68.81,68.81,0,0,0-8.22-7.11Z"/><path class="a" d="M515.27,225.78c-.3-3-1.7-7.11-5.91-17.14-5.81-13.72-9.72-17.63-17.74-17.63H473.09v23.45a60.53,60.53,0,0,0,.8,11.32h-9.32a60.75,60.75,0,0,0,.8-11.22V160.85a72,72,0,0,0-.8-11.53c3.51.2,6.31.3,10.92.3h22.05c14.53,0,22.54,6.82,22.54,19.24,0,6.42-1.9,11.23-6,14.73-2.9,2.61-5.41,3.81-10.82,5,4.11,1.21,6.61,3.91,10.22,11,2.41,4.71,4.81,9.92,7.92,16.83a89.11,89.11,0,0,0,4.51,9.32Zm-18.43-41.69a16,16,0,0,0,11.32-4.3c2.61-2.51,3.81-5.82,3.81-10.13,0-8.51-5-13.12-14.53-13.12H473.09v27.55Z"/><path class="a" d="M621.7,169.36c-.81-4-1.61-6-3.51-8.31-3.21-3.81-8.32-5.82-14.83-5.82-10.32,0-17.54,5.52-17.54,13.63,0,5.21,2.81,8.92,8.72,11.33,2.71,1.1,2.81,1.1,14.33,3.6,16,3.41,22.45,9.52,22.45,21.15,0,14.13-9.72,22.14-27,22.14-11.22,0-19.54-3.3-24.15-9.52-2.61-3.5-3.71-6.61-4.71-13.22l8.72-1.11c.3,4.81,1,7.22,3.1,9.92,3.31,4.41,9.32,6.92,16.74,6.92,11.92,0,19.14-5.61,19.14-14.93,0-4.91-2-8.62-5.81-10.72-3.31-1.91-4.41-2.21-16.54-4.92-6.31-1.3-10.22-2.7-13.63-4.6-6.21-3.51-9.31-8.82-9.31-15.84,0-12.62,10.12-20.74,25.65-20.74,9.92,0,17.63,3.21,22.14,9.22,2.31,3,3.31,5.51,4.41,10.62Z"/><path class="a" d="M713.79,214.46a61.9,61.9,0,0,0,.8,11.32h-9.42a59.85,59.85,0,0,0,.8-11.32V156.64H690.34a72.29,72.29,0,0,0-11.53.7v-8.42a70.92,70.92,0,0,0,11.43.7h39.08a70.74,70.74,0,0,0,11.83-.7v8.42a72.33,72.33,0,0,0-11.83-.7H713.79Z"/><path class="a" d="M852.78,149.62A60.57,60.57,0,0,0,852,161v37.17c0,8.82-2.71,16.14-7.72,21.35s-13,7.91-22.75,7.91-17.84-2.8-22.85-8.11c-4.91-5.11-7.41-12.33-7.41-21.15v-37a62.27,62.27,0,0,0-.8-11.53h9.42a58.87,58.87,0,0,0-.8,11.53v36.67c0,14.43,8.21,22.65,22.54,22.65,7.72,0,13.83-2.4,17.54-6.71,3.2-3.91,5-9.52,5-15.94V161.15a63,63,0,0,0-.8-11.53Z"/><path class="a" d="M934.35,211.15c.4,1.1,1.4,4,2.4,7,1-3.11,1.61-4.92,2.31-7l18.84-51.31a42.15,42.15,0,0,0,2.9-10.22h10.42c-1.6,2.71-2.6,5.11-5.11,11.63l-21.44,55.21a76.08,76.08,0,0,0-3.11,9.32h-9.72c-.4-2.1-1.1-4.11-3.21-9.32l-21.44-55.21a88.67,88.67,0,0,0-5.11-11.63H912.4a68.55,68.55,0,0,0,2.91,10.22Z"/><path class="a" d="M1082.16,225.78a94.23,94.23,0,0,0-2.61-9.62l-13.23-43.29a102.77,102.77,0,0,1-2.9-11.52,7.93,7.93,0,0,0-.4,1.7c-.71,2.61-2,7.82-2.61,9.82l-13.13,43.29a78.43,78.43,0,0,0-2.6,9.62H1037c-.3-1.8-.3-1.8-2.7-9.92l-15.84-54.81a64,64,0,0,0-4.11-11.43h10.13a54.06,54.06,0,0,0,1.9,10.42l11.82,43.49c.71,2.41,1.31,5.22,2.71,11.33,1-4,2.2-8.72,3-11.43l13.42-44a68.41,68.41,0,0,0,2.31-9.82h7.51a70.83,70.83,0,0,0,2.41,9.82L1083,203.33c.6,2.21,1,3.71,3,11.53l2.71-11.53L1100.49,160a60.25,60.25,0,0,0,1.91-10.42h10a77.13,77.13,0,0,0-3.91,11.43l-15.93,54.81c-2.21,7.62-2.21,7.72-2.61,9.92Z"/><path class="a" d="M1173.65,215.56a117,117,0,0,0-6,10.22h-11.42c5.51-7.11,6.81-9,8.92-11.92l20.14-28.36-17.74-25.06c-2.8-3.8-5.11-6.91-8.21-10.82h11.22a58.83,58.83,0,0,0,5.61,9.52l14.33,21.15,13.83-21.15c3.51-5.31,4.41-6.81,5.51-9.52h11.32c-2.8,3.41-5.31,6.72-8.31,10.92l-17.64,25,20,28.16c1.91,2.7,4.31,5.91,9.22,12.12h-11.52c-2.91-5-4-6.91-6.22-10.12l-16.53-24.75Z"/><path class="a" d="M1296.5,225.78a63.58,63.58,0,0,0,.8-11.22V193.81l-23-35.47a98.49,98.49,0,0,0-6-8.72h10.93c.8,2.41,1.8,4.31,4.91,9.22l17.33,27.86,17.34-27.86c2.81-4.61,4-6.81,4.71-9.22h11a67.65,67.65,0,0,0-6.11,8.72l-23,35.57v20.65a61.44,61.44,0,0,0,.8,11.22Z"/><path class="a" d="M1440,226.48a67.62,67.62,0,0,0-11.72-.7H1390.7c-6,0-8.22.1-11.43.3V219a71.65,71.65,0,0,0,7.32-8.52l38-49.8c1-1.21,2.2-2.61,3.71-4.31-2,.2-4.71.3-6.12.3h-27.45a74.42,74.42,0,0,0-11.63.7v-8.42a73.59,73.59,0,0,0,11.63.7h32.36c4.11,0,7.32-.1,11.23-.3v6.92a68.55,68.55,0,0,0-7.22,8.51l-37,48.5c-1.4,1.81-2.7,3.31-4.81,5.72,3.41-.2,5.32-.2,7.72-.2h31.27a82,82,0,0,0,11.72-.7Z"/><path class="a" d="M170,357.05c-3.91,3.51-5.82,4.81-9.22,6.12a29.67,29.67,0,0,1-10.42,2c-11,0-17.74-5.71-17.74-15.23,0-8,5-13.83,14.33-16.44,5.91-1.7,10.72-2.3,23.05-2.6v-5.82c0-6.81-4.31-10.32-12.63-10.32-5.51,0-9.62,1.41-12.43,4.31a14.1,14.1,0,0,0-3.1,5.81l-7.82-1.7c1.81-4.61,3.11-6.71,5.61-8.92,4.11-3.81,10.12-5.71,17.64-5.71,13.23,0,20,5.61,20,16.43v28.16a64.3,64.3,0,0,0,.8,11H170Zm0-20.24c-11.93.3-17.64,1-22.15,2.91-5.11,2.1-7.62,5.51-7.62,10.32,0,5.51,4.11,9,10.63,9a22.66,22.66,0,0,0,16-7.12c2.3-2.5,3.11-4.61,3.11-8.62Z"/><path class="a" d="M232.29,364.17a79.26,79.26,0,0,0,.7-11.53V299.33a82.92,82.92,0,0,0-.7-11.32h8.81a76.78,76.78,0,0,0-.7,11.42V313a55.45,55.45,0,0,1-.4,7.11c4.71-7.41,11.53-11,20.65-11,15.43,0,24.65,10.42,24.65,27.86,0,17.64-9.42,28.26-25.06,28.26-6.31,0-10.92-1.6-15.53-5.41a18.28,18.28,0,0,1-4.71-5.21,34.27,34.27,0,0,1,.3,4v5.61ZM260,315.46c-11.82,0-19.64,8.62-19.64,21.45s7.82,21.75,19.34,21.75c11.23,0,17.84-8.12,17.84-21.85C277.58,323.28,271.17,315.46,260,315.46Z"/><path class="a" d="M375.79,326.69c-2.91-7.82-7.72-11.53-15.14-11.53-11,0-18,8.62-18,22,0,13.23,7.21,21.65,18.43,21.65,5.72,0,10.43-2.31,13-6.42a16.2,16.2,0,0,0,2.21-5.11l7.51,2a27.24,27.24,0,0,1-4.11,7.71c-4.41,5.51-10.82,8.42-18.94,8.42-15.73,0-25.85-10.92-25.85-28.06,0-17.34,10-28.66,25.35-28.66,8.32,0,15,3.21,19.34,9.22a26.75,26.75,0,0,1,3.51,6.41Z"/><path class="a" d="M478.1,359.26a44.27,44.27,0,0,1,.3-4.91c-4.71,7.31-11.22,10.82-20.34,10.82-15.44,0-24.86-10.62-24.86-28.06,0-17.14,9.62-28.06,24.65-28.06,9.12,0,16.14,3.71,20.55,10.62l-.1-1.5a30.37,30.37,0,0,1-.3-5.31V299.43a78.6,78.6,0,0,0-.7-11.42h8.81a81.92,81.92,0,0,0-.7,11.32v53.31a78.35,78.35,0,0,0,.7,11.53h-8Zm-37-22.35c0,6.61,1.5,12.33,4.11,15.63,3.11,3.91,7.82,6,13.43,6,11.72,0,19.24-8.52,19.24-21.75,0-6.61-2-12.43-5.61-15.93a19.34,19.34,0,0,0-13.63-5.32C447.73,315.56,441.12,323.58,441.12,336.91Z"/><path class="a" d="M545.94,338.31c.3,6.72,1.3,10.43,4,14,3.2,4.41,8.12,6.82,14.13,6.82,8.11,0,13.73-4,16.53-11.73l7,2.81a24.16,24.16,0,0,1-5.51,8.32c-4.71,4.61-10.83,7-18.14,7-15.74,0-25.66-11-25.66-28.36,0-17.14,9.82-28.36,24.85-28.36,12.93,0,22.25,8.32,24.26,21.75.1,1.1.5,5,.7,7.71ZM580.11,332c-.6-5.61-2.1-9.22-5.31-12.33A16.28,16.28,0,0,0,563,315.16a15.7,15.7,0,0,0-14.23,8.72c-1.4,2.51-1.9,4.31-2.5,8.12Z"/><path class="a" d="M643.24,316.57a65.58,65.58,0,0,0-9.12.6v-7.62a56.94,56.94,0,0,0,9.12.6h4.11v-5.91c0-6.11.8-9.32,3.11-12.22,2.4-3.11,7-4.91,12.62-4.91a27.51,27.51,0,0,1,10.63,2l-2.11,6.71a15.35,15.35,0,0,0-8.32-2.3c-3.2,0-5.51.9-6.81,2.7-1.1,1.61-1.5,3.71-1.5,8.42v5.51h5a70.74,70.74,0,0,0,10.62-.6v7.62a64,64,0,0,0-10.62-.6h-5v36.37a75,75,0,0,0,.7,11.23h-9a81.08,81.08,0,0,0,.7-11.33V316.57Z"/><path class="a" d="M728.52,371.18a13.77,13.77,0,0,0,3.21,3.51c3.8,3.31,8,4.71,13.42,4.71,8.72,0,14.84-3.81,17.44-11,1-2.91,1.4-6.52,1.8-14.84a18.26,18.26,0,0,1-4.3,5.52c-3.81,3.4-9.42,5.21-15.54,5.21-15.13,0-24.75-10.53-24.75-27.26,0-17,9.82-27.86,25.35-27.86q13.08,0,19.24,10.52c-.1-1.7-.2-2.5-.2-3.81v-5.71h8a76.8,76.8,0,0,0-.7,11.23v35.87c0,9.82-1.8,16.14-5.81,20.85-4.21,4.91-11.73,7.61-20.85,7.61-9.92,0-16.13-2.8-22.74-10ZM745,358c11.43,0,19-8.71,19-21.74,0-12.63-7.21-20.75-18.44-20.75s-17.93,8.22-17.93,21.55C727.62,350,734.23,358,745,358Z"/><path class="a" d="M826.92,364.17a71.54,71.54,0,0,0,.71-11.33V299.33a72.24,72.24,0,0,0-.71-11.32h8.92a62.37,62.37,0,0,0-.8,11.42v16.94a34.34,34.34,0,0,1-.3,5,22.83,22.83,0,0,1,5.51-6.82,21.55,21.55,0,0,1,15-5.41c11.73,0,18.74,6.92,18.74,18.64v25.15a75.89,75.89,0,0,0,.7,11.23h-9a70.38,70.38,0,0,0,.7-11.33V329.19c0-8.72-4.31-13.43-12.13-13.43-5.61,0-10.22,2.41-14.13,7.32a23.3,23.3,0,0,0-5,10.52v19.24a81.08,81.08,0,0,0,.7,11.33Z"/><path class="a" d="M938.76,288v8.92H929V288Zm-.4,22.14a70.71,70.71,0,0,0-.71,11.33v31.36a77.67,77.67,0,0,0,.71,11.33h-9a87.23,87.23,0,0,0,.7-11.33V321.48a73.75,73.75,0,0,0-.7-11.33Z"/><path class="a" d="M1005.09,310.15a72,72,0,0,0-.7,11.33v49.2c0,10.62-4.51,15.23-14.93,15.23-6.41,0-10.42-1.9-14.93-7.31l6.91-4.51c2.61,3.81,4.82,5.21,8.42,5.21,5.11,0,6.92-2.41,6.92-9.22v-48.6a72.89,72.89,0,0,0-.7-11.33Zm.41-22.14v9h-9.73v-9Z"/><path class="a" d="M1069.23,288a71.91,71.91,0,0,0-.7,11.32v36.28l18.13-17.54c4.31-4.11,5.72-5.81,7.12-7.92h11.92c-1.4,1.31-1.4,1.31-4.1,3.71-1,.9-2.21,2-3.61,3.41a21.91,21.91,0,0,0-1.6,1.6l-13.93,12.93,16.93,21.84c6,7.72,6.51,8.32,8.72,10.53h-11.42c-1.11-2.41-1.31-2.81-6.32-9.52L1077,336.41l-8.51,8.12v8.41a75,75,0,0,0,.7,11.23h-8.92a74.62,74.62,0,0,0,.7-11.33V299.33a72.75,72.75,0,0,0-.7-11.32Z"/><path class="a" d="M1167.33,288a72.75,72.75,0,0,0-.7,11.32v53.61a79.63,79.63,0,0,0,.7,11.23h-9a75.89,75.89,0,0,0,.7-11.23V299.23a72.23,72.23,0,0,0-.7-11.22Z"/><path class="a" d="M1222,364.17a75.5,75.5,0,0,0,.7-11.33V321.48a72.89,72.89,0,0,0-.7-11.33h8.11v5.51c0,.51-.1,1.71-.2,3.61a20.87,20.87,0,0,1,3.81-5c3.41-3.4,8.32-5.21,14.13-5.21s9.92,1.71,12.93,5.11c1.5,1.6,2.1,2.81,3.1,5.81,4.71-7.71,10.12-10.92,18.54-10.92,6.62,0,11.63,2.11,14.63,6.11,2.41,3.21,3.41,7.12,3.41,13v24.75a70.68,70.68,0,0,0,.7,11.23h-9a61.06,61.06,0,0,0,.7-11.33V329.19c0-9.52-3.5-13.63-11.52-13.63a15,15,0,0,0-12.63,7.32,21.62,21.62,0,0,0-3.3,10.32v19.74a69.85,69.85,0,0,0,.7,11.23h-9a72,72,0,0,0,.7-11.33V329.19c0-8.82-4-13.63-11.22-13.63-5.21,0-10,2.81-13.13,7.62a22.43,22.43,0,0,0-3.31,10v19.64a80.12,80.12,0,0,0,.7,11.33Z"/><path class="a" d="M110.93,502.55a64,64,0,0,0,.8-11.32V459.86a67.79,67.79,0,0,0-.8-11.32h8.32v6.81a26.84,26.84,0,0,1-.3,4.31c4.71-8.21,11.22-12.12,20.24-12.12,7.22,0,12.83,2.6,16,7.51,1.9,2.91,2.8,6.62,2.8,11.53v24.75a68.1,68.1,0,0,0,.7,11.22h-9a80.88,80.88,0,0,0,.71-11.32V467.88c0-9-4.31-13.83-12.23-13.83-5.61,0-10.12,2.51-14.33,7.92a21.36,21.36,0,0,0-4.61,9.92v19.34a80.94,80.94,0,0,0,.7,11.32Z"/><path class="a" d="M210.74,475.6c0-17.34,10.42-28.36,26.76-28.36s26.65,11,26.65,28.25-10.42,28.36-26.55,28.36C221.16,503.85,210.74,492.93,210.74,475.6Zm7.72-.21c0,13.63,7.31,21.95,19,21.95s18.94-8.32,18.94-21.85-7.22-21.94-18.74-21.94C225.77,453.55,218.46,461.87,218.46,475.39Z"/><path class="a" d="M316.26,523.6a82.59,82.59,0,0,0,.7-11.23V460.06a79.12,79.12,0,0,0-.7-11.52h8v5.71a33.07,33.07,0,0,1-.3,4.11c4.51-7.11,11.52-10.82,20.44-10.82,15.43,0,24.85,10.52,24.85,27.95,0,17-9.62,28-24.65,28-8.82,0-15.93-3.7-20.64-10.62a56.13,56.13,0,0,1,.4,7v12.42a76.4,76.4,0,0,0,.7,11.33Zm45.19-48.11c0-13.62-6.41-21.44-17.63-21.44-11.53,0-19.34,8.62-19.34,21.55,0,6.51,2.1,12.52,5.71,16a19.75,19.75,0,0,0,13.73,5.31C354.84,496.94,361.45,488.82,361.45,475.49Z"/><path class="a" d="M463.17,523.6a79.17,79.17,0,0,0,.7-11.33V499.85a53,53,0,0,1,.4-7c-4.71,7-11.73,10.62-20.34,10.62-15.44,0-25-10.62-25-27.85s9.62-28.06,24.76-28.06c9.12,0,16,3.6,20.54,10.82a30.6,30.6,0,0,1-.3-4.11v-5.71h8a75.86,75.86,0,0,0-.71,11.52v52.31A78.11,78.11,0,0,0,472,523.6Zm-18.84-26.66c11.72,0,19.44-8.52,19.44-21.65,0-12.82-7.52-21.24-19-21.24-11.23,0-17.94,8-17.94,21.55C426.79,488.92,433.4,496.94,444.33,496.94Z"/><path class="a" d="M559.07,456.25a23.82,23.82,0,0,0-8.12-1.5,14.82,14.82,0,0,0-12.33,6.11c-2.4,3.11-3.3,5.52-3.7,10v20.44a78.52,78.52,0,0,0,.7,11.22h-9a91.56,91.56,0,0,0,.7-11.32V459.86a72.75,72.75,0,0,0-.7-11.32h8.32v5.71a29.28,29.28,0,0,1-.1,3,17.54,17.54,0,0,1,5.51-6.12,20,20,0,0,1,12-3.5,46.1,46.1,0,0,1,8.92.9Z"/><path class="a" d="M615.38,486.52c.71,3.71,1.51,5.51,3.51,7.31,2.51,2.31,6.51,3.51,11.63,3.51,8.71,0,14.22-3.71,14.22-9.62,0-2.8-1-4.91-3.1-6.21-2.41-1.51-4.41-2.11-11.83-3.61-8-1.7-11.42-2.91-14.83-5.21a12.34,12.34,0,0,1-5.41-10.52,13.37,13.37,0,0,1,4.31-9.72c3.51-3.41,8.92-5.21,15.63-5.21s12.13,1.6,15.74,4.81c2.6,2.2,4,4.51,5.31,9.12l-7.92,1.3c-.6-2.71-1.1-3.91-2.5-5.31-2.31-2.51-5.92-3.81-10.43-3.81-7.31,0-12.52,3.71-12.52,9a6.16,6.16,0,0,0,3.4,5.51c2.31,1.3,4.91,2.1,11.13,3.41,9.72,2.2,12.92,3.4,15.93,5.71a13.2,13.2,0,0,1,4.81,10.42c0,10-8.52,16.23-22.25,16.23-9.12,0-16.13-2.7-19.84-7.81-1.5-2.11-2.2-3.81-3.2-7.92Z"/><path class="a" d="M719.6,433.61a72.48,72.48,0,0,0-.7,11.12v3.81h4.81a61.71,61.71,0,0,0,10.22-.6v7.61a60.31,60.31,0,0,0-10.22-.6H718.9v34.88c0,2.9.4,4.4,1.3,5.31a6.8,6.8,0,0,0,4.91,1.7c2.61,0,4.61-.6,7.92-2.61l2.2,7a27,27,0,0,1-11.32,2.3c-4.41,0-7.82-1.1-9.82-3.1s-2.81-4.91-2.81-9.62V455h-4a67.32,67.32,0,0,0-9,.6v-7.61a45.61,45.61,0,0,0,9,.6h4v-3.81a76.07,76.07,0,0,0-.7-11.12Z"/><path class="a" d="M823.32,496a30.83,30.83,0,0,1,.3-4.41c-5,8.22-11.23,11.92-20.25,11.92-7.21,0-12.82-2.6-16-7.41-1.8-2.91-2.81-6.82-2.81-11.63V459.76a72.23,72.23,0,0,0-.7-11.22h9a77.16,77.16,0,0,0-.7,11.32v23.35c0,8.92,4.31,13.93,12.13,13.93,5.71,0,10.42-2.51,14.43-7.92a23.51,23.51,0,0,0,4.61-10V459.86a76.61,76.61,0,0,0-.71-11.32h8.92a75.36,75.36,0,0,0-.7,11.32v31.37a67.79,67.79,0,0,0,.8,11.32h-8.31Z"/><path class="a" d="M889.65,448.54a54.35,54.35,0,0,0,3.11,9.82l11.42,29.46c.51,1.3,1.61,4.51,2.21,6.51.8-2.5,1.4-4.2,2.3-6.41l11.43-29.56a46.21,46.21,0,0,0,3-9.82h9.42c-1.3,2.4-1.6,3.21-4.91,11l-14,33.77c-2.2,5.51-2.5,6.12-3.2,9.22h-7.92a59.73,59.73,0,0,0-3.31-9.22l-13.93-33.77c-1.9-4.41-2.9-6.61-5-11Z"/><path class="a" d="M1026.34,502.55a64.31,64.31,0,0,0-2-7.51l-9.82-29.16c-.2-.51-.7-2.61-1.7-6.32-.8,2.81-1.6,5.51-1.9,6.52l-9.72,29a55.63,55.63,0,0,0-2.11,7.51h-7a66.11,66.11,0,0,0-2.21-7.61l-10.72-34.58c-1.2-3.7-2.81-8.41-4-11.82h9.22a45.1,45.1,0,0,0,2.31,10.92l7.31,25c.5,1.71,1.1,3.81,1.8,7.32.61-2.31,1.81-6.31,2.11-7.22l9.52-28.36a36,36,0,0,0,2-7.61h6.72a54.65,54.65,0,0,0,2,7.61l9.62,28.87c.3.9.9,3.1,1.31,4.51s.4,1.5.6,2.2c.9-3.91,1.4-6.21,1.6-6.81l7.51-25.46a50.64,50.64,0,0,0,2.21-10.92h9.12c-.8,2.1-2.11,6.11-3.91,11.82L1035.36,495a58,58,0,0,0-2.11,7.51Z"/><path class="a" d="M1133.56,502.55a84.72,84.72,0,0,0-4.51-7.41l-10.62-15.34L1107.31,496a47.65,47.65,0,0,0-3.91,6.51h-9.92c1.6-2,4.31-5.51,6.51-8.72l13.93-19.24-12.93-18c-.6-.91-1.4-1.91-6-8h9.82a34.79,34.79,0,0,0,3.91,6.71l9.82,14.13,9.72-14.13a45.53,45.53,0,0,0,3.91-6.71h9.62c-2.31,3.21-4.41,5.91-6.11,8.32L1123,474.59,1136.27,493c1,1.3,1,1.3,7.21,9.52Z"/><path class="a" d="M1192.18,460.26c-4.51-9.92-4.51-9.92-5.51-11.72h9.82a55.64,55.64,0,0,0,3.41,10.62l14.53,33.67,12.93-33.67c2-5.11,2.9-7.81,3.3-10.62H1240c-.6,1.5-2.3,5.41-4.91,11.72L1212.63,515c-2.61,6.41-7,9.32-14.13,9.32a38.67,38.67,0,0,1-8.22-1.1l2.1-7.42c2.81,1.3,4.21,1.7,6.12,1.7,3.4,0,5.81-1.8,7.41-5.51l4.61-11Z"/><path class="a" d="M1326.36,454.25a84.74,84.74,0,0,0-6.71,8.22l-21.55,28.76c-.2.2-1.7,2.1-3.8,4.71,4.91-.2,5.21-.2,6.91-.2H1317a68.76,68.76,0,0,0,11.33-.7v8.21a72,72,0,0,0-11.33-.7H1295.8c-6.21,0-8.32.1-11.12.3v-6.61a81.44,81.44,0,0,0,6.81-8.12l22-29.46a35.9,35.9,0,0,1,3-3.61c-2.7.2-3.6.2-5,.2H1297.9a80.45,80.45,0,0,0-11.22.7v-8.11a79.48,79.48,0,0,0,11.22.7h17.84a89.58,89.58,0,0,0,10.62-.3Z"/><path class="a" d="M85,564.28a48.61,48.61,0,0,0,8.32.5h6.31a57.21,57.21,0,0,0,8.32-.5,161.91,161.91,0,0,0-.91,16.63v48.7a63.15,63.15,0,0,0,.81,11.33H98.31a63.43,63.43,0,0,0,.8-11.33v-58H93.7a60.63,60.63,0,0,0-8.72.6Z"/><path class="a" d="M192,640.94a71.92,71.92,0,0,0-11,.5c1.1-7.92,1.4-9.42,2.91-13.23,2.5-6.31,6.71-11.82,13-17.24,3.51-3,3.71-3.1,15.33-11,9.93-6.71,13.23-11.12,13.23-17.23,0-7.62-6.41-12.53-16.63-12.53-6.62,0-11.53,2.2-14.53,6.51-1.91,2.71-2.81,5.11-3.51,10.12l-8.42-1.4c1.51-7.21,3-10.72,6.31-14.43,4.51-5.11,11.33-7.71,20.15-7.71,15.13,0,24.85,7.61,24.85,19.44,0,5.11-2,9.92-5.91,14.23-3,3.4-5.61,5.31-17,12.92-7.92,5.31-11.12,8.12-14.43,12.33a28,28,0,0,0-5.71,11.62h32a87.61,87.61,0,0,0,12.22-.7v8.42a112.84,112.84,0,0,0-12.32-.6Z"/><path class="a" d="M294.21,622.4c1.61,5.21,3,7.31,6.12,9.52,3.4,2.4,7.81,3.61,12.92,3.61,11.63,0,18.94-6,18.94-15.54,0-9.92-7.11-15.33-20.44-15.33a70.47,70.47,0,0,0-8,.5v-7.91a42.89,42.89,0,0,0,7.42.6c6.61,0,11.52-1.51,14.63-4.61a13.8,13.8,0,0,0,4-9.72c0-8.62-6-13.63-16.13-13.63-6.12,0-10.53,1.7-13.33,5.31-1.41,1.8-2.11,3.41-3.21,7.12l-8.32-1.81c1.71-5.11,2.91-7.41,5.41-10,4.41-4.81,11.23-7.31,20-7.31,14.53,0,23.75,7.61,23.75,19.64,0,6.11-2.61,11.52-7,14.63-2.6,1.9-4.81,2.7-9.42,3.6,5.81.61,8.92,1.71,12.33,4.31,4.41,3.41,6.71,8.72,6.71,15.13,0,13.53-10.42,22-27.16,22-10.12,0-17.63-2.81-22.44-8.22-2.11-2.4-3.31-4.61-5.11-9.72Z"/><path class="a" d="M390.62,614.38c2.1-2.4,4.41-5.21,6.51-7.71L422.48,575A114.84,114.84,0,0,0,430,564.78h7.51a166.49,166.49,0,0,0-.6,16.93v32.87h3.81a67.34,67.34,0,0,0,10.42-.7v8.32a68.68,68.68,0,0,0-10.52-.7h-3.71v8.61a57.61,57.61,0,0,0,.8,10.83H428.6a58.37,58.37,0,0,0,.8-10.83V621.5H402.54c-5.61,0-8.62.1-11.92.4Zm38.88-25.15a122.15,122.15,0,0,1,.6-13.63c-2.11,3-4.61,6.31-7.52,10l-23.05,29.06h30Z"/><path class="a" d="M511.77,593.84a29.07,29.07,0,0,1-.8,4.51,24.35,24.35,0,0,1,17.53-6.92c7.32,0,13.53,2.41,18,6.82s6.72,10.22,6.72,17.64c0,16.13-10.53,26.45-27.06,26.45-7.82,0-14.33-2.3-19.14-6.81-2.51-2.51-3.91-4.61-6.31-9.42L509,623.7a15.29,15.29,0,0,0,3.21,5.81,18.65,18.65,0,0,0,14.23,5.92c11.22,0,18.74-7.62,18.74-19.14,0-11-6.92-18.24-17.54-18.24a20.79,20.79,0,0,0-13.13,4.21,12.89,12.89,0,0,0-4.61,6l-7.51-.7a80,80,0,0,0,1.5-10.32l2.21-22.65c.2-2.91.3-4.11.3-6a40.09,40.09,0,0,0-.2-4.31,68.23,68.23,0,0,0,10.62.5h20.64a66,66,0,0,0,11.73-.8v8.51a69.75,69.75,0,0,0-11.73-.8H513.87Z"/><path class="a" d="M650.66,581.41c-1.3-3.2-2-4.61-3.51-6.31a15.25,15.25,0,0,0-11.92-5c-7.82,0-13.73,4.21-17.34,12.43-2.61,6-3.51,10.62-4.21,21.54a21.07,21.07,0,0,1,5-6.41c4.71-4.21,10-6.12,16.94-6.12,15.53,0,25.15,9.62,25.15,25.06s-10.42,25.75-26.25,25.75c-7.12,0-13.83-2.3-18.14-6.31-6.52-6-10.12-17.24-10.12-31.47,0-12.53,2.8-23.75,7.61-30.26,5.31-7.22,12.43-10.92,21.15-10.92,6,0,11.42,1.5,15.23,4.2,3.51,2.51,5.51,5.21,8.42,11.23Zm-16.13,16.84A20.23,20.23,0,0,0,620.7,604a17.54,17.54,0,0,0-5,12.73c0,10.82,8.11,18.84,18.94,18.84,6.51,0,12.52-3.11,15.63-8.12a21.66,21.66,0,0,0,2.6-10.62C652.86,605,646.25,598.25,634.53,598.25Z"/><path class="a" d="M765.9,571.59c-1.8,1.41-3.51,3.61-7.42,9.62-9,13.93-13.22,22.45-17.13,34.68-2.61,8.31-3.71,13.42-5.31,25.05h-9.52c3.2-18.14,5.91-27.16,12.12-40,4.81-10,9.12-16.93,18-29.06H724.11a77.16,77.16,0,0,0-11.32.7v-8.51a78.6,78.6,0,0,0,11.42.7h30.06a87.74,87.74,0,0,0,11.63-.5Z"/><path class="a" d="M866.21,605.36c5,3.71,7.51,9,7.51,15.74,0,13.72-10,21.44-27.65,21.44-18.34,0-28.46-7.61-28.46-21.44,0-7.22,2.9-12.73,8.91-16.64a20.83,20.83,0,0,1,9-3.41c-8.82-1.6-14.53-8.71-14.53-18,0-12.13,9.52-19.84,24.66-19.84,15.33,0,24.75,7.51,24.75,19.84,0,9.32-5.61,16.33-14.53,18A20.33,20.33,0,0,1,866.21,605.36Zm-40.39,15.23c0,9.52,7.32,15.14,19.75,15.14,7,0,12.72-1.81,16.13-5.21,2.5-2.31,3.81-5.82,3.81-9.93,0-9.82-7.52-15.73-19.84-15.73S825.82,610.87,825.82,620.59Zm3-37c0,8.92,6.41,14.33,16.94,14.33s16.83-5.41,16.83-14.33c0-8.42-6.61-13.73-16.93-13.73S828.83,575.3,828.83,583.62Z"/><path class="a" d="M933.75,624.3c1.2,3.31,2,4.71,3.61,6.42,2.8,3.1,7.11,4.71,12.62,4.71,7.22,0,12.43-2.91,16.14-9.22a40.56,40.56,0,0,0,4.31-12.83,112.53,112.53,0,0,0,.9-11.72,20.3,20.3,0,0,1-4,5.61c-5.11,4.81-10.72,7-18.24,7s-13.73-2.3-18-6.61-6.81-10.92-6.81-18c0-15.93,10.72-26.35,27.16-26.35a25.11,25.11,0,0,1,24.25,16.83c2,5.41,2.9,12.23,2.9,20.84,0,13.93-2.9,25.26-8.31,32-5,6.31-11.63,9.32-20.85,9.32q-10.36,0-16.83-5.41c-2.81-2.31-4.41-4.61-7-9.92ZM969.42,589c0-10.82-8-18.94-18.74-18.94a18.6,18.6,0,0,0-15.93,8.52,21.23,21.23,0,0,0-2.6,10.52c0,11.32,6.91,18.44,17.83,18.44C961.11,607.57,969.42,599.65,969.42,589Z"/><path class="a" d="M1039.77,635.33a25,25,0,0,1-6-9.22A69.14,69.14,0,0,1,1030,603c0-10.62,2.3-21.45,5.81-27.26,4.81-8.12,12.53-12.32,22.45-12.32,7.41,0,13.83,2.4,18.34,7.11a25.3,25.3,0,0,1,6,9.22,69.09,69.09,0,0,1,3.81,23.25c0,12.12-2.61,22.85-7,29-5,7-12,10.52-21.24,10.52C1050.69,642.44,1044.48,640,1039.77,635.33Zm5.81-59.93a20.67,20.67,0,0,0-4.51,7.32A62.23,62.23,0,0,0,1038,603c0,9.32,2,19.14,4.71,23.85a17.06,17.06,0,0,0,15.53,8.72c5,0,9.32-1.61,12.32-4.71a19.67,19.67,0,0,0,4.71-7.82,62,62,0,0,0,3.11-20.24c0-8.72-1.9-18.64-4.51-23.35-3.31-6-8.72-9.12-15.73-9.12A16.32,16.32,0,0,0,1045.58,575.4Z"/><path class="a" d="M1143.39,622.1c.2-3.11.2-3.71.2-7.12v-3.6l-.9-35.58c-.1-4.21-.2-7.21-.61-11H1152c-.3,3.81-.5,6.81-.6,11l-.8,35.58c-.1,4.2-.1,4.2-.1,4.61,0,1.8.1,3.6.3,6.11Zm-1.11,18.84v-9.42H1152v9.42Z"/><path class="a" d="M1225.26,622.1a31.08,31.08,0,0,0,.4-6.52c0-5.21,1.1-8.51,3.71-12,2-2.71,3-3.51,8.81-7.52a46,46,0,0,0,6.82-5.41,12,12,0,0,0,3.51-8.31c0-7.52-6.62-12.73-16.14-12.73-6.51,0-11.62,2.2-14.93,6.31-1.7,2.21-2.5,4.11-3.61,8.32l-8.42-1.3c2.11-7.32,4.11-10.73,8.22-14.13,4.61-3.91,11.13-5.92,19-5.92,13.83,0,23.95,7.82,23.95,18.54a18.91,18.91,0,0,1-2.4,9.72c-1.81,3-3.61,4.81-9.12,8.72-5.91,4.11-7.62,5.51-9,7.52-1.8,2.5-2.61,5.31-2.61,9.22a39.65,39.65,0,0,0,.4,5.51Zm9.22,9.42v9.42h-9.72v-9.42Z"/><path class="a" d="M1333,564.78l-3.4,21.84h13.12l3.51-21.84h6.51l-3.4,21.84h11.92v6h-12.93l-2.8,18h11.92v6h-12.92l-3.81,24.25h-6.62l3.91-24.25h-13.23l-3.8,24.25h-6.62l3.91-24.25h-12.42v-6h13.32l2.81-18h-12.33v-6H1323l3.51-21.84Zm-7.21,45.89h13.12l2.81-18h-13.13Z"/><path class="a" d="M280.3,739.94c-3.61-3.51-5.51-9.42-5.51-16.83,0-13.43,6.41-21.35,17.44-21.35s17.33,7.82,17.33,21.35c0,7.41-1.9,13.32-5.51,16.83a17.89,17.89,0,0,1-23.75,0Zm1.2-16.83c0,9.82,3.91,15.43,10.73,15.43s10.62-5.61,10.62-15.43-3.81-15.44-10.62-15.44S281.5,713.28,281.5,723.11Zm61.33-22,4.21,3.21-60.73,76.86-4.2-3.41Zm-17.73,75c-3.61-3.51-5.52-9.42-5.52-16.74C319.58,745.85,326,738,337,738s17.34,7.81,17.34,21.34c0,7.42-1.91,13.23-5.52,16.74A16.68,16.68,0,0,1,337,780.63,16.34,16.34,0,0,1,325.1,776.12Zm1.2-16.74c0,9.72,3.91,15.33,10.72,15.33s10.62-5.61,10.62-15.33c0-9.92-3.81-15.43-10.62-15.43S326.3,749.46,326.3,759.38Z"/><path class="a" d="M464.49,779.32a80.79,80.79,0,0,0-6.32-7.61l-2.3-2.41c-4.81,4.71-7.52,6.62-12.23,8.62a40,40,0,0,1-15.13,2.91c-8.22,0-14.63-2.21-18.84-6.52A20.26,20.26,0,0,1,404,759.68,21.27,21.27,0,0,1,410.57,744c3.21-3.21,6-5,12.93-8.12l-3.41-3.61c-4.81-4.91-6.61-8.91-6.61-14.13a14.23,14.23,0,0,1,2.6-8.41c3.61-5.31,9.52-7.92,17.64-7.92,12,0,20.24,6.41,20.24,15.73,0,5.62-1.9,9.92-5.81,13.33-2.8,2.41-3.91,3-13.12,7.12L456,759c5.21-7.62,7.41-12.83,9.22-22.25l7,2.71c-4,12.73-6,17-11.42,24.35l6.51,6.61c3.31,3.31,6.72,6.52,9.52,8.92Zm-36.28-38.48c-6.41,2.81-8.92,4.31-11.62,6.92a15.28,15.28,0,0,0-5,11.42c0,9.12,6.81,14.93,17.53,14.93a29.93,29.93,0,0,0,12.43-2.7,32,32,0,0,0,9.52-6.92Zm2-7.81c7.32-3,8.62-3.61,10.43-4.81,4-2.71,5.81-5.82,5.81-9.83,0-6.41-4.81-10.32-12.63-10.32s-12.72,4-12.72,10.53c0,3.7,1.3,6.51,4.71,9.92Z"/><path class="a" d="M595.26,772.31c-5.21,3.2-7.72,4.41-12.23,5.81a63.69,63.69,0,0,1-17.83,2.71c-24.05,0-40.59-15.74-40.59-38.58,0-23.55,18.14-40.59,43.19-40.59,22.15,0,36.88,13.23,36.88,33.07,0,11.72-5.11,21.54-14,27.06a24.63,24.63,0,0,1-11.82,3.7c-4.51,0-7.42-2.6-7.42-6.71a5.74,5.74,0,0,1,.1-1.2c-2.1,2.7-3.31,3.81-5.41,4.91a18.65,18.65,0,0,1-8.42,2c-8.42,0-13.93-6.51-13.93-16.53a38.83,38.83,0,0,1,6.52-21c4.61-6.71,11.42-10.62,18.43-10.62,5.72,0,9.42,2.41,10.63,6.72l1.4-5.22h6.61a74.75,74.75,0,0,0-2.9,9.42l-7.22,27.46a6.58,6.58,0,0,0-.4,2.31c0,2,.9,2.9,3.11,2.9s5.71-1.4,8.52-3.41c6.41-4.81,10.12-12.62,10.12-21.64,0-16.54-12.43-27.76-30.67-27.76-21,0-36.87,15.13-36.87,35.18,0,19.34,14.22,32.76,34.57,32.76a48.38,48.38,0,0,0,16.93-3.1,28.47,28.47,0,0,0,8.92-5.11Zm-39.08-42.89a37.4,37.4,0,0,0-5.81,18.94c0,6.71,2.9,10.52,8,10.52,4.81,0,9.82-3.81,13-9.72a42.53,42.53,0,0,0,4.81-18.64c0-5.71-2.51-8.72-7.42-8.72S559.39,724.51,556.18,729.42Z"/><path class="a" d="M671.42,703.16l-2.31,13.23,10.33-8.52,3.9,5.81-12.82,5,12.42,4.71-3.6,6L669,720.8l2.41,13.43H664l2.41-13.43L656,729.42l-3.61-6,12.53-4.71-12.83-5,3.91-5.81,10.32,8.52L664,703.16Z"/><path class="a" d="M734.15,746c4.51-.9,5.41-2.8,5.41-12V715.49c0-7.92,4.61-12.33,13-12.33h5.51v6.62h-2.91c-6.11,0-8.21,1.9-8.21,7.31v15.23c0,12.33-.71,14.54-5.22,16.64,4.51,2.3,5.22,4.51,5.22,16.73v15.24c0,5.41,2.1,7.31,8.21,7.31h2.91v6.62h-5.51c-8.42,0-13-4.41-13-12.33V764c0-9.12-.9-11-5.41-11.92Z"/><path class="a" d="M827,795.86c-5.81-8.92-8.22-13.73-10.62-21a84.64,84.64,0,0,1,0-52.11c2.4-7.11,4.81-11.92,10.62-20.84l6.31,4c-5.61,8.62-7.81,13.13-10,20.24a77.48,77.48,0,0,0,0,45.4c2.21,7.11,4.41,11.62,10,20.24Z"/><path class="a" d="M922.14,703.16l-36.08,91.7h-7.51l36.17-91.7Z"/><path class="a" d="M987,703.16v97.21h-7.41V703.16Z"/><path class="a" d="M1088,794.86h-7.41l-36.18-91.7h7.52Z"/><path class="a" d="M1156.43,752.07c-4.51.9-5.41,2.8-5.41,11.92v18.54c0,7.92-4.61,12.33-13,12.33h-5.51v-6.62h2.9c6.12,0,8.22-1.9,8.22-7.31V765.69c0-12.22.7-14.43,5.21-16.73-4.51-2.1-5.21-4.31-5.21-16.64V717.09c0-5.41-2.1-7.31-8.22-7.31h-2.9v-6.62H1138c8.42,0,13,4.41,13,12.33v18.44c0,9.22.9,11.12,5.41,12Z"/></svg>