<svg xmlns="http://www.w3.org/2000/svg" viewBox="0 0 841.89 595.28"><defs><style>.a{fill:#040000;}.b{fill:#231815;}</style></defs><title>header</title><path class="a" d="M412.13,248.75a7.66,7.66,0,0,1-7.71,7.66v5.64h43.51l0-5.64a7.66,7.66,0,0,1-7.71-7.66V179.2c0-34.27-40.4-59.25-80.93-21.42V62.38H352.1L323.46,84.72l0,5.63a7.67,7.67,0,0,1,7.7,7.67V248.75a7.66,7.66,0,0,1-7.7,7.66l0,5.64H367l0-5.64a7.66,7.66,0,0,1-7.71-7.66V165h0c35-29.18,52.87-8.59,52.87,20Z"/><path class="a" d="M116.16,226.34a7.66,7.66,0,0,1-7.71-7.66V105.27H101.3L72.66,127.61l0,5.63a7.67,7.67,0,0,1,7.71,7.67v77.77a7.66,7.66,0,0,1-7.71,7.66l0,5.64h43.52Z"/><ellipse class="b" cx="92.98" cy="61.55" rx="18.63" ry="18.08" transform="translate(11.85 138.05) rotate(-76.83)"/></svg>