<svg xmlns="http://www.w3.org/2000/svg" xmlns:xlink="http://www.w3.org/1999/xlink" viewBox="0 0 453.41 255.22"><defs><style>.a{fill:none;}.b{clip-path:url(#a);}.c{opacity:0.04;}.d{font-size:17.15px;font-family:SosoSerif-Display, Soso Serif;letter-spacing:0.03em;}.d,.e{fill:#3d0d00;}</style><clipPath id="a"><rect class="a" x="-0.09" width="453.73" height="255.22"/></clipPath></defs><title>header</title><g class="b"><g class="c"><text class="d" transform="translate(10.71 12.27)">Macleay indeed never pretended to a high position in this <tspan x="0" y="30.01">branch of science, his tastes lying in the direction of </tspan><tspan x="0" y="60.02">Entomology; but few of their countrymen knew more of </tspan><tspan x="0" y="90.04">birds than did Swainson and Vigors; and, while the latter, </tspan><tspan x="0" y="120.05">as editor for many years of the Zoological Journal, and the </tspan><tspan x="0" y="150.06">first secretary of the Zoological Society, has especial claims </tspan><tspan x="0" y="180.08">to the regard of all zoologists, so the formers indefatigable </tspan><tspan x="0" y="210.09">pursuit of Natural History, and conscientious labour in its </tspan><tspan x="0" y="240.1">behalf-among other ways by means of his graceful </tspan><tspan x="0" y="270.11">pencil-deserve to be remembered as a set-off against the </tspan></text></g></g><path class="e" d="M273.89,117.4l.21,4.7h-1c-.47-2.28-2.41-5.74-5.64-5.74a3.43,3.43,0,0,0-3.52,3.25c0,2.29,1.34,3,4.06,4.54,4.56,2.65,7.15,4,7.15,7.75s-2.59,6.51-8.29,6.51c-3.16,0-6.28-1.74-6.95-2.75l-.47-5.67h1c.67,2.88,2.42,6.74,6.48,6.74,2.65,0,3.89-1.57,3.89-3.45,0-2.39-2.48-3.66-4.43-4.74-3-1.71-6.88-3.42-6.88-7s3.69-6.48,7.69-6.48A9.42,9.42,0,0,1,273.89,117.4Z"/><path class="e" d="M294.3,130.52a7.68,7.68,0,0,1-7.89,7.93c-4.49,0-7.88-2.76-7.88-7.83a7.72,7.72,0,0,1,7.88-7.78C290.91,122.84,294.3,125.66,294.3,130.52Zm-3.56-.26c-.26-3.26-2.14-6-4.86-5.78s-4,3.26-3.76,6.51,2.21,6,4.83,5.78C289.8,136.53,291,133.54,290.74,130.26Z"/><path class="e" d="M306.82,124.51l.14,3.13h-1c-.34-1.51-1.41-3.63-3.6-3.63a1.84,1.84,0,0,0-2,1.88c0,1,.73,1.71,2.55,2.79,3.05,1.74,4.83,2.88,4.83,5.44,0,2.24-2.18,4.33-5.81,4.33a6.8,6.8,0,0,1-4.63-1.82l-.3-3.79h1c.44,1.91,1.31,4.3,4,4.3a2.09,2.09,0,0,0,2.25-2.12c0-1.17-1.18-2.08-2.45-2.78-2-1.15-4.67-2.59-4.67-5s2.45-4.39,5.14-4.39A6.46,6.46,0,0,1,306.82,124.51Z"/><path class="e" d="M326.19,130.52a7.68,7.68,0,0,1-7.89,7.93c-4.49,0-7.89-2.76-7.89-7.83a7.73,7.73,0,0,1,7.89-7.78C322.8,122.84,326.19,125.66,326.19,130.52Zm-3.56-.26c-.26-3.26-2.14-6-4.86-5.78s-4,3.26-3.76,6.51,2.21,6,4.83,5.78C321.69,136.53,322.9,133.54,322.63,130.26Z"/><path class="e" d="M354.28,117.4l.2,4.7h-1c-.47-2.28-2.42-5.74-5.64-5.74a3.43,3.43,0,0,0-3.53,3.25c0,2.29,1.35,3,4.07,4.54,4.56,2.65,7.15,4,7.15,7.75s-2.59,6.51-8.3,6.51c-3.15,0-6.27-1.74-6.94-2.75l-.47-5.67h1c.67,2.88,2.41,6.74,6.48,6.74,2.65,0,3.89-1.57,3.89-3.45,0-2.39-2.48-3.66-4.43-4.74-3-1.71-6.88-3.42-6.88-7s3.69-6.48,7.68-6.48A9.45,9.45,0,0,1,354.28,117.4Z"/><path class="e" d="M361.57,130.39c.3,3.29,2.22,6.31,5.61,6.31a5.21,5.21,0,0,0,3.76-1.81l.54.7a7.78,7.78,0,0,1-5.68,2.86c-4.29,0-7.45-2.82-7.45-7.86,0-4.6,3.22-7.75,7.15-7.75,3.19,0,6.34,2.45,6.34,7.55Zm6.88-1.18c0-2.38-1.27-4.59-3.32-4.59s-3.59,2-3.59,4.59Z"/><path class="e" d="M383.46,125.72C381.61,124,379.3,127,379.3,129v7a1,1,0,0,0,1,.94v.7h-5.41l0-.7a1,1,0,0,0,.94-.94v-9.64a1,1,0,0,0-.94-.94l0-.7,3.56-2.75h.88v4.26c2.35-3.76,5.33-4.73,6.74-3A1.78,1.78,0,1,1,383.46,125.72Z"/><path class="e" d="M394.6,137.71h-5.4V137a1,1,0,0,0,1-.94v-9.63a1,1,0,0,0-1-.94v-.71l3.56-2.75h.87v14a1,1,0,0,0,1,.94Zm-2.35-23.1a2.26,2.26,0,0,0-2.72,1.71,2.3,2.3,0,0,0,1.68,2.76,2.27,2.27,0,0,0,2.69-1.72A2.25,2.25,0,0,0,392.25,114.61Z"/><path class="e" d="M406.92,114.68c-2.68,0-2.82,5.1-2.82,8.56h4.16V125H404.1l0,11a1,1,0,0,0,1,.94v.7h-5.4V137a1,1,0,0,0,1-.94V125h-3v-.7l1.31-1h1.68v-.84c0-5.67,2.92-9.43,6.45-9.43a4.39,4.39,0,0,1,3,.87c1.35,1,.94,2.72-.43,2.72S408.9,114.68,406.92,114.68Z"/><g class="b"><path class="e" d="M260.17,175.48c-18.08-9.09-39.26-3.78-55.83,10.1V96.68h-6.7l-26.76,20.88v5.27h0a7.16,7.16,0,0,1,7.21,7.16V273.7s23.15,15.05,49.14,15.05c19.7,0,41.27-13.39,52.55-35.95C294.86,222.66,285.81,188.36,260.17,175.48ZM227.1,276c-8.91.06-17.46-3.55-22.76-11.17V196.21c6.08-8,14.85-12.85,23.76-12.68,18.17.33,33,22.46,32.5,48.06S245.69,275.85,227.1,276Z"/><path class="e" d="M60.07,47.85l0,5.47c4.13,0,26.1,2.3,26.1,14.47v39.87c-7.77,6.46-22,10.23-33.1,10.23C16.29,117.89-8,88-11.59,44.07S5.13-42.22,49.83-42.22c30.32,0,46.54,23.7,52.37,40.1h7.2L107.87-39C97.41-46.2,71.21-53.4,50.35-53.4c-47.82,0-97.8,32-97.8,92,0,54.25,35.87,92,100.19,92,17.48,0,48.28-7.72,62.82-20.28V60.76c0-4.13,9.18-7.46,13.31-7.44l0-5.47Z"/><path class="e" d="M140.38,290.7c-4.63-21.18-24.84-28.31-64.47-28.31-25.92,0-36.07-6.27-21.59-18.68,6.39,2.5,15.89,3.76,23.39,3.76,24.74,0,49.22-16.73,49.22-41.64,0-11.22-3.57-19.53-9.05-25.61h19.05V167.11H93.74a72.35,72.35,0,0,0-16-1.79c-23.77,0-49.22,16.38-49.22,41.07,0,16.7,8.63,28.21,20.3,34.71-19.28,12.48-24.8,35.18,2.35,44.76-35.72,17.39-43.66,58.55,24.32,58.55C114.94,344.41,147,320.94,140.38,290.7ZM74.86,177c13.42-1.12,23.84,11.66,25.22,27.81s-5.82,30.2-19.92,31.3c-12.94,1-23.85-11.51-25.23-27.65S60.7,178.14,74.86,177Zm.41,156.89c-36.11,0-32.73-31-15.56-45.69a75,75,0,0,0,17.93,1.69c28.87,0,42.05,1,45.49,12.56C126.72,314.51,116,333.86,75.27,333.86Z"/><path class="e" d="M409.15,75.18c-36.13,6.67-64.4-13.75-75.83-41.72C375.18,24,405-11.44,405-57.24c0-57.4-41.52-90.81-94.6-90.81-51.32,0-94.59,38.7-94.59,92,0,52.25,31.76,83.6,75.47,90.55,12.77,38.29,74.24,59.66,118.08,47.15ZM251.68-50.58c-3.61-43.9,12.83-84.51,51.84-87.89,37-3.2,62,33.52,65.65,77.43s-13,84.29-51.81,87.48C281.73,29.36,255.29-6.67,251.68-50.58Z"/><path class="e" d="M523.84,167h-162l-1.7,44.9h7.2c3.79-12.32,13.65-35.21,45.51-35.21h14.9V331.74c0,4.13-9.18,7.46-13.31,7.44l0,5.47h56.85l0-5.47c-4.13,0-13.31-3.31-13.31-7.44V176.67h14.9c31.86,0,41.72,22.89,45.51,35.21h7.2Z"/></g></svg>