<svg xmlns="http://www.w3.org/2000/svg" viewBox="0 0 841.89 595.28"><defs><style>.a{fill:#040000;}</style></defs><title>header</title><path class="a" d="M570.92-20.38c-58,0-105.07,45-105.07,104,0,67.35,44.9,104,105.07,104C631.3,187.55,676,141.15,676,82.22,676,17.37,630.88-20.38,570.92-20.38Zm0,184.39c-34.95,0-57.67-36.76-57.67-80.42S536,3.17,570.92,3.17c36.28,0,57.67,36.76,57.67,80.42S606.44,164,570.92,164Z"/><path class="a" d="M272.19,435a13.54,13.54,0,0,1-13.61-13.53V121.67H246L195.4,161.1l0,10A13.52,13.52,0,0,1,209,184.58v84.93c-52.4-20.51-111.49.85-142.25,61.63-29,57.35-12.6,119.55,36.31,144.13,33.89,17,72.3,6.27,105.94-21.71v30.86h12.62L272.22,445ZM163.32,459c-34.66-.89-61.74-41.21-60.47-90.05,1.4-54.1,32.81-83.91,65-83.91,16.15,0,29.31,6.87,41.21,19.41V436.67C197.55,450.5,179.48,459.41,163.32,459ZM209,484.42"/><path class="a" d="M657.18,378.4C624.42,337,549.11,343.45,476.54,446.69V344.08H453.91L363.23,414.8l.06,17.85a24.26,24.26,0,0,1,24.4,24.27V703.18a24.25,24.25,0,0,1-24.4,24.25l-.06,17.85H501L501,727.43a24.26,24.26,0,0,1-24.41-24.26V516.92c0-50.69,72.27-127,119.8-82.2C641.9,477.71,689,418.6,657.18,378.4Z"/></svg>