<svg xmlns="http://www.w3.org/2000/svg" viewBox="0 0 109.72 163.47"><title>letter-S</title><path d="M100.85,16.65l1.41,32.84H95.45c-3.28-16-16.88-40.11-39.4-40.11-15.48,0-24.62,12.43-24.62,22.75,0,15.95,9.38,20.87,28.38,31.66,31.89,18.53,50,27.91,50,54.18,0,26-18.06,45.5-57.93,45.5-22,0-43.86-12.2-48.55-19.23L0,104.6H7.27c4.69,20.17,16.89,47.14,45.27,47.14,18.52,0,27.2-11,27.2-24.15,0-16.65-17.35-25.57-31-33.07C27.67,82.56.7,70.59.7,45.27.7,19.23,26.5,0,54.41,0,77.86,0,94.52,9.85,100.85,16.65Z"/></svg>