<svg xmlns="http://www.w3.org/2000/svg" viewBox="0 0 220.1 362.74"><defs><style>.a{fill:#040000;}</style></defs><title>letter</title><path class="a" d="M219.76,313.36a13.52,13.52,0,0,1-13.61-13.52V0H193.53L143,39.43l0,10a13.52,13.52,0,0,1,13.61,13.53v84.92c-52.39-20.51-111.48.86-142.24,61.63C-14.67,266.81,1.76,329,50.67,353.6c33.89,17,72.3,6.27,105.94-21.72v30.86h12.62l50.56-39.42Zm-108.87,24c-34.66-.9-61.74-41.22-60.47-90.06,1.4-54.1,32.81-83.9,65-83.9,16.15,0,29.31,6.87,41.21,19.4V315C145.12,328.83,127,337.74,110.89,337.32Zm45.72,25.42"/></svg>