<svg xmlns="http://www.w3.org/2000/svg" viewBox="0 0 453.62 255.07"><defs><style>.a{fill:#3d0d00;}</style></defs><title>character</title><path class="a" d="M18,35,16.1,30.27H6.79L4.68,35.21a2.14,2.14,0,0,0,2.07,3V39H0l0-.8c.87,0,2.19-1.17,3-3.13L12.56,12.7h1.21L23.3,35.62c.61,1.4,1.36,2.6,2.72,2.6V39H16.07v-.8A2.23,2.23,0,0,0,18,35Zm-2.72-6.71L11.54,19,7.62,28.27Z"/><path class="a" d="M53.36,31.85C53.36,36.56,49,39,43.44,39H32.81v-.8c.56,0,1.88-.49,1.88-1V15.38c0-.61-1.32-1.06-1.88-1.06v-.79H43.14c5.73,0,8.63,2.52,8.63,6.22a5.81,5.81,0,0,1-4,5.58C51.51,26.27,53.36,28.91,53.36,31.85ZM39,24.73h2.41c2.87,0,6-1.21,6-5,0-2.72-1.85-4.83-5.28-4.83H39Zm10,7.12a5.27,5.27,0,0,0-5.24-5.5H39v11h4C45.89,37.39,49,35.62,49,31.85Z"/><path class="a" d="M83,31.93c-.11.64-1.13,5.24-1.32,5.8a14.92,14.92,0,0,1-7.5,2.11c-9.24,0-14.4-5.39-14.4-13.19,0-8.64,7.16-13.2,14-13.2,3,0,6.79,1,8.3,2.08l.23,5.27H81.26C80.39,18.47,78.09,15,73.72,15c-6.37,0-9.31,6.1-8.79,12.4s4,10.6,9.28,10.6c4.18,0,6.67-3.32,7.8-6.11Z"/><path class="a" d="M114.93,26.35c0,8.48-7.31,12.67-14.63,12.67H90.16v-.8c.57,0,1.89-.49,1.89-1V15.38c0-.61-1.32-1.1-1.89-1.1v-.75H99.7C106.34,13.53,114.93,16.62,114.93,26.35Zm-5.12-.12c0-8.55-6.23-11.31-11-11.31H96.38V37.39h3.47C104.6,37.39,109.81,34.45,109.81,26.23Z"/><path class="a" d="M141.71,32.45s-.42,2-1.59,6.57h-18.4v-.8c.61,0,1.93-.52,1.93-1.47V15.38c0-.61-1.32-1.1-1.93-1.1v-.75h18L140,20H139a6.21,6.21,0,0,0-6.52-5H128v9.84h5.54c.34,0,1.29-.52,1.4-2.56h1v7h-1c-.11-1.84-1-2.52-1.4-2.52H128V35c0,2.52,2.6,2.26,6.22,2.26a6.29,6.29,0,0,0,6.49-4.83Z"/><path class="a" d="M167.23,20h-1a6.19,6.19,0,0,0-6.53-5h-4.56v10h5.58c.3,0,1.25-.53,1.36-2.57h1v7h-1c-.11-1.85-1-2.53-1.36-2.53h-5.58V37.17c0,.56,1.32,1,1.89,1V39h-8.11v-.8c.57,0,1.89-.49,1.89-1V15.38c0-.61-1.32-1.1-1.89-1.1v-.75H167Z"/><path class="a" d="M198.94,28v.79c-.6,0-1.92.45-1.92,1.06v7.12c-2.07,1.77-6.48,2.9-9,2.9-9.2,0-14.37-5.42-14.37-13.19,0-8.6,7.17-13.2,14-13.2,3,0,6.75,1,8.26,2.08l.22,5.27H195.1C194.27,18.47,192,15,187.6,15c-6.41,0-9.32,6.1-8.79,12.4s4,10.56,9.28,10.56a8.18,8.18,0,0,0,4.75-1.47v-5.7c0-1.73-3.17-2.07-3.77-2.07V28Z"/><path class="a" d="M230.2,38.22l0,.8h-8.18v-.8c.6,0,1.92-.49,1.92-1V26.5H212.33V37.17c0,.56,1.36,1,2,1V39h-8.18v-.8c.61,0,1.93-.49,1.93-1V15.38c0-.61-1.32-1.1-1.93-1.1v-.75h8.18v.75c-.6,0-2,.49-2,1.1v9.19H224V15.38c0-.61-1.32-1.1-1.92-1.1v-.75h8.18l0,.75c-.6,0-1.92.49-1.92,1.1V37.17C228.28,37.73,229.6,38.22,230.2,38.22Z"/><path class="a" d="M246.53,38.22V39h-8v-.8c.57,0,1.89-.49,1.89-1V15.38c0-.57-1.32-1.1-1.89-1.1v-.75h8v.75c-.56,0-1.88.49-1.88,1.1V37.17C244.65,37.73,246,38.22,246.53,38.22Z"/><path class="a" d="M253.93,46.18l-.23-.83c3-1.7,5.73-4.83,5.73-10.26V15.38c0-.61-1.32-1.06-1.92-1.06v-.79h8v.79c-.57,0-1.89.45-1.89,1.06V35.09C263.65,41.5,257.05,45.54,253.93,46.18Z"/><path class="a" d="M296.53,38.22V39h-9.65v-.8c1.09,0,1.66-1.13.87-2.15l-7.69-9.61-1.21,1.06v9.65c0,.56,1.32,1,1.88,1V39h-8v-.8c.61,0,1.93-.49,1.93-1V15.38c0-.57-1.32-1.06-1.93-1.06v-.79h8v.79c-.56,0-1.88.45-1.88,1.06V25.82l9.76-8.64c1.55-1.39.91-2.86-.9-2.86v-.79h8.07v.79c-1.77,0-2.45.53-4.11,2l-8.15,7.13,10.07,12.74C294.42,37.17,295.21,38.22,296.53,38.22Z"/><path class="a" d="M322.59,32.34S322.17,34.49,321,39H302.94v-.8c.57,0,1.89-.52,1.89-1.47V15.38c0-.61-1.32-1.06-1.89-1.06v-.79h8.15v.79c-.6,0-1.92.45-1.92,1.06v19c0,2.52,2.3,3,5.88,3a6.42,6.42,0,0,0,6.52-5Z"/><path class="a" d="M360.18,38.22V39h-8v-.8c.57,0,1.88-.49,1.88-1.09V17.52L344.69,39H343L333.34,17.6V36.45c0,1.25,2,1.77,2.6,1.77V39H329v-.8c.6,0,2.75-.49,2.75-1V15.3a4.1,4.1,0,0,0-2.15-1v-.79h7l8.71,20,8.74-20h6.11v.79c-.6,0-1.92.45-1.92,1.06V37.13C358.26,37.73,359.58,38.22,360.18,38.22Z"/><path class="a" d="M393,13.53v.83c-.61,0-2.72.45-2.72,1.05v24h-1.62L371.69,18V36.49c0,1.21,2,1.73,2.6,1.73V39h-6.94v-.8c.6,0,2.75-.45,2.75-1V16.62c0-.94-2.15-2.26-2.75-2.26v-.83h7.5l13.84,17.61v-15c0-1.2-2-1.73-2.6-1.73v-.83Z"/><path class="a" d="M426.92,26.46a13.17,13.17,0,0,1-13.57,13.38c-7.62,0-13.57-4.63-13.57-13.19a13.25,13.25,0,0,1,13.57-13.2C421,13.45,426.92,18.24,426.92,26.46Zm-5.12-.53c-.53-6.29-4.15-11.57-9.43-11.12-5.62.49-8,6.33-7.43,12.63s4.3,11.46,9.43,11.05C419.91,38,422.29,32.23,421.8,25.93Z"/><path class="a" d="M453.62,20.54c0,4.68-4.45,7.39-9.95,7.39H440v9.24c0,.56,1.32,1,1.93,1V39h-8.19v-.8c.61,0,1.93-.49,1.93-1V15.38c0-.61-1.32-1.06-1.93-1.06v-.79H445C450.72,13.53,453.62,16.88,453.62,20.54Zm-4.33,0A5.38,5.38,0,0,0,444,14.92h-4V26.31h3.32A5.78,5.78,0,0,0,449.29,20.54Z"/><path class="a" d="M27.72,112.36c-6.26,1.81-15.09-1.25-16.93-6.75C4.53,104.63,0,100.1,0,92.64a13.22,13.22,0,0,1,13.54-13.2c7.62,0,13.57,4.79,13.57,13a13.06,13.06,0,0,1-10.29,13,9.63,9.63,0,0,0,10.86,6Zm-13.2-7.92c5.58-.45,8-6.22,7.43-12.52s-4.11-11.57-9.39-11.08c-5.58.45-8,6.29-7.43,12.59S9.43,104.85,14.52,104.44Z"/><path class="a" d="M57.16,104.21v.8H51L42.31,93.13H40.77v10c0,.56,1.31,1,1.88,1v.8H34.51v-.8c.6,0,1.92-.49,1.92-1V81.37c0-.61-1.32-1.06-1.92-1.06v-.79H45.33c7.05,0,8.82,3,8.82,6.67s-2.72,5.66-6.67,6.49l7.12,9.65C55.28,103.27,56.07,104.21,57.16,104.21ZM40.77,91.51h3.09c2.86,0,6-1.55,6-5.32a5.3,5.3,0,0,0-5.5-5.28H40.77Z"/><path class="a" d="M80.17,82.23l.22,5.28H79.3C78.77,85,76.59,81.06,73,81.06a3.85,3.85,0,0,0-4,3.66c0,2.56,1.51,3.36,4.56,5.09,5.13,3,8,4.49,8,8.71s-2.9,7.31-9.31,7.31c-3.55,0-7.05-2-7.81-3.09L64,96.37h1.16c.76,3.24,2.72,7.58,7.28,7.58,3,0,4.37-1.77,4.37-3.88,0-2.68-2.79-4.11-5-5.32-3.4-1.92-7.73-3.85-7.73-7.92s4.15-7.27,8.63-7.27A10.67,10.67,0,0,1,80.17,82.23Z"/><path class="a" d="M112.14,86h-1a6.43,6.43,0,0,0-6.53-5h-2.14v22.25c0,.56,1.31,1,1.92,1v.8H96.19v-.8c.61,0,1.89-.49,1.89-1V80.91H96a6.41,6.41,0,0,0-6.52,5H88.39l.26-6.44h23.23Z"/><path class="a" d="M143.82,79.56v.79c-.61,0-2.68.45-2.68,1.05V96.11c0,4.9-2.6,9.72-9.2,9.72s-11.12-3.24-11.12-8.78V81.4c0-.6-1.28-1.05-1.89-1.05v-.79H127v.79c-.6,0-1.92.45-1.92,1.05V97.05a6.66,6.66,0,0,0,6.82,7c4.3,0,7.62-3,7.62-7.92v-14c0-1.2-2-1.73-2.6-1.73v-.79Z"/><path class="a" d="M177.49,79.52v.79c-.91,0-3,1.7-3.58,3l-9.2,22h-1.62L153.66,82.8a5,5,0,0,0-3.43-2.49v-.79H160.9v.79a2.38,2.38,0,0,0-2,3.17l6.64,16.13,6.71-16.32a2.38,2.38,0,0,0-2.08-3v-.79Z"/><path class="a" d="M210,105.35h-1.58l-6-16.26-6,16.26h-1.59L186.54,82.8a4.94,4.94,0,0,0-3.39-2.49v-.79h10.67v.79a2.38,2.38,0,0,0-2,3.17l5.39,16.13,4.41-12.78-1.5-4a4.88,4.88,0,0,0-3.4-2.49v-.79h10.67v.79a2.38,2.38,0,0,0-2,3.17l5.4,16.13,5.65-16.32a2.35,2.35,0,0,0-2.07-3v-.79h7.31v.79c-.9,0-3,1.7-3.54,3Z"/><path class="a" d="M243.25,101.27l-4.6-6.82-5.05,7a1.59,1.59,0,0,0,1.32,2.71v.8h-7.58v-.8c1.62,0,3.7-1.81,4.6-3.13l5.77-8L230,81.67a3.74,3.74,0,0,0-2.68-1.36v-.79h9.5v.79a1.34,1.34,0,0,0-1.13,2.19l4.64,6.86L245,82.8c1-1.32.16-2.49-1.31-2.49v-.79h7.08v.79c-1.81,0-3.46,2-4.26,3.13l-5.24,7.31,8.22,12.18a3.2,3.2,0,0,0,2.53,1.28v.8H242.5v-.8C243.74,104.21,244.35,102.86,243.25,101.27Z"/><path class="a" d="M283,79.52v.79c-1.58,0-3.16,1.66-3.92,3l-6.33,10.3v9.5c0,.56,1.32,1,1.88,1l0,.8h-8.07v-.8c.6,0,1.92-.49,1.92-1v-9h0l-7.5-11.38c-.87-1.25-1.85-2.49-3.39-2.49v-.79h10.78v.79a2.29,2.29,0,0,0-2,3.17L272,92.26l5.4-9c.79-1.36-.61-2.94-2.08-2.94v-.79Z"/><path class="a" d="M312.48,98.44s-.38,2-1.58,6.57H289.07v-.8l16.06-23.3h-6.86a6.41,6.41,0,0,0-6.52,5h-1l.22-6.44h20.7v.79l-15.61,23H305a6.18,6.18,0,0,0,6.45-4.83Z"/><path class="a" d="M337,102.55c-.37.8-1.88,3.32-3.77,3.32a3.47,3.47,0,0,1-3.2-2.18,7.41,7.41,0,0,1-5.09,2.18c-2.49,0-4.9-1.09-4.9-3.47,0-4.26,6-5.84,9.65-7.16,0-3.17-.12-5.09-2.3-5.09-2.45,0-3.24,1.62-3.24,3.73S320.06,95.47,321,92c.53-2,2.86-3.7,6.82-3.7,4.68,0,5.73,4,5.73,7.13l0,6.33c0,2.79,2.07,1.28,2.82.38Zm-7.24.08a7,7,0,0,1-.07-.83V96.52c-2.41,1-6.15,2.19-6.15,4.68a2.76,2.76,0,0,0,3,2.71A3.6,3.6,0,0,0,329.75,102.63Z"/><path class="a" d="M359.62,100.48a9.17,9.17,0,0,1-7.81,5.35,15.06,15.06,0,0,1-7.31-2.26V82.19a1.06,1.06,0,0,0-1.09-1v-.79l4-3.13h1V90.45c2.49-2,5.62-2.83,8.33-1.51C360.52,90.87,361.88,96,359.62,100.48Zm-2.87-3.17c.08-3.8-2.11-7.08-4.82-7.16A4.62,4.62,0,0,0,348.38,92v10.21a4.06,4.06,0,0,0,3.4,1.66C354.57,103.91,356.71,101.12,356.75,97.31Z"/><path class="a" d="M379.57,92.94a4,4,0,0,0-3.4-2.68c-2.9,0-5.28,2-5.28,6.15s2.64,7.5,6.34,7.5a5.88,5.88,0,0,0,4.22-2l.6.79a8.75,8.75,0,0,1-6.37,3.2c-4.82,0-8.56-3.16-8.56-8.82a8.74,8.74,0,0,1,8.94-8.71c2.6,0,4.67,1,5.5,2.26C383,92.83,380.13,94.3,379.57,92.94Z"/><path class="a" d="M406.19,102.71l-4,3.12h-1v-2.45c-2.68,2.23-5.69,3.06-8.37,1.7-3.85-1.92-5.13-6.82-2.87-11.35,2.42-4.79,7.09-6.45,11.2-4.86l0-6.68a1.06,1.06,0,0,0-1.09-1v-.79l4-3.13h1v23.64a1.05,1.05,0,0,0,1.06,1Zm-5-.65V91.62a4.4,4.4,0,0,0-3.28-1.51c-2.53,0-5,2.34-5.09,6.6-.11,3.85,2,7.05,4.75,7.09A4.79,4.79,0,0,0,401.21,102.06Z"/><path class="a" d="M416.59,96.82c.34,3.7,2.49,7.09,6.3,7.09a5.86,5.86,0,0,0,4.22-2l.61.79a8.75,8.75,0,0,1-6.37,3.2c-4.83,0-8.38-3.16-8.38-8.82,0-5.17,3.62-8.71,8-8.71,3.58,0,7.12,2.75,7.12,8.48Zm7.73-1.32c0-2.67-1.43-5.16-3.73-5.16s-4,2.3-4,5.16Z"/><path class="a" d="M445.74,79.18c-3,0-3.17,5.73-3.17,9.61h4.68v2h-4.68l0,12.41a1.08,1.08,0,0,0,1.09,1v.8h-6.07v-.8a1.08,1.08,0,0,0,1.09-1V90.75H435.3V90l1.47-1.17h1.88v-.94c0-6.37,3.28-10.59,7.24-10.59a4.89,4.89,0,0,1,3.36,1c1.51,1.16,1.05,3.05-.49,3.05S448,79.18,445.74,79.18Z"/><path class="a" d="M12.33,169.71c-2.67,2.23-5.69,2.72-8.37,1.36-4-2-5-6.94-2.79-11.46,2.49-5,8.49-6.53,12.33-4.34l1.74-1.36h1v25.15a1.09,1.09,0,0,0,1.09,1.1v.75H11.24v-.75a1.09,1.09,0,0,0,1.09-1.1Zm0-11.87A4.07,4.07,0,0,0,9,156.25c-2.72,0-5.17,2.91-5.06,7.2.08,3.06,2,6.34,4.9,6.34a4.32,4.32,0,0,0,3.47-1.66Z"/><path class="a" d="M36.8,160.29c0-4-2.48-6.87-7.35-2.79v11.65a1.09,1.09,0,0,0,1.1,1V171H24.48v-.79a1.08,1.08,0,0,0,1.09-1v-21a1.06,1.06,0,0,0-1.09-1.05v-.79l4-3.09h1v13.23c5.66-5.24,11.28-1.77,11.28,3v9.69a1,1,0,0,0,1.05,1V171h-6v-.79a1.08,1.08,0,0,0,1-1Z"/><path class="a" d="M55.4,171H49.32v-.79a1.09,1.09,0,0,0,1.1-1.06V158.36a1.09,1.09,0,0,0-1.1-1.05v-.79l4-3.1h1v15.76a1.09,1.09,0,0,0,1.1,1.06Zm-2.64-25.94A2.54,2.54,0,0,0,49.7,147a2.58,2.58,0,0,0,1.89,3.09,2.58,2.58,0,0,0,1.17-5Z"/><path class="a" d="M68.1,153.42h1V171c0,5.58-5.8,9.92-8.18,9.92l-.23-.79c2.68-1.43,4.53-4.38,4.53-9.13V158.36a1.08,1.08,0,0,0-1.09-1.05v-.79Zm1.28-5.27a2.59,2.59,0,0,1-3,2A2.54,2.54,0,0,1,64.48,147a2.57,2.57,0,0,1,3.06-2A2.53,2.53,0,0,1,69.38,148.15Z"/><path class="a" d="M94,170.28V171H85.75v-.71a1.22,1.22,0,0,0,.75-2.15L82.92,163l-1.39,1.24v4.94a1.07,1.07,0,0,0,1,1.06V171H76.62v-.71a1,1,0,0,0,1-1.06l0-21a1,1,0,0,0-1-1.05v-.79l3.89-3.09h1v19.22l5.35-4.63c1-1.06.72-2.27-.75-2.27v-.79h6.93v.76c-.9,0-1.88.3-3.73,1.84l-3.62,3.17,5.66,8C92.08,169.37,93,170.28,94,170.28Z"/><path class="a" d="M106.83,171h-6v-.79a1.05,1.05,0,0,0,1.06-1v-21a1,1,0,0,0-1.06-1.05v-.79l4-3.09h1v25.9a1.08,1.08,0,0,0,1.06,1Z"/><path class="a" d="M136.46,169.15v-8.86c0-3.89-1.54-6.22-6.9-2.11a6.85,6.85,0,0,1,.12,1.28v9.69a1,1,0,0,0,1,1V171h-6v-.79a1.06,1.06,0,0,0,1.06-1v-8.86c0-3.85-1.55-6.19-6.79-2.19v11.05a1.08,1.08,0,0,0,1,1V171h-6v-.79a1.09,1.09,0,0,0,1.1-1V158.33a1.06,1.06,0,0,0-1.1-1.06v-.79l4-3.09h1v3.54c5.8-4.9,9.35-3.13,10.37.26,7.24-6.29,11-2.45,11,2.27v9.69a1.08,1.08,0,0,0,1.09,1V171h-6.07v-.79A1.08,1.08,0,0,0,136.46,169.15Z"/><path class="a" d="M160.94,160.29c0-4-1.66-6.9-7.35-2.34v11.2a1.08,1.08,0,0,0,1.09,1V171h-6.07v-.79a1.08,1.08,0,0,0,1.09-1V158.33a1.06,1.06,0,0,0-1.09-1.06v-.79l4-3.09h1V157c6.52-5.88,11.27-2.26,11.27,2.49v9.69a1,1,0,0,0,1,1V171h-6v-.79a1.08,1.08,0,0,0,1.06-1Z"/><path class="a" d="M190.42,163a8.63,8.63,0,0,1-8.86,8.9c-5.05,0-8.86-3.09-8.86-8.78a8.68,8.68,0,0,1,8.86-8.75C186.62,154.33,190.42,157.5,190.42,163Zm-4-.3c-.3-3.66-2.42-6.75-5.47-6.48-3.21.26-4.52,3.65-4.22,7.31s2.49,6.71,5.43,6.49C185.37,169.71,186.73,166.36,186.43,162.66Z"/><path class="a" d="M213.39,166.7c-2,3.73-6.86,6.78-11.2,4.07v8.29a1.09,1.09,0,0,0,1.09,1.1v.75h-6.07v-.75a1.1,1.1,0,0,0,1.1-1.1V158.85a1.09,1.09,0,0,0-1.1-1V157l4-3.1h1v2.79c2.6-2.41,5.66-3,8.33-1.73C214.37,156.89,215.76,162.21,213.39,166.7ZM210.56,163c.11-3.73-1.92-6.9-4.64-6.9a5,5,0,0,0-3.73,1.77l0,9.84a3.69,3.69,0,0,0,3.39,2C208,169.75,210.41,167.15,210.56,163Z"/><path class="a" d="M233.3,169.71c-2.68,2.23-5.69,2.72-8.37,1.36-4-2-5.05-6.94-2.79-11.46,2.49-5,8.48-6.53,12.33-4.34l1.73-1.36h1v25.15a1.1,1.1,0,0,0,1.1,1.1v.75h-6.07v-.75a1.09,1.09,0,0,0,1.09-1.1Zm0-11.87a4.09,4.09,0,0,0-3.32-1.59c-2.71,0-5.16,2.91-5,7.2.07,3.06,2,6.34,4.9,6.34a4.35,4.35,0,0,0,3.47-1.66Z"/><path class="a" d="M255.09,157.57c-2.07-2-4.67,1.47-4.67,3.7v7.88a1.08,1.08,0,0,0,1.09,1V171h-6.07l0-.79a1.08,1.08,0,0,0,1.06-1V158.33a1.05,1.05,0,0,0-1.06-1.06l0-.79,4-3.09h1v4.79c2.64-4.23,6-5.32,7.58-3.36A2,2,0,1,1,255.09,157.57Z"/><path class="a" d="M276,156.21l.15,3.51H275c-.38-1.7-1.58-4.07-4-4.07a2.07,2.07,0,0,0-2.3,2.11c0,1.09.83,1.92,2.86,3.13,3.43,2,5.43,3.24,5.43,6.11,0,2.52-2.45,4.86-6.52,4.86a7.63,7.63,0,0,1-5.2-2l-.34-4.27H266c.49,2.15,1.47,4.83,4.52,4.83a2.34,2.34,0,0,0,2.53-2.38c0-1.31-1.32-2.33-2.75-3.12-2.26-1.29-5.24-2.91-5.24-5.62s2.75-4.94,5.77-4.94A7.28,7.28,0,0,1,276,156.21Z"/><path class="a" d="M296,169.41c-4,4.41-9.2,2.34-9.2-2.94v-9.73h-3.36V156l1.51-1.17h1.85v-3.05l2.94-2.26h1v5.31h4.56v2h-4.56v10.18c0,2.72,2.19,4.23,4.68,1.81Z"/><path class="a" d="M307.7,165.41c0,3.92,3.43,6.41,7.31,2.57V156.63a1,1,0,0,0-1.06-1.06v-.79h4.94V167a1.08,1.08,0,0,0,1.06,1.05v.76L316,171.9h-1v-2.64c-5.5,5.17-11.2,1.66-11.2-3v-9.58a1.06,1.06,0,0,0-1.05-1.06v-.79h4.94Z"/><path class="a" d="M343.67,154.78l0,.79a3,3,0,0,0-2,1.74l-6.14,14.59h-1l-6.26-15a2.78,2.78,0,0,0-2.22-1.36v-.79h7.69v.79a1.26,1.26,0,0,0-1.32,1.7l4,9.61,4-9.65a1.34,1.34,0,0,0-1.36-1.66v-.79Z"/><path class="a" d="M375.72,154.78v.79a3,3,0,0,0-2,1.74L367.8,171.9h-1.05l-4.26-10.56-4.27,10.56h-1l-6-15a2.77,2.77,0,0,0-2.22-1.36v-.79h7.69v.79a1.26,1.26,0,0,0-1.32,1.7l3.73,9.61,2.79-7.2-1.13-2.75a2.77,2.77,0,0,0-2.22-1.36v-.79h7.69v.79a1.26,1.26,0,0,0-1.32,1.7l3.73,9.61,3.74-9.65a1.34,1.34,0,0,0-1.36-1.66v-.79Z"/><path class="a" d="M391.07,168.35l-2.45-3.58-3.06,3.74c-.68.79.31,1.73,1.29,1.73V171H381v-.75c1.32,0,2.53-1.21,3.47-2.26l3.47-4.15-4.75-7a2.36,2.36,0,0,0-2.15-1.28v-.76h8.44v.79c-1,0-2,.68-1.28,1.78l2.34,3.39,2.83-3.39c.64-.83-.3-1.78-1.25-1.78v-.75H398v.75a4,4,0,0,0-3.21,1.78l-3.58,4.29,5,7.2c.79,1,1,1.36,2.11,1.36V171h-8.45v-.79C390.8,170.2,391.9,169.52,391.07,168.35Z"/><path class="a" d="M422,154.78v.76c-1.25,0-2.19,1.32-2.53,2.22l-7.81,19.12c-1.54,3.92-5.31,5-6.74,3s1.62-4.22,2.86-2.18c.76,1.05,2.19.64,3.05-1.66l1.85-4.71-6.59-14.41a2.87,2.87,0,0,0-2.19-1.35v-.76h7.61v.76a1.27,1.27,0,0,0-1.28,1.69l4.34,9.2,3.69-9.27c.3-.68-.41-1.62-1.43-1.62v-.76Z"/><path class="a" d="M443.29,165.49S443,167.22,442,171H428.06v-.75L437.68,156h-2.87a5.42,5.42,0,0,0-5.47,4.22h-.86l.22-5.39h14.14v.79l-9.31,14H437a5.28,5.28,0,0,0,5.47-4.07Z"/><path class="a" d="M11.31,237h-9v-.9c.56,0,2.48-.68,2.48-1.51V219.15c0-1.36-.83-1.77-2.26-1.77v-.79L8,212.33h1v22.24c0,.94,1.77,1.51,2.37,1.51Z"/><path class="a" d="M37.78,230.35s-.45,2.15-1.62,6.63H19.61v-.79c4.15-3.84,11.61-10,11.61-15.61,0-3.58-2.52-5.54-4.93-5.54a6.26,6.26,0,0,0-5.47,3.66l-.72-.49c1.4-3.21,4-6.3,8.37-6.3,3,0,7.47,1.66,7.47,7.47,0,4.75-6.22,10.44-10.67,14H33a3.94,3.94,0,0,0,3.7-3Z"/><path class="a" d="M51.25,237.77a9.64,9.64,0,0,1-5.73-1.84c-2.53-2.23.64-5.17,2-2.94.61.94,1.25,2.64,3.55,2.64s4.11-1.36,4.94-4.91-1.63-6.82-6.23-6.44l-.15-.64a18.73,18.73,0,0,0,2.08-.91c1.66-.87,3.5-2.37,3.5-4.41,0-2.9-2.33-4.19-4.56-4.19a5.6,5.6,0,0,0-4.37,2.72l-.57-.49c1.51-2.53,3.66-4.49,6.83-4.49,3.73,0,7,2.19,7,5.88,0,2.49-1.89,4.08-4,5.06C64.9,226.39,60.67,237.77,51.25,237.77Z"/><path class="a" d="M81.53,230.65v3.92c0,.94,1.77,1.55,2.33,1.51v.9h-9v-.9c.61,0,2.49-.68,2.49-1.51v-3.92H67.58V228l11.19-15.64h2.76v14.93h3.39v3.39Zm-4.23-3.39v-10l-7.12,10Z"/><path class="a" d="M108,229.18c0,2.86-2.19,8.63-9.58,8.63a9.42,9.42,0,0,1-5.73-1.88c-2.52-2.23.64-5.09,2-2.91.64.95,1.24,2.61,3.54,2.61,3.51,0,5-2.83,5-5.85s-1.39-7.16-9.16-5.09l3-12.4h12.1l-1.36,4.37H97.44l-1.36,5.28C103,219.53,108,223.11,108,229.18Z"/><path class="a" d="M133.83,229.07a8.61,8.61,0,0,1-8.71,8.74c-5.32,0-9.47-2.64-9.47-11.08,0-7,8.26-14.44,16-14.82L132,213c-4,.87-8.71,4.75-10.52,10.14A7.43,7.43,0,0,1,133.83,229.07Zm-4.64.33c0-5.46-5-8.14-8.26-4a12.06,12.06,0,0,0-.23,2.34c0,4.6,1.4,8.37,4.49,8.37C127.76,236.08,129.19,233,129.19,229.4Z"/><path class="a" d="M158.45,212.33l-11,24.43-4.6.68,10.93-21.16h-9.16a3.26,3.26,0,0,0-3.36,2.68h-1s.45-2.15,1.62-6.63Z"/><path class="a" d="M181,231c0,4.56-4.42,6.74-8.6,6.74s-7.58-2.48-7.58-5.61a7.56,7.56,0,0,1,5.28-6.68c-2-1.47-4.79-3.92-4.79-7,0-4.15,2.83-6.64,7.28-6.64,2.45,0,7.73.68,7.73,5.85,0,2.75-2.38,4.37-5.13,5.54C178.24,225.45,181,227.78,181,231Zm-4.64,1.09c0-2.64-3.62-4.94-4.68-5.58l-.11-.08c-3.36,3.43-3.47,9.58.94,9.58A4,4,0,0,0,176.4,232.12Zm-7-15.69c0,2.53,2.08,4.19,4,5.58l.34.19c4.44-4,2.45-8.82-1-8.82C170.4,213.38,169.42,214.78,169.42,216.43Z"/><path class="a" d="M206,223c0,7-8.26,14.44-16,14.85l-.34-1.17c4-.86,8.71-4.75,10.52-10.14a7.43,7.43,0,0,1-12.37-5.88,8.58,8.58,0,0,1,8.68-8.71C201.85,211.91,206,214.55,206,223Zm-5.28,1.39a12.63,12.63,0,0,0,.19-2.37c0-4.6-1.36-8.37-4.45-8.37-2.57,0-4,3-4,6.67C192.46,225.75,197.44,228.42,200.72,224.35Z"/><path class="a" d="M231,224.69c0,7.58-3,13.12-8.53,13.12-5.24,0-8.55-4.56-8.55-13,0-7.5,3.16-12.93,8.55-12.93C227.53,211.91,231,216.62,231,224.69Zm-4.83-.3c0-5.43-1.13-10.75-3.77-10.75s-3.66,5.47-3.66,10.9c0,5.73,1.13,11.5,3.81,11.5S226.21,229.78,226.21,224.39Z"/><path class="a" d="M246.12,213.12a22.83,22.83,0,0,1-.41,2.82c-.68,4.23-1.32,8.41-1.89,12.9-.08.45-1.73.49-1.81,0-.68-4.49-1-8.71-1.88-12.9a13,13,0,0,1-.42-2.82c0-1,.68-1.7,3.21-1.7S246.12,212.17,246.12,213.12ZM240,234.76a3,3,0,1,1,2.94,3.05A2.9,2.9,0,0,1,240,234.76Z"/><path class="a" d="M262.26,229.07a9.18,9.18,0,0,1,1.43-6,9.48,9.48,0,0,0,1.59-5.58c0-3.28-1.51-4.83-3.28-4.83a2.68,2.68,0,0,0-1.7.57,1,1,0,0,0-.49.83,2.19,2.19,0,0,0,.34.94,5.21,5.21,0,0,1,.79,2.45,2.13,2.13,0,0,1-2.19,2.15A2.47,2.47,0,0,1,256.3,217c0-2.94,2.68-5.54,7.24-5.54,4.83,0,7.39,2.64,7.39,5.88,0,2.38-1,4.22-4.71,6.64-2.49,1.62-3,2.49-3.17,5.13Zm3.58,5.73a3,3,0,0,1-3,3,3,3,0,0,1,0-6A3,3,0,0,1,265.84,234.8Z"/><path class="a" d="M288,236.34v3.28h-1.81v-3.24c-3-.15-5.85-1.81-6.49-2.75l-.45-5.7h1c.64,2.76,2.26,6.38,5.92,6.71v-8.18c-3-1.66-6.83-3.39-6.83-7,0-3.47,3.17-6.11,6.83-6.45v-2.79H288V213a9.36,9.36,0,0,1,5.65,2.38l.23,4.67h-1c-.46-2.07-2.11-5.16-4.9-5.65v7.8c4.44,2.6,6.93,3.92,6.93,7.66C294.91,233.29,292.76,235.93,288,236.34Zm-1.81-15.15v-6.72a3.4,3.4,0,0,0-2.45,3.1C283.72,219.34,284.54,220.17,286.17,221.19Zm4.44,10c0-1.65-1.24-2.79-2.63-3.69v7A3.24,3.24,0,0,0,290.61,231.21Z"/><path class="a" d="M301.33,212.85h10.21v.76a2.14,2.14,0,0,0-1.88,3l4.18,8.33,4-8.52a2.07,2.07,0,0,0-2-2.79v-.76h7.28v.76c-1.51,0-3,1.58-3.73,2.9l-4.53,9.12h4.07v1.81h-4.37v2.15h4.37v1.81h-4.37v3.85c0,.53,1.24,1,1.77,1l0,.75h-7.65v-.75c.56,0,1.84-.45,1.84-1V231.4h-5.2v-1.81h5.2v-2.15h-5.2v-1.81H310l-5.43-9.69a3.91,3.91,0,0,0-3.2-2.33Z"/><path class="a" d="M342.76,222.39,341.63,227h3.17l-.49,3.09h-3.39l-1.55,6.38h-1.85l1.55-6.38h-3.66l-1.51,6.38H332l1.51-6.38h-3.62l.41-3.09h4l1.09-4.56H332l.38-3.09h3.73l1.32-5.47h1.92L338,219.3h3.62l1.32-5.47h1.85l-1.32,5.47h3.28l-.41,3.09ZM336.17,227h3.65l1.1-4.56H337.3Z"/><path class="a" d="M366.41,219.6c0,2.87-1.7,6.64-5.88,6.64s-5.85-3.77-5.85-6.6,1.77-6.6,5.85-6.6S366.41,216.77,366.41,219.6Zm-8,0c0,1.85.45,5.32,2.22,5.32s2.11-3.54,2.11-5.28-.3-5.2-2.11-5.2S358.38,217.79,358.38,219.56Zm.6,17.84,15.42-24.92,1.4,1-15.43,25Zm21.49-6.56c0,2.86-1.66,6.6-5.84,6.6s-5.89-3.74-5.89-6.57,1.78-6.63,5.89-6.63S380.47,228,380.47,230.84Zm-8-.08c0,1.85.41,5.32,2.22,5.32s2.12-3.55,2.12-5.28c0-1.89-.34-5.2-2.15-5.2S372.44,228.84,372.44,230.76Z"/><path class="a" d="M409.88,224.73c-1.05,1.32-2,2.75-3.16,4.41a49.52,49.52,0,0,1,6.52,7.92l-.23.45c-3.73,0-6-.87-6.48-1.36s-1.59-1.77-3-3.13c-2.34,3.06-4.75,4.49-7.28,4.49-5.13,0-7.88-3.77-7.88-7s1.93-4.53,5.28-6.86a7.26,7.26,0,0,1-2.53-5.36c0-3.35,3.13-6.29,6.87-6.29s6.41,2.33,6.41,5.46a3.83,3.83,0,0,1-1.62,3.09,27,27,0,0,1-3,2.23c1.09.94,3.24,2.83,5.88,5.28a33.31,33.31,0,0,0,1.85-3.25c.75-1.69.49-2.22-2.08-2.6v-1.28h8.94v1.28A5.29,5.29,0,0,0,409.88,224.73Zm-7.31,7.16c-2.79-2.82-4.71-4.48-7.92-7.27a6.22,6.22,0,0,0-1.58,4.14c0,3.62,2.49,5.32,5,5.32A6.34,6.34,0,0,0,402.57,231.89Zm-7.47-15.12c0,1.85,1,3.13,3.59,5.13a5.91,5.91,0,0,0,1.88-4.64c0-2-1-3.84-2.9-3.84C396.2,213.42,395.1,215,395.1,216.77Z"/></svg>